<?xml version="1.0" encoding="utf-8"?>
<!-- Generator: Adobe Illustrator 25.2.3, SVG Export Plug-In . SVG Version: 6.00 Build 0)  -->
<svg version="1.1" xmlns="http://www.w3.org/2000/svg" xmlns:xlink="http://www.w3.org/1999/xlink" x="0px" y="0px"
	 viewBox="0 0 1191 518" style="enable-background:new 0 0 1191 518;" xml:space="preserve">
<style type="text/css">
	.st0{fill:#808080;}
	.st1{fill:#CCCCCC;}
	.st2{fill:#B3B3B3;}
	.st3{fill:#FFFFFF;}
	.st4{fill:#999999;}
	.st5{clip-path:url(#SVGID_2_);fill:none;stroke:#CCCCCC;stroke-linejoin:round;}
	.st6{fill:#C69C6D;}
	.st7{fill:#CFA98E;}
	.st8{fill:#FFF0AD;}
	.st9{fill:#FFE77F;}
	.st10{fill:#D6BF58;}
	.st11{fill:#666666;}
	.st12{fill:#333333;}
	.st13{fill:#39B54A;}
	.st14{fill:#C1272D;}
	.st15{fill:#4D4D4D;}
	.st16{fill:#EBDCD1;}
	.st17{fill:#C6B4A0;}
	.st18{fill:#8C7B6A;}
	.st19{fill:#A69585;}
	.st20{font-family:'LakesightPersonalUseOnly';}
	.st21{font-size:4.135px;}
	.st22{fill:#A67C52;}
	.st23{fill:#B89E8C;}
	.st24{fill:#B89A7D;}
	.st25{fill:#B3B3B3;stroke:#666666;stroke-miterlimit:10;}
	.st26{fill:#E6E6E6;}
	.st27{fill:#FFB0CD;stroke:#FF95BD;stroke-width:0.5;stroke-miterlimit:10;}
	.st28{fill:#FFCADE;}
	.st29{fill:#FFB0CD;}
	.st30{fill:#BF5C81;}
	.st31{fill:#8C6239;}
	.st32{fill:url(#SVGID_3_);stroke:#FFFFFF;stroke-miterlimit:10;}
	.st33{fill:#754C24;}
	.st34{fill:#FF7BAC;}
	.st35{fill:#CC7D9A;}
	.st36{fill:#8F4561;}
	.st37{fill:#F2F2F2;}
	.st38{opacity:0.61;fill:#FFFFFF;}
	.st39{opacity:0.56;fill:#FFFFFF;}
	.st40{fill:none;stroke:#000000;stroke-width:0.5;stroke-miterlimit:10;}
	.st41{fill:url(#SVGID_4_);stroke:#FFFFFF;stroke-miterlimit:10;}
	.st42{opacity:0.13;fill:#4D4D4D;}
	.st43{fill:url(#SVGID_5_);stroke:#FFFFFF;stroke-miterlimit:10;}
	.st44{fill:#47AD4D;}
	.st45{fill:#C0282E;}
	.st46{fill:url(#SVGID_6_);stroke:#FFFFFF;stroke-miterlimit:10;}
	.st47{fill:#989898;}
	.st48{fill:#B3B3B2;}
	.st49{opacity:0.13;fill:#4E4D4D;}
	.st50{fill:none;}
	.st51{fill:#676767;}
	.st52{font-family:'Impact';}
	.st53{font-size:11px;}
	.st54{letter-spacing:2;}
	.st55{fill:#F1F1F1;}
	.st56{fill:url(#SVGID_7_);stroke:#FFFFFF;stroke-miterlimit:10;}
	.st57{fill:#C59B6C;}
	.st58{fill:#A57C52;}
	.st59{opacity:0.73;fill:#F1F1F1;}
	.st60{fill:#4E4D4D;}
	.st61{opacity:0.73;fill:#F2F2F2;}
	.st62{font-size:5.2046px;}
	.st63{font-size:8px;}
	.st64{font-size:10px;}
	.st65{fill:#FFE5EE;}
</style>
<g id="Ebene_1">
</g>
<g id="Ebene_17">
	<path class="st0" d="M924.6,311.4l16.7-12.2c0.4-0.3,0.9-0.2,1.2,0.2l0,0c0.3,0.4,0.2,0.9-0.2,1.2l-16.7,12.2
		c-0.4,0.3-0.9,0.2-1.2-0.2l0,0C924.2,312.2,924.3,311.7,924.6,311.4z"/>
	<rect x="923.3" y="298.9" class="st1" width="38.7" height="1.7"/>
</g>
<g id="Ebene_2">
	<g>
		<path class="st2" d="M87.9,308.6H25c-6.6,0-12-5.4-12-12v-108c0-6.6,5.4-12,12-12h62.9c6.6,0,12,5.4,12,12v108
			C99.9,303.2,94.5,308.6,87.9,308.6z"/>
	</g>
	<rect x="13" y="274.7" class="st2" width="86.9" height="48.5"/>
	<rect x="23.1" y="298.7" class="st3" width="66.6" height="49.6"/>
	<rect x="20.9" y="190.5" class="st4" width="72.2" height="22.1"/>
	<path class="st4" d="M88.6,203.8H25.4c-2.5,0-4.5-2-4.5-4.5v-9.3c0-2.5,2-4.5,4.5-4.5h63.2c2.5,0,4.5,2,4.5,4.5v9.3
		C93.1,201.8,91.1,203.8,88.6,203.8z"/>
	<rect x="56.4" y="261.2" class="st1" width="2.4" height="12.9"/>
	<g>
		<defs>
			<rect id="SVGID_1_" x="55.9" y="260.6" width="3.5" height="14.1"/>
		</defs>
		<clipPath id="SVGID_2_">
			<use xlink:href="#SVGID_1_"  style="overflow:visible;"/>
		</clipPath>
		<rect x="56.4" y="261.2" class="st5" width="2.4" height="12.9"/>
	</g>
	<rect x="20.9" y="259.4" class="st4" width="72.2" height="22.1"/>
	<path class="st4" d="M88.6,272.7H25.4c-2.5,0-4.5-2-4.5-4.5v-9.3c0-2.5,2-4.5,4.5-4.5h63.2c2.5,0,4.5,2,4.5,4.5v9.3
		C93.1,270.6,91.1,272.7,88.6,272.7z"/>
	<rect x="20.9" y="224.4" class="st4" width="72.2" height="22.1"/>
	<path class="st4" d="M88.6,237.7H25.4c-2.5,0-4.5-2-4.5-4.5v-9.3c0-2.5,2-4.5,4.5-4.5h63.2c2.5,0,4.5,2,4.5,4.5v9.3
		C93.1,235.7,91.1,237.7,88.6,237.7z"/>
	<rect x="26.5" y="298.4" class="st4" width="7.9" height="20.3"/>
	<rect x="78.4" y="298.4" class="st4" width="7.9" height="20.3"/>
	<rect x="20.9" y="242" class="st0" width="72.2" height="4.5"/>
	<rect x="20.9" y="208.1" class="st0" width="72.2" height="4.5"/>
	<rect x="20.9" y="242" class="st0" width="72.2" height="4.5"/>
	<rect x="20.9" y="277" class="st0" width="72.2" height="4.5"/>
	<ellipse class="st6" cx="23.7" cy="205.3" rx="2.8" ry="3.9"/>
	
		<ellipse transform="matrix(0.3245 -0.9459 0.9459 0.3245 -151.8141 200.3121)" class="st6" cx="64.3" cy="206.4" rx="3.9" ry="2.8"/>
	<ellipse transform="matrix(0.9528 -0.3036 0.3036 0.9528 -60.2207 25.5063)" class="st6" cx="51.9" cy="206.4" rx="3.9" ry="2.8"/>
	<ellipse class="st6" cx="84.7" cy="206.4" rx="2.8" ry="3.9"/>
	<ellipse transform="matrix(0.4637 -0.886 0.886 0.4637 -166.5574 137.7251)" class="st6" cx="30.5" cy="206.4" rx="2.8" ry="3.9"/>
	
		<ellipse transform="matrix(0.7443 -0.6679 0.6679 0.7443 -119.6953 100.285)" class="st6" cx="71.1" cy="206.4" rx="2.8" ry="3.9"/>
	
		<ellipse transform="matrix(0.5645 -0.8254 0.8254 0.5645 -154.6209 122.0832)" class="st7" cx="38.4" cy="207.6" rx="2.8" ry="3.9"/>
	<ellipse class="st7" cx="27.1" cy="207.6" rx="2.8" ry="3.9"/>
	<ellipse class="st7" cx="90.3" cy="207.6" rx="2.8" ry="3.9"/>
	<ellipse transform="matrix(0.9701 -0.2427 0.2427 0.9701 -48.5861 20.724)" class="st7" cx="59.8" cy="207.6" rx="2.8" ry="3.9"/>
</g>
<g id="Ebene_3">
	<rect x="24.3" y="240.1" class="st8" width="7.3" height="5.3"/>
	<polygon class="st9" points="39,242.7 31.6,245.4 31.6,240.1 39,237.5 	"/>
	<polygon class="st10" points="31.7,240.1 24.2,240.1 31.5,237.5 39,237.5 	"/>
	<rect x="34.5" y="240.1" class="st8" width="7.3" height="5.3"/>
	<polygon class="st9" points="49.1,242.7 41.8,245.4 41.8,240.1 49.1,237.5 	"/>
	<polygon class="st10" points="41.8,240.1 34.4,240.1 41.6,237.5 49.1,237.5 	"/>
	<rect x="30" y="234.5" class="st8" width="7.3" height="5.3"/>
	<polygon class="st9" points="44.6,237.1 37.3,239.7 37.3,234.5 44.6,231.8 	"/>
	<polygon class="st10" points="37.3,234.5 29.9,234.5 37.1,231.8 44.6,231.8 	"/>
	<rect x="53.7" y="240.1" class="st8" width="7.3" height="5.3"/>
	<polygon class="st9" points="68.3,242.7 61,245.4 61,240.1 68.3,237.5 	"/>
	<polygon class="st10" points="61,240.1 53.6,240.1 60.8,237.5 68.3,237.5 	"/>
	<rect x="63.8" y="240.1" class="st8" width="7.3" height="5.3"/>
	<polygon class="st9" points="78.4,242.7 71.1,245.4 71.1,240.1 78.4,237.5 	"/>
	<polygon class="st10" points="71.2,240.1 63.7,240.1 71,237.5 78.4,237.5 	"/>
	<rect x="58.2" y="234.5" class="st8" width="7.3" height="5.3"/>
	<polygon class="st9" points="72.8,237.1 65.5,239.7 65.5,234.5 72.8,231.8 	"/>
	<polygon class="st10" points="65.5,234.5 58.1,234.5 65.3,231.8 72.8,231.8 	"/>
	<rect x="76.2" y="240.1" class="st8" width="7.3" height="5.3"/>
	<polygon class="st9" points="90.9,242.7 83.5,245.4 83.5,240.1 90.9,237.5 	"/>
	<polygon class="st10" points="83.6,240.1 76.1,240.1 83.4,237.5 90.9,237.5 	"/>
	<rect x="70.6" y="234.5" class="st8" width="7.3" height="5.3"/>
	<polygon class="st9" points="85.2,237.1 77.9,239.7 77.9,234.5 85.2,231.8 	"/>
	<polygon class="st10" points="78,234.5 70.5,234.5 77.7,231.8 85.2,231.8 	"/>
</g>
<g id="Ebene_8">
	<rect x="216.1" y="272.5" class="st11" width="3.4" height="50.8"/>
	<rect x="274.8" y="272.5" class="st11" width="3.4" height="50.8"/>
	<rect x="411.3" y="272.5" class="st11" width="3.4" height="50.8"/>
	<rect x="473.4" y="272.5" class="st11" width="3.4" height="50.8"/>
	<rect x="542.2" y="272.5" class="st11" width="3.4" height="50.8"/>
	<rect x="567.8" y="273.2" class="st11" width="3.4" height="50.8"/>
	<rect x="660.3" y="273.2" class="st11" width="3.4" height="50.8"/>
	<rect x="813.8" y="273.2" class="st11" width="3.4" height="50.8"/>
	<rect x="732.5" y="273.2" class="st12" width="3.4" height="50.8"/>
</g>
<g id="Ebene_16">
	<path class="st13" d="M682,228.1h-0.5c-1.1,0-2-0.9-2-2v-5c0-1.1,0.9-2,2-2h0.5c1.1,0,2,0.9,2,2v5C684,227.2,683.1,228.1,682,228.1
		z"/>
	<path class="st14" d="M682,240.5h-0.5c-1.1,0-2-0.9-2-2v-5c0-1.1,0.9-2,2-2h0.5c1.1,0,2,0.9,2,2v5C684,239.6,683.1,240.5,682,240.5
		z"/>
	<path class="st13" d="M287.4,194.6h-0.5c-1.1,0-2-0.9-2-2v-5c0-1.1,0.9-2,2-2h0.5c1.1,0,2,0.9,2,2v5
		C289.4,193.7,288.6,194.6,287.4,194.6z"/>
	<path class="st14" d="M287.4,205.9h-0.5c-1.1,0-2-0.9-2-2v-5c0-1.1,0.9-2,2-2h0.5c1.1,0,2,0.9,2,2v5
		C289.4,205,288.6,205.9,287.4,205.9z"/>
	<path class="st13" d="M835.8,227.9L835.8,227.9c-1,0-1.9-0.9-1.9-1.9v-3.8c0-1,0.9-1.9,1.9-1.9l0,0c1,0,1.9,0.9,1.9,1.9v3.8
		C837.7,227,836.9,227.9,835.8,227.9z"/>
	<path class="st14" d="M835.8,237.4L835.8,237.4c-1,0-1.9-0.9-1.9-1.9v-3.8c0-1,0.9-1.9,1.9-1.9l0,0c1,0,1.9,0.9,1.9,1.9v3.8
		C837.7,236.5,836.9,237.4,835.8,237.4z"/>
</g>
<g id="Ebene_9">
	<rect x="681.7" y="198.8" class="st15" width="98.2" height="125.2"/>
	<path class="st0" d="M772.4,219.1h-83.2c-4.1,0-7.5-3.4-7.5-7.5v-15.5c0-4.1,3.4-7.5,7.5-7.5h83.2c4.1,0,7.5,3.4,7.5,7.5v15.5
		C779.9,215.7,776.5,219.1,772.4,219.1z"/>
	<polygon class="st2" points="705.7,246.1 701,246.1 700,235.8 706.6,235.8 	"/>
	<polygon class="st2" points="733.2,246.1 728.5,246.1 727.6,235.8 734.1,235.8 	"/>
	<polygon class="st2" points="759.9,246.1 755.2,246.1 754.2,235.8 760.7,235.8 	"/>
</g>
<g id="Ebene_10">
	<path class="st1" d="M705.1,240.5h-3.8c-1.4,0-2.6-1.2-2.6-2.6v-35.4c0-1.4,1.2-2.6,2.6-2.6h3.8c1.4,0,2.6,1.2,2.6,2.6v35.4
		C707.7,239.3,706.5,240.5,705.1,240.5z"/>
	<path class="st1" d="M732.2,240.5h-3.8c-1.4,0-2.6-1.2-2.6-2.6v-35.4c0-1.4,1.2-2.6,2.6-2.6h3.8c1.4,0,2.6,1.2,2.6,2.6v35.4
		C734.8,239.3,733.6,240.5,732.2,240.5z"/>
	<path class="st1" d="M759.3,240.5h-3.8c-1.4,0-2.6-1.2-2.6-2.6v-35.4c0-1.4,1.2-2.6,2.6-2.6h3.8c1.4,0,2.6,1.2,2.6,2.6v35.4
		C761.8,239.3,760.7,240.5,759.3,240.5z"/>
</g>
<g id="Ebene_4">
	<rect x="24.3" y="264.8" class="st16" width="10.6" height="14"/>
	<polygon class="st17" points="35.5,278.6 34.9,278.8 34.9,264.8 35.6,264.8 	"/>
	<polygon class="st18" points="35.6,264.8 34.2,264.8 34.2,263.2 	"/>
	<polygon class="st19" points="34.9,264.8 24.3,264.8 25.1,263.3 34.2,263.2 	"/>
	<text transform="matrix(0.919 0 0 1 25.0742 269.3984)" class="st3 st20 st21">Flour</text>
	<rect x="36.7" y="264.8" class="st16" width="10.6" height="14"/>
	<polygon class="st17" points="47.9,278.6 47.3,278.8 47.3,264.8 48,264.8 	"/>
	<polygon class="st18" points="48,264.8 46.6,264.8 46.6,263.2 	"/>
	<polygon class="st19" points="47.3,264.8 36.7,264.8 37.5,263.3 46.6,263.2 	"/>
	<text transform="matrix(0.919 0 0 1 37.4863 269.3984)" class="st3 st20 st21">Flour</text>
	<rect x="49.1" y="264.8" class="st16" width="10.6" height="14"/>
	<polygon class="st17" points="60.3,278.6 59.7,278.8 59.7,264.8 60.4,264.8 	"/>
	<polygon class="st18" points="60.4,264.8 59,264.8 59,263.2 	"/>
	<polygon class="st19" points="59.7,264.8 49.1,264.8 49.9,263.3 59,263.2 	"/>
	<text transform="matrix(0.919 0 0 1 49.8975 269.3984)" class="st3 st20 st21">Flour</text>
	<rect x="61.5" y="264.8" class="st16" width="10.6" height="14"/>
	<polygon class="st17" points="72.7,278.6 72.1,278.8 72.1,264.8 72.8,264.8 	"/>
	<polygon class="st18" points="72.8,264.8 71.5,264.8 71.5,263.2 	"/>
	<polygon class="st19" points="72.1,264.8 61.5,264.8 62.3,263.3 71.5,263.2 	"/>
	<text transform="matrix(0.919 0 0 1 62.3105 269.3984)" class="st3 st20 st21">Flour</text>
	<rect x="73.9" y="264.8" class="st16" width="10.6" height="14"/>
	<polygon class="st17" points="85.1,278.6 84.5,278.8 84.5,264.8 85.2,264.8 	"/>
	<polygon class="st18" points="85.2,264.8 83.9,264.8 83.9,263.2 	"/>
	<polygon class="st19" points="84.5,264.8 73.9,264.8 74.7,263.3 83.9,263.2 	"/>
	<text transform="matrix(0.919 0 0 1 74.7217 269.3984)" class="st3 st20 st21">Flour</text>
	<path class="st0" d="M198.3,251h-57c-1.7,0-3.1-1.4-3.1-3.1v-5.1c0-1.7,1.4-3.1,3.1-3.1h57c1.7,0,3.1,1.4,3.1,3.1v5.1
		C201.4,249.6,200,251,198.3,251z"/>
	<rect x="142.8" y="251" class="st4" width="55.3" height="72.2"/>
	<ellipse class="st22" cx="170.4" cy="153.4" rx="45.7" ry="5.1"/>
	<g>
		<polygon class="st2" points="195.4,239.7 144,239.7 123.6,151.7 217.2,151.7 		"/>
	</g>
	<path class="st22" d="M145.9,151c1.3-0.8,3.1,0.1,3.8,1.5c0.8,1.3,1,2.9,1.5,4.3c0.4,0.9,1.1,1.9,2.1,1.9c1,0,1.7-0.9,2-1.8
		c0.3-0.9,0.2-1.9,0.4-2.9c0.1-1,0.5-2,1.4-2.4c0.8-0.4,1.7-0.2,2.4-0.8"/>
	<path class="st22" d="M184.2,151.6c0.3,0,0.6,0.3,0.8,0.5s0.3,0.6,0.4,0.9c0.2,0.3,0.4,0.6,0.7,0.6c0.1,0,0.1,0,0.2,0
		c0.1,0,0.2-0.2,0.2-0.3c0.1-0.2,0-0.5,0.1-0.7c0.1-0.5,0.5-1,1-1.2"/>
	<circle class="st15" cx="150.4" cy="264.3" r="4.8"/>
	<circle class="st2" cx="150.3" cy="264.4" r="3.5"/>
	<circle class="st3" cx="150.5" cy="264.4" r="1.7"/>
	<path class="st0" d="M217.8,246.5h-17c-0.3,0-0.5-0.2-0.5-0.5v-2.3c0-0.3,0.2-0.5,0.5-0.5h17c0.3,0,0.5,0.2,0.5,0.5v2.3
		C218.4,246.3,218.1,246.5,217.8,246.5z"/>
	<path class="st1" d="M151.3,237.5l-0.7,0.2c-1.6,0.4-3.2-0.6-3.6-2.2l-17.1-73.3c-0.4-1.6,0.6-3.2,2.2-3.6l0.7-0.2
		c1.6-0.4,3.2,0.6,3.6,2.2l17.1,73.3C153.9,235.5,152.9,237.1,151.3,237.5z"/>
	<path class="st2" d="M148,318.7h-0.4c-0.8,0-1.5-0.7-1.5-1.5v-42.1c0-0.8,0.7-1.5,1.5-1.5h0.4c0.8,0,1.5,0.7,1.5,1.5v42.1
		C149.5,318,148.9,318.7,148,318.7z"/>
	<path class="st23" d="M152.6,157.1c0.3,0.5,0.3,0.9,0,0.8c-0.4-0.2-1.1-1.1-1.2-1.6c-0.1-0.4,0.2-0.3,0.4-0.1
		C152.1,156.4,152.4,156.8,152.6,157.1z"/>
	<path class="st24" d="M185.7,152.3c0.2,0.2,0.2,0.5,0.1,0.4c-0.1,0-0.3-0.2-0.4-0.5c-0.1-0.2-0.2-0.4-0.1-0.4
		C185.4,151.9,185.5,152.1,185.7,152.3z"/>
	<path class="st1" d="M16,322.1h-0.4c-0.8,0-1.5-0.7-1.5-1.5V190.5c0-0.8,0.7-1.5,1.5-1.5H16c0.8,0,1.5,0.7,1.5,1.5v130.1
		C17.5,321.4,16.8,322.1,16,322.1z"/>
	<rect x="201.4" y="243.1" class="st15" width="4.5" height="3.4"/>
	<path class="st0" d="M217.4,249.9H216c-0.6,0-1-0.4-1-1v-4.8c0-0.6,0.4-1,1-1h1.4c0.6,0,1,0.4,1,1v4.8
		C218.4,249.4,217.9,249.9,217.4,249.9z"/>
	<rect x="213.8" y="248.8" class="st11" width="5.6" height="1.1"/>
	<path class="st25" d="M569.8,272.5h-370c-1,0-1.7-0.8-1.7-1.7v-3.3c0-1,0.8-1.7,1.7-1.7h370c1,0,1.7,0.8,1.7,1.7v3.3
		C571.5,271.7,570.8,272.5,569.8,272.5z"/>
	<circle class="st26" cx="203.7" cy="269.1" r="3.4"/>
	<circle class="st4" cx="203.7" cy="269.1" r="2.5"/>
	<circle class="st26" cx="234.2" cy="269.1" r="3.4"/>
	<circle class="st4" cx="234.2" cy="269.1" r="2.5"/>
	<circle class="st26" cx="266.9" cy="269.1" r="3.4"/>
	<circle class="st4" cx="266.9" cy="269.1" r="2.5"/>
	<circle class="st26" cx="306.4" cy="269.1" r="3.4"/>
	<circle class="st4" cx="306.4" cy="269.1" r="2.5"/>
	<circle class="st26" cx="351.5" cy="269.1" r="3.4"/>
	<circle class="st4" cx="351.5" cy="269.1" r="2.5"/>
	<circle class="st26" cx="403.4" cy="269.1" r="3.4"/>
	<circle class="st4" cx="403.4" cy="269.1" r="2.5"/>
	<circle class="st26" cx="455.3" cy="269.1" r="3.4"/>
	<circle class="st4" cx="455.3" cy="269.1" r="2.5"/>
	<circle class="st26" cx="506.1" cy="269.1" r="3.4"/>
	<circle class="st4" cx="506.1" cy="269.1" r="2.5"/>
	<circle class="st26" cx="568.2" cy="269.1" r="3.4"/>
	<circle class="st4" cx="568.2" cy="269.1" r="2.5"/>
	<path class="st25" d="M822.7,272.7h-256c-1,0-1.7-0.8-1.7-1.7v-3.3c0-1,0.8-1.7,1.7-1.7h256c1,0,1.7,0.8,1.7,1.7v3.3
		C824.5,271.9,823.7,272.7,822.7,272.7z"/>
	<circle class="st26" cx="570" cy="268.7" r="3.4"/>
	<circle class="st4" cx="570" cy="268.7" r="2.5"/>
	<circle class="st26" cx="624.2" cy="268.7" r="3.4"/>
	<circle class="st4" cx="624.2" cy="268.7" r="2.5"/>
	<path class="st26" d="M620.8,268.7c0-1.9,1.5-3.4,3.4-3.4s3.4,1.5,3.4,3.4"/>
	<path class="st26" d="M624.2,272.1c-1.9,0-3.4-1.5-3.4-3.4"/>
	<path class="st26" d="M627.6,268.7c0,1.9-1.5,3.4-3.4,3.4"/>
	<path class="st4" d="M626.7,268.7c0,2-2.3,3.4-4.3,1.8c-1.6-2-0.1-4.3,1.8-4.3C625.6,266.2,626.7,267.3,626.7,268.7"/>
	<path class="st26" d="M678.3,268.7c0-1.9,1.5-3.4,3.4-3.4c1.9,0,3.4,1.5,3.4,3.4"/>
	<path class="st26" d="M681.7,272.1c-1.9,0-3.4-1.5-3.4-3.4"/>
	<path class="st26" d="M685.1,268.7c0,1.9-1.5,3.4-3.4,3.4"/>
	<path class="st4" d="M684.2,268.7c0,1.4-1.1,2.5-2.5,2.5s-2.5-1.1-2.5-2.5s1.1-2.5,2.5-2.5S684.2,267.3,684.2,268.7"/>
	<path class="st26" d="M744.9,268.7c0-1.9,1.5-3.4,3.4-3.4c1.9,0,3.4,1.5,3.4,3.4"/>
	<path class="st26" d="M748.3,272.1c-1.9,0-3.4-1.5-3.4-3.4"/>
	<path class="st26" d="M751.7,268.7c0,1.9-1.5,3.4-3.4,3.4"/>
	<path class="st4" d="M750.8,268.7c0,1.4-1.1,2.5-2.5,2.5c-1.4,0-2.5-1.1-2.5-2.5s1.1-2.5,2.5-2.5
		C749.7,266.2,750.8,267.3,750.8,268.7"/>
	<path class="st26" d="M817.1,268.7c0-1.9,1.5-3.4,3.4-3.4s3.4,1.5,3.4,3.4"/>
	<path class="st26" d="M820.5,272.1c-1.9,0-3.4-1.5-3.4-3.4"/>
	<path class="st26" d="M823.9,268.7c0,1.9-1.5,3.4-3.4,3.4"/>
	<path class="st4" d="M823,268.7c0,1.4-1.1,2.5-2.5,2.5s-2.5-1.1-2.5-2.5s1.1-2.5,2.5-2.5S823,267.3,823,268.7"/>
</g>
<g id="Ebene_7">
	<path class="st27" d="M450.2,257.2c0.3-0.5,0.5-1.2,1.1-1.3c0.4,0,0.8-0.1,1.3-0.1c0.4,0,0.9,0,1.3-0.1c0.5-0.1,1-0.4,1.4-0.7
		c1.2-1,2-2.5,2.4-4c0.4-1.5,0.5-3.1,0.5-4.7c0.1-1.3,0.1-2.7,0.2-4c1.7-0.2,3.4-0.2,5.1,0c0.5,3,1,5.9,1.7,8.8
		c0.1,0.4,0.2,0.8,0.4,1.2c0.4,1,1.3,1.7,2.2,2.2c0.9,0.5,2,0.8,3,1c0.7,0.2,1.6,1,2,1.6"/>
	<path class="st28" d="M458.2,252.8c-0.2,0.3-0.4,0.6-0.3,0.9c0.3,0,0.5-0.3,0.6-0.5c0.5-0.9,0.8-1.9,0.9-3c0-0.3,0-1-0.5-0.8
		c-0.3,0.1-0.2,0.5-0.1,0.7C459.1,251,458.6,252.1,458.2,252.8z"/>
	<path class="st28" d="M462.5,248.4c0.1,0.4,0.4,0.8,0.7,1.1c0.1,0.1,0.2,0.2,0.3,0.2c0-0.3-0.1-0.5-0.3-0.8
		c-0.2-0.4-0.4-0.8-0.6-1.2c-0.1-0.3-0.2-0.8-0.5-0.9C462.3,247.3,462.4,247.9,462.5,248.4z"/>
	<path class="st28" d="M456,255.3c0.1-0.1,0.2-0.1,0.3-0.1c0.1,0,0.2,0,0.2,0.1c0,0,0,0.1,0,0.1c0,0.3-0.2,0.5-0.5,0.6
		c-0.2,0.1-0.5,0.1-0.8,0.2c-0.3,0-1.2,0.2-1.4-0.1c0.3-0.1,0.7-0.1,1.1-0.3C455.4,255.7,455.7,255.5,456,255.3z"/>
	<path class="st28" d="M467.8,255.3c-0.1-0.1-0.1-0.1-0.1-0.2c0.2,0,0.3,0.1,0.5,0.2c0.3,0.2,0.7,0.3,1,0.3c0.1,0,0.8,0.2,0.4,0.4
		c-0.2,0.1-0.7-0.1-0.9-0.2C468.3,255.7,468,255.5,467.8,255.3z"/>
	<path class="st28" d="M462.7,256c0.1,0,0.2,0,0.2-0.1c0.1-0.1,0-0.2-0.1-0.2c-0.1-0.1-0.2-0.1-0.2-0.1c-0.2,0-0.5-0.2-0.6-0.4
		c0,0,0-0.1-0.1-0.1c0,0-0.1,0-0.2,0s-0.1,0.1-0.1,0.1c-0.1,0.2-0.1,0.4,0.1,0.5C462.1,256,462.5,255.9,462.7,256z"/>
	<path class="st28" d="M459.2,246.2c0,0.1,0,0.2,0.1,0.2c0.1,0,0.1,0,0.2,0c0,0,0-0.1,0.1-0.2c0-0.2,0.1-0.5,0.1-0.7
		c0-0.2-0.2-0.8-0.3-0.3C459.2,245.5,459.3,245.8,459.2,246.2z"/>
	<path class="st29" d="M519.4,257.5c-0.4-0.1-0.7-0.5-0.8-0.9c-0.1-0.4,0.1-0.9,0.5-1.1c0.2-0.1,0.5-0.2,0.7-0.3
		c4.9-1.2,10-1.3,15.1-1.2c0.8,0,1.7,0,2.5,0.2c0.6,0.1,1.2,0.3,1.8,0.4c1.4,0.3,2.9,0.3,4,1.2c0.4,0.3,0.7,0.7,0.7,1.2
		s-0.4,1-0.8,1"/>
	<path class="st28" d="M523.1,255.9c1.2-0.1,2.3-0.6,3.5-0.7c0.2,0,0.4,0,0.5,0c0.2,0.1,0.3,0.2,0.4,0.4c0,0.3-0.2,0.5-0.4,0.6
		c-1.2,0.6-2.6-0.2-3.9,0.1c-0.7,0.1-1.2,0.4-1.7-0.2C522.1,255.8,522.6,255.9,523.1,255.9z"/>
	<path class="st28" d="M537,255.5c0.1,0.1,0.2,0.3,0.2,0.4c-0.1,0.1-2-0.4-1.9-0.8C535.3,254.5,536.8,255.3,537,255.5z"/>
</g>
<g id="Ebene_11">
	<path class="st30" d="M788.9,252.9c-8.7,0-17.3,0-26,0c0.4-0.9,0.9-1.8,1.3-2.8c0.1-0.4,0.4-1.3,1.7-1.8c1.3-0.6,2.9-0.5,3.8-0.4
		c1.5,0.1,1.6,0.4,3,0.4c1.5,0,1.6-0.3,3-0.3c2,0,2.4,0.7,4,0.5c1.2-0.1,1.2-0.5,2.5-0.6c1.2-0.1,2.2,0.3,2.8,0.5
		c1.2,0.4,1.9,1,2.3,1.4C787.8,250.9,788.4,251.9,788.9,252.9z"/>
	<path class="st29" d="M853.9,266.3"/>
	<path class="st29" d="M716.7,252.9c-8.7,0-17.3,0-26,0c0.4-0.9,0.9-1.8,1.3-2.8c0.1-0.4,0.4-1.3,1.7-1.8c1.3-0.6,2.9-0.5,3.8-0.4
		c1.5,0.1,1.6,0.4,3,0.4c1.5,0,1.6-0.3,3-0.3c2,0,2.4,0.7,4,0.5c1.2-0.1,1.2-0.5,2.5-0.6c1.2-0.1,2.2,0.3,2.8,0.5
		c1.2,0.4,1.9,1,2.3,1.4C715.6,250.9,716.2,251.9,716.7,252.9z"/>
</g>
<g id="Ebene_5">
	<rect x="207.1" y="258.9" class="st0" width="20.3" height="6.8"/>
	<rect x="207.1" y="262.3" class="st4" width="9" height="1.1"/>
	<rect x="215" y="249.9" class="st22" width="3.4" height="9"/>
	<path class="st6" d="M216.3,257.8h-0.1c-0.1,0-0.1-0.1-0.1-0.1V250c0-0.1,0.1-0.1,0.1-0.1h0.1c0.1,0,0.1,0.1,0.1,0.1v7.7
		C216.4,257.7,216.4,257.8,216.3,257.8z"/>
	<path class="st31" d="M217.5,258.9h-0.1c-0.1,0-0.1-0.1-0.1-0.1v-7.7c0-0.1,0.1-0.1,0.1-0.1h0.1c0.1,0,0.1,0.1,0.1,0.1v7.7
		C217.6,258.9,217.5,258.9,217.5,258.9z"/>
	<path class="st7" d="M292.8,259.5c0,0.9-4.5,1.7-10.2,1.7s-10.2-0.8-10.2-1.7c0-0.9,4.5-2.8,10.2-2.8S292.8,258.5,292.8,259.5z"/>
	<polyline class="st0" points="272.5,265.7 272.5,258.9 292.8,258.9 292.8,265.7 	"/>
	<rect x="272.5" y="262.3" class="st4" width="9" height="1.1"/>
	<linearGradient id="SVGID_3_" gradientUnits="userSpaceOnUse" x1="394.1563" y1="202.281" x2="382.9176" y2="208.7696">
		<stop  offset="0" style="stop-color:#FFFFFF"/>
		<stop  offset="0.1574" style="stop-color:#FFDDDD"/>
		<stop  offset="0.5071" style="stop-color:#FF8585"/>
		<stop  offset="1" style="stop-color:#FF0000"/>
	</linearGradient>
	<path class="st32" d="M391.6,213.2c0,1.6-1.3,2.8-2.8,2.8s-2.8-1.3-2.8-2.8c0-0.9,0.4-1.7,1.1-2.3v-14.7c0-0.9,0.8-1.7,1.7-1.7
		s1.7,0.8,1.7,1.7V211C391.1,211.5,391.6,212.3,391.6,213.2z"/>
	<path class="st6" d="M432.4,265.7h-20.7c-1.4,0-2.6-1.2-2.6-2.6v-3.8c0-1.4,1.2-2.6,2.6-2.6h20.7c1.4,0,2.6,1.2,2.6,2.6v3.8
		C435,264.5,433.8,265.7,432.4,265.7z"/>
	<path class="st31" d="M473,265.7h-23c-1.4,0-2.6-1.2-2.6-2.6v-3.8c0-1.4,1.2-2.6,2.6-2.6h23c1.4,0,2.6,1.2,2.6,2.6v3.8
		C475.6,264.5,474.5,265.7,473,265.7z"/>
	<path class="st31" d="M543,265.7h-23c-1.4,0-2.6-1.2-2.6-2.6v-3.8c0-1.4,1.2-2.6,2.6-2.6h23c1.4,0,2.6,1.2,2.6,2.6v3.8
		C545.6,264.5,544.4,265.7,543,265.7z"/>
	<path d="M374.6,317.6H307c-4.7,0-8.5-3.8-8.5-8.5v-2.2c0-4.7,3.8-8.5,8.5-8.5h67.6c4.7,0,8.5,3.8,8.5,8.5v2.2
		C383.1,313.8,379.3,317.6,374.6,317.6z"/>
	<rect x="409.1" y="259.8" class="st22" width="26" height="5.9"/>
	<rect x="447.4" y="259.8" class="st33" width="28.2" height="5.9"/>
	<rect x="517.4" y="259.8" class="st33" width="28.2" height="5.9"/>
	<path class="st6" d="M507.9,245.2l-13.9,15.4c-1,1.1-2.6,1.2-3.7,0.2l-2.8-2.6c-1.1-1-1.2-2.6-0.2-3.7l13.9-15.4
		c1-1.1,2.6-1.2,3.7-0.2l2.8,2.6C508.8,242.5,508.9,244.1,507.9,245.2z"/>
	
		<rect x="485.8" y="248" transform="matrix(0.6677 -0.7444 0.7444 0.6677 -21.0662 454.6907)" class="st22" width="26" height="5.9"/>
	<path class="st31" d="M636.6,263.1v-4.2c0-2.2,1.3-3.9,2.9-3.9h20.1c1.6,0,2.9,1.7,2.9,3.9v4.2"/>
	<polyline class="st33" points="636.6,265.3 636.6,260.8 662.6,260.8 662.6,265.3 	"/>
	<path class="st34" d="M636.6,259.6v-2.4c0-1.2,1.3-2.2,2.9-2.2h20.1c1.6,0,2.9,1,2.9,2.2v2.4"/>
	<path class="st6" d="M660,257.6h-20.7c-1.4,0-2.6-1.2-2.6-2.6v-1.7c0-1.4,1.2-2.6,2.6-2.6H660c1.4,0,2.6,1.2,2.6,2.6v1.7
		C662.6,256.4,661.4,257.6,660,257.6z"/>
	<rect x="636.6" y="253.1" class="st22" width="26" height="4.5"/>
	<path class="st31" d="M690.8,263.1v-4.2c0-2.2,1.3-3.9,2.9-3.9h20.1c1.6,0,2.9,1.7,2.9,3.9v4.2"/>
	<polyline class="st33" points="690.8,265.3 690.8,260.8 716.7,260.8 716.7,265.3 	"/>
	<path class="st34" d="M690.8,259.6v-2.4c0-1.2,1.3-2.2,2.9-2.2h20.1c1.6,0,2.9,1,2.9,2.2v2.4"/>
	<path class="st6" d="M714.1,257.6h-20.7c-1.4,0-2.6-1.2-2.6-2.6v-1.7c0-1.4,1.2-2.6,2.6-2.6h20.7c1.4,0,2.6,1.2,2.6,2.6v1.7
		C716.7,256.4,715.5,257.6,714.1,257.6z"/>
	<rect x="690.8" y="253.1" class="st22" width="26" height="4.5"/>
	<path class="st31" d="M580.2,263.1v-4.2c0-2.2,1.3-3.9,2.9-3.9h20.1c1.6,0,2.9,1.7,2.9,3.9v4.2"/>
	<polyline class="st33" points="580.2,265.3 580.2,260.8 606.1,260.8 606.1,265.3 	"/>
	<path class="st34" d="M580.2,259.6v-2.4c0-1.2,1.3-2.2,2.9-2.2h20.1c1.6,0,2.9,1,2.9,2.2v2.4"/>
	<path class="st6" d="M603.5,257.6h-20.7c-1.4,0-2.6-1.2-2.6-2.6v-1.7c0-1.4,1.2-2.6,2.6-2.6h20.7c1.4,0,2.6,1.2,2.6,2.6v1.7
		C606.1,256.4,605,257.6,603.5,257.6z"/>
	<rect x="580.2" y="253.1" class="st22" width="26" height="4.5"/>
	<path class="st31" d="M763,263.1v-4.2c0-2.2,1.3-3.9,2.9-3.9H786c1.6,0,2.9,1.7,2.9,3.9v4.2"/>
	<polyline class="st33" points="763,265.3 763,260.8 788.9,260.8 788.9,265.3 	"/>
	<path class="st34" d="M763,259.6v-2.4c0-1.2,1.3-2.2,2.9-2.2H786c1.6,0,2.9,1,2.9,2.2v2.4"/>
	<path class="st6" d="M786.3,257.6h-20.7c-1.4,0-2.6-1.2-2.6-2.6v-1.7c0-1.4,1.2-2.6,2.6-2.6h20.7c1.4,0,2.6,1.2,2.6,2.6v1.7
		C788.9,256.4,787.8,257.6,786.3,257.6z"/>
	<rect x="763" y="253.1" class="st22" width="26" height="4.5"/>
	<path class="st6" d="M951.8,291.7h-16.7c-1.4,0-2.6-1.2-2.6-2.6v-0.6c0-1.4,1.2-2.6,2.6-2.6h16.7c1.4,0,2.6,1.2,2.6,2.6v0.6
		C954.4,290.5,953.2,291.7,951.8,291.7z"/>
	<polygon class="st35" points="930.8,288 956,288 952.3,299.6 934.5,299.6 	"/>
	<path class="st35" d="M949.5,286H935c-1.1,0-2-0.9-2-2l0,0c0-1.1,0.9-2,2-2h14.5c1.1,0,2,0.9,2,2l0,0
		C951.5,285.1,950.6,286,949.5,286z"/>
	<path class="st35" d="M947.6,283H937c-0.8,0-1.5-0.7-1.5-1.5l0,0c0-0.8,0.7-1.5,1.5-1.5h10.6c0.8,0,1.5,0.7,1.5,1.5l0,0
		C949.1,282.3,948.4,283,947.6,283z"/>
	<path class="st35" d="M945.6,281H940c-0.5,0-1-0.5-1-1l0,0c0-0.6,0.5-1,1-1h5.6c0.5,0,1,0.4,1,1l0,0
		C946.6,280.5,946.1,281,945.6,281z"/>
	<path class="st36" d="M951,286h-12c-1.1,0-2-0.9-2-2l0,0c0-1.1,0.9-2,2-2h12c1.1,0,2,0.9,2,2l0,0C953,285.1,952.1,286,951,286z"/>
	<path class="st36" d="M949.5,283h-9c-0.8,0-1.5-0.7-1.5-1.5l0,0c0-0.8,0.7-1.5,1.5-1.5h9c0.8,0,1.5,0.7,1.5,1.5l0,0
		C951,282.3,950.3,283,949.5,283z"/>
	<path class="st36" d="M946,281h-4.6c-0.5,0-1-0.5-1-1l0,0c0-0.6,0.5-1,1-1h4.6c0.5,0,1,0.4,1,1l0,0C947,280.5,946.5,281,946,281z"
		/>
	<path class="st30" d="M948,286h-10c-1.1,0-2-0.9-2-2l0,0c0-1.1,0.9-2,2-2h10c1.1,0,2,0.9,2,2l0,0C950,285.1,949.1,286,948,286z"/>
	<path class="st30" d="M946.5,283h-7c-0.8,0-1.5-0.7-1.5-1.5l0,0c0-0.8,0.7-1.5,1.5-1.5h7c0.8,0,1.5,0.7,1.5,1.5l0,0
		C948,282.3,947.3,283,946.5,283z"/>
	<path class="st30" d="M945,281h-4c-0.5,0-1-0.5-1-1l0,0c0-0.5,0.5-1,1-1h4c0.5,0,1,0.5,1,1l0,0C946,280.5,945.5,281,945,281z"/>
	<path class="st30" d="M940.8,279c0-0.3,0.3-0.5,0.6-0.6c0.3-0.1,0.6-0.2,0.9-0.3c0.4-0.2,0.7-0.5,0.8-0.9c0.1,0,0.2,0.1,0.2,0.2
		c0.2,0.3,0.6,0.5,1,0.7c0.4,0.2,0.8,0.5,0.8,0.9"/>
	<polygon class="st30" points="930.8,288 954,288 950.6,299.6 934.2,299.6 	"/>
	<polygon class="st30" points="930.8,288 954,288 950.6,299.6 934.2,299.6 	"/>
	<polygon class="st35" points="930.8,288 952,288 948.9,299.6 933.9,299.6 	"/>
	<polygon class="st30" points="933,288 950,288 947.5,299.6 935.5,299.6 	"/>
	<polygon class="st36" points="935,288 952,288 949.5,299.6 937.5,299.6 	"/>
</g>
<g id="Ebene_13">
</g>
<g id="Ebene_6">
	<path class="st4" d="M396.6,161.7v162.6H287.2V161.7c0-5.5,4.5-10,10-10h89.5C392.2,151.7,396.6,156.2,396.6,161.7z"/>
	<path class="st37" d="M371.9,265.7h-62.3c-6.1,0-11.2-5-11.2-11.2v-70.2c0-6.1,5-11.2,11.2-11.2h62.3c6.1,0,11.2,5,11.2,11.2v70.2
		C383.1,260.7,378.1,265.7,371.9,265.7z"/>
	<path class="st15" d="M305.2,191.1v57.8c0,0.6-0.4,1-1,1H304c-0.6,0-1-0.4-1-1v-57.8c0-0.6,0.4-1,1-1h0.3
		C304.8,190.1,305.2,190.5,305.2,191.1z"/>
	<path class="st38" d="M353.1,251.6l-0.4,0.3c-0.8,0.7-2.1,0.6-2.8-0.2l-33.1-38.9c-0.7-0.8-0.6-2.1,0.2-2.8l0.4-0.3
		c0.8-0.7,2.1-0.6,2.8,0.2l33.1,38.9C354,249.6,353.9,250.9,353.1,251.6z"/>
	<path class="st39" d="M355.3,227.9l-0.4,0.3c-0.8,0.7-2.1,0.6-2.8-0.2L319,189.1c-0.7-0.8-0.6-2.1,0.2-2.8l0.4-0.3
		c0.8-0.7,2.1-0.6,2.8,0.2l33.1,38.9C356.3,225.9,356.2,227.2,355.3,227.9z"/>
	<ellipse class="st2" cx="304.2" cy="280.9" rx="4.6" ry="3.9"/>
	<circle class="st1" cx="303.6" cy="280.9" r="3.9"/>
	<path class="st40" d="M303.7,284.7c0-0.5,0.1-0.8,0.1-0.6"/>
	<path class="st40" d="M299.9,280.8c0.5,0,0.8,0,0.6,0"/>
	<path class="st40" d="M300.9,283.8c0.3-0.4,0.6-0.6,0.4-0.5"/>
	<path class="st40" d="M300.8,278.5c0.4,0.3,0.7,0.5,0.5,0.4"/>
	<path class="st40" d="M303.3,277.4c0,0.5,0,0.8,0,0.6"/>
	<path class="st40" d="M306.2,278.5c-0.4,0.3-0.7,0.5-0.5,0.4"/>
	<path class="st40" d="M307.2,280.9c-0.5,0-0.8,0-0.6,0"/>
	<path class="st40" d="M306.1,283.8c-0.3-0.4-0.5-0.6-0.4-0.5"/>
	<ellipse class="st2" cx="336.9" cy="280.9" rx="4.6" ry="3.9"/>
	<circle class="st1" cx="336.3" cy="280.9" r="3.9"/>
	<path class="st40" d="M336.4,284.7c0-0.5,0.1-0.8,0.1-0.6"/>
	<path class="st40" d="M332.6,280.8c0.5,0,0.8,0,0.6,0"/>
	<path class="st40" d="M333.6,283.8c0.3-0.4,0.6-0.6,0.4-0.5"/>
	<path class="st40" d="M333.5,278.5c0.4,0.3,0.7,0.5,0.5,0.4"/>
	<path class="st40" d="M336,277.4c0,0.5,0,0.8,0,0.6"/>
	<path class="st40" d="M338.9,278.5c-0.4,0.3-0.7,0.5-0.5,0.4"/>
	<path class="st40" d="M339.9,280.9c-0.5,0-0.8,0-0.6,0"/>
	<path class="st40" d="M338.9,283.8c-0.3-0.4-0.5-0.6-0.4-0.5"/>
	<ellipse class="st2" cx="369.7" cy="280.9" rx="4.6" ry="3.9"/>
	<circle class="st1" cx="369" cy="280.9" r="3.9"/>
	<path class="st40" d="M369.1,284.7c0-0.5,0.1-0.8,0.1-0.6"/>
	<path class="st40" d="M365.3,280.8c0.5,0,0.8,0,0.6,0"/>
	<path class="st40" d="M366.3,283.8c0.3-0.4,0.6-0.6,0.4-0.5"/>
	<path class="st40" d="M366.3,278.5c0.4,0.3,0.7,0.5,0.5,0.4"/>
	<path class="st40" d="M368.7,277.4c0,0.5,0,0.8,0,0.6"/>
	<path class="st40" d="M371.6,278.5c-0.4,0.3-0.7,0.5-0.5,0.4"/>
	<path class="st40" d="M372.6,280.9c-0.5,0-0.8,0-0.6,0"/>
	<path class="st40" d="M371.6,283.8c-0.3-0.4-0.5-0.6-0.4-0.5"/>
	<path class="st0" d="M378.4,314.2h-74.1c-3.2,0-5.8-2.6-5.8-5.8v-7.5c0-3.2,2.6-5.8,5.8-5.8h74.1c3.2,0,5.8,2.6,5.8,5.8v7.5
		C384.2,311.6,381.6,314.2,378.4,314.2z"/>
	<path class="st2" d="M292,314.2h-0.5c-1.1,0-2-0.9-2-2V167.3c0-1.1,0.9-2,2-2h0.5c1.1,0,2,0.9,2,2v144.9
		C294,313.3,293.1,314.2,292,314.2z"/>
	<rect x="456.4" y="194.6" class="st2" width="9" height="45.1"/>
	<path class="st0" d="M467.3,244.2h-12.7c-0.9,0-1.6-0.7-1.6-1.6v-1.4c0-0.9,0.7-1.6,1.6-1.6h12.7c0.9,0,1.6,0.7,1.6,1.6v1.4
		C468.9,243.5,468.2,244.2,467.3,244.2z"/>
	<rect x="457.6" y="97" class="st1" width="6.4" height="97.6"/>
	<path class="st4" d="M458.8,243.1h-3.6c-0.6,0-1-0.4-1-1v-0.3c0-0.6,0.4-1,1-1h3.6c0.6,0,1,0.4,1,1v0.3
		C459.8,242.7,459.4,243.1,458.8,243.1z"/>
	<path class="st1" d="M458.8,237.5h-0.3c-0.6,0-1-0.4-1-1v-39.7c0-0.6,0.4-1,1-1h0.3c0.6,0,1,0.4,1,1v39.7
		C459.8,237,459.4,237.5,458.8,237.5z"/>
	<linearGradient id="SVGID_4_" gradientUnits="userSpaceOnUse" x1="925.7084" y1="226.5653" x2="916.6539" y2="231.793">
		<stop  offset="0" style="stop-color:#FFFFFF"/>
		<stop  offset="0.1574" style="stop-color:#FFDDDD"/>
		<stop  offset="0.5071" style="stop-color:#FF8585"/>
		<stop  offset="1" style="stop-color:#FF0000"/>
	</linearGradient>
	<path class="st41" d="M923.7,235.3c0,1.2-1.1,2.2-2.4,2.2c-1.3,0-2.4-1-2.4-2.2c0-0.7,0.4-1.4,1-1.8v-11.6c0-0.7,0.6-1.3,1.4-1.3
		c0.8,0,1.4,0.6,1.4,1.3v11.6C923.4,233.9,923.7,234.5,923.7,235.3z"/>
	<path class="st4" d="M928,194.4v128.9h-92.2V194.4c0-4.4,3.8-7.9,8.4-7.9h75.3C924.2,186.5,928,190.1,928,194.4z"/>
	<path class="st2" d="M839.6,312.5L839.6,312.5c-1,0-1.9-0.9-1.9-1.9V196.3c0-1,0.9-1.9,1.9-1.9l0,0c1,0,1.9,0.9,1.9,1.9v114.3
		C841.5,311.6,840.7,312.5,839.6,312.5z"/>
	<path class="st42" d="M915.4,219.8H847c-0.5,0-1-0.4-1-1l0,0c0-0.5,0.4-1,1-1h68.4c0.5,0,1,0.4,1,1l0,0
		C916.3,219.4,915.9,219.8,915.4,219.8z"/>
	<path class="st42" d="M915.4,244.5H847c-0.5,0-1-0.4-1-1l0,0c0-0.5,0.4-1,1-1h68.4c0.5,0,1,0.4,1,1l0,0
		C916.3,244.1,915.9,244.5,915.4,244.5z"/>
	<path class="st42" d="M915.4,270.1H847c-0.5,0-1-0.4-1-1l0,0c0-0.5,0.4-1,1-1h68.4c0.5,0,1,0.4,1,1l0,0
		C916.3,269.7,915.9,270.1,915.4,270.1z"/>
	<line class="st33" x1="912.8" y1="239.8" x2="912.8" y2="243.5"/>
	<line class="st33" x1="891" y1="243.5" x2="891" y2="239.8"/>
	<polygon class="st1" points="548.8,184.3 541.6,187.9 483.1,97.7 490.3,94 	"/>
	<path class="st1" d="M513.3,234.3l-6-4.1c-0.9-0.6-1.1-1.8-0.5-2.7l29.8-44c0.6-0.9,1.8-1.1,2.7-0.5l6,4.1c0.9,0.6,1.1,1.8,0.5,2.7
		l-29.8,44C515.4,234.7,514.2,234.9,513.3,234.3z"/>
	<ellipse class="st4" cx="542.6" cy="185.4" rx="7.4" ry="6.6"/>
	<ellipse class="st11" cx="542.6" cy="185.4" rx="6.2" ry="5.5"/>
	<path class="st11" d="M504.3,234.2l-3.3,5.6c-0.1,0.3-0.5,0.3-0.7,0.2l0,0c-0.3-0.1-0.3-0.5-0.2-0.7l3.3-5.6
		c0.1-0.3,0.5-0.3,0.7-0.2l0,0C504.4,233.6,504.5,233.9,504.3,234.2z"/>
	<path class="st11" d="M510.5,232.3l-6.3,1.9c-0.3,0.1-0.6-0.1-0.6-0.3l0-0.1c-0.1-0.3,0.1-0.6,0.3-0.6l6.3-1.9
		c0.3-0.1,0.6,0.1,0.6,0.3l0,0.1C510.9,231.9,510.8,232.2,510.5,232.3z"/>
	<circle class="st4" cx="504" cy="234" r="1"/>
	<path class="st11" d="M513.1,238.4l-4.3,4.9c-0.2,0.2-0.2,0.6,0,0.7l0,0c0.2,0.2,0.6,0.2,0.7,0l4.3-4.9"/>
	<path class="st11" d="M513.8,239.3l-0.2-6.5c0-0.3-0.2-0.5-0.5-0.5l-0.1,0c-0.3,0-0.5,0.2-0.5,0.5l0.2,6.5"/>
	<circle class="st4" cx="513" cy="239" r="1"/>
	<linearGradient id="SVGID_5_" gradientUnits="userSpaceOnUse" x1="927.7106" y1="220.2213" x2="918.2457" y2="225.6858">
		<stop  offset="0" style="stop-color:#FFFFFF"/>
		<stop  offset="0.1574" style="stop-color:#FFDDDD"/>
		<stop  offset="0.5071" style="stop-color:#FF8585"/>
		<stop  offset="1" style="stop-color:#FF0000"/>
	</linearGradient>
	<path class="st43" d="M925.5,229.4c0,1.3-1.1,2.4-2.4,2.4s-2.4-1.1-2.4-2.4c0-0.8,0.4-1.5,1-1.9v-12.4c0-0.8,0.6-1.4,1.4-1.4
		s1.4,0.6,1.4,1.4v12.4C925.2,228,925.5,228.7,925.5,229.4z"/>
	<path class="st0" d="M767.1,306.1H693c-3.2,0-5.8-2.6-5.8-5.8v-7.5c0-3.2,2.6-5.8,5.8-5.8h74.1c3.2,0,5.8,2.6,5.8,5.8v7.5
		C772.9,303.5,770.3,306.1,767.1,306.1z"/>
	<path class="st44" d="M488.3,45.2h-2.2c-0.9,0-1.7-0.7-1.7-1.7v0c0-0.9,0.7-1.7,1.7-1.7h2.2c0.9,0,1.7,0.7,1.7,1.7v0
		C490,44.5,489.3,45.2,488.3,45.2z"/>
	<path class="st45" d="M488.3,49.4h-2.2c-0.9,0-1.7-0.7-1.7-1.7v0c0-0.9,0.7-1.7,1.7-1.7h2.2c0.9,0,1.7,0.7,1.7,1.7v0
		C490,48.6,489.3,49.4,488.3,49.4z"/>
	<linearGradient id="SVGID_6_" gradientUnits="userSpaceOnUse" x1="615.3889" y1="44.191" x2="608.6235" y2="48.097">
		<stop  offset="0" style="stop-color:#FFFFFF"/>
		<stop  offset="0.1781" style="stop-color:#FBDDDD"/>
		<stop  offset="0.5734" style="stop-color:#F08785"/>
		<stop  offset="1" style="stop-color:#E42320"/>
	</linearGradient>
	<path class="st46" d="M615.8,48.4c0,0.5-1.6,1-3.5,1c-1.9,0-3.5-0.4-3.5-1c0-0.3,0.5-0.6,1.4-0.8v-5.1c0-0.3,0.9-0.6,2.1-0.6
		c1.2,0,2.1,0.3,2.1,0.6v5.1C615.3,47.8,615.8,48.1,615.8,48.4z"/>
	<path class="st47" d="M622.1,30.6V87H487.2V30.6c0-1.9,5.5-3.5,12.3-3.5h110.2C616.6,27.1,622.1,28.7,622.1,30.6z"/>
	<path class="st48" d="M493.7,82.2h-1.8c-1,0-1.9-0.9-1.9-1.9V32.5c0-1,0.9-1.9,1.9-1.9h1.8c1,0,1.9,0.9,1.9,1.9v47.8
		C495.6,81.3,494.7,82.2,493.7,82.2z"/>
	<path class="st49" d="M604.6,41.7h-102c-0.2,0-0.4-0.2-0.4-0.4l0,0c0-0.2,0.2-0.4,0.4-0.4h102c0.2,0,0.4,0.2,0.4,0.4l0,0
		C605,41.5,604.8,41.7,604.6,41.7z"/>
	<path class="st49" d="M604.6,52.5h-102c-0.2,0-0.4-0.2-0.4-0.4l0,0c0-0.2,0.2-0.4,0.4-0.4h102c0.2,0,0.4,0.2,0.4,0.4l0,0
		C605,52.3,604.8,52.5,604.6,52.5z"/>
	<rect x="508.7" y="73.3" class="st50" width="89.3" height="14.3"/>
	<text transform="matrix(1 0 0 1 518.9009 82.0011)" class="st51 st52 st53 st54">CATALOGUE</text>
	<rect x="508" y="73.3" class="st50" width="89.3" height="14.3"/>
	<text transform="matrix(1 0 0 1 518.2058 82.0011)" class="st55 st52 st53 st54">CATALOGUE</text>
	<linearGradient id="SVGID_7_" gradientUnits="userSpaceOnUse" x1="620.027" y1="47.3626" x2="608.7883" y2="53.8513">
		<stop  offset="0" style="stop-color:#FFFFFF"/>
		<stop  offset="0.1914" style="stop-color:#DDE2EF"/>
		<stop  offset="0.6116" style="stop-color:#8698C6"/>
		<stop  offset="1" style="stop-color:#31509E"/>
	</linearGradient>
	<path class="st56" d="M617.4,58.3c0,1.6-1.3,2.8-2.8,2.8c-1.6,0-2.8-1.3-2.8-2.8c0-0.9,0.4-1.7,1.1-2.3V41.4c0-0.9,0.8-1.7,1.7-1.7
		c0.9,0,1.7,0.8,1.7,1.7V56C617,56.6,617.4,57.4,617.4,58.3z"/>
	<path class="st57" d="M546.1,51.2h-11.3c-0.7,0-1.2-0.5-1.2-1.2v0c0-0.7,0.5-1.2,1.2-1.2h11.3c0.7,0,1.2,0.5,1.2,1.2v0
		C547.3,50.6,546.8,51.2,546.1,51.2z"/>
	<rect x="533.5" y="49.6" class="st58" width="13.8" height="1.6"/>
	<path class="st57" d="M526.3,51.2H515c-0.7,0-1.2-0.5-1.2-1.2v0c0-0.7,0.5-1.2,1.2-1.2h11.3c0.7,0,1.2,0.5,1.2,1.2v0
		C527.5,50.6,527,51.2,526.3,51.2z"/>
	<rect x="513.7" y="49.6" class="st58" width="13.8" height="1.6"/>
	<path class="st57" d="M526.3,40.4H515c-0.7,0-1.2-0.5-1.2-1.2v0c0-0.7,0.5-1.2,1.2-1.2h11.3c0.7,0,1.2,0.5,1.2,1.2v0
		C527.5,39.8,527,40.4,526.3,40.4z"/>
	<rect x="513.7" y="38.8" class="st58" width="13.8" height="1.6"/>
	<path class="st57" d="M526.3,40.4H515c-0.7,0-1.2-0.5-1.2-1.2v0c0-0.7,0.5-1.2,1.2-1.2h11.3c0.7,0,1.2,0.5,1.2,1.2v0
		C527.5,39.8,527,40.4,526.3,40.4z"/>
	<rect x="513.7" y="38.8" class="st58" width="13.8" height="1.6"/>
	<path class="st57" d="M546.1,40.4h-11.3c-0.7,0-1.2-0.5-1.2-1.2v0c0-0.7,0.5-1.2,1.2-1.2h11.3c0.7,0,1.2,0.5,1.2,1.2v0
		C547.3,39.8,546.8,40.4,546.1,40.4z"/>
	<rect x="533.5" y="38.8" class="st58" width="13.8" height="1.6"/>
	<path class="st57" d="M546.1,40.4h-11.3c-0.7,0-1.2-0.5-1.2-1.2v0c0-0.7,0.5-1.2,1.2-1.2h11.3c0.7,0,1.2,0.5,1.2,1.2v0
		C547.3,39.8,546.8,40.4,546.1,40.4z"/>
	<rect x="533.5" y="38.8" class="st58" width="13.8" height="1.6"/>
	<path class="st57" d="M585.7,51.2h-11.3c-0.7,0-1.2-0.5-1.2-1.2v0c0-0.7,0.5-1.2,1.2-1.2h11.3c0.7,0,1.2,0.5,1.2,1.2v0
		C587,50.6,586.4,51.2,585.7,51.2z"/>
	<rect x="573.2" y="49.6" class="st58" width="13.8" height="1.6"/>
	<path class="st57" d="M566,51.2h-11.3c-0.7,0-1.2-0.5-1.2-1.2v0c0-0.7,0.5-1.2,1.2-1.2H566c0.7,0,1.2,0.5,1.2,1.2v0
		C567.2,50.6,566.6,51.2,566,51.2z"/>
	<rect x="553.4" y="49.6" class="st58" width="13.8" height="1.6"/>
	<path class="st57" d="M566,40.4h-11.3c-0.7,0-1.2-0.5-1.2-1.2v0c0-0.7,0.5-1.2,1.2-1.2H566c0.7,0,1.2,0.5,1.2,1.2v0
		C567.2,39.8,566.6,40.4,566,40.4z"/>
	<rect x="553.4" y="38.8" class="st58" width="13.8" height="1.6"/>
	<path class="st57" d="M566,40.4h-11.3c-0.7,0-1.2-0.5-1.2-1.2v0c0-0.7,0.5-1.2,1.2-1.2H566c0.7,0,1.2,0.5,1.2,1.2v0
		C567.2,39.8,566.6,40.4,566,40.4z"/>
	<rect x="553.4" y="38.8" class="st58" width="13.8" height="1.6"/>
	<path class="st57" d="M585.7,40.4h-11.3c-0.7,0-1.2-0.5-1.2-1.2v0c0-0.7,0.5-1.2,1.2-1.2h11.3c0.7,0,1.2,0.5,1.2,1.2v0
		C587,39.8,586.4,40.4,585.7,40.4z"/>
	<rect x="573.2" y="38.8" class="st58" width="13.8" height="1.6"/>
	<path class="st57" d="M585.7,40.4h-11.3c-0.7,0-1.2-0.5-1.2-1.2v0c0-0.7,0.5-1.2,1.2-1.2h11.3c0.7,0,1.2,0.5,1.2,1.2v0
		C587,39.8,586.4,40.4,585.7,40.4z"/>
	<rect x="573.2" y="38.8" class="st58" width="13.8" height="1.6"/>
	<path class="st59" d="M596.8,66h-81.9c-6.1,0-11.2-5-11.2-11.2V43.3c0-6.1,5-11.2,11.2-11.2h81.9c6.1,0,11.2,5,11.2,11.2v11.5
		C608,61,602.9,66,596.8,66z"/>
	<path class="st60" d="M510.8,39.1V58c0,0.5-0.4,1-1,1H509c-0.5,0-1-0.4-1-1V39.1c0-0.5,0.4-1,1-1h0.9
		C510.4,38.2,510.8,38.6,510.8,39.1z"/>
	<rect x="684.6" y="292.8" class="st50" width="89.3" height="14.3"/>
	<text transform="matrix(1 0 0 1 699.137 301.488)" class="st51 st52 st53 st54">TOPPINGS</text>
	<path class="st39" d="M541.7,54.3L541.7,54.3c-0.5,0.3-1.3,0.3-1.7-0.1l-17.4-14.8c-0.4-0.4-0.4-0.9,0.1-1.2v0
		c0.5-0.3,1.3-0.3,1.7,0.1l17.4,14.8C542.3,53.4,542.2,54,541.7,54.3z"/>
	<path class="st39" d="M541.1,65.8L541.1,65.8c-0.5,0.3-1.3,0.3-1.7-0.1L522,50.8c-0.4-0.4-0.4-0.9,0.1-1.2v0
		c0.5-0.3,1.3-0.3,1.7,0.1l17.4,14.8C541.7,64.9,541.6,65.5,541.1,65.8z"/>
</g>
<g id="Ebene_14">
	<path class="st30" d="M913.8,233.1c-7.3,0-14.6,0-21.9,0c0.4-0.8,0.7-1.6,1.1-2.3c0.1-0.3,0.3-1.1,1.4-1.6c1.1-0.5,2.4-0.4,3.2-0.3
		c1.3,0.1,1.3,0.3,2.5,0.3c1.3,0,1.3-0.3,2.5-0.3c1.7,0,2,0.6,3.3,0.4c1-0.1,1-0.5,2.1-0.5c1-0.1,1.9,0.2,2.4,0.4
		c1,0.4,1.6,0.9,1.9,1.2C912.8,231.4,913.3,232.2,913.8,233.1z"/>
	<path class="st31" d="M891.9,241.6v-3.5c0-1.8,1.1-3.3,2.5-3.3h16.9c1.4,0,2.5,1.5,2.5,3.3v3.5"/>
	<polyline class="st33" points="891.9,243.5 891.9,239.8 913.8,239.8 913.8,243.5 	"/>
	<path class="st34" d="M891.9,238.7v-2c0-1,1.1-1.9,2.5-1.9h16.9c1.4,0,2.5,0.8,2.5,1.9v2"/>
	<path class="st6" d="M911.2,237h-16.7c-1.4,0-2.6-1.2-2.6-2.6v-0.6c0-1.4,1.2-2.6,2.6-2.6h16.7c1.4,0,2.6,1.2,2.6,2.6v0.6
		C913.8,235.8,912.6,237,911.2,237z"/>
	<rect x="891.9" y="233.2" class="st22" width="21.9" height="3.8"/>
	<path class="st30" d="M882.4,233.1c-7.3,0-14.6,0-21.9,0c0.4-0.8,0.7-1.6,1.1-2.3c0.1-0.3,0.3-1.1,1.4-1.6c1.1-0.5,2.4-0.4,3.2-0.3
		c1.3,0.1,1.3,0.3,2.5,0.3c1.3,0,1.3-0.3,2.5-0.3c1.7,0,2,0.6,3.3,0.4c1-0.1,1-0.5,2.1-0.5c1-0.1,1.9,0.2,2.4,0.4
		c1,0.4,1.6,0.9,1.9,1.2C881.5,231.4,881.9,232.2,882.4,233.1z"/>
	<path class="st31" d="M860.5,241.6v-3.5c0-1.8,1.1-3.3,2.5-3.3h16.9c1.4,0,2.5,1.5,2.5,3.3v3.5"/>
	<polyline class="st33" points="860.5,243.5 860.5,239.8 882.4,239.8 882.4,243.5 	"/>
	<path class="st34" d="M860.5,238.7v-2c0-1,1.1-1.9,2.5-1.9h16.9c1.4,0,2.5,0.8,2.5,1.9v2"/>
	<path class="st6" d="M879.8,237h-16.7c-1.4,0-2.6-1.2-2.6-2.6v-0.6c0-1.4,1.2-2.6,2.6-2.6h16.7c1.4,0,2.6,1.2,2.6,2.6v0.6
		C882.4,235.8,881.2,237,879.8,237z"/>
	<rect x="860.5" y="233.2" class="st22" width="21.9" height="3.8"/>
	<path class="st29" d="M882.4,257.8c-7.3,0-14.6,0-21.9,0c0.4-0.8,0.7-1.6,1.1-2.3c0.1-0.3,0.3-1.1,1.4-1.6c1.1-0.5,2.4-0.4,3.2-0.3
		c1.3,0.1,1.3,0.3,2.5,0.3c1.3,0,1.3-0.3,2.5-0.3c1.7,0,2,0.6,3.3,0.4c1-0.1,1-0.5,2.1-0.5c1-0.1,1.9,0.2,2.4,0.4
		c1,0.4,1.6,0.9,1.9,1.2C881.5,256.1,881.9,256.9,882.4,257.8z"/>
	<path class="st31" d="M860.5,266.3v-3.5c0-1.8,1.1-3.3,2.5-3.3h16.9c1.4,0,2.5,1.5,2.5,3.3v3.5"/>
	<polyline class="st33" points="860.5,268.2 860.5,264.5 882.4,264.5 882.4,268.2 	"/>
	<path class="st34" d="M860.5,263.4v-2c0-1,1.1-1.9,2.5-1.9h16.9c1.4,0,2.5,0.8,2.5,1.9v2"/>
	<path class="st6" d="M879.8,261.7h-16.7c-1.4,0-2.6-1.2-2.6-2.6v-0.6c0-1.4,1.2-2.6,2.6-2.6h16.7c1.4,0,2.6,1.2,2.6,2.6v0.6
		C882.4,260.5,881.2,261.7,879.8,261.7z"/>
	<rect x="860.5" y="257.9" class="st22" width="21.9" height="3.8"/>
	<path class="st29" d="M913.8,257.8c-7.3,0-14.6,0-21.9,0c0.4-0.8,0.7-1.6,1.1-2.3c0.1-0.3,0.3-1.1,1.4-1.6c1.1-0.5,2.4-0.4,3.2-0.3
		c1.3,0.1,1.3,0.3,2.5,0.3c1.3,0,1.3-0.3,2.5-0.3c1.7,0,2,0.6,3.3,0.4c1-0.1,1-0.5,2.1-0.5c1-0.1,1.9,0.2,2.4,0.4
		c1,0.4,1.6,0.9,1.9,1.2C912.8,256.1,913.3,256.9,913.8,257.8z"/>
	<path class="st31" d="M891.9,266.3v-3.5c0-1.8,1.1-3.3,2.5-3.3h16.9c1.4,0,2.5,1.5,2.5,3.3v3.5"/>
	<polyline class="st33" points="891.9,268.2 891.9,264.5 913.8,264.5 913.8,268.2 	"/>
	<path class="st34" d="M891.9,263.4v-2c0-1,1.1-1.9,2.5-1.9h16.9c1.4,0,2.5,0.8,2.5,1.9v2"/>
	<path class="st6" d="M911.2,261.7h-16.7c-1.4,0-2.6-1.2-2.6-2.6v-0.6c0-1.4,1.2-2.6,2.6-2.6h16.7c1.4,0,2.6,1.2,2.6,2.6v0.6
		C913.8,260.5,912.6,261.7,911.2,261.7z"/>
	<rect x="891.9" y="257.9" class="st22" width="21.9" height="3.8"/>
	<path class="st29" d="M882.4,207.4c-7.3,0-14.6,0-21.9,0c0.4-0.8,0.7-1.6,1.1-2.3c0.1-0.3,0.3-1.1,1.4-1.6c1.1-0.5,2.4-0.4,3.2-0.3
		c1.3,0.1,1.3,0.3,2.5,0.3c1.3,0,1.3-0.3,2.5-0.3c1.7,0,2,0.6,3.3,0.4c1-0.1,1-0.5,2.1-0.5c1-0.1,1.9,0.2,2.4,0.4
		c1,0.4,1.6,0.9,1.9,1.2C881.5,205.7,881.9,206.6,882.4,207.4z"/>
	<path class="st31" d="M860.5,216v-3.5c0-1.8,1.1-3.3,2.5-3.3h16.9c1.4,0,2.5,1.5,2.5,3.3v3.5"/>
	<polyline class="st33" points="860.5,217.9 860.5,214.1 882.4,214.1 882.4,217.9 	"/>
	<path class="st34" d="M860.5,213.1v-2c0-1,1.1-1.9,2.5-1.9h16.9c1.4,0,2.5,0.8,2.5,1.9v2"/>
	<path class="st6" d="M879.8,211.3h-16.7c-1.4,0-2.6-1.2-2.6-2.6v-0.6c0-1.4,1.2-2.6,2.6-2.6h16.7c1.4,0,2.6,1.2,2.6,2.6v0.6
		C882.4,210.2,881.2,211.3,879.8,211.3z"/>
	<rect x="860.5" y="207.6" class="st22" width="21.9" height="3.8"/>
	<path class="st34" d="M882.4,207.4c-7.3,0-14.6,0-21.9,0c0.4-0.8,0.7-1.6,1.1-2.3c0.1-0.3,0.3-1.1,1.4-1.6c1.1-0.5,2.4-0.4,3.2-0.3
		c1.3,0.1,1.3,0.3,2.5,0.3c1.3,0,1.3-0.3,2.5-0.3c1.7,0,2,0.6,3.3,0.4c1-0.1,1-0.5,2.1-0.5c1-0.1,1.9,0.2,2.4,0.4
		c1,0.4,1.6,0.9,1.9,1.2C881.5,205.7,881.9,206.6,882.4,207.4z"/>
	<path class="st31" d="M860.5,216v-3.5c0-1.8,1.1-3.3,2.5-3.3h16.9c1.4,0,2.5,1.5,2.5,3.3v3.5"/>
	<polyline class="st33" points="860.5,217.9 860.5,214.1 882.4,214.1 882.4,217.9 	"/>
	<path class="st34" d="M860.5,213.1v-2c0-1,1.1-1.9,2.5-1.9h16.9c1.4,0,2.5,0.8,2.5,1.9v2"/>
	<path class="st6" d="M879.8,211.3h-16.7c-1.4,0-2.6-1.2-2.6-2.6v-0.6c0-1.4,1.2-2.6,2.6-2.6h16.7c1.4,0,2.6,1.2,2.6,2.6v0.6
		C882.4,210.2,881.2,211.3,879.8,211.3z"/>
	<rect x="860.5" y="207.6" class="st22" width="21.9" height="3.8"/>
	<path class="st29" d="M913.8,207.4c-7.3,0-14.6,0-21.9,0c0.4-0.8,0.7-1.6,1.1-2.3c0.1-0.3,0.3-1.1,1.4-1.6c1.1-0.5,2.4-0.4,3.2-0.3
		c1.3,0.1,1.3,0.3,2.5,0.3c1.3,0,1.3-0.3,2.5-0.3c1.7,0,2,0.6,3.3,0.4c1-0.1,1-0.5,2.1-0.5c1-0.1,1.9,0.2,2.4,0.4
		c1,0.4,1.6,0.9,1.9,1.2C912.8,205.7,913.3,206.6,913.8,207.4z"/>
	<path class="st31" d="M891.9,216v-3.5c0-1.8,1.1-3.3,2.5-3.3h16.9c1.4,0,2.5,1.5,2.5,3.3v3.5"/>
	<polyline class="st33" points="891.9,217.9 891.9,214.1 913.8,214.1 913.8,217.9 	"/>
	<path class="st34" d="M891.9,213.1v-2c0-1,1.1-1.9,2.5-1.9h16.9c1.4,0,2.5,0.8,2.5,1.9v2"/>
	<path class="st6" d="M911.2,211.3h-16.7c-1.4,0-2.6-1.2-2.6-2.6v-0.6c0-1.4,1.2-2.6,2.6-2.6h16.7c1.4,0,2.6,1.2,2.6,2.6v0.6
		C913.8,210.2,912.6,211.3,911.2,211.3z"/>
	<rect x="891.9" y="207.6" class="st22" width="21.9" height="3.8"/>
	<path class="st34" d="M913.8,207.4c-7.3,0-14.6,0-21.9,0c0.4-0.8,0.7-1.6,1.1-2.3c0.1-0.3,0.3-1.1,1.4-1.6c1.1-0.5,2.4-0.4,3.2-0.3
		c1.3,0.1,1.3,0.3,2.5,0.3c1.3,0,1.3-0.3,2.5-0.3c1.7,0,2,0.6,3.3,0.4c1-0.1,1-0.5,2.1-0.5c1-0.1,1.9,0.2,2.4,0.4
		c1,0.4,1.6,0.9,1.9,1.2C912.8,205.7,913.3,206.6,913.8,207.4z"/>
	<path class="st31" d="M891.9,216v-3.5c0-1.8,1.1-3.3,2.5-3.3h16.9c1.4,0,2.5,1.5,2.5,3.3v3.5"/>
	<polyline class="st33" points="891.9,217.9 891.9,214.1 913.8,214.1 913.8,217.9 	"/>
	<path class="st34" d="M891.9,213.1v-2c0-1,1.1-1.9,2.5-1.9h16.9c1.4,0,2.5,0.8,2.5,1.9v2"/>
	<path class="st6" d="M911.2,211.3h-16.7c-1.4,0-2.6-1.2-2.6-2.6v-0.6c0-1.4,1.2-2.6,2.6-2.6h16.7c1.4,0,2.6,1.2,2.6,2.6v0.6
		C913.8,210.2,912.6,211.3,911.2,211.3z"/>
	<rect x="891.9" y="207.6" class="st22" width="21.9" height="3.8"/>
</g>
<g id="Ebene_15">
	<path class="st61" d="M906.4,275h-48.9c-6.1,0-11.2-5-11.2-11.2v-58.6c0-6.1,5-11.2,11.2-11.2h48.9c6.1,0,11.2,5,11.2,11.2v58.6
		C917.6,270,912.5,275,906.4,275z"/>
	<path class="st15" d="M851.9,212.8v45.5c0,0.5-0.4,1-1,1l0,0c-0.5,0-1-0.4-1-1v-45.5c0-0.5,0.4-1,1-1l0,0
		C851.5,211.8,851.9,212.3,851.9,212.8z"/>
	<path class="st39" d="M897.8,237.3L897.8,237.3c-0.8,0.6-2,0.5-2.7-0.2l-27.6-30.5c-0.7-0.8-0.6-1.9,0.2-2.5l0,0
		c0.8-0.6,2-0.5,2.7,0.2l27.6,30.5C898.7,235.6,898.6,236.7,897.8,237.3z"/>
	<path class="st39" d="M896.8,261L896.8,261c-0.8,0.6-2,0.5-2.7-0.2l-27.6-30.5c-0.7-0.8-0.6-1.9,0.2-2.5l0,0c0.8-0.6,2-0.5,2.7,0.2
		l27.6,30.5C897.7,259.2,897.6,260.3,896.8,261z"/>
</g>
<g id="Ebene_12">
	<path class="st2" d="M689.5,215.7h-0.9c-1.9,0-3.5-1.6-3.5-3.5v-15.6c0-1.9,1.6-3.5,3.5-3.5h0.9c1.9,0,3.5,1.6,3.5,3.5v15.6
		C693,214.1,691.5,215.7,689.5,215.7z"/>
	<path class="st15" d="M912.1,314h-2.8c-1,0-1.9-0.9-1.9-1.9v-15.2c0-1,0.9-1.9,1.9-1.9h2.8c1,0,1.9,0.9,1.9,1.9v15.2
		C914,313.1,913.1,314,912.1,314z"/>
	<path class="st1" d="M897.2,294.3l14.3,10c0.8,0.5,0.9,1.5,0.3,2.2l-0.2,0.2c-0.6,0.7-1.7,0.8-2.4,0.3l-14.3-10
		c-0.8-0.5-0.9-1.5-0.3-2.2l0.2-0.2C895.4,293.9,896.5,293.8,897.2,294.3z"/>
	<path class="st11" d="M903.2,296.3h-14.6c-0.5,0-1-0.4-1-1v-1.1c0-0.5,0.4-1,1-1h14.6c0.5,0,1,0.4,1,1v1.1
		C904.2,295.9,903.8,296.3,903.2,296.3z"/>
	<path class="st15" d="M854.1,312h-2.8c-1,0-1.9-0.9-1.9-1.9v-13.2c0-1,0.9-1.9,1.9-1.9h2.8c1,0,1.9,0.9,1.9,1.9v13.2
		C856,311.1,855.1,312,854.1,312z"/>
	<path class="st15" d="M882.1,312h-2.8c-1,0-1.9-0.9-1.9-1.9v-13.2c0-1,0.9-1.9,1.9-1.9h2.8c1,0,1.9,0.9,1.9,1.9v13.2
		C884,311.1,883.1,312,882.1,312z"/>
	<path class="st1" d="M840.5,314.2l11.1-13.6c0.6-0.7,1.6-0.8,2.2-0.1l0.2,0.2c0.6,0.6,0.7,1.7,0.1,2.4L843,316.7
		c-0.6,0.7-1.6,0.8-2.2,0.1l-0.2-0.2C839.9,316,839.9,314.9,840.5,314.2z"/>
	<path class="st11" d="M847.2,317.3h-14.6c-0.5,0-1-0.4-1-1v-1.1c0-0.5,0.4-1,1-1h14.6c0.5,0,1,0.4,1,1v1.1
		C848.2,316.9,847.8,317.3,847.2,317.3z"/>
	<path class="st1" d="M867.2,294.3l14.3,10c0.8,0.5,0.9,1.5,0.3,2.2l-0.2,0.2c-0.6,0.7-1.7,0.8-2.4,0.3l-14.3-10
		c-0.8-0.5-0.9-1.5-0.3-2.2l0.2-0.2C865.4,293.9,866.5,293.8,867.2,294.3z"/>
	<path class="st11" d="M873.2,296.3h-14.6c-0.5,0-1-0.4-1-1v-1.1c0-0.5,0.4-1,1-1h14.6c0.5,0,1,0.4,1,1v1.1
		C874.2,295.9,873.8,296.3,873.2,296.3z"/>
	<path class="st30" d="M863.5,291h-16.1c-1.4,0-2.5-1.1-2.5-2.5v-9.1c0-1.4,1.1-2.5,2.5-2.5h16.1c1.4,0,2.5,1.1,2.5,2.5v9.1
		C866,289.9,864.9,291,863.5,291z"/>
	<path class="st29" d="M861.5,291h-16.1c-1.4,0-2.5-1.1-2.5-2.5v-9.1c0-1.4,1.1-2.5,2.5-2.5h16.1c1.4,0,2.5,1.1,2.5,2.5v9.1
		C864,289.9,862.9,291,861.5,291z"/>
	<text transform="matrix(1.2132 0 0 1 845.5088 282.6592)"><tspan x="0" y="0" class="st30 st52 st62">MODEL </tspan><tspan x="0" y="6.2" class="st30 st52 st62">BAKER</tspan></text>
	<path class="st30" d="M890.5,291h-16.1c-1.4,0-2.5-1.1-2.5-2.5v-9.1c0-1.4,1.1-2.5,2.5-2.5h16.1c1.4,0,2.5,1.1,2.5,2.5v9.1
		C893,289.9,891.9,291,890.5,291z"/>
	<path class="st30" d="M917.5,291h-16.1c-1.4,0-2.5-1.1-2.5-2.5v-9.1c0-1.4,1.1-2.5,2.5-2.5h16.1c1.4,0,2.5,1.1,2.5,2.5v9.1
		C920,289.9,918.9,291,917.5,291z"/>
	<path class="st29" d="M888.5,291h-16.1c-1.4,0-2.5-1.1-2.5-2.5v-9.1c0-1.4,1.1-2.5,2.5-2.5h16.1c1.4,0,2.5,1.1,2.5,2.5v9.1
		C891,289.9,889.9,291,888.5,291z"/>
	<path class="st29" d="M915.5,291h-16.1c-1.4,0-2.5-1.1-2.5-2.5v-9.1c0-1.4,1.1-2.5,2.5-2.5h16.1c1.4,0,2.5,1.1,2.5,2.5v9.1
		C918,289.9,916.9,291,915.5,291z"/>
	<rect x="724.5" y="202" class="st50" width="11.5" height="47"/>
	<text transform="matrix(1 0 0 1 728.3486 208.3281)"><tspan x="0" y="0" class="st0 st52 st63">Y </tspan><tspan x="-0.1" y="9.6" class="st0 st52 st63">A </tspan><tspan x="-1" y="19.2" class="st0 st52 st63">M </tspan><tspan x="0.4" y="28.8" class="st0 st52 st63">L</tspan></text>
	<rect x="697.5" y="203" class="st50" width="11.5" height="39"/>
	<text transform="matrix(1 0 0 1 700.8291 210.9102)"><tspan x="0" y="0" class="st0 st52 st64">X </tspan><tspan x="-1.2" y="12" class="st0 st52 st64">M </tspan><tspan x="0.5" y="24" class="st0 st52 st64">L</tspan></text>
	<rect x="300.5" y="159.7" class="st50" width="89.3" height="14.3"/>
	<text transform="matrix(1 0 0 1 302.6465 168.3916)" class="st11 st52 st53 st54">METACONFIGS </text>
	<rect x="299.5" y="159.7" class="st50" width="89.3" height="14.3"/>
	<text transform="matrix(1 0 0 1 301.6465 168.3916)" class="st37 st52 st53 st54">METACONFIGS </text>
	<text transform="matrix(1 0 0 1 26.52 294.6816)" class="st11 st52 st53 st54">-MODELS-</text>
	<text transform="matrix(1 0 0 1 25.52 294.6816)" class="st37 st52 st53 st54">-MODELS-</text>
	<rect x="696.5" y="203" class="st50" width="11.5" height="39"/>
	<text transform="matrix(1 0 0 1 699.5098 210.9102)"><tspan x="0" y="0" class="st37 st52 st64">Q </tspan><tspan x="-0.9" y="12" class="st37 st52 st64">M </tspan><tspan x="0.8" y="24" class="st37 st52 st64">L</tspan></text>
	<rect x="723.5" y="202" class="st50" width="11.5" height="47"/>
	<text transform="matrix(1 0 0 1 727.3486 208.3281)"><tspan x="0" y="0" class="st37 st52 st63">Y </tspan><tspan x="-0.1" y="9.6" class="st37 st52 st63">A </tspan><tspan x="-1" y="19.2" class="st37 st52 st63">M </tspan><tspan x="0.4" y="28.8" class="st37 st52 st63">L</tspan></text>
	<text transform="matrix(1 0 0 1 459.5859 116.3604)"><tspan x="0" y="0" class="st11 st52 st53 st54">I</tspan><tspan x="-0.5" y="13.2" class="st11 st52 st53 st54">L</tspan><tspan x="0" y="26.4" class="st11 st52 st53 st54">I</tspan><tspan x="-1.2" y="39.6" class="st11 st52 st53 st54">2</tspan><tspan x="-1.5" y="52.8" class="st11 st52 st53 st54">D</tspan><tspan x="-1.5" y="66" class="st11 st52 st53 st54">B</tspan></text>
	<text transform="matrix(1 0 0 1 458.5859 116.3604)"><tspan x="0" y="0" class="st4 st52 st53 st54">I </tspan><tspan x="-0.5" y="13.2" class="st4 st52 st53 st54">L</tspan><tspan x="0" y="26.4" class="st4 st52 st53 st54">I</tspan><tspan x="-1.2" y="39.6" class="st4 st52 st53 st54">2</tspan><tspan x="-1.5" y="52.8" class="st4 st52 st53 st54">D</tspan><tspan x="-1.5" y="66" class="st4 st52 st53 st54">B</tspan></text>
	<text transform="matrix(1.2132 0 0 1 844.5088 282.6592)"><tspan x="0" y="0" class="st65 st52 st62">MODEL </tspan><tspan x="0" y="6.2" class="st65 st52 st62">BAKER</tspan></text>
	<rect x="685.4" y="292.9" class="st50" width="89.3" height="14.3"/>
	<text transform="matrix(1 0 0 1 699.9067 301.5576)" class="st51 st52 st53 st54">TOPPINGS</text>
	<rect x="683.8" y="292.8" class="st50" width="89.3" height="14.3"/>
	<text transform="matrix(1 0 0 1 698.3101 301.4681)" class="st37 st52 st53 st54">TOPPINGS</text>
</g>
</svg>
