<svg xmlns="http://www.w3.org/2000/svg" viewBox="0 0 131.98 44.85"><defs><style>.cls-1{fill:#c69c6c;}.cls-2{fill:#cd7e9b;}.cls-3,.cls-6{fill:#904762;}.cls-4{fill:#c05d82;}.cls-5{font-size:17px;fill:#3c3c3b;font-family:BradleyHandITC, Bradley Hand ITC;}.cls-6{font-family:Windows-Command-Prompt, Windows Command Prompt;}.cls-7{letter-spacing:0em;}</style></defs><g id="Ebene_1" data-name="Ebene 1"><rect class="cls-1" x="107.42" y="9.08" width="22.9" height="6.09" rx="2.6"/><polygon class="cls-2" points="105.57 11.33 131.98 11.33 128.13 23.45 109.42 23.45 105.57 11.33"/><rect class="cls-2" x="107.89" y="5.04" width="19.41" height="4.19" rx="2"/><rect class="cls-2" x="110.48" y="2.95" width="14.23" height="3.14" rx="1.5"/><rect class="cls-2" x="114.17" y="1.9" width="7.95" height="2.1" rx="1"/><rect class="cls-3" x="112.08" y="5.04" width="16.76" height="4.19" rx="2"/><rect class="cls-3" x="114.17" y="2.95" width="12.57" height="3.14" rx="1.5"/><rect class="cls-3" x="115.65" y="1.9" width="6.9" height="2.1" rx="1"/><rect class="cls-4" x="111.03" y="5.04" width="14.67" height="4.19" rx="2"/><rect class="cls-4" x="113.13" y="2.95" width="10.48" height="3.14" rx="1.5"/><rect class="cls-4" x="115.22" y="1.9" width="6.29" height="2.1" rx="1"/><path class="cls-4" d="M118.34,6.43c0-.28.28-.51.59-.64s.65-.19.95-.33a1.41,1.41,0,0,0,.79-.93c.12,0,.18.11.22.2a2.51,2.51,0,0,0,1.07.78c.4.22.81.52.81.92" transform="translate(-2.27 -4.53)"/><polygon class="cls-4" points="105.57 11.33 129.89 11.33 126.34 23.45 109.12 23.45 105.57 11.33"/><polygon class="cls-4" points="105.57 11.33 129.89 11.33 126.34 23.45 109.12 23.45 105.57 11.33"/><polygon class="cls-2" points="105.57 11.33 127.79 11.33 124.55 23.45 108.81 23.45 105.57 11.33"/><polygon class="cls-4" points="107.89 11.33 125.7 11.33 123.1 23.45 110.49 23.45 107.89 11.33"/><polygon class="cls-3" points="109.98 11.33 127.79 11.33 125.19 23.45 112.58 23.45 109.98 11.33"/></g><g id="Ebene_2" data-name="Ebene 2"><text class="cls-5" transform="translate(0 23.45)">Usab<tspan class="cls-6" x="35.83" y="0">ili</tspan><tspan class="cls-7" x="58.15" y="0">tyHub</tspan></text></g></svg>