<?xml version="1.0" encoding="utf-8"?>
<!-- Generator: Adobe Illustrator 25.2.3, SVG Export Plug-In . SVG Version: 6.00 Build 0)  -->
<svg version="1.1" xmlns="http://www.w3.org/2000/svg" xmlns:xlink="http://www.w3.org/1999/xlink" x="0px" y="0px"
	 viewBox="0 0 1191 434" style="enable-background:new 0 0 1191 434;" xml:space="preserve">
<style type="text/css">
	.st0{fill:#808080;}
	.st1{fill:#CCCCCC;}
	.st2{fill:#B3B3B3;}
	.st3{fill:#FFFFFF;}
	.st4{fill:#999999;}
	.st5{clip-path:url(#SVGID_2_);fill:none;stroke:#CCCCCC;stroke-linejoin:round;}
	.st6{fill:#C69C6D;}
	.st7{fill:#CFA98E;}
	.st8{fill:#FFF0AD;}
	.st9{fill:#FFE77F;}
	.st10{fill:#D6BF58;}
	.st11{fill:#666666;}
	.st12{fill:#333333;}
	.st13{fill:#39B54A;}
	.st14{fill:#C1272D;}
	.st15{fill:#4D4D4D;}
	.st16{fill:#EBDCD1;}
	.st17{fill:#C6B4A0;}
	.st18{fill:#8C7B6A;}
	.st19{fill:#A69585;}
	.st20{font-family:'LakesightPersonalUseOnly';}
	.st21{font-size:5.0893px;}
	.st22{fill:#A67C52;}
	.st23{fill:#B89E8C;}
	.st24{fill:#B89A7D;}
	.st25{fill:#B3B3B3;stroke:#666666;stroke-miterlimit:10;}
	.st26{fill:#E6E6E6;}
	.st27{fill:#FFB0CD;stroke:#FF95BD;stroke-width:0.5;stroke-miterlimit:10;}
	.st28{fill:#FFCADE;}
	.st29{fill:#FFB0CD;}
	.st30{fill:#BF5C81;}
	.st31{fill:#8C6239;}
	.st32{fill:url(#SVGID_3_);stroke:#FFFFFF;stroke-miterlimit:10;}
	.st33{fill:#754C24;}
	.st34{fill:#FF7BAC;}
	.st35{fill:#CC7D9A;}
	.st36{fill:#8F4561;}
	.st37{fill:#F2F2F2;}
	.st38{opacity:0.61;fill:#FFFFFF;}
	.st39{opacity:0.56;fill:#FFFFFF;}
	.st40{fill:none;stroke:#000000;stroke-width:0.5;stroke-miterlimit:10;}
	.st41{fill:url(#SVGID_4_);stroke:#FFFFFF;stroke-miterlimit:10;}
	.st42{opacity:0.13;fill:#4D4D4D;}
	.st43{fill:url(#SVGID_5_);stroke:#FFFFFF;stroke-miterlimit:10;}
	.st44{fill:#47AD4D;}
	.st45{fill:#C0282E;}
	.st46{fill:url(#SVGID_6_);stroke:#FFFFFF;stroke-miterlimit:10;}
	.st47{fill:#989898;}
	.st48{fill:#B3B3B2;}
	.st49{opacity:0.13;fill:#4E4D4D;}
	.st50{fill:none;}
	.st51{fill:#676767;}
	.st52{font-family:'Impact';}
	.st53{font-size:13.5385px;}
	.st54{letter-spacing:3;}
	.st55{fill:#F1F1F1;}
	.st56{fill:url(#SVGID_7_);stroke:#FFFFFF;stroke-miterlimit:10;}
	.st57{fill:#C59B6C;}
	.st58{fill:#A57C52;}
	.st59{opacity:0.73;fill:#F1F1F1;}
	.st60{fill:#4E4D4D;}
	.st61{opacity:0.73;fill:#F2F2F2;}
	.st62{font-size:6.4056px;}
	.st63{font-size:9.8462px;}
	.st64{font-size:12.3077px;}
	.st65{fill:#FFE5EE;}
</style>
<g id="Ebene_1">
</g>
<g id="Ebene_17">
	<path class="st0" d="M1135.8,377.2l20.9-15.3c0.4-0.3,0.9-0.2,1.2,0.2l0.2,0.3c0.3,0.4,0.2,0.9-0.2,1.2l-20.9,15.3
		c-0.4,0.3-0.9,0.2-1.2-0.2l-0.2-0.3C1135.4,378,1135.5,377.4,1135.8,377.2z"/>
	<rect x="1134.3" y="361.7" class="st1" width="47.7" height="2.1"/>
</g>
<g id="Ebene_2">
	<g>
		<path class="st2" d="M108.9,373.5H26c-6.6,0-12-5.4-12-12V223c0-6.6,5.4-12,12-12h82.9c6.6,0,12,5.4,12,12v138.5
			C120.9,368.1,115.5,373.5,108.9,373.5z"/>
	</g>
	<rect x="14" y="331.8" class="st2" width="106.9" height="59.7"/>
	<rect x="26.4" y="361.4" class="st3" width="81.9" height="61.1"/>
	<rect x="23.7" y="228.3" class="st4" width="88.9" height="27.2"/>
	<path class="st4" d="M108.1,244.6H28.2c-2.5,0-4.5-2-4.5-4.5v-13.5c0-2.5,2-4.5,4.5-4.5h79.9c2.5,0,4.5,2,4.5,4.5v13.5
		C112.6,242.6,110.6,244.6,108.1,244.6z"/>
	<rect x="67.5" y="315.2" class="st1" width="2.9" height="15.9"/>
	<g>
		<defs>
			<rect id="SVGID_1_" x="66.8" y="314.5" width="4.3" height="17.3"/>
		</defs>
		<clipPath id="SVGID_2_">
			<use xlink:href="#SVGID_1_"  style="overflow:visible;"/>
		</clipPath>
		<rect x="67.5" y="315.2" class="st5" width="2.9" height="15.9"/>
	</g>
	<rect x="23.7" y="313" class="st4" width="88.9" height="27.2"/>
	<path class="st4" d="M108.1,329.3H28.2c-2.5,0-4.5-2-4.5-4.5v-13.5c0-2.5,2-4.5,4.5-4.5h79.9c2.5,0,4.5,2,4.5,4.5v13.5
		C112.6,327.3,110.6,329.3,108.1,329.3z"/>
	<rect x="23.7" y="269.9" class="st4" width="88.9" height="27.2"/>
	<path class="st4" d="M108.1,286.3H28.2c-2.5,0-4.5-2-4.5-4.5v-13.5c0-2.5,2-4.5,4.5-4.5h79.9c2.5,0,4.5,2,4.5,4.5v13.5
		C112.6,284.3,110.6,286.3,108.1,286.3z"/>
	<rect x="30.7" y="361" class="st4" width="9.7" height="25"/>
	<rect x="94.5" y="361" class="st4" width="9.7" height="25"/>
	<rect x="23.7" y="291.6" class="st0" width="88.9" height="5.6"/>
	<rect x="23.7" y="249.9" class="st0" width="88.9" height="5.6"/>
	<rect x="23.7" y="291.6" class="st0" width="88.9" height="5.6"/>
	<rect x="23.7" y="334.6" class="st0" width="88.9" height="5.6"/>
	<ellipse class="st6" cx="27.2" cy="246.4" rx="3.5" ry="4.9"/>
	
		<ellipse transform="matrix(0.3245 -0.9459 0.9459 0.3245 -182.2778 240.4176)" class="st6" cx="77.2" cy="247.8" rx="4.9" ry="3.5"/>
	<ellipse transform="matrix(0.9528 -0.3036 0.3036 0.9528 -72.3118 30.4898)" class="st6" cx="61.9" cy="247.8" rx="4.9" ry="3.5"/>
	<ellipse class="st6" cx="102.2" cy="247.8" rx="3.5" ry="4.9"/>
	<ellipse transform="matrix(0.4637 -0.886 0.886 0.4637 -200.5199 164.3788)" class="st6" cx="35.5" cy="247.8" rx="3.5" ry="4.9"/>
	
		<ellipse transform="matrix(0.7443 -0.6679 0.6679 0.7443 -143.6479 120.4911)" class="st6" cx="85.5" cy="247.8" rx="3.5" ry="4.9"/>
	
		<ellipse transform="matrix(0.5645 -0.8254 0.8254 0.5645 -186.0064 145.8792)" class="st7" cx="45.2" cy="249.2" rx="3.5" ry="4.9"/>
	<ellipse class="st7" cx="31.4" cy="249.2" rx="3.5" ry="4.9"/>
	<ellipse class="st7" cx="109.1" cy="249.2" rx="3.5" ry="4.9"/>
	<ellipse transform="matrix(0.9701 -0.2427 0.2427 0.9701 -58.3389 24.8339)" class="st7" cx="71.6" cy="249.2" rx="3.5" ry="4.9"/>
</g>
<g id="Ebene_3">
	<rect x="28" y="289.3" class="st8" width="9" height="6.5"/>
	<polygon class="st9" points="45.9,292.5 36.9,295.7 36.9,289.3 45.9,286 	"/>
	<polygon class="st10" points="37,289.3 27.8,289.3 36.7,286 45.9,286 	"/>
	<rect x="40.5" y="289.3" class="st8" width="9" height="6.5"/>
	<polygon class="st9" points="58.4,292.5 49.4,295.7 49.4,289.3 58.4,286 	"/>
	<polygon class="st10" points="49.5,289.3 40.3,289.3 49.2,286 58.4,286 	"/>
	<rect x="34.9" y="282.3" class="st8" width="9" height="6.5"/>
	<polygon class="st9" points="52.9,285.6 43.9,288.8 43.9,282.3 52.9,279.1 	"/>
	<polygon class="st10" points="43.9,282.3 34.8,282.3 43.7,279.1 52.9,279.1 	"/>
	<rect x="64.1" y="289.3" class="st8" width="9" height="6.5"/>
	<polygon class="st9" points="82,292.5 73.1,295.7 73.1,289.3 82,286 	"/>
	<polygon class="st10" points="73.1,289.3 63.9,289.3 72.9,286 82,286 	"/>
	<rect x="76.6" y="289.3" class="st8" width="9" height="6.5"/>
	<polygon class="st9" points="94.5,292.5 85.6,295.7 85.6,289.3 94.5,286 	"/>
	<polygon class="st10" points="85.6,289.3 76.4,289.3 85.3,286 94.5,286 	"/>
	<rect x="69.6" y="282.3" class="st8" width="9" height="6.5"/>
	<polygon class="st9" points="87.6,285.6 78.6,288.8 78.6,282.3 87.6,279.1 	"/>
	<polygon class="st10" points="78.7,282.3 69.5,282.3 78.4,279.1 87.6,279.1 	"/>
	<rect x="91.8" y="289.3" class="st8" width="9" height="6.5"/>
	<polygon class="st9" points="109.8,292.5 100.8,295.7 100.8,289.3 109.8,286 	"/>
	<polygon class="st10" points="100.9,289.3 91.7,289.3 100.6,286 109.8,286 	"/>
	<rect x="84.9" y="282.3" class="st8" width="9" height="6.5"/>
	<polygon class="st9" points="102.9,285.6 93.9,288.8 93.9,282.3 102.9,279.1 	"/>
	<polygon class="st10" points="93.9,282.3 84.8,282.3 93.7,279.1 102.9,279.1 	"/>
</g>
<g id="Ebene_8">
	<rect x="264" y="329.1" class="st11" width="4.2" height="62.5"/>
	<rect x="336.2" y="329.1" class="st11" width="4.2" height="62.5"/>
	<rect x="504.2" y="329.1" class="st11" width="4.2" height="62.5"/>
	<rect x="580.6" y="329.1" class="st11" width="4.2" height="62.5"/>
	<rect x="665.3" y="329.1" class="st11" width="4.2" height="62.5"/>
	<rect x="696.8" y="330" class="st11" width="4.2" height="62.5"/>
	<rect x="810.7" y="330" class="st11" width="4.2" height="62.5"/>
	<rect x="999.5" y="330" class="st11" width="4.2" height="62.5"/>
	<rect x="899.6" y="330" class="st12" width="4.2" height="62.5"/>
</g>
<g id="Ebene_16">
	<path class="st13" d="M837.8,274.5h-1.6c-1.1,0-2-0.9-2-2v-7.1c0-1.1,0.9-2,2-2h1.6c1.1,0,2,0.9,2,2v7.1
		C839.8,273.6,838.9,274.5,837.8,274.5z"/>
	<path class="st14" d="M837.8,289.7h-1.6c-1.1,0-2-0.9-2-2v-7.1c0-1.1,0.9-2,2-2h1.6c1.1,0,2,0.9,2,2v7.1
		C839.8,288.8,838.9,289.7,837.8,289.7z"/>
	<path class="st13" d="M352.2,233.2h-1.6c-1.1,0-2-0.9-2-2v-7.1c0-1.1,0.9-2,2-2h1.6c1.1,0,2,0.9,2,2v7.1
		C354.2,232.4,353.3,233.2,352.2,233.2z"/>
	<path class="st14" d="M352.2,247.1h-1.6c-1.1,0-2-0.9-2-2V238c0-1.1,0.9-2,2-2h1.6c1.1,0,2,0.9,2,2v7.1
		C354.2,246.2,353.3,247.1,352.2,247.1z"/>
	<path class="st13" d="M1027.2,274.2h-0.9c-1,0-1.9-0.9-1.9-1.9v-5.6c0-1,0.9-1.9,1.9-1.9h0.9c1,0,1.9,0.9,1.9,1.9v5.6
		C1029.1,273.3,1028.2,274.2,1027.2,274.2z"/>
	<path class="st14" d="M1027.2,285.9h-0.9c-1,0-1.9-0.9-1.9-1.9v-5.6c0-1,0.9-1.9,1.9-1.9h0.9c1,0,1.9,0.9,1.9,1.9v5.6
		C1029.1,285,1028.2,285.9,1027.2,285.9z"/>
</g>
<g id="Ebene_9">
	<rect x="837.1" y="238.4" class="st15" width="120.8" height="154.2"/>
	<path class="st0" d="M950.4,263.4H844.6c-4.1,0-7.5-3.4-7.5-7.5v-22.5c0-4.1,3.4-7.5,7.5-7.5h105.8c4.1,0,7.5,3.4,7.5,7.5v22.5
		C957.9,260,954.5,263.4,950.4,263.4z"/>
	<polygon class="st2" points="866.6,296.6 860.8,296.7 859.6,284 867.6,283.9 	"/>
	<polygon class="st2" points="900.4,296.6 894.7,296.7 893.4,284 901.5,283.9 	"/>
	<polygon class="st2" points="933.2,296.6 927.5,296.7 926.2,284 934.3,283.9 	"/>
</g>
<g id="Ebene_10">
	<path class="st1" d="M866.4,289.7h-5.9c-1.4,0-2.6-1.2-2.6-2.6v-44.8c0-1.4,1.2-2.6,2.6-2.6h5.9c1.4,0,2.6,1.2,2.6,2.6v44.8
		C869,288.6,867.8,289.7,866.4,289.7z"/>
	<path class="st1" d="M899.7,289.7h-5.9c-1.4,0-2.6-1.2-2.6-2.6v-44.8c0-1.4,1.2-2.6,2.6-2.6h5.9c1.4,0,2.6,1.2,2.6,2.6v44.8
		C902.3,288.6,901.2,289.7,899.7,289.7z"/>
	<path class="st1" d="M933.1,289.7h-5.9c-1.4,0-2.6-1.2-2.6-2.6v-44.8c0-1.4,1.2-2.6,2.6-2.6h5.9c1.4,0,2.6,1.2,2.6,2.6v44.8
		C935.7,288.6,934.5,289.7,933.1,289.7z"/>
</g>
<g id="Ebene_4">
	<rect x="27.9" y="319.7" class="st16" width="13.1" height="17.2"/>
	<polygon class="st17" points="41.7,336.7 40.9,336.9 40.9,319.7 41.8,319.7 	"/>
	<polygon class="st18" points="41.8,319.7 40.1,319.7 40.1,317.7 	"/>
	<polygon class="st19" points="40.9,319.7 27.9,319.7 28.9,317.8 40.1,317.7 	"/>
	<text transform="matrix(0.919 0 0 1 28.8613 325.3076)" class="st3 st20 st21">Flour</text>
	<rect x="43.2" y="319.7" class="st16" width="13.1" height="17.2"/>
	<polygon class="st17" points="56.9,336.7 56.2,336.9 56.2,319.7 57.1,319.7 	"/>
	<polygon class="st18" points="57.1,319.7 55.4,319.7 55.4,317.7 	"/>
	<polygon class="st19" points="56.2,319.7 43.2,319.7 44.2,317.8 55.4,317.7 	"/>
	<text transform="matrix(0.919 0 0 1 44.1377 325.3076)" class="st3 st20 st21">Flour</text>
	<rect x="58.4" y="319.7" class="st16" width="13.1" height="17.2"/>
	<polygon class="st17" points="72.2,336.7 71.5,336.9 71.5,319.7 72.3,319.7 	"/>
	<polygon class="st18" points="72.3,319.7 70.7,319.7 70.7,317.7 	"/>
	<polygon class="st19" points="71.5,319.7 58.4,319.7 59.4,317.8 70.7,317.7 	"/>
	<text transform="matrix(0.919 0 0 1 59.4131 325.3076)" class="st3 st20 st21">Flour</text>
	<rect x="73.7" y="319.7" class="st16" width="13.1" height="17.2"/>
	<polygon class="st17" points="87.5,336.7 86.8,336.9 86.8,319.7 87.6,319.7 	"/>
	<polygon class="st18" points="87.6,319.7 85.9,319.7 85.9,317.7 	"/>
	<polygon class="st19" points="86.8,319.7 73.7,319.7 74.7,317.8 85.9,317.7 	"/>
	<text transform="matrix(0.919 0 0 1 74.6904 325.3076)" class="st3 st20 st21">Flour</text>
	<rect x="89" y="319.7" class="st16" width="13.1" height="17.2"/>
	<polygon class="st17" points="102.8,336.7 102,336.9 102,319.7 102.9,319.7 	"/>
	<polygon class="st18" points="102.9,319.7 101.2,319.7 101.2,317.7 	"/>
	<polygon class="st19" points="102,319.7 89,319.7 90,317.8 101.2,317.7 	"/>
	<text transform="matrix(0.919 0 0 1 89.9658 325.3076)" class="st3 st20 st21">Flour</text>
	<path class="st0" d="M242.8,302.7h-71.6c-1.7,0-3.1-1.4-3.1-3.1v-7.7c0-1.7,1.4-3.1,3.1-3.1h71.6c1.7,0,3.1,1.4,3.1,3.1v7.7
		C245.9,301.3,244.5,302.7,242.8,302.7z"/>
	<rect x="173.7" y="302.7" class="st4" width="68" height="88.9"/>
	<ellipse class="st22" cx="207.7" cy="182.6" rx="56.2" ry="6.2"/>
	<g>
		<polygon class="st2" points="238.4,288.8 175.3,288.8 150.1,180.5 265.4,180.5 		"/>
	</g>
	<path class="st22" d="M177.5,179.6c1.6-1,3.8,0.2,4.7,1.8c1,1.6,1.2,3.6,1.9,5.3c0.5,1.2,1.4,2.4,2.6,2.4c1.2,0,2.1-1.1,2.5-2.2
		s0.3-2.4,0.4-3.5c0.2-1.2,0.7-2.4,1.7-3c0.9-0.5,2.1-0.3,2.9-1"/>
	<path class="st22" d="M224.7,180.4c0.4,0,0.8,0.3,1,0.7s0.3,0.8,0.5,1.1s0.5,0.7,0.9,0.7c0.1,0,0.1,0,0.2,0c0.1,0,0.2-0.2,0.3-0.3
		c0.1-0.3,0-0.6,0.1-0.9c0.1-0.7,0.6-1.3,1.3-1.5"/>
	<circle class="st15" cx="183.1" cy="319" r="5.9"/>
	<circle class="st2" cx="183" cy="319.2" r="4.3"/>
	<circle class="st3" cx="183.2" cy="319.1" r="2.1"/>
	<path class="st0" d="M266.2,297.1h-21.1c-0.3,0-0.5-0.2-0.5-0.5v-3.1c0-0.3,0.2-0.5,0.5-0.5h21.1c0.3,0,0.5,0.2,0.5,0.5v3.1
		C266.8,296.9,266.5,297.1,266.2,297.1z"/>
	<path class="st1" d="M184.8,285.8l-2.3,0.5c-1.6,0.4-3.2-0.6-3.6-2.2l-21.4-91.5c-0.4-1.6,0.6-3.2,2.2-3.6l2.3-0.5
		c1.6-0.4,3.2,0.6,3.6,2.2l21.4,91.5C187.4,283.8,186.4,285.5,184.8,285.8z"/>
	<path class="st2" d="M180.5,386h-1.2c-0.8,0-1.5-0.7-1.5-1.5V332c0-0.8,0.7-1.5,1.5-1.5h1.2c0.8,0,1.5,0.7,1.5,1.5v52.5
		C182,385.3,181.4,386,180.5,386z"/>
	<path class="st23" d="M185.9,187.1c0.3,0.6,0.4,1.1,0,1c-0.5-0.2-1.3-1.3-1.5-2c-0.1-0.4,0.2-0.4,0.6-0.1
		C185.3,186.2,185.6,186.7,185.9,187.1z"/>
	<path class="st24" d="M226.5,181.2c0.2,0.3,0.3,0.6,0.2,0.5c-0.1,0-0.3-0.3-0.5-0.6c-0.2-0.3-0.2-0.5-0.1-0.5
		C226.1,180.7,226.3,180.9,226.5,181.2z"/>
	<path class="st1" d="M18.1,390.2h-1.2c-0.8,0-1.5-0.7-1.5-1.5V227.8c0-0.8,0.7-1.5,1.5-1.5h1.2c0.8,0,1.5,0.7,1.5,1.5v160.9
		C19.6,389.5,18.9,390.2,18.1,390.2z"/>
	<rect x="245.9" y="293" class="st15" width="5.6" height="4.2"/>
	<path class="st0" d="M265.8,301.3h-2.2c-0.6,0-1-0.4-1-1V294c0-0.6,0.4-1,1-1h2.2c0.6,0,1,0.4,1,1v6.3
		C266.8,300.8,266.3,301.3,265.8,301.3z"/>
	<rect x="261.2" y="299.9" class="st11" width="6.9" height="1.4"/>
	<path class="st25" d="M699.7,329.1H243.5c-1,0-1.7-0.8-1.7-1.7v-4.8c0-1,0.8-1.7,1.7-1.7h456.2c1,0,1.7,0.8,1.7,1.7v4.8
		C701.4,328.3,700.7,329.1,699.7,329.1z"/>
	<circle class="st26" cx="248.7" cy="324.9" r="4.2"/>
	<circle class="st4" cx="248.7" cy="324.9" r="3.1"/>
	<circle class="st26" cx="286.2" cy="324.9" r="4.2"/>
	<circle class="st4" cx="286.2" cy="324.9" r="3.1"/>
	<circle class="st26" cx="326.5" cy="324.9" r="4.2"/>
	<circle class="st4" cx="326.5" cy="324.9" r="3.1"/>
	<circle class="st26" cx="375.1" cy="324.9" r="4.2"/>
	<circle class="st4" cx="375.1" cy="324.9" r="3.1"/>
	<circle class="st26" cx="430.6" cy="324.9" r="4.2"/>
	<circle class="st4" cx="430.6" cy="324.9" r="3.1"/>
	<circle class="st26" cx="494.5" cy="324.9" r="4.2"/>
	<circle class="st4" cx="494.5" cy="324.9" r="3.1"/>
	<circle class="st26" cx="558.4" cy="324.9" r="4.2"/>
	<circle class="st4" cx="558.4" cy="324.9" r="3.1"/>
	<circle class="st26" cx="620.9" cy="324.9" r="4.2"/>
	<circle class="st4" cx="620.9" cy="324.9" r="3.1"/>
	<circle class="st26" cx="697.3" cy="324.9" r="4.2"/>
	<circle class="st4" cx="697.3" cy="324.9" r="3.1"/>
	<path class="st25" d="M1011,329.3H695.1c-1,0-1.7-0.8-1.7-1.7v-4.8c0-1,0.8-1.7,1.7-1.7H1011c1,0,1.7,0.8,1.7,1.7v4.8
		C1012.7,328.5,1012,329.3,1011,329.3z"/>
	<circle class="st26" cx="699.6" cy="324.5" r="4.2"/>
	<circle class="st4" cx="699.6" cy="324.5" r="3.1"/>
	<circle class="st26" cx="766.2" cy="324.5" r="4.2"/>
	<circle class="st4" cx="766.2" cy="324.5" r="3.1"/>
	<path class="st26" d="M762.1,324.5c0-2.3,1.9-4.2,4.2-4.2s4.2,1.9,4.2,4.2"/>
	<path class="st26" d="M766.2,328.6c-2.3,0-4.2-1.9-4.2-4.2"/>
	<path class="st26" d="M770.4,324.5c0,2.3-1.9,4.2-4.2,4.2"/>
	<path class="st4" d="M769.3,324.5c0,2.4-2.8,4.2-5.3,2.2c-1.9-2.5-0.2-5.3,2.2-5.3C767.9,321.4,769.3,322.8,769.3,324.5"/>
	<path class="st26" d="M832.9,324.5c0-2.3,1.9-4.2,4.2-4.2s4.2,1.9,4.2,4.2"/>
	<path class="st26" d="M837.1,328.6c-2.3,0-4.2-1.9-4.2-4.2"/>
	<path class="st26" d="M841.2,324.5c0,2.3-1.9,4.2-4.2,4.2"/>
	<path class="st4" d="M840.1,324.5c0,1.7-1.4,3.1-3.1,3.1s-3.1-1.4-3.1-3.1s1.4-3.1,3.1-3.1S840.1,322.8,840.1,324.5"/>
	<path class="st26" d="M914.8,324.5c0-2.3,1.9-4.2,4.2-4.2c2.3,0,4.2,1.9,4.2,4.2"/>
	<path class="st26" d="M919,328.6c-2.3,0-4.2-1.9-4.2-4.2"/>
	<path class="st26" d="M923.2,324.5c0,2.3-1.9,4.2-4.2,4.2"/>
	<path class="st4" d="M922,324.5c0,1.7-1.4,3.1-3.1,3.1c-1.7,0-3.1-1.4-3.1-3.1s1.4-3.1,3.1-3.1C920.7,321.4,922,322.8,922,324.5"/>
	<path class="st26" d="M1003.7,324.5c0-2.3,1.9-4.2,4.2-4.2s4.2,1.9,4.2,4.2"/>
	<path class="st26" d="M1007.9,328.6c-2.3,0-4.2-1.9-4.2-4.2"/>
	<path class="st26" d="M1012,324.5c0,2.3-1.9,4.2-4.2,4.2"/>
	<path class="st4" d="M1010.9,324.5c0,1.7-1.4,3.1-3.1,3.1s-3.1-1.4-3.1-3.1s1.4-3.1,3.1-3.1S1010.9,322.8,1010.9,324.5"/>
</g>
<g id="Ebene_7">
	<path class="st27" d="M552.1,310.3c0.4-0.6,0.6-1.5,1.4-1.6c0.5-0.1,1-0.1,1.6-0.1c0.5,0,1.1,0,1.6-0.1c0.6-0.1,1.2-0.5,1.7-0.8
		c1.5-1.2,2.5-3,3-4.9s0.6-3.8,0.7-5.8c0.1-1.6,0.1-3.3,0.2-4.9c2.1-0.3,4.2-0.3,6.3,0.1c0.6,3.6,1.2,7.2,2.1,10.8
		c0.1,0.5,0.2,1,0.5,1.5c0.5,1.2,1.6,2.1,2.7,2.7c1.1,0.6,2.4,0.9,3.7,1.3c0.9,0.2,1.9,1.2,2.5,1.9"/>
	<path class="st28" d="M561.9,304.9c-0.2,0.4-0.4,0.7-0.4,1.2c0.4,0,0.6-0.3,0.8-0.7c0.6-1.1,1-2.4,1.1-3.6c0-0.4,0-1.2-0.6-1
		c-0.4,0.2-0.2,0.6-0.2,0.9C563,302.7,562.4,304.1,561.9,304.9z"/>
	<path class="st28" d="M567.3,299.5c0.2,0.5,0.5,1,0.9,1.4c0.1,0.1,0.3,0.2,0.4,0.2c0-0.3-0.2-0.7-0.3-1c-0.3-0.5-0.5-1-0.7-1.4
		c-0.1-0.3-0.3-0.9-0.6-1.1C566.9,298.1,567.1,298.9,567.3,299.5z"/>
	<path class="st28" d="M559.3,307.9c0.1-0.1,0.2-0.1,0.3-0.1c0.1,0,0.2,0,0.3,0.1c0,0,0,0.1,0,0.1c0,0.3-0.3,0.6-0.6,0.8
		s-0.6,0.2-1,0.2c-0.3,0-1.5,0.2-1.7-0.1c0.4-0.1,0.9-0.2,1.3-0.3C558.5,308.4,558.9,308.2,559.3,307.9z"/>
	<path class="st28" d="M573.7,307.9c-0.1-0.1-0.1-0.1-0.1-0.2c0.2,0,0.4,0.1,0.6,0.2c0.4,0.2,0.8,0.3,1.3,0.4c0.1,0,0.9,0.2,0.5,0.4
		c-0.2,0.1-0.9-0.1-1.1-0.2C574.4,308.4,574,308.2,573.7,307.9z"/>
	<path class="st28" d="M567.5,308.8c0.1,0,0.2,0,0.3-0.1c0.1-0.1,0-0.2-0.1-0.3c-0.1-0.1-0.2-0.1-0.3-0.1c-0.3-0.1-0.6-0.2-0.7-0.4
		c0,0,0-0.1-0.1-0.1c-0.1,0-0.1,0-0.2,0c-0.1,0-0.1,0.1-0.1,0.2c-0.1,0.2-0.2,0.5,0.1,0.7C566.7,308.8,567.2,308.7,567.5,308.8z"/>
	<path class="st28" d="M563.2,296.7c0,0.1,0,0.2,0.1,0.3c0.1,0,0.1,0,0.2-0.1c0-0.1,0.1-0.1,0.1-0.2c0.1-0.3,0.1-0.6,0.1-0.9
		c0-0.2-0.3-1-0.3-0.4C563.2,295.9,563.2,296.3,563.2,296.7z"/>
	<path class="st29" d="M637.3,310.7c-0.5-0.1-0.9-0.6-1-1.1c-0.1-0.5,0.2-1.1,0.6-1.4c0.3-0.2,0.6-0.3,0.9-0.3
		c6-1.5,12.3-1.5,18.5-1.4c1,0,2.1,0,3.1,0.2c0.8,0.1,1.5,0.4,2.3,0.5c1.7,0.4,3.6,0.4,4.9,1.5c0.5,0.4,0.8,0.9,0.8,1.5
		s-0.5,1.2-1,1.2"/>
	<path class="st28" d="M641.9,308.7c1.5-0.1,2.8-0.7,4.3-0.9c0.2,0,0.5-0.1,0.7,0c0.2,0.1,0.4,0.2,0.4,0.5c0,0.3-0.2,0.6-0.5,0.7
		c-1.4,0.7-3.2-0.2-4.8,0.1c-0.9,0.2-1.4,0.4-2-0.2C640.5,308.6,641.2,308.7,641.9,308.7z"/>
	<path class="st28" d="M658.9,308.2c0.1,0.1,0.3,0.3,0.2,0.5c-0.1,0.2-2.4-0.4-2.4-0.9C656.8,306.9,658.7,307.9,658.9,308.2z"/>
</g>
<g id="Ebene_11">
	<path class="st30" d="M969,305c-10.6,0-21.3,0-31.9,0c0.5-1.1,1.1-2.3,1.6-3.4c0.1-0.4,0.5-1.6,2-2.3c1.6-0.7,3.5-0.6,4.7-0.5
		c1.8,0.1,2,0.5,3.7,0.5c1.9,0,1.9-0.4,3.7-0.4c2.5,0,2.9,0.8,4.9,0.6c1.5-0.2,1.5-0.7,3.1-0.8c1.5-0.1,2.7,0.4,3.5,0.6
		c1.5,0.5,2.4,1.3,2.8,1.8C967.6,302.5,968.3,303.8,969,305z"/>
	<path class="st29" d="M1048.9,321.5"/>
	<path class="st29" d="M880.1,305c-10.6,0-21.3,0-31.9,0c0.5-1.1,1.1-2.3,1.6-3.4c0.1-0.4,0.5-1.6,2-2.3c1.6-0.7,3.5-0.6,4.7-0.5
		c1.8,0.1,2,0.5,3.7,0.5c1.9,0,1.9-0.4,3.7-0.4c2.5,0,2.9,0.8,4.9,0.6c1.5-0.2,1.5-0.7,3.1-0.8c1.5-0.1,2.7,0.4,3.5,0.6
		c1.5,0.5,2.4,1.3,2.8,1.8C878.8,302.5,879.4,303.8,880.1,305z"/>
</g>
<g id="Ebene_5">
	<rect x="252.9" y="312.4" class="st0" width="25" height="8.3"/>
	<rect x="252.9" y="316.6" class="st4" width="11.1" height="1.4"/>
	<rect x="262.6" y="301.3" class="st22" width="4.2" height="11.1"/>
	<path class="st6" d="M264.3,311h-0.2c-0.1,0-0.1-0.1-0.1-0.1v-9.5c0-0.1,0.1-0.1,0.1-0.1h0.2c0.1,0,0.1,0.1,0.1,0.1v9.5
		C264.4,311,264.3,311,264.3,311z"/>
	<path class="st31" d="M265.7,312.4h-0.2c-0.1,0-0.1-0.1-0.1-0.1v-9.5c0-0.1,0.1-0.1,0.1-0.1h0.2c0.1,0,0.1,0.1,0.1,0.1v9.5
		C265.8,312.4,265.7,312.4,265.7,312.4z"/>
	<path class="st7" d="M358.4,313.1c0,1.2-5.6,2.1-12.5,2.1s-12.5-0.9-12.5-2.1c0-1.2,5.6-3.5,12.5-3.5S358.4,312,358.4,313.1z"/>
	<polyline class="st0" points="333.4,320.7 333.4,312.4 358.4,312.4 358.4,320.7 	"/>
	<rect x="333.4" y="316.6" class="st4" width="11.1" height="1.4"/>
	<linearGradient id="SVGID_3_" gradientUnits="userSpaceOnUse" x1="483.1154" y1="242.7011" x2="469.2832" y2="250.6872">
		<stop  offset="0" style="stop-color:#FFFFFF"/>
		<stop  offset="0.1574" style="stop-color:#FFDDDD"/>
		<stop  offset="0.5071" style="stop-color:#FF8585"/>
		<stop  offset="1" style="stop-color:#FF0000"/>
	</linearGradient>
	<path class="st32" d="M479.9,256.2c0,1.9-1.6,3.5-3.5,3.5s-3.5-1.6-3.5-3.5c0-1.1,0.5-2.1,1.4-2.8v-18.1c0-1.2,0.9-2.1,2.1-2.1
		s2.1,0.9,2.1,2.1v18.1C479.4,254,479.9,255,479.9,256.2z"/>
	<path class="st6" d="M530.8,320.7h-26.7c-1.4,0-2.6-1.2-2.6-2.6v-5.9c0-1.4,1.2-2.6,2.6-2.6h26.7c1.4,0,2.6,1.2,2.6,2.6v5.9
		C533.4,319.6,532.2,320.7,530.8,320.7z"/>
	<path class="st31" d="M580.8,320.7h-29.5c-1.4,0-2.6-1.2-2.6-2.6v-5.9c0-1.4,1.2-2.6,2.6-2.6h29.5c1.4,0,2.6,1.2,2.6,2.6v5.9
		C583.4,319.6,582.2,320.7,580.8,320.7z"/>
	<path class="st31" d="M666.9,320.7h-29.5c-1.4,0-2.6-1.2-2.6-2.6v-5.9c0-1.4,1.2-2.6,2.6-2.6h29.5c1.4,0,2.6,1.2,2.6,2.6v5.9
		C669.5,319.6,668.3,320.7,666.9,320.7z"/>
	<path d="M461,384.6h-87.2c-4.7,0-8.5-3.8-8.5-8.5v-6.6c0-4.7,3.8-8.5,8.5-8.5H461c4.7,0,8.5,3.8,8.5,8.5v6.6
		C469.5,380.8,465.7,384.6,461,384.6z"/>
	<rect x="501.5" y="313.5" class="st22" width="31.9" height="7.2"/>
	<rect x="548.7" y="313.5" class="st33" width="34.7" height="7.2"/>
	<rect x="634.8" y="313.5" class="st33" width="34.7" height="7.2"/>
	<path class="st6" d="M623.5,295.1L605.7,315c-1,1.1-2.6,1.2-3.7,0.2l-4.4-3.9c-1.1-1-1.2-2.6-0.2-3.7l17.9-19.9
		c1-1.1,2.6-1.2,3.7-0.2l4.4,3.9C624.4,292.3,624.5,294,623.5,295.1z"/>
	
		<rect x="595.9" y="299" transform="matrix(0.6677 -0.7444 0.7444 0.6677 -21.9321 556.0505)" class="st22" width="31.9" height="7.2"/>
	<path class="st31" d="M781.5,317.5v-5.2c0-2.7,1.6-4.8,3.6-4.8h24.7c2,0,3.6,2.2,3.6,4.8v5.2"/>
	<polyline class="st33" points="781.5,320.3 781.5,314.8 813.4,314.8 813.4,320.3 	"/>
	<path class="st34" d="M781.5,313.3v-3c0-1.5,1.6-2.8,3.6-2.8h24.7c2,0,3.6,1.2,3.6,2.8v3"/>
	<path class="st6" d="M810.8,310.7h-26.7c-1.4,0-2.6-1.2-2.6-2.6v-3.3c0-1.4,1.2-2.6,2.6-2.6h26.7c1.4,0,2.6,1.2,2.6,2.6v3.3
		C813.4,309.6,812.3,310.7,810.8,310.7z"/>
	<rect x="781.5" y="305.2" class="st22" width="31.9" height="5.5"/>
	<path class="st31" d="M848.2,317.5v-5.2c0-2.7,1.6-4.8,3.6-4.8h24.7c2,0,3.6,2.2,3.6,4.8v5.2"/>
	<polyline class="st33" points="848.2,320.3 848.2,314.8 880.1,314.8 880.1,320.3 	"/>
	<path class="st34" d="M848.2,313.3v-3c0-1.5,1.6-2.8,3.6-2.8h24.7c2,0,3.6,1.2,3.6,2.8v3"/>
	<path class="st6" d="M877.5,310.7h-26.7c-1.4,0-2.6-1.2-2.6-2.6v-3.3c0-1.4,1.2-2.6,2.6-2.6h26.7c1.4,0,2.6,1.2,2.6,2.6v3.3
		C880.1,309.6,878.9,310.7,877.5,310.7z"/>
	<rect x="848.2" y="305.2" class="st22" width="31.9" height="5.5"/>
	<path class="st31" d="M712.1,317.5v-5.2c0-2.7,1.6-4.8,3.6-4.8h24.7c2,0,3.6,2.2,3.6,4.8v5.2"/>
	<polyline class="st33" points="712.1,320.3 712.1,314.8 744,314.8 744,320.3 	"/>
	<path class="st34" d="M712.1,313.3v-3c0-1.5,1.6-2.8,3.6-2.8h24.7c2,0,3.6,1.2,3.6,2.8v3"/>
	<path class="st6" d="M741.4,310.7h-26.7c-1.4,0-2.6-1.2-2.6-2.6v-3.3c0-1.4,1.2-2.6,2.6-2.6h26.7c1.4,0,2.6,1.2,2.6,2.6v3.3
		C744,309.6,742.8,310.7,741.4,310.7z"/>
	<rect x="712.1" y="305.2" class="st22" width="31.9" height="5.5"/>
	<path class="st31" d="M937,317.5v-5.2c0-2.7,1.6-4.8,3.6-4.8h24.7c2,0,3.6,2.2,3.6,4.8v5.2"/>
	<polyline class="st33" points="937,320.3 937,314.8 969,314.8 969,320.3 	"/>
	<path class="st34" d="M937,313.3v-3c0-1.5,1.6-2.8,3.6-2.8h24.7c2,0,3.6,1.2,3.6,2.8v3"/>
	<path class="st6" d="M966.4,310.7h-26.7c-1.4,0-2.6-1.2-2.6-2.6v-3.3c0-1.4,1.2-2.6,2.6-2.6h26.7c1.4,0,2.6,1.2,2.6,2.6v3.3
		C969,309.6,967.8,310.7,966.4,310.7z"/>
	<rect x="937" y="305.2" class="st22" width="31.9" height="5.5"/>
	<path class="st6" d="M1170.1,352.7h-21.7c-1.4,0-2.6-1.2-2.6-2.6v-2c0-1.4,1.2-2.6,2.6-2.6h21.7c1.4,0,2.6,1.2,2.6,2.6v2
		C1172.7,351.5,1171.5,352.7,1170.1,352.7z"/>
	<polygon class="st35" points="1143.6,348.2 1174.6,348.2 1170.1,362.4 1148.1,362.4 	"/>
	<path class="st35" d="M1167.1,345.7h-18.8c-1.1,0-2-0.9-2-2v-0.9c0-1.1,0.9-2,2-2h18.8c1.1,0,2,0.9,2,2v0.9
		C1169.1,344.8,1168.2,345.7,1167.1,345.7z"/>
	<path class="st35" d="M1164.6,342h-13.7c-0.8,0-1.5-0.7-1.5-1.5v-0.7c0-0.8,0.7-1.5,1.5-1.5h13.7c0.8,0,1.5,0.7,1.5,1.5v0.7
		C1166.1,341.4,1165.4,342,1164.6,342z"/>
	<path class="st35" d="M1162,339.6h-7.3c-0.5,0-1-0.5-1-1v-0.5c0-0.6,0.5-1,1-1h7.3c0.6,0,1,0.4,1,1v0.5
		C1163,339.1,1162.6,339.6,1162,339.6z"/>
	<path class="st36" d="M1168.9,345.7h-15.7c-1.1,0-2-0.9-2-2v-0.9c0-1.1,0.9-2,2-2h15.7c1.1,0,2,0.9,2,2v0.9
		C1170.9,344.8,1170,345.7,1168.9,345.7z"/>
	<path class="st36" d="M1167,342h-11.8c-0.8,0-1.5-0.7-1.5-1.5v-0.7c0-0.8,0.7-1.5,1.5-1.5h11.8c0.8,0,1.5,0.7,1.5,1.5v0.7
		C1168.5,341.4,1167.8,342,1167,342z"/>
	<path class="st36" d="M1162.5,339.6h-6.1c-0.5,0-1-0.4-1-1v-0.5c0-0.6,0.5-1,1-1h6.1c0.6,0,1,0.4,1,1v0.5
		C1163.5,339.1,1163.1,339.6,1162.5,339.6z"/>
	<path class="st30" d="M1165.2,345.7H1152c-1.1,0-2-0.9-2-2v-0.9c0-1.1,0.9-2,2-2h13.2c1.1,0,2,0.9,2,2v0.9
		C1167.2,344.8,1166.3,345.7,1165.2,345.7z"/>
	<path class="st30" d="M1163.3,342h-9.3c-0.8,0-1.5-0.7-1.5-1.5v-0.7c0-0.8,0.7-1.5,1.5-1.5h9.3c0.8,0,1.5,0.7,1.5,1.5v0.7
		C1164.8,341.4,1164.1,342,1163.3,342z"/>
	<path class="st30" d="M1161.3,339.6h-5.4c-0.6,0-1-0.5-1-1v-0.5c0-0.5,0.4-1,1-1h5.4c0.5,0,1,0.5,1,1v0.5
		C1162.3,339.1,1161.9,339.6,1161.3,339.6z"/>
	<path class="st30" d="M1155.9,337.1c0-0.3,0.3-0.6,0.7-0.8c0.4-0.2,0.8-0.2,1.1-0.4c0.5-0.2,0.8-0.6,0.9-1.1c0.1,0,0.2,0.1,0.3,0.2
		c0.2,0.4,0.8,0.7,1.2,0.9c0.5,0.3,1,0.6,1,1.1"/>
	<polygon class="st30" points="1143.6,348.2 1172.2,348.2 1168,362.4 1147.8,362.4 	"/>
	<polygon class="st30" points="1143.6,348.2 1172.2,348.2 1168,362.4 1147.8,362.4 	"/>
	<polygon class="st35" points="1143.6,348.2 1169.7,348.2 1165.9,362.4 1147.4,362.4 	"/>
	<polygon class="st30" points="1146.3,348.2 1167.2,348.2 1164.2,362.4 1149.4,362.4 	"/>
	<polygon class="st36" points="1148.8,348.2 1169.7,348.2 1166.6,362.4 1151.8,362.4 	"/>
</g>
<g id="Ebene_13">
</g>
<g id="Ebene_6">
	<path class="st4" d="M486.2,192.8V393H351.5V192.8c0-6.8,5.5-12.3,12.3-12.3h110.1C480.7,180.5,486.2,186,486.2,192.8z"/>
	<path class="st37" d="M458.3,320.7h-81.8c-6.1,0-11.2-5-11.2-11.2V218c0-6.1,5-11.2,11.2-11.2h81.8c6.1,0,11.2,5,11.2,11.2v91.6
		C469.5,315.7,464.5,320.7,458.3,320.7z"/>
	<path class="st15" d="M373.7,228.7v71.6c0,0.6-0.4,1-1,1h-0.8c-0.6,0-1-0.4-1-1v-71.6c0-0.6,0.4-1,1-1h0.8
		C373.2,227.7,373.7,228.1,373.7,228.7z"/>
	<path class="st38" d="M432.9,303.1l-1.2,1c-0.8,0.7-2.1,0.6-2.8-0.2l-41.3-48.6c-0.7-0.8-0.6-2.1,0.2-2.8l1.2-1
		c0.8-0.7,2.1-0.6,2.8,0.2l41.3,48.6C433.9,301.1,433.8,302.4,432.9,303.1z"/>
	<path class="st39" d="M435.7,273.9l-1.2,1c-0.8,0.7-2.1,0.6-2.8-0.2l-41.3-48.6c-0.7-0.8-0.6-2.1,0.2-2.8l1.2-1
		c0.8-0.7,2.1-0.6,2.8,0.2l41.3,48.6C436.6,272,436.5,273.2,435.7,273.9z"/>
	<ellipse class="st2" cx="372.4" cy="339.5" rx="5.7" ry="4.9"/>
	<circle class="st1" cx="371.6" cy="339.5" r="4.9"/>
	<path class="st40" d="M371.8,344.2c0-0.6,0.1-1,0.1-0.8"/>
	<path class="st40" d="M367.1,339.4c0.6,0,1,0.1,0.8,0"/>
	<path class="st40" d="M368.3,343c0.4-0.4,0.7-0.8,0.5-0.6"/>
	<path class="st40" d="M368.2,336.5c0.5,0.3,0.8,0.6,0.6,0.5"/>
	<path class="st40" d="M371.3,335.2c0,0.6,0,1,0,0.8"/>
	<path class="st40" d="M374.9,336.5c-0.5,0.4-0.8,0.6-0.6,0.5"/>
	<path class="st40" d="M376,339.4c-0.6,0-1,0-0.8,0"/>
	<path class="st40" d="M374.8,343c-0.4-0.5-0.7-0.8-0.5-0.6"/>
	<ellipse class="st2" cx="412.7" cy="339.5" rx="5.7" ry="4.9"/>
	<circle class="st1" cx="411.9" cy="339.5" r="4.9"/>
	<path class="st40" d="M412.1,344.2c0-0.6,0.1-1,0.1-0.8"/>
	<path class="st40" d="M407.4,339.4c0.6,0,1,0.1,0.8,0"/>
	<path class="st40" d="M408.6,343c0.4-0.4,0.7-0.8,0.5-0.6"/>
	<path class="st40" d="M408.5,336.5c0.5,0.3,0.8,0.6,0.6,0.5"/>
	<path class="st40" d="M411.6,335.2c0,0.6,0,1,0,0.8"/>
	<path class="st40" d="M415.1,336.5c-0.5,0.4-0.8,0.6-0.6,0.5"/>
	<path class="st40" d="M416.3,339.4c-0.6,0-1,0-0.8,0"/>
	<path class="st40" d="M415.1,343c-0.4-0.5-0.7-0.8-0.5-0.6"/>
	<ellipse class="st2" cx="453" cy="339.5" rx="5.7" ry="4.9"/>
	<circle class="st1" cx="452.2" cy="339.5" r="4.9"/>
	<path class="st40" d="M452.3,344.2c0-0.6,0.1-1,0.1-0.8"/>
	<path class="st40" d="M447.6,339.4c0.6,0,1,0.1,0.8,0"/>
	<path class="st40" d="M448.9,343c0.4-0.4,0.7-0.8,0.5-0.6"/>
	<path class="st40" d="M448.8,336.5c0.5,0.3,0.8,0.6,0.6,0.5"/>
	<path class="st40" d="M451.8,335.2c0,0.6,0,1,0,0.8"/>
	<path class="st40" d="M455.4,336.5c-0.5,0.4-0.8,0.6-0.6,0.5"/>
	<path class="st40" d="M456.6,339.4c-0.6,0-1,0-0.8,0"/>
	<path class="st40" d="M455.3,343c-0.4-0.5-0.7-0.8-0.5-0.6"/>
	<path class="st0" d="M465.1,380.5h-93.9c-3.2,0-5.8-2.6-5.8-5.8v-11.9c0-3.2,2.6-5.8,5.8-5.8h93.9c3.2,0,5.8,2.6,5.8,5.8v11.9
		C470.9,377.8,468.3,380.5,465.1,380.5z"/>
	<path class="st2" d="M357.8,380.5h-1.6c-1.1,0-2-0.9-2-2V199.1c0-1.1,0.9-2,2-2h1.6c1.1,0,2,0.9,2,2v179.3
		C359.8,379.6,358.9,380.5,357.8,380.5z"/>
	<rect x="559.8" y="233.2" class="st2" width="11.1" height="55.5"/>
	<path class="st0" d="M573.5,294.4h-16.3c-0.9,0-1.6-0.7-1.6-1.6v-2.4c0-0.9,0.7-1.6,1.6-1.6h16.3c0.9,0,1.6,0.7,1.6,1.6v2.4
		C575.1,293.7,574.4,294.4,573.5,294.4z"/>
	<rect x="561.2" y="113.1" class="st1" width="7.9" height="120.1"/>
	<path class="st4" d="M562.9,293H558c-0.6,0-1-0.4-1-1v-0.8c0-0.6,0.4-1,1-1h4.9c0.6,0,1,0.4,1,1v0.8
		C563.9,292.5,563.5,293,562.9,293z"/>
	<path class="st1" d="M562.9,286h-0.8c-0.6,0-1-0.4-1-1v-49.4c0-0.6,0.4-1,1-1h0.8c0.6,0,1,0.4,1,1V285
		C563.9,285.6,563.5,286,562.9,286z"/>
	<linearGradient id="SVGID_4_" gradientUnits="userSpaceOnUse" x1="1137.3335" y1="272.5896" x2="1126.1895" y2="279.0236">
		<stop  offset="0" style="stop-color:#FFFFFF"/>
		<stop  offset="0.1574" style="stop-color:#FFDDDD"/>
		<stop  offset="0.5071" style="stop-color:#FF8585"/>
		<stop  offset="1" style="stop-color:#FF0000"/>
	</linearGradient>
	<path class="st41" d="M1134.9,283.3c0,1.5-1.3,2.8-2.9,2.8c-1.6,0-2.9-1.2-2.9-2.8c0-0.9,0.5-1.7,1.2-2.2v-14.3
		c0-0.9,0.8-1.7,1.8-1.7c1,0,1.8,0.7,1.8,1.7v14.3C1134.4,281.6,1134.9,282.4,1134.9,283.3z"/>
	<path class="st4" d="M1140.2,233.1v158.7h-113.4V233.1c0-5.4,4.6-9.8,10.4-9.8h92.7C1135.5,223.3,1140.2,227.7,1140.2,233.1z"/>
	<path class="st2" d="M1031.8,378.3h-0.9c-1,0-1.9-0.9-1.9-1.9V234.9c0-1,0.9-1.9,1.9-1.9h0.9c1,0,1.9,0.9,1.9,1.9v141.5
		C1033.7,377.4,1032.9,378.3,1031.8,378.3z"/>
	<path class="st42" d="M1124.8,264.2h-84.6c-0.5,0-1-0.4-1-1v-0.4c0-0.5,0.4-1,1-1h84.6c0.5,0,1,0.4,1,1v0.4
		C1125.8,263.8,1125.4,264.2,1124.8,264.2z"/>
	<path class="st42" d="M1124.8,294.6h-84.6c-0.5,0-1-0.4-1-1v-0.4c0-0.5,0.4-1,1-1h84.6c0.5,0,1,0.4,1,1v0.4
		C1125.8,294.2,1125.4,294.6,1124.8,294.6z"/>
	<path class="st42" d="M1124.8,326.2h-84.6c-0.5,0-1-0.4-1-1v-0.4c0-0.5,0.4-1,1-1h84.6c0.5,0,1,0.4,1,1v0.4
		C1125.8,325.8,1125.4,326.2,1124.8,326.2z"/>
	<line class="st33" x1="1121.5" y1="288.8" x2="1121.5" y2="293.5"/>
	<line class="st33" x1="1094.6" y1="293.5" x2="1094.6" y2="288.8"/>
	<polygon class="st1" points="673.4,220.5 664.6,225.1 592.6,114 601.4,109.4 	"/>
	<path class="st1" d="M630.1,282.4l-8.2-5.5c-0.9-0.6-1.1-1.8-0.5-2.7l37.1-54.9c0.6-0.9,1.8-1.1,2.7-0.5l8.2,5.5
		c0.9,0.6,1.1,1.8,0.5,2.7l-37.1,54.9C632.2,282.8,631,283,630.1,282.4z"/>
	<ellipse class="st4" cx="665.8" cy="221.9" rx="9.2" ry="8.2"/>
	<ellipse class="st11" cx="665.8" cy="221.9" rx="7.6" ry="6.8"/>
	<path class="st11" d="M618.8,281.9l-4.1,7.2c-0.1,0.3-0.5,0.3-0.7,0.2l-0.3-0.2c-0.3-0.1-0.3-0.5-0.2-0.7l4.1-7.2
		c0.1-0.3,0.5-0.3,0.7-0.2l0.3,0.2C618.8,281.3,618.9,281.6,618.8,281.9z"/>
	<path class="st11" d="M626.4,279.6l-7.9,2.4c-0.3,0.1-0.6-0.1-0.6-0.3l-0.1-0.3c-0.1-0.3,0.1-0.6,0.3-0.6l7.9-2.4
		c0.3-0.1,0.6,0.1,0.6,0.3l0.1,0.3C626.9,279.3,626.7,279.5,626.4,279.6z"/>
	<circle class="st4" cx="618.3" cy="281.7" r="1.2"/>
	<path class="st11" d="M629.5,287.1l-5.3,6c-0.2,0.3-0.2,0.7,0.1,0.9l0.1,0c0.3,0.2,0.7,0.2,0.9-0.1l5.3-6"/>
	<path class="st11" d="M630.4,288.3l-0.3-8c0-0.3-0.3-0.6-0.7-0.6l-0.1,0c-0.3,0-0.6,0.3-0.6,0.7l0.3,8"/>
	<circle class="st4" cx="629.4" cy="287.9" r="1.2"/>
	<linearGradient id="SVGID_5_" gradientUnits="userSpaceOnUse" x1="1139.7976" y1="264.7815" x2="1128.1486" y2="271.5071">
		<stop  offset="0" style="stop-color:#FFFFFF"/>
		<stop  offset="0.1574" style="stop-color:#FFDDDD"/>
		<stop  offset="0.5071" style="stop-color:#FF8585"/>
		<stop  offset="1" style="stop-color:#FF0000"/>
	</linearGradient>
	<path class="st43" d="M1137.1,276.1c0,1.6-1.3,2.9-2.9,2.9s-2.9-1.3-2.9-2.9c0-1,0.5-1.8,1.2-2.3v-15.2c0-1,0.8-1.8,1.8-1.8
		c1,0,1.8,0.8,1.8,1.8v15.2C1136.7,274.3,1137.1,275.2,1137.1,276.1z"/>
	<path class="st0" d="M943.4,370.5h-93.9c-3.2,0-5.8-2.6-5.8-5.8v-11.9c0-3.2,2.6-5.8,5.8-5.8h93.9c3.2,0,5.8,2.6,5.8,5.8v11.9
		C949.3,367.9,946.6,370.5,943.4,370.5z"/>
	<path class="st44" d="M599.4,49.4h-3.5c-0.9,0-1.7-0.7-1.7-1.7v-0.8c0-0.9,0.7-1.7,1.7-1.7h3.5c0.9,0,1.7,0.7,1.7,1.7v0.8
		C601.1,48.6,600.3,49.4,599.4,49.4z"/>
	<path class="st45" d="M599.4,54.5h-3.5c-0.9,0-1.7-0.7-1.7-1.7v-0.8c0-0.9,0.7-1.7,1.7-1.7h3.5c0.9,0,1.7,0.7,1.7,1.7v0.8
		C601.1,53.7,600.3,54.5,599.4,54.5z"/>
	<linearGradient id="SVGID_6_" gradientUnits="userSpaceOnUse" x1="755.4017" y1="48.1289" x2="747.075" y2="52.9362">
		<stop  offset="0" style="stop-color:#FFFFFF"/>
		<stop  offset="0.1781" style="stop-color:#FBDDDD"/>
		<stop  offset="0.5734" style="stop-color:#F08785"/>
		<stop  offset="1" style="stop-color:#E42320"/>
	</linearGradient>
	<path class="st46" d="M755.9,53.4c0,0.7-1.9,1.2-4.3,1.2s-4.3-0.5-4.3-1.2c0-0.4,0.7-0.7,1.7-1v-6.3c0-0.4,1.1-0.7,2.6-0.7
		s2.6,0.3,2.6,0.7v6.3C755.3,52.6,755.9,53,755.9,53.4z"/>
	<path class="st47" d="M763.6,31.4v69.4h-166V31.4c0-2.4,6.8-4.3,15.2-4.3h135.6C756.8,27.1,763.6,29,763.6,31.4z"/>
	<path class="st48" d="M606,94.9h-3c-1,0-1.9-0.9-1.9-1.9V33.3c0-1,0.9-1.9,1.9-1.9h3c1,0,1.9,0.9,1.9,1.9V93
		C607.9,94,607.1,94.9,606,94.9z"/>
	<path class="st49" d="M742.2,45H616.5c-0.2,0-0.4-0.2-0.4-0.4v-0.2c0-0.2,0.2-0.4,0.4-0.4h125.7c0.2,0,0.4,0.2,0.4,0.4v0.2
		C742.6,44.8,742.4,45,742.2,45z"/>
	<path class="st49" d="M742.2,58.3H616.5c-0.2,0-0.4-0.2-0.4-0.4v-0.2c0-0.2,0.2-0.4,0.4-0.4h125.7c0.2,0,0.4,0.2,0.4,0.4v0.2
		C742.6,58.1,742.4,58.3,742.2,58.3z"/>
	<rect x="624.1" y="84" class="st50" width="109.9" height="17.6"/>
	<text transform="matrix(1 0 0 1 636.6475 94.6646)" class="st51 st52 st53 st54">CATALOGUE</text>
	<rect x="623.2" y="84" class="st50" width="109.9" height="17.6"/>
	<text transform="matrix(1 0 0 1 635.792 94.6646)" class="st55 st52 st53 st54">CATALOGUE</text>
	<linearGradient id="SVGID_7_" gradientUnits="userSpaceOnUse" x1="761.1101" y1="52.0324" x2="747.2779" y2="60.0184">
		<stop  offset="0" style="stop-color:#FFFFFF"/>
		<stop  offset="0.1914" style="stop-color:#DDE2EF"/>
		<stop  offset="0.6116" style="stop-color:#8698C6"/>
		<stop  offset="1" style="stop-color:#31509E"/>
	</linearGradient>
	<path class="st56" d="M757.9,65.5c0,1.9-1.6,3.5-3.5,3.5c-1.9,0-3.5-1.6-3.5-3.5c0-1.1,0.5-2.1,1.4-2.8V44.7c0-1.2,0.9-2.1,2.1-2.1
		c1.2,0,2.1,0.9,2.1,2.1v18.1C757.4,63.4,757.9,64.4,757.9,65.5z"/>
	<path class="st57" d="M670.4,56.7h-14.5c-0.7,0-1.2-0.5-1.2-1.2v-0.6c0-0.7,0.5-1.2,1.2-1.2h14.5c0.7,0,1.2,0.5,1.2,1.2v0.6
		C671.6,56.2,671.1,56.7,670.4,56.7z"/>
	<rect x="654.6" y="54.8" class="st58" width="17" height="2"/>
	<path class="st57" d="M646,56.7h-14.5c-0.7,0-1.2-0.5-1.2-1.2v-0.6c0-0.7,0.5-1.2,1.2-1.2H646c0.7,0,1.2,0.5,1.2,1.2v0.6
		C647.3,56.2,646.7,56.7,646,56.7z"/>
	<rect x="630.3" y="54.8" class="st58" width="17" height="2"/>
	<path class="st57" d="M646,43.4h-14.5c-0.7,0-1.2-0.5-1.2-1.2v-0.6c0-0.7,0.5-1.2,1.2-1.2H646c0.7,0,1.2,0.5,1.2,1.2v0.6
		C647.3,42.9,646.7,43.4,646,43.4z"/>
	<rect x="630.3" y="41.4" class="st58" width="17" height="2"/>
	<path class="st57" d="M646,43.4h-14.5c-0.7,0-1.2-0.5-1.2-1.2v-0.6c0-0.7,0.5-1.2,1.2-1.2H646c0.7,0,1.2,0.5,1.2,1.2v0.6
		C647.3,42.9,646.7,43.4,646,43.4z"/>
	<rect x="630.3" y="41.4" class="st58" width="17" height="2"/>
	<path class="st57" d="M670.4,43.4h-14.5c-0.7,0-1.2-0.5-1.2-1.2v-0.6c0-0.7,0.5-1.2,1.2-1.2h14.5c0.7,0,1.2,0.5,1.2,1.2v0.6
		C671.6,42.9,671.1,43.4,670.4,43.4z"/>
	<rect x="654.6" y="41.4" class="st58" width="17" height="2"/>
	<path class="st57" d="M670.4,43.4h-14.5c-0.7,0-1.2-0.5-1.2-1.2v-0.6c0-0.7,0.5-1.2,1.2-1.2h14.5c0.7,0,1.2,0.5,1.2,1.2v0.6
		C671.6,42.9,671.1,43.4,670.4,43.4z"/>
	<rect x="654.6" y="41.4" class="st58" width="17" height="2"/>
	<path class="st57" d="M719.2,56.7h-14.5c-0.7,0-1.2-0.5-1.2-1.2v-0.6c0-0.7,0.5-1.2,1.2-1.2h14.5c0.7,0,1.2,0.5,1.2,1.2v0.6
		C720.4,56.2,719.9,56.7,719.2,56.7z"/>
	<rect x="703.4" y="54.8" class="st58" width="17" height="2"/>
	<path class="st57" d="M694.8,56.7h-14.5c-0.7,0-1.2-0.5-1.2-1.2v-0.6c0-0.7,0.5-1.2,1.2-1.2h14.5c0.7,0,1.2,0.5,1.2,1.2v0.6
		C696.1,56.2,695.5,56.7,694.8,56.7z"/>
	<rect x="679.1" y="54.8" class="st58" width="17" height="2"/>
	<path class="st57" d="M694.8,43.4h-14.5c-0.7,0-1.2-0.5-1.2-1.2v-0.6c0-0.7,0.5-1.2,1.2-1.2h14.5c0.7,0,1.2,0.5,1.2,1.2v0.6
		C696.1,42.9,695.5,43.4,694.8,43.4z"/>
	<rect x="679.1" y="41.4" class="st58" width="17" height="2"/>
	<path class="st57" d="M694.8,43.4h-14.5c-0.7,0-1.2-0.5-1.2-1.2v-0.6c0-0.7,0.5-1.2,1.2-1.2h14.5c0.7,0,1.2,0.5,1.2,1.2v0.6
		C696.1,42.9,695.5,43.4,694.8,43.4z"/>
	<rect x="679.1" y="41.4" class="st58" width="17" height="2"/>
	<path class="st57" d="M719.2,43.4h-14.5c-0.7,0-1.2-0.5-1.2-1.2v-0.6c0-0.7,0.5-1.2,1.2-1.2h14.5c0.7,0,1.2,0.5,1.2,1.2v0.6
		C720.4,42.9,719.9,43.4,719.2,43.4z"/>
	<rect x="703.4" y="41.4" class="st58" width="17" height="2"/>
	<path class="st57" d="M719.2,43.4h-14.5c-0.7,0-1.2-0.5-1.2-1.2v-0.6c0-0.7,0.5-1.2,1.2-1.2h14.5c0.7,0,1.2,0.5,1.2,1.2v0.6
		C720.4,42.9,719.9,43.4,719.2,43.4z"/>
	<rect x="703.4" y="41.4" class="st58" width="17" height="2"/>
	<path class="st59" d="M735.1,75h-106c-6.1,0-11.2-5-11.2-11.2V44.4c0-6.1,5-11.2,11.2-11.2h106c6.1,0,11.2,5,11.2,11.2v19.3
		C746.3,69.9,741.2,75,735.1,75z"/>
	<path class="st60" d="M626.7,41.7v23.6c0,0.5-0.4,1-1,1h-1.5c-0.5,0-1-0.4-1-1V41.7c0-0.5,0.4-1,1-1h1.5
		C626.2,40.7,626.7,41.2,626.7,41.7z"/>
	<rect x="840.6" y="354.1" class="st50" width="109.9" height="17.6"/>
	<text transform="matrix(1 0 0 1 858.4766 364.8027)" class="st51 st52 st53 st54">TOPPINGS</text>
	<path class="st39" d="M696.2,54.8L696.2,54.8c-0.6,0.7-1.8,0.9-2.6,0.6l-32.4-15.1c-0.8-0.4-0.9-1.2-0.3-1.9v0
		c0.6-0.7,1.8-0.9,2.6-0.6l32.4,15.1C696.7,53.3,696.8,54.2,696.2,54.8z"/>
	<path class="st39" d="M700.1,72.4L700.1,72.4c-0.6,0.7-1.8,0.9-2.6,0.6l-32.4-15.1c-0.8-0.4-0.9-1.2-0.3-1.9l0,0
		c0.6-0.7,1.8-0.9,2.6-0.6l32.4,15.1C700.6,70.8,700.7,71.7,700.1,72.4z"/>
</g>
<g id="Ebene_14">
	<path class="st30" d="M1122.6,280.6c-9,0-17.9,0-26.9,0c0.5-1,0.9-1.9,1.4-2.9c0.1-0.4,0.4-1.3,1.7-1.9c1.3-0.6,3-0.5,3.9-0.4
		c1.5,0.1,1.7,0.4,3.1,0.4c1.6,0,1.6-0.3,3.1-0.3c2.1,0,2.5,0.7,4.1,0.5c1.3-0.1,1.3-0.6,2.6-0.6c1.3-0.1,2.3,0.3,2.9,0.5
		c1.3,0.5,2,1.1,2.4,1.5C1121.5,278.5,1122.1,279.5,1122.6,280.6z"/>
	<path class="st31" d="M1095.7,291.1v-4.4c0-2.2,1.4-4.1,3-4.1h20.8c1.7,0,3,1.8,3,4.1v4.4"/>
	<polyline class="st33" points="1095.7,293.5 1095.7,288.8 1122.6,288.8 1122.6,293.5 	"/>
	<path class="st34" d="M1095.7,287.6v-2.5c0-1.3,1.4-2.3,3-2.3h20.8c1.7,0,3,1,3,2.3v2.5"/>
	<path class="st6" d="M1120,285.4h-21.7c-1.4,0-2.6-1.2-2.6-2.6v-2c0-1.4,1.2-2.6,2.6-2.6h21.7c1.4,0,2.6,1.2,2.6,2.6v2
		C1122.6,284.3,1121.5,285.4,1120,285.4z"/>
	<rect x="1095.7" y="280.8" class="st22" width="26.9" height="4.7"/>
	<path class="st30" d="M1084,280.6c-9,0-17.9,0-26.9,0c0.5-1,0.9-1.9,1.4-2.9c0.1-0.4,0.4-1.3,1.7-1.9c1.3-0.6,3-0.5,3.9-0.4
		c1.5,0.1,1.7,0.4,3.1,0.4c1.6,0,1.6-0.3,3.1-0.3c2.1,0,2.5,0.7,4.1,0.5c1.3-0.1,1.3-0.6,2.6-0.6c1.3-0.1,2.3,0.3,2.9,0.5
		c1.3,0.5,2,1.1,2.4,1.5C1082.9,278.5,1083.5,279.5,1084,280.6z"/>
	<path class="st31" d="M1057.1,291.1v-4.4c0-2.2,1.4-4.1,3-4.1h20.8c1.7,0,3,1.8,3,4.1v4.4"/>
	<polyline class="st33" points="1057.1,293.5 1057.1,288.8 1084,288.8 1084,293.5 	"/>
	<path class="st34" d="M1057.1,287.6v-2.5c0-1.3,1.4-2.3,3-2.3h20.8c1.7,0,3,1,3,2.3v2.5"/>
	<path class="st6" d="M1081.4,285.4h-21.7c-1.4,0-2.6-1.2-2.6-2.6v-2c0-1.4,1.2-2.6,2.6-2.6h21.7c1.4,0,2.6,1.2,2.6,2.6v2
		C1084,284.3,1082.9,285.4,1081.4,285.4z"/>
	<rect x="1057.1" y="280.8" class="st22" width="26.9" height="4.7"/>
	<path class="st29" d="M1084,311c-9,0-17.9,0-26.9,0c0.5-1,0.9-1.9,1.4-2.9c0.1-0.4,0.4-1.3,1.7-1.9c1.3-0.6,3-0.5,3.9-0.4
		c1.5,0.1,1.7,0.4,3.1,0.4c1.6,0,1.6-0.3,3.1-0.3c2.1,0,2.5,0.7,4.1,0.5c1.3-0.1,1.3-0.6,2.6-0.6c1.3-0.1,2.3,0.3,2.9,0.5
		c1.3,0.5,2,1.1,2.4,1.5C1082.9,308.9,1083.5,310,1084,311z"/>
	<path class="st31" d="M1057.1,321.6v-4.4c0-2.2,1.4-4.1,3-4.1h20.8c1.7,0,3,1.8,3,4.1v4.4"/>
	<polyline class="st33" points="1057.1,323.9 1057.1,319.2 1084,319.2 1084,323.9 	"/>
	<path class="st34" d="M1057.1,318v-2.5c0-1.3,1.4-2.3,3-2.3h20.8c1.7,0,3,1,3,2.3v2.5"/>
	<path class="st6" d="M1081.4,315.8h-21.7c-1.4,0-2.6-1.2-2.6-2.6v-2c0-1.4,1.2-2.6,2.6-2.6h21.7c1.4,0,2.6,1.2,2.6,2.6v2
		C1084,314.7,1082.9,315.8,1081.4,315.8z"/>
	<rect x="1057.1" y="311.2" class="st22" width="26.9" height="4.7"/>
	<path class="st29" d="M1122.6,311c-9,0-17.9,0-26.9,0c0.5-1,0.9-1.9,1.4-2.9c0.1-0.4,0.4-1.3,1.7-1.9c1.3-0.6,3-0.5,3.9-0.4
		c1.5,0.1,1.7,0.4,3.1,0.4c1.6,0,1.6-0.3,3.1-0.3c2.1,0,2.5,0.7,4.1,0.5c1.3-0.1,1.3-0.6,2.6-0.6c1.3-0.1,2.3,0.3,2.9,0.5
		c1.3,0.5,2,1.1,2.4,1.5C1121.5,308.9,1122.1,310,1122.6,311z"/>
	<path class="st31" d="M1095.7,321.6v-4.4c0-2.2,1.4-4.1,3-4.1h20.8c1.7,0,3,1.8,3,4.1v4.4"/>
	<polyline class="st33" points="1095.7,323.9 1095.7,319.2 1122.6,319.2 1122.6,323.9 	"/>
	<path class="st34" d="M1095.7,318v-2.5c0-1.3,1.4-2.3,3-2.3h20.8c1.7,0,3,1,3,2.3v2.5"/>
	<path class="st6" d="M1120,315.8h-21.7c-1.4,0-2.6-1.2-2.6-2.6v-2c0-1.4,1.2-2.6,2.6-2.6h21.7c1.4,0,2.6,1.2,2.6,2.6v2
		C1122.6,314.7,1121.5,315.8,1120,315.8z"/>
	<rect x="1095.7" y="311.2" class="st22" width="26.9" height="4.7"/>
	<path class="st29" d="M1084,249c-9,0-17.9,0-26.9,0c0.5-1,0.9-1.9,1.4-2.9c0.1-0.4,0.4-1.3,1.7-1.9c1.3-0.6,3-0.5,3.9-0.4
		c1.5,0.1,1.7,0.4,3.1,0.4c1.6,0,1.6-0.3,3.1-0.3c2.1,0,2.5,0.7,4.1,0.5c1.3-0.1,1.3-0.6,2.6-0.6c1.3-0.1,2.3,0.3,2.9,0.5
		c1.3,0.5,2,1.1,2.4,1.5C1082.9,246.9,1083.5,248,1084,249z"/>
	<path class="st31" d="M1057.1,259.6v-4.4c0-2.2,1.4-4.1,3-4.1h20.8c1.7,0,3,1.8,3,4.1v4.4"/>
	<polyline class="st33" points="1057.1,261.9 1057.1,257.2 1084,257.2 1084,261.9 	"/>
	<path class="st34" d="M1057.1,256v-2.5c0-1.3,1.4-2.3,3-2.3h20.8c1.7,0,3,1,3,2.3v2.5"/>
	<path class="st6" d="M1081.4,253.8h-21.7c-1.4,0-2.6-1.2-2.6-2.6v-2c0-1.4,1.2-2.6,2.6-2.6h21.7c1.4,0,2.6,1.2,2.6,2.6v2
		C1084,252.7,1082.9,253.8,1081.4,253.8z"/>
	<rect x="1057.1" y="249.2" class="st22" width="26.9" height="4.7"/>
	<path class="st34" d="M1084,249c-9,0-17.9,0-26.9,0c0.5-1,0.9-1.9,1.4-2.9c0.1-0.4,0.4-1.3,1.7-1.9c1.3-0.6,3-0.5,3.9-0.4
		c1.5,0.1,1.7,0.4,3.1,0.4c1.6,0,1.6-0.3,3.1-0.3c2.1,0,2.5,0.7,4.1,0.5c1.3-0.1,1.3-0.6,2.6-0.6c1.3-0.1,2.3,0.3,2.9,0.5
		c1.3,0.5,2,1.1,2.4,1.5C1082.9,246.9,1083.5,248,1084,249z"/>
	<path class="st31" d="M1057.1,259.6v-4.4c0-2.2,1.4-4.1,3-4.1h20.8c1.7,0,3,1.8,3,4.1v4.4"/>
	<polyline class="st33" points="1057.1,261.9 1057.1,257.2 1084,257.2 1084,261.9 	"/>
	<path class="st34" d="M1057.1,256v-2.5c0-1.3,1.4-2.3,3-2.3h20.8c1.7,0,3,1,3,2.3v2.5"/>
	<path class="st6" d="M1081.4,253.8h-21.7c-1.4,0-2.6-1.2-2.6-2.6v-2c0-1.4,1.2-2.6,2.6-2.6h21.7c1.4,0,2.6,1.2,2.6,2.6v2
		C1084,252.7,1082.9,253.8,1081.4,253.8z"/>
	<rect x="1057.1" y="249.2" class="st22" width="26.9" height="4.7"/>
	<path class="st29" d="M1122.6,249c-9,0-17.9,0-26.9,0c0.5-1,0.9-1.9,1.4-2.9c0.1-0.4,0.4-1.3,1.7-1.9c1.3-0.6,3-0.5,3.9-0.4
		c1.5,0.1,1.7,0.4,3.1,0.4c1.6,0,1.6-0.3,3.1-0.3c2.1,0,2.5,0.7,4.1,0.5c1.3-0.1,1.3-0.6,2.6-0.6c1.3-0.1,2.3,0.3,2.9,0.5
		c1.3,0.5,2,1.1,2.4,1.5C1121.5,246.9,1122.1,248,1122.6,249z"/>
	<path class="st31" d="M1095.7,259.6v-4.4c0-2.2,1.4-4.1,3-4.1h20.8c1.7,0,3,1.8,3,4.1v4.4"/>
	<polyline class="st33" points="1095.7,261.9 1095.7,257.2 1122.6,257.2 1122.6,261.9 	"/>
	<path class="st34" d="M1095.7,256v-2.5c0-1.3,1.4-2.3,3-2.3h20.8c1.7,0,3,1,3,2.3v2.5"/>
	<path class="st6" d="M1120,253.8h-21.7c-1.4,0-2.6-1.2-2.6-2.6v-2c0-1.4,1.2-2.6,2.6-2.6h21.7c1.4,0,2.6,1.2,2.6,2.6v2
		C1122.6,252.7,1121.5,253.8,1120,253.8z"/>
	<rect x="1095.7" y="249.2" class="st22" width="26.9" height="4.7"/>
	<path class="st34" d="M1122.6,249c-9,0-17.9,0-26.9,0c0.5-1,0.9-1.9,1.4-2.9c0.1-0.4,0.4-1.3,1.7-1.9c1.3-0.6,3-0.5,3.9-0.4
		c1.5,0.1,1.7,0.4,3.1,0.4c1.6,0,1.6-0.3,3.1-0.3c2.1,0,2.5,0.7,4.1,0.5c1.3-0.1,1.3-0.6,2.6-0.6c1.3-0.1,2.3,0.3,2.9,0.5
		c1.3,0.5,2,1.1,2.4,1.5C1121.5,246.9,1122.1,248,1122.6,249z"/>
	<path class="st31" d="M1095.7,259.6v-4.4c0-2.2,1.4-4.1,3-4.1h20.8c1.7,0,3,1.8,3,4.1v4.4"/>
	<polyline class="st33" points="1095.7,261.9 1095.7,257.2 1122.6,257.2 1122.6,261.9 	"/>
	<path class="st34" d="M1095.7,256v-2.5c0-1.3,1.4-2.3,3-2.3h20.8c1.7,0,3,1,3,2.3v2.5"/>
	<path class="st6" d="M1120,253.8h-21.7c-1.4,0-2.6-1.2-2.6-2.6v-2c0-1.4,1.2-2.6,2.6-2.6h21.7c1.4,0,2.6,1.2,2.6,2.6v2
		C1122.6,252.7,1121.5,253.8,1120,253.8z"/>
	<rect x="1095.7" y="249.2" class="st22" width="26.9" height="4.7"/>
</g>
<g id="Ebene_15">
	<path class="st61" d="M1116.1,332.2h-65.4c-6.1,0-11.2-5-11.2-11.2v-77.3c0-6.1,5-11.2,11.2-11.2h65.4c6.1,0,11.2,5,11.2,11.2V321
		C1127.3,327.2,1122.3,332.2,1116.1,332.2z"/>
	<path class="st15" d="M1046.5,255.4v56.4c0,0.5-0.4,1-1,1h-0.4c-0.5,0-1-0.4-1-1v-56.4c0-0.5,0.4-1,1-1h0.4
		C1046.1,254.4,1046.5,254.9,1046.5,255.4z"/>
	<path class="st39" d="M1102.9,285.8L1102.9,285.8c-1,0.8-2.5,0.7-3.3-0.3l-34-37.6c-0.8-0.9-0.7-2.3,0.3-3.1l0,0
		c1-0.8,2.5-0.7,3.3,0.3l34,37.6C1104,283.7,1103.9,285,1102.9,285.8z"/>
	<path class="st39" d="M1101.7,315L1101.7,315c-1,0.8-2.5,0.7-3.3-0.3l-34-37.6c-0.8-0.9-0.7-2.3,0.3-3.1l0,0c1-0.8,2.5-0.7,3.3,0.3
		l34,37.6C1102.8,312.8,1102.7,314.2,1101.7,315z"/>
</g>
<g id="Ebene_12">
	<path class="st2" d="M847.4,259.2h-2.7c-1.9,0-3.5-1.6-3.5-3.5v-20.8c0-1.9,1.6-3.5,3.5-3.5h2.7c1.9,0,3.5,1.6,3.5,3.5v20.8
		C850.9,257.6,849.4,259.2,847.4,259.2z"/>
	<path class="st15" d="M1121,380.2h-4.3c-1,0-1.9-0.9-1.9-1.9v-19.6c0-1,0.9-1.9,1.9-1.9h4.3c1,0,1.9,0.9,1.9,1.9v19.6
		C1122.9,379.4,1122.1,380.2,1121,380.2z"/>
	<path class="st1" d="M1102.3,355.9l17.7,12.4c0.9,0.7,1.1,1.9,0.4,2.7l-0.2,0.2c-0.7,0.8-2.1,1-3,0.3l-17.7-12.4
		c-0.9-0.7-1.1-1.9-0.4-2.7l0.2-0.2C1100,355.4,1101.4,355.3,1102.3,355.9z"/>
	<path class="st11" d="M1109.9,358.4h-18.4c-0.5,0-1-0.4-1-1v-1.8c0-0.5,0.4-1,1-1h18.4c0.5,0,1,0.4,1,1v1.8
		C1110.9,358,1110.4,358.4,1109.9,358.4z"/>
	<path class="st15" d="M1049.6,377.7h-4.3c-1,0-1.9-0.9-1.9-1.9v-17.1c0-1,0.9-1.9,1.9-1.9h4.3c1,0,1.9,0.9,1.9,1.9v17.1
		C1051.5,376.9,1050.7,377.7,1049.6,377.7z"/>
	<path class="st15" d="M1084.1,377.7h-4.3c-1,0-1.9-0.9-1.9-1.9v-17.1c0-1,0.9-1.9,1.9-1.9h4.3c1,0,1.9,0.9,1.9,1.9v17.1
		C1086,376.9,1085.1,377.7,1084.1,377.7z"/>
	<path class="st1" d="M1032.4,380.4l13.6-16.7c0.7-0.9,1.9-1,2.7-0.2l0.2,0.2c0.8,0.8,0.8,2.1,0.1,3l-13.6,16.7
		c-0.7,0.9-1.9,1-2.7,0.2l-0.2-0.2C1031.8,382.6,1031.7,381.3,1032.4,380.4z"/>
	<path class="st11" d="M1041,384.3h-18.4c-0.5,0-1-0.4-1-1v-1.8c0-0.5,0.4-1,1-1h18.4c0.5,0,1,0.4,1,1v1.8
		C1041.9,383.8,1041.5,384.3,1041,384.3z"/>
	<path class="st1" d="M1065.4,355.9l17.7,12.4c0.9,0.7,1.1,1.9,0.4,2.7l-0.2,0.2c-0.7,0.8-2.1,1-3,0.3l-17.7-12.4
		c-0.9-0.7-1.1-1.9-0.4-2.7l0.2-0.2C1063.1,355.4,1064.4,355.3,1065.4,355.9z"/>
	<path class="st11" d="M1073,358.4h-18.4c-0.5,0-1-0.4-1-1v-1.8c0-0.5,0.4-1,1-1h18.4c0.5,0,1,0.4,1,1v1.8
		C1073.9,358,1073.5,358.4,1073,358.4z"/>
	<path class="st30" d="M1061.4,351.9h-20.9c-1.4,0-2.5-1.1-2.5-2.5v-12.3c0-1.4,1.1-2.5,2.5-2.5h20.9c1.4,0,2.5,1.1,2.5,2.5v12.3
		C1063.8,350.8,1062.7,351.9,1061.4,351.9z"/>
	<path class="st29" d="M1058.9,351.9H1038c-1.4,0-2.5-1.1-2.5-2.5v-12.3c0-1.4,1.1-2.5,2.5-2.5h20.9c1.4,0,2.5,1.1,2.5,2.5v12.3
		C1061.4,350.8,1060.3,351.9,1058.9,351.9z"/>
	<text transform="matrix(1.2132 0 0 1 1038.627 341.6289)"><tspan x="0" y="0" class="st30 st52 st62">MODEL </tspan><tspan x="0" y="7.7" class="st30 st52 st62">BAKER</tspan></text>
	<path class="st30" d="M1094.6,351.9h-20.9c-1.4,0-2.5-1.1-2.5-2.5v-12.3c0-1.4,1.1-2.5,2.5-2.5h20.9c1.4,0,2.5,1.1,2.5,2.5v12.3
		C1097.1,350.8,1096,351.9,1094.6,351.9z"/>
	<path class="st30" d="M1127.9,351.9h-20.9c-1.4,0-2.5-1.1-2.5-2.5v-12.3c0-1.4,1.1-2.5,2.5-2.5h20.9c1.4,0,2.5,1.1,2.5,2.5v12.3
		C1130.3,350.8,1129.2,351.9,1127.9,351.9z"/>
	<path class="st29" d="M1092.2,351.9h-20.9c-1.4,0-2.5-1.1-2.5-2.5v-12.3c0-1.4,1.1-2.5,2.5-2.5h20.9c1.4,0,2.5,1.1,2.5,2.5v12.3
		C1094.6,350.8,1093.5,351.9,1092.2,351.9z"/>
	<path class="st29" d="M1125.4,351.9h-20.9c-1.4,0-2.5-1.1-2.5-2.5v-12.3c0-1.4,1.1-2.5,2.5-2.5h20.9c1.4,0,2.5,1.1,2.5,2.5v12.3
		C1127.8,350.8,1126.7,351.9,1125.4,351.9z"/>
	<rect x="889.7" y="242.4" class="st50" width="14.2" height="57.8"/>
	<text transform="matrix(1 0 0 1 894.4297 250.1436)"><tspan x="0" y="0" class="st0 st52 st63">Y </tspan><tspan x="-0.2" y="11.8" class="st0 st52 st63">A </tspan><tspan x="-1.2" y="23.6" class="st0 st52 st63">M </tspan><tspan x="0.5" y="35.4" class="st0 st52 st63">L</tspan></text>
	<rect x="856.4" y="243.6" class="st50" width="14.2" height="48"/>
	<text transform="matrix(1 0 0 1 860.5586 253.3218)"><tspan x="0" y="0" class="st0 st52 st64">X </tspan><tspan x="-1.4" y="14.8" class="st0 st52 st64">M </tspan><tspan x="0.6" y="29.5" class="st0 st52 st64">L</tspan></text>
	<rect x="367.9" y="190.3" class="st50" width="109.9" height="17.6"/>
	<text transform="matrix(1 0 0 1 370.4883 200.9912)" class="st11 st52 st53 st54">METACONFIGS </text>
	<rect x="366.7" y="190.3" class="st50" width="109.9" height="17.6"/>
	<text transform="matrix(1 0 0 1 369.2578 200.9912)" class="st37 st52 st53 st54">METACONFIGS </text>
	<text transform="matrix(1 0 0 1 30.6406 356.4258)" class="st11 st52 st53 st54">-MODELS-</text>
	<text transform="matrix(1 0 0 1 29.4097 356.4258)" class="st37 st52 st53 st54">-MODELS-</text>
	<rect x="855.2" y="243.6" class="st50" width="14.2" height="48"/>
	<text transform="matrix(1 0 0 1 858.9346 253.3218)"><tspan x="0" y="0" class="st37 st52 st64">Q </tspan><tspan x="-1" y="14.8" class="st37 st52 st64">M </tspan><tspan x="1" y="29.5" class="st37 st52 st64">L</tspan></text>
	<rect x="888.4" y="242.4" class="st50" width="14.2" height="57.8"/>
	<text transform="matrix(1 0 0 1 893.1982 250.1436)"><tspan x="0" y="0" class="st37 st52 st63">Y </tspan><tspan x="-0.2" y="11.8" class="st37 st52 st63">A </tspan><tspan x="-1.2" y="23.6" class="st37 st52 st63">M </tspan><tspan x="0.5" y="35.4" class="st37 st52 st63">L</tspan></text>
	<text transform="matrix(1 0 0 1 563.6436 136.9531)"><tspan x="0" y="0" class="st11 st52 st53 st54">I</tspan><tspan x="-0.6" y="16.2" class="st11 st52 st53 st54">L</tspan><tspan x="0" y="32.5" class="st11 st52 st53 st54">I</tspan><tspan x="-1.4" y="48.7" class="st11 st52 st53 st54">2</tspan><tspan x="-1.8" y="65" class="st11 st52 st53 st54">D</tspan><tspan x="-1.8" y="81.2" class="st11 st52 st53 st54">B</tspan></text>
	<text transform="matrix(1 0 0 1 562.4131 136.9531)"><tspan x="0" y="0" class="st4 st52 st53 st54">I </tspan><tspan x="-0.6" y="16.2" class="st4 st52 st53 st54">L</tspan><tspan x="0" y="32.5" class="st4 st52 st53 st54">I</tspan><tspan x="-1.4" y="48.7" class="st4 st52 st53 st54">2</tspan><tspan x="-1.8" y="65" class="st4 st52 st53 st54">D</tspan><tspan x="-1.8" y="81.2" class="st4 st52 st53 st54">B</tspan></text>
	<text transform="matrix(1.2132 0 0 1 1037.3955 341.6289)"><tspan x="0" y="0" class="st65 st52 st62">MODEL </tspan><tspan x="0" y="7.7" class="st65 st52 st62">BAKER</tspan></text>
	<rect x="841.5" y="354.2" class="st50" width="109.9" height="17.6"/>
	<text transform="matrix(1 0 0 1 859.4248 364.8887)" class="st51 st52 st53 st54">TOPPINGS</text>
	<rect x="839.6" y="354.1" class="st50" width="109.9" height="17.6"/>
	<text transform="matrix(1 0 0 1 857.458 364.7783)" class="st37 st52 st53 st54">TOPPINGS</text>
</g>
</svg>
