<svg xmlns="http://www.w3.org/2000/svg" xmlns:xlink="http://www.w3.org/1999/xlink" viewBox="0 0 559.04 393.58"><defs><style>.cls-1,.cls-44,.cls-8{fill:none;}.cls-2{fill:gray;}.cls-3{fill:#ccc;}.cls-28,.cls-4{fill:#b3b3b3;}.cls-23,.cls-41,.cls-42,.cls-5{fill:#fff;}.cls-6{fill:#999;}.cls-7{clip-path:url(#clip-path);}.cls-8{stroke:#ccc;stroke-linejoin:round;}.cls-9{fill:#c69c6d;}.cls-10{fill:#cfa98e;}.cls-11{fill:#fff0ad;}.cls-12{fill:#ffe77f;}.cls-13{fill:#d6bf58;}.cls-14,.cls-49{fill:#666;}.cls-15{fill:#333;}.cls-16{fill:#39b54a;}.cls-17{fill:#c1272d;}.cls-18,.cls-46,.cls-55{fill:#4d4d4d;}.cls-19{fill:#ebdcd1;}.cls-20{fill:#c6b4a0;}.cls-21{fill:#8c7b6a;}.cls-22{fill:#a69585;}.cls-23{font-size:4.14px;font-family:LakesightPersonalUseOnly;letter-spacing:-0.02em;}.cls-24{letter-spacing:0em;}.cls-25{fill:#a67c52;}.cls-26{fill:#b89e8c;}.cls-27{fill:#b89a7d;}.cls-28{stroke:#666;}.cls-28,.cls-30,.cls-35,.cls-43,.cls-44,.cls-45,.cls-47{stroke-miterlimit:10;}.cls-29{fill:#e6e6e6;}.cls-30,.cls-32{fill:#ffb0cd;}.cls-30{stroke:#ff95bd;}.cls-30,.cls-44{stroke-width:0.5px;}.cls-31{fill:#ffcade;}.cls-33{fill:#bf5c81;}.cls-34{fill:#8c6239;}.cls-35,.cls-43,.cls-45,.cls-47{stroke:#fff;}.cls-35{fill:url(#Unbenannter_Verlauf_19);}.cls-36{fill:#754c24;}.cls-37{fill:#ff7bac;}.cls-38{fill:#cc7d9a;}.cls-39{fill:#8f4561;}.cls-40,.cls-48,.cls-53{fill:#f2f2f2;}.cls-41{opacity:0.61;}.cls-42{opacity:0.56;}.cls-43{fill:url(#Unbenannter_Verlauf_19-2);}.cls-44{stroke:#000;}.cls-45{fill:url(#Unbenannter_Verlauf_19-3);}.cls-46{opacity:0.13;}.cls-47{fill:url(#Unbenannter_Verlauf_19-4);}.cls-48{opacity:0.73;}.cls-49,.cls-53,.cls-55{font-size:11px;font-family:Impact;letter-spacing:0.22em;}.cls-50{letter-spacing:0.21em;}.cls-51{letter-spacing:0.18em;}.cls-52{letter-spacing:0.22em;}.cls-54{letter-spacing:0.22em;}.cls-56{fill:#ffe5ee;}</style><clipPath id="clip-path" transform="translate(-13 14.58)"><rect class="cls-1" x="55.88" y="142.64" width="3.52" height="14.07"/></clipPath><linearGradient id="Unbenannter_Verlauf_19" x1="394.16" y1="84.28" x2="382.92" y2="90.77" gradientUnits="userSpaceOnUse"><stop offset="0" stop-color="#fff"/><stop offset="0.16" stop-color="#fdd"/><stop offset="0.51" stop-color="#ff8585"/><stop offset="1" stop-color="red"/></linearGradient><linearGradient id="Unbenannter_Verlauf_19-2" x1="395.28" y1="86.54" x2="384.05" y2="93.03" xlink:href="#Unbenannter_Verlauf_19"/><linearGradient id="Unbenannter_Verlauf_19-3" x1="377.71" y1="281.57" x2="368.65" y2="286.79" xlink:href="#Unbenannter_Verlauf_19"/><linearGradient id="Unbenannter_Verlauf_19-4" x1="379.71" y1="275.22" x2="370.25" y2="280.69" xlink:href="#Unbenannter_Verlauf_19"/></defs><g id="Ebene_17" data-name="Ebene 17"><rect class="cls-2" x="374.29" y="360.17" width="22.4" height="1.68" rx="0.84" transform="translate(896.68 440.08) rotate(143.89)"/><rect class="cls-3" x="362.26" y="368.51" width="38.74" height="1.68"/></g><g id="Ebene_2" data-name="Ebene 2"><rect class="cls-4" y="73.12" width="86.88" height="132.02" rx="12"/><rect class="cls-4" y="171.29" width="86.88" height="48.52"/><rect class="cls-5" x="10.11" y="195.27" width="66.57" height="49.65"/><rect class="cls-6" x="7.9" y="87.12" width="72.21" height="22.11"/><rect class="cls-6" x="7.9" y="82.15" width="72.21" height="18.26" rx="4.5"/><rect class="cls-3" x="43.44" y="157.78" width="2.39" height="12.94"/><g class="cls-7"><rect class="cls-8" x="43.44" y="157.78" width="2.39" height="12.94"/></g><rect class="cls-6" x="7.9" y="155.95" width="72.21" height="22.11"/><rect class="cls-6" x="7.9" y="150.98" width="72.21" height="18.26" rx="4.5"/><rect class="cls-6" x="7.9" y="120.97" width="72.21" height="22.11"/><rect class="cls-6" x="7.9" y="116" width="72.21" height="18.26" rx="4.5"/><rect class="cls-6" x="13.54" y="194.99" width="7.9" height="20.31"/><rect class="cls-6" x="65.44" y="194.99" width="7.9" height="20.31"/><rect class="cls-2" x="7.9" y="138.57" width="72.21" height="4.51"/><rect class="cls-2" x="7.9" y="104.72" width="72.21" height="4.51"/><rect class="cls-2" x="7.9" y="138.57" width="72.21" height="4.51"/><rect class="cls-2" x="7.9" y="173.55" width="72.21" height="4.51"/><ellipse class="cls-9" cx="10.72" cy="101.9" rx="2.82" ry="3.95"/><ellipse class="cls-9" cx="64.34" cy="88.45" rx="3.95" ry="2.82" transform="translate(-53.2 135.18) rotate(-71.06)"/><ellipse class="cls-9" cx="51.93" cy="88.45" rx="3.95" ry="2.82" transform="translate(-37.4 34.52) rotate(-17.67)"/><ellipse class="cls-9" cx="71.65" cy="103.03" rx="2.82" ry="3.95"/><ellipse class="cls-9" cx="30.49" cy="88.45" rx="2.82" ry="3.95" transform="translate(-75.01 89.02) rotate(-62.37)"/><ellipse class="cls-9" cx="71.11" cy="88.45" rx="2.82" ry="3.95" transform="translate(-53.89 84.69) rotate(-41.9)"/><ellipse class="cls-10" cx="38.39" cy="89.58" rx="2.82" ry="3.95" transform="translate(-70.22 85.27) rotate(-55.63)"/><ellipse class="cls-10" cx="14.1" cy="104.15" rx="2.82" ry="3.95"/><ellipse class="cls-10" cx="77.29" cy="104.15" rx="2.82" ry="3.95"/><ellipse class="cls-10" cx="59.83" cy="89.58" rx="2.82" ry="3.95" transform="translate(-32.95 31.77) rotate(-14.04)"/></g><g id="Ebene_3" data-name="Ebene 3"><rect class="cls-11" x="11.34" y="136.7" width="7.31" height="5.26"/><polygon class="cls-12" points="25.95 139.32 18.64 141.95 18.64 136.7 25.95 134.07 25.95 139.32"/><polygon class="cls-13" points="18.69 136.71 11.24 136.71 18.48 134.04 25.95 134.07 18.69 136.71"/><rect class="cls-11" x="21.49" y="136.7" width="7.31" height="5.26"/><polygon class="cls-12" points="36.11 139.32 28.8 141.95 28.8 136.7 36.11 134.07 36.11 139.32"/><polygon class="cls-13" points="28.84 136.71 21.39 136.71 28.63 134.04 36.11 134.07 28.84 136.71"/><rect class="cls-11" x="16.98" y="131.05" width="7.31" height="5.26"/><polygon class="cls-12" points="31.59 133.68 24.29 136.31 24.29 131.06 31.59 128.43 31.59 133.68"/><polygon class="cls-13" points="24.33 131.07 16.88 131.07 24.12 128.4 31.59 128.43 24.33 131.07"/><rect class="cls-11" x="40.68" y="136.7" width="7.31" height="5.26"/><polygon class="cls-12" points="55.29 139.32 47.98 141.95 47.98 136.7 55.29 134.07 55.29 139.32"/><polygon class="cls-13" points="48.03 136.71 40.57 136.71 47.82 134.04 55.29 134.07 48.03 136.71"/><rect class="cls-11" x="50.83" y="136.7" width="7.31" height="5.26"/><polygon class="cls-12" points="65.44 139.32 58.14 141.95 58.14 136.7 65.44 134.07 65.44 139.32"/><polygon class="cls-13" points="58.18 136.71 50.73 136.71 57.97 134.04 65.44 134.07 58.18 136.71"/><rect class="cls-11" x="45.19" y="131.05" width="7.31" height="5.26"/><polygon class="cls-12" points="59.8 133.68 52.5 136.31 52.5 131.06 59.8 128.43 59.8 133.68"/><polygon class="cls-13" points="52.54 131.07 45.09 131.07 52.33 128.4 59.8 128.43 52.54 131.07"/><rect class="cls-11" x="63.24" y="136.7" width="7.31" height="5.26"/><polygon class="cls-12" points="77.86 139.32 70.55 141.95 70.55 136.7 77.86 134.07 77.86 139.32"/><polygon class="cls-13" points="70.59 136.71 63.14 136.71 70.38 134.04 77.86 134.07 70.59 136.71"/><rect class="cls-11" x="57.6" y="131.05" width="7.31" height="5.26"/><polygon class="cls-12" points="72.22 133.68 64.91 136.31 64.91 131.06 72.22 128.43 72.22 133.68"/><polygon class="cls-13" points="64.95 131.07 57.5 131.07 64.74 128.4 72.22 128.43 64.95 131.07"/></g><g id="Ebene_8" data-name="Ebene 8"><rect class="cls-14" x="203.1" y="169.03" width="3.39" height="50.78"/><rect class="cls-14" x="261.78" y="169.03" width="3.39" height="50.78"/><rect class="cls-14" x="398.31" y="169.03" width="3.39" height="50.78"/><rect class="cls-14" x="460.37" y="169.03" width="3.39" height="50.78"/><rect class="cls-14" x="529.2" y="169.03" width="3.39" height="50.78"/><rect class="cls-14" x="6.77" y="342.8" width="3.39" height="50.78"/><rect class="cls-14" x="99.3" y="342.8" width="3.39" height="50.78"/><rect class="cls-14" x="252.75" y="342.8" width="3.39" height="50.78"/><rect class="cls-15" x="171.51" y="342.8" width="3.39" height="50.78"/></g><g id="Ebene_16" data-name="Ebene 16"><rect class="cls-16" x="118.48" y="288.64" width="4.51" height="9.03" rx="2"/><rect class="cls-17" x="118.48" y="301.05" width="4.51" height="9.03" rx="2"/><rect class="cls-16" x="271.93" y="82.15" width="4.51" height="9.03" rx="2"/><rect class="cls-17" x="271.93" y="93.43" width="4.51" height="9.03" rx="2"/><rect class="cls-16" x="272.93" y="289.83" width="3.8" height="7.6" rx="1.9"/><rect class="cls-17" x="272.93" y="299.33" width="3.8" height="7.6" rx="1.9"/></g><g id="Ebene_9" data-name="Ebene 9"><rect class="cls-18" x="120.73" y="268.33" width="98.17" height="125.25"/><rect class="cls-2" x="120.73" y="258.17" width="98.17" height="30.47" rx="7.5"/><polygon class="cls-4" points="144.71 315.66 140.02 315.72 139.03 305.38 145.56 305.37 144.71 315.66"/><polygon class="cls-4" points="172.24 315.66 167.55 315.72 166.55 305.38 173.08 305.37 172.24 315.66"/><polygon class="cls-4" points="198.87 315.66 194.18 315.72 193.19 305.38 199.72 305.37 198.87 315.66"/></g><g id="Ebene_10" data-name="Ebene 10"><rect class="cls-3" x="137.66" y="269.46" width="9.03" height="40.62" rx="2.59"/><rect class="cls-3" x="164.74" y="269.46" width="9.03" height="40.62" rx="2.59"/><rect class="cls-3" x="191.82" y="269.46" width="9.03" height="40.62" rx="2.59"/></g><g id="Ebene_4" data-name="Ebene 4"><rect class="cls-19" x="11.28" y="161.42" width="10.61" height="13.99"/><polygon class="cls-20" points="22.47 175.22 21.89 175.4 21.89 161.42 22.57 161.42 22.47 175.22"/><polygon class="cls-21" points="22.57 161.42 21.22 161.42 21.22 159.8 22.57 161.42"/><polygon class="cls-22" points="21.89 161.41 11.28 161.42 12.1 159.86 21.22 159.8 21.89 161.41"/><text class="cls-23" transform="translate(12.07 165.98) scale(0.92 1)">F<tspan class="cls-24" x="1.94" y="0">lour</tspan></text><rect class="cls-19" x="23.7" y="161.42" width="10.61" height="13.99"/><polygon class="cls-20" points="34.88 175.22 34.3 175.4 34.3 161.42 34.98 161.42 34.88 175.22"/><polygon class="cls-21" points="34.98 161.42 33.63 161.42 33.63 159.8 34.98 161.42"/><polygon class="cls-22" points="34.3 161.41 23.7 161.42 24.51 159.86 33.63 159.8 34.3 161.41"/><text class="cls-23" transform="translate(24.49 165.98) scale(0.92 1)">F<tspan class="cls-24" x="1.94" y="0">lour</tspan></text><rect class="cls-19" x="36.11" y="161.42" width="10.61" height="13.99"/><polygon class="cls-20" points="47.29 175.22 46.71 175.4 46.71 161.42 47.39 161.42 47.29 175.22"/><polygon class="cls-21" points="47.39 161.42 46.05 161.42 46.05 159.8 47.39 161.42"/><polygon class="cls-22" points="46.71 161.41 36.11 161.42 36.92 159.86 46.05 159.8 46.71 161.41"/><text class="cls-23" transform="translate(36.9 165.98) scale(0.92 1)">F<tspan class="cls-24" x="1.94" y="0">lour</tspan></text><rect class="cls-19" x="48.52" y="161.42" width="10.61" height="13.99"/><polygon class="cls-20" points="59.7 175.22 59.12 175.4 59.13 161.42 59.8 161.42 59.7 175.22"/><polygon class="cls-21" points="59.8 161.42 58.46 161.42 58.46 159.8 59.8 161.42"/><polygon class="cls-22" points="59.13 161.41 48.52 161.42 49.33 159.86 58.46 159.8 59.13 161.41"/><text class="cls-23" transform="translate(49.31 165.98) scale(0.92 1)">F<tspan class="cls-24" x="1.94" y="0">lour</tspan></text><rect class="cls-19" x="60.93" y="161.42" width="10.61" height="13.99"/><polygon class="cls-20" points="72.11 175.22 71.53 175.4 71.54 161.42 72.22 161.42 72.11 175.22"/><polygon class="cls-21" points="72.22 161.42 70.87 161.42 70.87 159.8 72.22 161.42"/><polygon class="cls-22" points="71.54 161.41 60.93 161.42 61.74 159.86 70.87 159.8 71.54 161.41"/><text class="cls-23" transform="translate(61.72 165.98) scale(0.92 1)">F<tspan class="cls-24" x="1.94" y="0">lour</tspan></text><rect class="cls-2" x="125.25" y="136.31" width="63.19" height="11.28" rx="3.11"/><rect class="cls-6" x="129.76" y="147.6" width="55.29" height="72.21"/><ellipse class="cls-25" cx="157.41" cy="49.99" rx="45.7" ry="5.08"/><polygon class="cls-4" points="182.36 136.31 131.04 136.31 110.58 48.3 204.23 48.3 182.36 136.31"/><path class="cls-25" d="M145.86,33c1.3-.81,3.07.15,3.85,1.46s.95,2.9,1.52,4.32c.37.94,1.1,1.92,2.11,1.94a2.3,2.3,0,0,0,2-1.77,17.06,17.06,0,0,0,.36-2.87,3,3,0,0,1,1.4-2.41c.75-.38,1.74-.25,2.37-.81" transform="translate(-13 14.58)"/><path class="cls-25" d="M184.21,33.64a1,1,0,0,1,.78.54c.17.28.26.6.41.9a1.11,1.11,0,0,0,.73.61.55.55,0,0,0,.18,0,.37.37,0,0,0,.21-.26,3.64,3.64,0,0,0,.07-.74,1.43,1.43,0,0,1,1-1.18" transform="translate(-13 14.58)"/><circle class="cls-18" cx="137.41" cy="160.88" r="4.77"/><circle class="cls-4" cx="137.35" cy="161" r="3.51"/><circle class="cls-5" cx="137.49" cy="160.97" r="1.69"/><rect class="cls-2" x="187.31" y="139.7" width="18.05" height="3.39" rx="0.54"/><rect class="cls-3" x="138.25" y="39.36" width="6.77" height="81.24" rx="3" transform="translate(-27.48 48.9) rotate(-13.15)"/><rect class="cls-4" x="133.15" y="170.16" width="3.39" height="45.13" rx="1.5"/><path class="cls-26" d="M152.63,39.14c.26.47.34.9,0,.77a3,3,0,0,1-1.2-1.64c-.07-.36.16-.33.45-.08A3.66,3.66,0,0,1,152.63,39.14Z" transform="translate(-13 14.58)"/><path class="cls-27" d="M185.66,34.33c.15.24.22.45.14.44s-.28-.23-.42-.47-.17-.38-.1-.37S185.51,34.1,185.66,34.33Z" transform="translate(-13 14.58)"/><rect class="cls-3" x="1.13" y="85.54" width="3.39" height="133.15" rx="1.5"/><rect class="cls-18" x="188.44" y="139.7" width="4.51" height="3.39"/><rect class="cls-2" x="201.98" y="139.7" width="3.39" height="6.77" rx="1"/><rect class="cls-14" x="200.85" y="145.34" width="5.64" height="1.13"/><rect class="cls-28" x="185.05" y="162.26" width="373.49" height="6.77" rx="1.74"/><circle class="cls-29" cx="190.69" cy="165.65" r="3.39"/><circle class="cls-6" cx="190.69" cy="165.65" r="2.48"/><circle class="cls-29" cx="221.16" cy="165.65" r="3.39"/><circle class="cls-6" cx="221.16" cy="165.65" r="2.48"/><circle class="cls-29" cx="253.88" cy="165.65" r="3.39"/><circle class="cls-6" cx="253.88" cy="165.65" r="2.48"/><circle class="cls-29" cx="293.37" cy="165.65" r="3.39"/><circle class="cls-6" cx="293.37" cy="165.65" r="2.48"/><circle class="cls-29" cx="338.51" cy="165.65" r="3.39"/><circle class="cls-6" cx="338.51" cy="165.65" r="2.48"/><circle class="cls-29" cx="390.41" cy="165.65" r="3.39"/><circle class="cls-6" cx="390.41" cy="165.65" r="2.48"/><circle class="cls-29" cx="442.32" cy="165.65" r="3.39"/><circle class="cls-6" cx="442.32" cy="165.65" r="2.48"/><circle class="cls-29" cx="493.09" cy="165.65" r="3.39"/><circle class="cls-6" cx="493.09" cy="165.65" r="2.48"/><circle class="cls-29" cx="555.15" cy="165.65" r="3.39"/><circle class="cls-6" cx="555.15" cy="165.65" r="2.48"/><rect class="cls-28" x="3.95" y="335.47" width="259.52" height="6.77" rx="1.74"/><circle class="cls-29" cx="9.03" cy="338.29" r="3.39"/><circle class="cls-6" cx="9.03" cy="338.29" r="2.48"/><circle class="cls-29" cx="63.19" cy="338.29" r="3.39"/><circle class="cls-6" cx="63.19" cy="338.29" r="2.48"/><path class="cls-29" d="M72.8,323.71a3.39,3.39,0,0,1,6.77,0" transform="translate(-13 14.58)"/><path class="cls-29" d="M76.19,327.1a3.39,3.39,0,0,1-3.39-3.39" transform="translate(-13 14.58)"/><path class="cls-29" d="M79.57,323.71a3.38,3.38,0,0,1-3.38,3.39" transform="translate(-13 14.58)"/><path class="cls-6" d="M78.67,323.71a2.52,2.52,0,1,1-2.48-2.48,2.48,2.48,0,0,1,2.48,2.48" transform="translate(-13 14.58)"/><path class="cls-29" d="M130.35,323.71a3.39,3.39,0,0,1,6.77,0" transform="translate(-13 14.58)"/><path class="cls-29" d="M133.73,327.1a3.38,3.38,0,0,1-3.38-3.39" transform="translate(-13 14.58)"/><path class="cls-29" d="M137.12,323.71a3.39,3.39,0,0,1-3.39,3.39" transform="translate(-13 14.58)"/><path class="cls-6" d="M136.22,323.71a2.49,2.49,0,1,1-2.49-2.48,2.48,2.48,0,0,1,2.49,2.48" transform="translate(-13 14.58)"/><path class="cls-29" d="M196.92,323.71a3.39,3.39,0,0,1,6.77,0" transform="translate(-13 14.58)"/><path class="cls-29" d="M200.31,327.1a3.39,3.39,0,0,1-3.39-3.39" transform="translate(-13 14.58)"/><path class="cls-29" d="M203.69,323.71a3.38,3.38,0,0,1-3.38,3.39" transform="translate(-13 14.58)"/><path class="cls-6" d="M202.79,323.71a2.48,2.48,0,1,1-2.48-2.48,2.48,2.48,0,0,1,2.48,2.48" transform="translate(-13 14.58)"/><path class="cls-29" d="M269.14,323.71a3.39,3.39,0,0,1,6.77,0" transform="translate(-13 14.58)"/><path class="cls-29" d="M272.52,327.1a3.38,3.38,0,0,1-3.38-3.39" transform="translate(-13 14.58)"/><path class="cls-29" d="M275.91,323.71a3.39,3.39,0,0,1-3.39,3.39" transform="translate(-13 14.58)"/><path class="cls-6" d="M275,323.71a2.48,2.48,0,1,1-2.48-2.48,2.48,2.48,0,0,1,2.48,2.48" transform="translate(-13 14.58)"/></g><g id="Ebene_7" data-name="Ebene 7"><path class="cls-30" d="M450.24,139.22c.3-.49.52-1.23,1.1-1.3.42,0,.84-.07,1.26-.08a6.37,6.37,0,0,0,1.31-.08,3.38,3.38,0,0,0,1.36-.69,7.37,7.37,0,0,0,2.43-4,22.43,22.43,0,0,0,.54-4.7l.17-4a18.61,18.61,0,0,1,5.11,0c.46,3,1,5.87,1.71,8.78a6.49,6.49,0,0,0,.38,1.23,4.74,4.74,0,0,0,2.2,2.18,14.29,14.29,0,0,0,3,1,4.73,4.73,0,0,1,2,1.57" transform="translate(-13 14.58)"/><path class="cls-31" d="M458.19,134.84a1.51,1.51,0,0,0-.29.94c.29,0,.5-.27.64-.53a7.72,7.72,0,0,0,.93-2.95c0-.29,0-1-.5-.81s-.2.5-.12.74A4,4,0,0,1,458.19,134.84Z" transform="translate(-13 14.58)"/><path class="cls-31" d="M462.54,130.42a2.47,2.47,0,0,0,.71,1.11.52.52,0,0,0,.34.16,1.33,1.33,0,0,0-.26-.78,12.73,12.73,0,0,1-.56-1.18c-.11-.27-.21-.76-.46-.92A4.43,4.43,0,0,0,462.54,130.42Z" transform="translate(-13 14.58)"/><path class="cls-31" d="M456,137.28a.64.64,0,0,1,.25-.12.23.23,0,0,1,.25.1.25.25,0,0,1,0,.12.75.75,0,0,1-.46.61,2.1,2.1,0,0,1-.79.16c-.26,0-1.2.17-1.36-.06.35-.11.72-.13,1.07-.27A5.61,5.61,0,0,0,456,137.28Z" transform="translate(-13 14.58)"/><path class="cls-31" d="M467.78,137.26a.28.28,0,0,1-.12-.2,1.08,1.08,0,0,1,.48.18,4.08,4.08,0,0,0,1,.34c.12,0,.75.16.37.36-.2.11-.73-.09-.92-.17A2.45,2.45,0,0,1,467.78,137.26Z" transform="translate(-13 14.58)"/><path class="cls-31" d="M462.72,138a.26.26,0,0,0,.23-.05.17.17,0,0,0-.05-.23.54.54,0,0,0-.25-.09.82.82,0,0,1-.56-.35.24.24,0,0,0-.06-.08.12.12,0,0,0-.15,0,.44.44,0,0,0-.08.15c-.06.19-.14.44.06.54A3,3,0,0,0,462.72,138Z" transform="translate(-13 14.58)"/><path class="cls-31" d="M459.2,128.17c0,.08,0,.18.05.21a.12.12,0,0,0,.15,0,.35.35,0,0,0,.06-.16,2.47,2.47,0,0,0,.06-.71c0-.18-.25-.8-.27-.34A9.05,9.05,0,0,1,459.2,128.17Z" transform="translate(-13 14.58)"/><path class="cls-32" d="M519.42,139.52a1.13,1.13,0,0,1-.81-.9,1.15,1.15,0,0,1,.47-1.11,2.32,2.32,0,0,1,.72-.27c4.91-1.21,10-1.25,15.06-1.16a16,16,0,0,1,2.49.19c.62.12,1.22.31,1.83.45,1.37.29,2.89.33,4,1.21a1.66,1.66,0,0,1,.69,1.2.91.91,0,0,1-.84,1" transform="translate(-13 14.58)"/><path class="cls-31" d="M523.15,137.87c1.19-.06,2.31-.58,3.49-.74a1.28,1.28,0,0,1,.55,0,.51.51,0,0,1,.36.38c0,.26-.2.48-.43.59-1.18.58-2.6-.15-3.88.08-.7.12-1.18.36-1.67-.15A4.65,4.65,0,0,1,523.15,137.87Z" transform="translate(-13 14.58)"/><path class="cls-31" d="M537,137.48c.11.1.23.26.16.39s-2-.35-1.93-.77C535.28,136.47,536.78,137.29,537,137.48Z" transform="translate(-13 14.58)"/></g><g id="Ebene_11" data-name="Ebene 11"><path class="cls-33" d="M240.93,307.91H215l1.32-2.77A2.77,2.77,0,0,1,218,303.3a8.18,8.18,0,0,1,3.8-.41c1.5.1,1.6.38,3,.41s1.56-.31,3-.31c2,0,2.38.68,4,.51,1.22-.12,1.24-.55,2.48-.61a6.79,6.79,0,0,1,2.81.51,6.07,6.07,0,0,1,2.32,1.44Z" transform="translate(-13 14.58)"/><path class="cls-32" d="M305.89,321.34" transform="translate(-13 14.58)"/><path class="cls-32" d="M168.71,307.91h-26l1.32-2.77a2.76,2.76,0,0,1,1.66-1.84,8.17,8.17,0,0,1,3.8-.41c1.49.1,1.6.38,3,.41s1.56-.31,3-.31c2,0,2.38.68,4,.51,1.21-.12,1.24-.55,2.48-.61a6.83,6.83,0,0,1,2.81.51,6,6,0,0,1,2.31,1.44Z" transform="translate(-13 14.58)"/></g><g id="Ebene_5" data-name="Ebene 5"><rect class="cls-2" x="194.08" y="155.49" width="20.31" height="6.77"/><rect class="cls-6" x="194.08" y="158.88" width="9.03" height="1.13"/><rect class="cls-25" x="201.98" y="146.47" width="3.39" height="9.03"/><rect class="cls-9" x="203.1" y="146.47" width="0.34" height="7.9" rx="0.12"/><rect class="cls-34" x="204.23" y="147.6" width="0.34" height="7.9" rx="0.12"/><path class="cls-10" d="M292.83,141.48c0,.94-4.54,1.69-10.15,1.69s-10.16-.75-10.16-1.69,4.55-2.82,10.16-2.82S292.83,140.55,292.83,141.48Z" transform="translate(-13 14.58)"/><polyline class="cls-2" points="259.52 162.26 259.52 155.49 279.83 155.49 279.83 162.26"/><rect class="cls-6" x="259.52" y="158.88" width="9.03" height="1.13"/><path class="cls-35" d="M391.56,95.22A2.82,2.82,0,1,1,387.05,93V78.29a1.7,1.7,0,0,1,3.39,0V93A2.83,2.83,0,0,1,391.56,95.22Z" transform="translate(-13 14.58)"/><rect class="cls-9" x="396.05" y="153.24" width="25.95" height="9.03" rx="2.6"/><rect class="cls-34" x="434.42" y="153.24" width="28.21" height="9.03" rx="2.6"/><rect class="cls-34" x="504.38" y="153.24" width="28.21" height="9.03" rx="2.6"/><rect x="285.47" y="194.99" width="84.63" height="19.18" rx="8.5"/><rect class="cls-25" x="396.05" y="156.39" width="25.95" height="5.87"/><rect class="cls-36" x="434.42" y="156.39" width="28.21" height="5.87"/><rect class="cls-36" x="504.38" y="156.39" width="28.21" height="5.87"/><rect class="cls-9" x="484.65" y="127.38" width="25.95" height="9.03" rx="2.6" transform="translate(54.17 428.84) rotate(-48.11)"/><rect class="cls-25" x="485.83" y="130.01" width="25.95" height="5.87" transform="translate(53.77 430.06) rotate(-48.11)"/><path class="cls-34" d="M88.6,318.08v-4.2c0-2.16,1.31-3.91,2.94-3.91h20.08c1.62,0,2.93,1.75,2.93,3.91v4.2" transform="translate(-13 14.58)"/><polyline class="cls-36" points="75.6 334.9 75.6 330.41 101.55 330.41 101.55 334.9"/><path class="cls-37" d="M88.6,314.63v-2.41c0-1.24,1.31-2.25,2.94-2.25h20.08c1.62,0,2.93,1,2.93,2.25v2.41" transform="translate(-13 14.58)"/><rect class="cls-9" x="75.6" y="320.23" width="25.95" height="6.9" rx="2.6"/><rect class="cls-25" x="75.6" y="322.65" width="25.95" height="4.49"/><path class="cls-34" d="M142.76,318.08v-4.2c0-2.16,1.32-3.91,2.94-3.91h20.08c1.62,0,2.93,1.75,2.93,3.91v4.2" transform="translate(-13 14.58)"/><polyline class="cls-36" points="129.76 334.9 129.76 330.41 155.71 330.41 155.71 334.9"/><path class="cls-37" d="M142.76,314.63v-2.41c0-1.24,1.32-2.25,2.94-2.25h20.08c1.62,0,2.93,1,2.93,2.25v2.41" transform="translate(-13 14.58)"/><rect class="cls-9" x="129.76" y="320.23" width="25.95" height="6.9" rx="2.6"/><rect class="cls-25" x="129.76" y="322.65" width="25.95" height="4.49"/><path class="cls-34" d="M32.18,318.08v-4.2c0-2.16,1.32-3.91,2.94-3.91H55.2c1.62,0,2.93,1.75,2.93,3.91v4.2" transform="translate(-13 14.58)"/><polyline class="cls-36" points="19.18 334.9 19.18 330.41 45.13 330.41 45.13 334.9"/><path class="cls-37" d="M32.18,314.63v-2.41c0-1.24,1.32-2.25,2.94-2.25H55.2c1.62,0,2.93,1,2.93,2.25v2.41" transform="translate(-13 14.58)"/><rect class="cls-9" x="19.18" y="320.23" width="25.95" height="6.9" rx="2.6"/><rect class="cls-25" x="19.18" y="322.65" width="25.95" height="4.49"/><path class="cls-34" d="M215,318.08v-4.2c0-2.16,1.31-3.91,2.93-3.91H238c1.62,0,2.94,1.75,2.94,3.91v4.2" transform="translate(-13 14.58)"/><polyline class="cls-36" points="201.98 334.9 201.98 330.41 227.93 330.41 227.93 334.9"/><path class="cls-37" d="M215,314.63v-2.41c0-1.24,1.31-2.25,2.93-2.25H238c1.62,0,2.94,1,2.94,2.25v2.41" transform="translate(-13 14.58)"/><rect class="cls-9" x="201.98" y="320.23" width="25.95" height="6.9" rx="2.6"/><rect class="cls-25" x="201.98" y="322.65" width="25.95" height="4.49"/><rect class="cls-9" x="371.56" y="355.43" width="21.86" height="5.81" rx="2.6"/><polygon class="cls-38" points="369.79 357.58 395 357.58 391.32 369.15 373.47 369.15 369.79 357.58"/><rect class="cls-38" x="372" y="351.58" width="18.53" height="4" rx="2"/><rect class="cls-38" x="374.47" y="349.58" width="13.59" height="3" rx="1.5"/><rect class="cls-38" x="378" y="348.58" width="7.59" height="2" rx="1"/><rect class="cls-39" x="376" y="351.58" width="16" height="4" rx="2"/><rect class="cls-39" x="378" y="349.58" width="12" height="3" rx="1.5"/><rect class="cls-39" x="379.41" y="348.58" width="6.59" height="2" rx="1"/><rect class="cls-33" x="375" y="351.58" width="14" height="4" rx="2"/><rect class="cls-33" x="377" y="349.58" width="10" height="3" rx="1.5"/><rect class="cls-33" x="379" y="348.58" width="6" height="2" rx="1"/><path class="cls-33" d="M392.81,334c0-.27.27-.49.56-.61s.63-.19.91-.32a1.39,1.39,0,0,0,.76-.89c.11,0,.16.11.21.19a2.32,2.32,0,0,0,1,.75c.39.2.78.5.78.88" transform="translate(-13 14.58)"/><polygon class="cls-33" points="369.79 357.58 393 357.58 389.61 369.15 373.18 369.15 369.79 357.58"/><polygon class="cls-33" points="369.79 357.58 393 357.58 389.61 369.15 373.18 369.15 369.79 357.58"/><polygon class="cls-38" points="369.79 357.58 391 357.58 387.9 369.15 372.88 369.15 369.79 357.58"/><polygon class="cls-33" points="372 357.58 389 357.58 386.52 369.15 374.48 369.15 372 357.58"/><polygon class="cls-39" points="374 357.58 391 357.58 388.52 369.15 376.48 369.15 374 357.58"/></g><g id="Ebene_6" data-name="Ebene 6"><path class="cls-6" d="M396.64,43.72V206.36H287.19V43.72a10,10,0,0,1,10-10h89.45A10,10,0,0,1,396.64,43.72Z" transform="translate(-13 14.58)"/><rect class="cls-40" x="285.47" y="69.74" width="84.63" height="92.53" rx="11.16"/><rect class="cls-18" x="274.21" y="100.86" width="59.8" height="2.26" rx="1" transform="translate(189.13 420.68) rotate(-90)"/><rect class="cls-41" x="332.78" y="85.22" width="4.51" height="55.1" rx="2" transform="translate(-6.25 258.49) rotate(-40.38)"/><rect class="cls-42" x="335.03" y="61.53" width="4.51" height="55.1" rx="2" transform="translate(9.64 254.31) rotate(-40.38)"/><path class="cls-43" d="M392.69,97.47a2.82,2.82,0,1,1-4.51-2.25V80.55a1.69,1.69,0,0,1,3.38,0V95.22A2.8,2.8,0,0,1,392.69,97.47Z" transform="translate(-13 14.58)"/><ellipse class="cls-4" cx="291.21" cy="177.5" rx="4.61" ry="3.95"/><circle class="cls-3" cx="290.55" cy="177.5" r="3.95"/><path class="cls-44" d="M303.7,166.72c0-.49.07-.83.06-.63" transform="translate(-13 14.58)"/><path class="cls-44" d="M299.87,162.85l.64,0" transform="translate(-13 14.58)"/><path class="cls-44" d="M300.88,165.77l.43-.47" transform="translate(-13 14.58)"/><path class="cls-44" d="M300.82,160.47l.52.37" transform="translate(-13 14.58)"/><path class="cls-44" d="M303.29,159.45v.64" transform="translate(-13 14.58)"/><path class="cls-44" d="M306.2,160.46l-.5.39" transform="translate(-13 14.58)"/><path class="cls-44" d="M307.15,162.86h-.64" transform="translate(-13 14.58)"/><path class="cls-44" d="M306.15,165.77a4.1,4.1,0,0,1-.41-.5" transform="translate(-13 14.58)"/><ellipse class="cls-4" cx="323.93" cy="177.5" rx="4.61" ry="3.95"/><circle class="cls-3" cx="323.27" cy="177.5" r="3.95"/><path class="cls-44" d="M336.43,166.72c0-.49.06-.83.05-.63" transform="translate(-13 14.58)"/><path class="cls-44" d="M332.6,162.85l.64,0" transform="translate(-13 14.58)"/><path class="cls-44" d="M333.6,165.77l.43-.47" transform="translate(-13 14.58)"/><path class="cls-44" d="M333.54,160.47l.52.37" transform="translate(-13 14.58)"/><path class="cls-44" d="M336,159.45v.64" transform="translate(-13 14.58)"/><path class="cls-44" d="M338.92,160.46c-.38.3-.65.52-.5.39" transform="translate(-13 14.58)"/><path class="cls-44" d="M339.87,162.86h-.63" transform="translate(-13 14.58)"/><path class="cls-44" d="M338.87,165.77l-.41-.5" transform="translate(-13 14.58)"/><ellipse class="cls-4" cx="356.66" cy="177.5" rx="4.61" ry="3.95"/><circle class="cls-3" cx="356" cy="177.5" r="3.95"/><path class="cls-44" d="M369.15,166.72c0-.49.07-.83.05-.63" transform="translate(-13 14.58)"/><path class="cls-44" d="M365.32,162.85l.64,0" transform="translate(-13 14.58)"/><path class="cls-44" d="M366.32,165.77l.43-.47" transform="translate(-13 14.58)"/><path class="cls-44" d="M366.26,160.47l.52.37" transform="translate(-13 14.58)"/><path class="cls-44" d="M368.74,159.45v.64" transform="translate(-13 14.58)"/><path class="cls-44" d="M371.64,160.46c-.38.3-.65.52-.5.39" transform="translate(-13 14.58)"/><path class="cls-44" d="M372.6,162.86H372" transform="translate(-13 14.58)"/><path class="cls-44" d="M371.59,165.77c-.31-.38-.53-.65-.4-.5" transform="translate(-13 14.58)"/><rect class="cls-2" x="285.47" y="191.6" width="85.76" height="19.18" rx="5.84"/><rect class="cls-4" x="276.45" y="61.84" width="4.51" height="148.94" rx="2"/><rect class="cls-4" x="443.44" y="91.18" width="9.03" height="45.13"/><rect class="cls-2" x="440.06" y="136.31" width="15.8" height="4.51" rx="1.56"/><rect class="cls-3" x="444.57" y="15.58" width="6.77" height="75.6"/><rect class="cls-6" x="441.19" y="137.44" width="5.64" height="2.26" rx="1"/><rect class="cls-3" x="444.57" y="92.31" width="2.26" height="41.75" rx="1"/><path class="cls-45" d="M375.74,290.26a2.38,2.38,0,0,1-4.76,0,2.19,2.19,0,0,1,.95-1.79V276.84a1.43,1.43,0,0,1,2.85,0v11.63A2.2,2.2,0,0,1,375.74,290.26Z" transform="translate(-13 14.58)"/><path class="cls-6" d="M380,249.44V378.36H287.83V249.44a8.19,8.19,0,0,1,8.42-7.92h75.34A8.18,8.18,0,0,1,380,249.44Z" transform="translate(-13 14.58)"/><rect class="cls-4" x="276.74" y="263.98" width="3.8" height="118.06" rx="1.9"/><rect class="cls-46" x="285.06" y="287.45" width="70.26" height="1.9" rx="0.95"/><rect class="cls-46" x="285.05" y="312.16" width="70.26" height="1.9" rx="0.95"/><rect class="cls-46" x="285.05" y="337.82" width="70.26" height="1.9" rx="0.95"/><line class="cls-36" x1="351.81" y1="309.33" x2="351.81" y2="313.11"/><line class="cls-36" x1="329.95" y1="313.11" x2="329.95" y2="309.33"/><rect class="cls-3" x="506.23" y="-19.22" width="6.67" height="94.2" transform="translate(41.33 273.09) rotate(-30)"/><rect class="cls-3" x="519.93" y="65.59" width="3.88" height="51.9" rx="1.94" transform="translate(70.37 -191.29) rotate(24.2)"/><circle class="cls-6" cx="518" cy="82.58" r="6"/><circle class="cls-14" cx="518" cy="82.58" r="5"/><rect class="cls-14" x="498.43" y="118.19" width="7.57" height="1.11" rx="0.53" transform="translate(135.27 508.88) rotate(-60)"/><rect class="cls-14" x="503.43" y="114.19" width="7.57" height="1.11" rx="0.51" transform="translate(-24.28 169.27) rotate(-17.15)"/><circle class="cls-6" cx="491" cy="130.58" r="1"/><path class="cls-14" d="M513.1,120.39l-4.31,4.89a.51.51,0,0,0,0,.74l0,0a.54.54,0,0,0,.75,0l4.31-4.88" transform="translate(-13 14.58)"/><path class="cls-14" d="M513.8,121.31l-.25-6.54a.5.5,0,0,0-.53-.49h-.08a.51.51,0,0,0-.5.53l.25,6.54" transform="translate(-13 14.58)"/><circle class="cls-6" cx="500" cy="135.58" r="1"/><path class="cls-47" d="M377.53,284.43a2.38,2.38,0,1,1-3.8-1.9V270.18a1.43,1.43,0,1,1,2.85,0v12.35A2.37,2.37,0,0,1,377.53,284.43Z" transform="translate(-13 14.58)"/><rect class="cls-2" x="126.14" y="356.52" width="85.76" height="19.18" rx="5.84"/></g><g id="Ebene_14" data-name="Ebene 14"><path class="cls-33" d="M365.76,288.08H343.9l1.11-2.33a2.35,2.35,0,0,1,1.4-1.56,7,7,0,0,1,3.2-.34c1.26.08,1.34.32,2.5.34s1.32-.26,2.51-.26c1.69,0,2,.58,3.34.44,1-.11,1.05-.47,2.09-.52a5.65,5.65,0,0,1,2.37.43,5.13,5.13,0,0,1,1.95,1.21Z" transform="translate(-13 14.58)"/><path class="cls-34" d="M343.9,296.64V293.1c0-1.81,1.11-3.29,2.47-3.29h16.92c1.36,0,2.47,1.48,2.47,3.29v3.54" transform="translate(-13 14.58)"/><polyline class="cls-36" points="330.9 313.11 330.9 309.33 352.76 309.33 352.76 313.11"/><path class="cls-37" d="M343.9,293.74v-2a2.24,2.24,0,0,1,2.47-1.89h16.92a2.24,2.24,0,0,1,2.47,1.89v2" transform="translate(-13 14.58)"/><rect class="cls-9" x="330.9" y="300.76" width="21.86" height="5.81" rx="2.6"/><rect class="cls-25" x="330.9" y="302.79" width="21.86" height="3.78"/><path class="cls-33" d="M334.4,288.08H312.54l1.12-2.33a2.29,2.29,0,0,1,1.39-1.56,7,7,0,0,1,3.2-.34c1.26.08,1.35.32,2.51.34s1.31-.26,2.5-.26c1.69,0,2,.58,3.34.44,1-.11,1-.47,2.09-.52a5.65,5.65,0,0,1,2.37.43,5.13,5.13,0,0,1,1.95,1.21Z" transform="translate(-13 14.58)"/><path class="cls-34" d="M312.54,296.64V293.1c0-1.81,1.11-3.29,2.47-3.29h16.92c1.36,0,2.47,1.48,2.47,3.29v3.54" transform="translate(-13 14.58)"/><polyline class="cls-36" points="299.54 313.11 299.54 309.33 321.4 309.33 321.4 313.11"/><path class="cls-37" d="M312.54,293.74v-2a2.24,2.24,0,0,1,2.47-1.89h16.92a2.24,2.24,0,0,1,2.47,1.89v2" transform="translate(-13 14.58)"/><rect class="cls-9" x="299.54" y="300.76" width="21.86" height="5.81" rx="2.6"/><rect class="cls-25" x="299.54" y="302.79" width="21.86" height="3.78"/><path class="cls-32" d="M334.4,312.79H312.54l1.12-2.33a2.29,2.29,0,0,1,1.39-1.56,6.73,6.73,0,0,1,3.2-.34c1.26.08,1.35.32,2.51.34s1.31-.26,2.5-.26c1.69,0,2,.57,3.34.43,1-.1,1-.46,2.09-.51a5.65,5.65,0,0,1,2.37.43A5,5,0,0,1,333,310.2Z" transform="translate(-13 14.58)"/><path class="cls-34" d="M312.54,321.35v-3.54c0-1.82,1.11-3.29,2.47-3.29h16.92c1.36,0,2.47,1.47,2.47,3.29v3.54" transform="translate(-13 14.58)"/><polyline class="cls-36" points="299.54 337.82 299.54 334.04 321.4 334.04 321.4 337.82"/><path class="cls-37" d="M312.54,318.44v-2a2.24,2.24,0,0,1,2.47-1.89h16.92a2.24,2.24,0,0,1,2.47,1.89v2" transform="translate(-13 14.58)"/><rect class="cls-9" x="299.54" y="325.46" width="21.86" height="5.81" rx="2.6"/><rect class="cls-25" x="299.54" y="327.5" width="21.86" height="3.78"/><path class="cls-32" d="M365.76,312.79H343.9l1.11-2.33a2.35,2.35,0,0,1,1.4-1.56,6.73,6.73,0,0,1,3.2-.34c1.26.08,1.34.32,2.5.34s1.32-.26,2.51-.26c1.69,0,2,.57,3.34.43,1-.1,1.05-.46,2.09-.51a5.65,5.65,0,0,1,2.37.43,5,5,0,0,1,1.95,1.21Z" transform="translate(-13 14.58)"/><path class="cls-34" d="M343.9,321.35v-3.54c0-1.82,1.11-3.29,2.47-3.29h16.92c1.36,0,2.47,1.47,2.47,3.29v3.54" transform="translate(-13 14.58)"/><polyline class="cls-36" points="330.9 337.82 330.9 334.04 352.76 334.04 352.76 337.82"/><path class="cls-37" d="M343.9,318.44v-2a2.24,2.24,0,0,1,2.47-1.89h16.92a2.24,2.24,0,0,1,2.47,1.89v2" transform="translate(-13 14.58)"/><rect class="cls-9" x="330.9" y="325.46" width="21.86" height="5.81" rx="2.6"/><rect class="cls-25" x="330.9" y="327.5" width="21.86" height="3.78"/><path class="cls-32" d="M334.4,262.42H312.54l1.12-2.33a2.27,2.27,0,0,1,1.39-1.55,6.88,6.88,0,0,1,3.2-.35c1.26.09,1.35.33,2.51.35s1.31-.26,2.5-.26c1.69,0,2,.57,3.34.43,1-.11,1-.46,2.09-.52a6,6,0,0,1,2.37.43,5.26,5.26,0,0,1,1.95,1.21Z" transform="translate(-13 14.58)"/><path class="cls-34" d="M312.54,271v-3.54c0-1.82,1.11-3.29,2.47-3.29h16.92c1.36,0,2.47,1.47,2.47,3.29V271" transform="translate(-13 14.58)"/><polyline class="cls-36" points="299.54 287.45 299.54 283.67 321.4 283.67 321.4 287.45"/><path class="cls-37" d="M312.54,268.08v-2a2.24,2.24,0,0,1,2.47-1.89h16.92a2.24,2.24,0,0,1,2.47,1.89v2" transform="translate(-13 14.58)"/><rect class="cls-9" x="299.54" y="275.1" width="21.86" height="5.81" rx="2.6"/><rect class="cls-25" x="299.54" y="277.13" width="21.86" height="3.78"/><path class="cls-37" d="M334.4,262.42H312.54l1.12-2.33a2.27,2.27,0,0,1,1.39-1.55,6.88,6.88,0,0,1,3.2-.35c1.26.09,1.35.33,2.51.35s1.31-.26,2.5-.26c1.69,0,2,.57,3.34.43,1-.11,1-.46,2.09-.52a6,6,0,0,1,2.37.43,5.26,5.26,0,0,1,1.95,1.21Z" transform="translate(-13 14.58)"/><path class="cls-34" d="M312.54,271v-3.54c0-1.82,1.11-3.29,2.47-3.29h16.92c1.36,0,2.47,1.47,2.47,3.29V271" transform="translate(-13 14.58)"/><polyline class="cls-36" points="299.54 287.45 299.54 283.67 321.4 283.67 321.4 287.45"/><path class="cls-37" d="M312.54,268.08v-2a2.24,2.24,0,0,1,2.47-1.89h16.92a2.24,2.24,0,0,1,2.47,1.89v2" transform="translate(-13 14.58)"/><rect class="cls-9" x="299.54" y="275.1" width="21.86" height="5.81" rx="2.6"/><rect class="cls-25" x="299.54" y="277.13" width="21.86" height="3.78"/><path class="cls-32" d="M365.76,262.42H343.9l1.11-2.33a2.32,2.32,0,0,1,1.4-1.55,6.88,6.88,0,0,1,3.2-.35c1.26.09,1.34.33,2.5.35s1.32-.26,2.51-.26c1.69,0,2,.57,3.34.43,1-.11,1.05-.46,2.09-.52a6,6,0,0,1,2.37.43,5.26,5.26,0,0,1,1.95,1.21Z" transform="translate(-13 14.58)"/><path class="cls-34" d="M343.9,271v-3.54c0-1.82,1.11-3.29,2.47-3.29h16.92c1.36,0,2.47,1.47,2.47,3.29V271" transform="translate(-13 14.58)"/><polyline class="cls-36" points="330.9 287.45 330.9 283.67 352.76 283.67 352.76 287.45"/><path class="cls-37" d="M343.9,268.08v-2a2.24,2.24,0,0,1,2.47-1.89h16.92a2.24,2.24,0,0,1,2.47,1.89v2" transform="translate(-13 14.58)"/><rect class="cls-9" x="330.9" y="275.1" width="21.86" height="5.81" rx="2.6"/><rect class="cls-25" x="330.9" y="277.13" width="21.86" height="3.78"/><path class="cls-37" d="M365.76,262.42H343.9l1.11-2.33a2.32,2.32,0,0,1,1.4-1.55,6.88,6.88,0,0,1,3.2-.35c1.26.09,1.34.33,2.5.35s1.32-.26,2.51-.26c1.69,0,2,.57,3.34.43,1-.11,1.05-.46,2.09-.52a6,6,0,0,1,2.37.43,5.26,5.26,0,0,1,1.95,1.21Z" transform="translate(-13 14.58)"/><path class="cls-34" d="M343.9,271v-3.54c0-1.82,1.11-3.29,2.47-3.29h16.92c1.36,0,2.47,1.47,2.47,3.29V271" transform="translate(-13 14.58)"/><polyline class="cls-36" points="330.9 287.45 330.9 283.67 352.76 283.67 352.76 287.45"/><path class="cls-37" d="M343.9,268.08v-2a2.24,2.24,0,0,1,2.47-1.89h16.92a2.24,2.24,0,0,1,2.47,1.89v2" transform="translate(-13 14.58)"/><rect class="cls-9" x="330.9" y="275.1" width="21.86" height="5.81" rx="2.6"/><rect class="cls-25" x="330.9" y="277.13" width="21.86" height="3.78"/></g><g id="Ebene_15" data-name="Ebene 15"><rect class="cls-48" x="285.29" y="263.65" width="71.27" height="80.93" rx="11.16"/><rect class="cls-18" x="279.29" y="289.58" width="47.4" height="1.9" rx="0.95" transform="translate(-0.54 608.09) rotate(-90)"/><path class="cls-42" d="M349.76,292.33h0a2,2,0,0,1-2.68-.2l-27.6-30.55a1.71,1.71,0,0,1,.22-2.52h0a2,2,0,0,1,2.68.2L350,289.81A1.72,1.72,0,0,1,349.76,292.33Z" transform="translate(-13 14.58)"/><path class="cls-42" d="M348.76,316h0a2,2,0,0,1-2.68-.21l-27.6-30.55a1.72,1.72,0,0,1,.22-2.52h0a2,2,0,0,1,2.68.21L349,313.46A1.73,1.73,0,0,1,348.76,316Z" transform="translate(-13 14.58)"/></g><g id="Ebene_12" data-name="Ebene 12"><rect class="cls-4" x="124.12" y="262.69" width="7.9" height="22.57" rx="3.5"/><rect class="cls-18" x="346.4" y="364.58" width="6.6" height="19" rx="1.9"/><path class="cls-3" d="M349.23,349.29l14.34,10a1.46,1.46,0,0,1,.31,2.19l-.17.2a1.87,1.87,0,0,1-2.44.27l-14.34-10a1.45,1.45,0,0,1-.3-2.19l.17-.2A1.86,1.86,0,0,1,349.23,349.29Z" transform="translate(-13 14.58)"/><rect class="cls-14" x="326.7" y="362.91" width="16.49" height="2.97" rx="0.95"/><rect class="cls-18" x="288.4" y="364.58" width="6.6" height="17" rx="1.9"/><rect class="cls-18" x="316.4" y="364.58" width="6.6" height="17" rx="1.9"/><path class="cls-3" d="M292.47,369.17l11.08-13.56a1.47,1.47,0,0,1,2.21-.14l.18.19a1.88,1.88,0,0,1,.09,2.45L295,371.66a1.45,1.45,0,0,1-2.2.14l-.19-.18A1.88,1.88,0,0,1,292.47,369.17Z" transform="translate(-13 14.58)"/><rect class="cls-14" x="270.7" y="383.91" width="16.49" height="2.97" rx="0.95"/><path class="cls-3" d="M319.23,349.29l14.34,10a1.46,1.46,0,0,1,.31,2.19l-.17.2a1.87,1.87,0,0,1-2.44.27l-14.34-10a1.45,1.45,0,0,1-.3-2.19l.17-.2A1.86,1.86,0,0,1,319.23,349.29Z" transform="translate(-13 14.58)"/><rect class="cls-14" x="296.7" y="362.91" width="16.49" height="2.97" rx="0.95"/><rect class="cls-33" x="284" y="346.58" width="21" height="14" rx="2.46"/><rect class="cls-32" x="282" y="346.58" width="21" height="14" rx="2.46"/><path class="cls-33" d="M301.77,333.54v4.12h-1.13v-2.78l-.46,2.78h-.8L298.9,335v2.71h-1.13v-4.12h1.68c.05.25.1.54.15.88l.19,1.05.29-1.93Z" transform="translate(-13 14.58)"/><path class="cls-33" d="M305.26,336a6,6,0,0,1,0,.88.82.82,0,0,1-.22.47,1.13,1.13,0,0,1-.5.33,2.09,2.09,0,0,1-.74.12,2.27,2.27,0,0,1-.72-.11,1.13,1.13,0,0,1-.51-.33.92.92,0,0,1-.24-.47,8.76,8.76,0,0,1,0-.89v-.7a8.8,8.8,0,0,1,0-.88,1,1,0,0,1,.22-.47,1.33,1.33,0,0,1,.51-.33,2.35,2.35,0,0,1,.74-.11,2,2,0,0,1,.72.11,1.2,1.2,0,0,1,.51.32.84.84,0,0,1,.23.47,6.15,6.15,0,0,1,0,.89ZM304,334.6a1,1,0,0,0,0-.37.16.16,0,0,0-.16-.08.2.2,0,0,0-.15.07.69.69,0,0,0-.06.38v1.92a1.74,1.74,0,0,0,0,.45s.08.08.17.08a.15.15,0,0,0,.16-.1,1.4,1.4,0,0,0,0-.46Z" transform="translate(-13 14.58)"/><path class="cls-33" d="M305.74,333.54h1a6.87,6.87,0,0,1,1.28.08.93.93,0,0,1,.5.23.69.69,0,0,1,.22.36,4.56,4.56,0,0,1,0,.79v1.44a2.94,2.94,0,0,1-.06.74.64.64,0,0,1-.22.29,1.13,1.13,0,0,1-.39.15,4.16,4.16,0,0,1-.7,0h-1.64Zm1.3.71V337a.45.45,0,0,0,.35-.1,1.2,1.2,0,0,0,.06-.5v-1.6a2.24,2.24,0,0,0,0-.36.16.16,0,0,0-.1-.11A.66.66,0,0,0,307,334.25Z" transform="translate(-13 14.58)"/><path class="cls-33" d="M309.23,333.54h2.17v.83h-.87v.78h.81v.78h-.81v.91h1v.82h-2.25Z" transform="translate(-13 14.58)"/><path class="cls-33" d="M313.16,333.54v3.3H314v.82h-2.09v-4.12Z" transform="translate(-13 14.58)"/><path class="cls-33" d="M297.77,339.79h1.29a4.24,4.24,0,0,1,.93.08.92.92,0,0,1,.51.32,1.22,1.22,0,0,1,.2.77.71.71,0,0,1-.14.5,1,1,0,0,1-.54.22,1.05,1.05,0,0,1,.61.28.92.92,0,0,1,.16.6v.38a1.26,1.26,0,0,1-.12.62.59.59,0,0,1-.37.27,4.48,4.48,0,0,1-1,.07h-1.5Zm1.3.7v.92h.13a.3.3,0,0,0,.24-.08,1.19,1.19,0,0,0,.05-.45.64.64,0,0,0,0-.27.19.19,0,0,0-.11-.09A1.25,1.25,0,0,0,299.07,340.49Zm0,1.56v1.15a.63.63,0,0,0,.35-.07c.05,0,.07-.15.07-.31v-.39c0-.17,0-.28-.07-.32A.71.71,0,0,0,299.07,342.05Z" transform="translate(-13 14.58)"/><path class="cls-33" d="M303.5,339.79l.74,4.11h-1.33l-.07-.73h-.46l-.08.73H301l.66-4.11Zm-.69,2.65c-.06-.47-.13-1.05-.2-1.73-.13.79-.21,1.36-.25,1.73Z" transform="translate(-13 14.58)"/><path class="cls-33" d="M307.55,339.79l-.74,1.86.82,2.25h-1.34l-.53-1.76v1.76h-1.3v-4.11h1.3v1.6l.58-1.6Z" transform="translate(-13 14.58)"/><path class="cls-33" d="M307.85,339.79H310v.82h-.86v.78H310v.79h-.81v.9h1v.82h-2.25Z" transform="translate(-13 14.58)"/><path class="cls-33" d="M310.47,339.79h.92a8.43,8.43,0,0,1,1.25.06.92.92,0,0,1,.53.3,1.19,1.19,0,0,1,.2.76,1.09,1.09,0,0,1-.14.65.84.84,0,0,1-.57.2,1,1,0,0,1,.51.21.63.63,0,0,1,.17.24,3.42,3.42,0,0,1,0,.61v1.08h-1.2v-1.36a.79.79,0,0,0-.07-.41c0-.05-.15-.08-.33-.08v1.85h-1.3Zm1.3.7v.92a.73.73,0,0,0,.31-.05c.06,0,.09-.14.09-.32v-.23a.31.31,0,0,0-.09-.26A.58.58,0,0,0,311.77,340.49Z" transform="translate(-13 14.58)"/><rect class="cls-33" x="311" y="346.58" width="21" height="14" rx="2.46"/><rect class="cls-33" x="338" y="346.58" width="21" height="14" rx="2.46"/><rect class="cls-32" x="309" y="346.58" width="21" height="14" rx="2.46"/><rect class="cls-32" x="336" y="346.58" width="21" height="14" rx="2.46"/><path class="cls-2" d="M184.18,257l-1.2,4v2.29h-1.52V261l-1.16-4h1.51a25.29,25.29,0,0,1,.4,2.5c.09-.68.25-1.51.46-2.5Z" transform="translate(-13 14.58)"/><path class="cls-2" d="M183.38,266.6l.94,6.33h-1.68l-.09-1.14H182l-.09,1.14h-1.7l.83-6.33Zm-.87,4.07c-.08-.72-.17-1.6-.25-2.66-.17,1.21-.27,2.1-.32,2.66Z" transform="translate(-13 14.58)"/><path class="cls-2" d="M184.78,276.2v6.33h-1.44v-4.27l-.58,4.27h-1l-.61-4.17v4.17H179.7V276.2h2.13c.06.38.13.83.2,1.35l.23,1.61.38-3Z" transform="translate(-13 14.58)"/><path class="cls-2" d="M182.69,285.8v5.06h1v1.27h-2.64V285.8Z" transform="translate(-13 14.58)"/><path class="cls-2" d="M157.41,258l-.73,3.5,1.09,4.41h-1.9a25.77,25.77,0,0,1-.63-2.88q-.08.75-.21,1.59l-.2,1.29h-2l.75-4.41-.75-3.5h2c0,.22.11.58.21,1.09s.16.75.21,1.07l.44-2.16Z" transform="translate(-13 14.58)"/><path class="cls-2" d="M158.41,270v7.91h-1.8v-5.34l-.71,5.34h-1.28l-.75-5.21v5.21h-1.79V270h2.66c.08.48.16,1,.24,1.69l.29,2,.48-3.7Z" transform="translate(-13 14.58)"/><path class="cls-2" d="M155.81,282v6.33h1.25v1.58h-3.31V282Z" transform="translate(-13 14.58)"/><text class="cls-49" transform="translate(289.94 64.97)">M<tspan class="cls-50" x="10.35" y="0">E</tspan><tspan class="cls-51" x="17.24" y="0">T</tspan><tspan class="cls-52" x="24.33" y="0">ACONFIGS </tspan></text><text class="cls-53" transform="translate(288.94 64.97)">M<tspan class="cls-50" x="10.35" y="0">E</tspan><tspan class="cls-51" x="17.24" y="0">T</tspan><tspan class="cls-52" x="24.33" y="0">ACONFIGS </tspan></text><text class="cls-49" transform="translate(13.56 191.26)">-MODE<tspan class="cls-54" x="40.1" y="0">L</tspan><tspan x="46.68" y="0">S-</tspan></text><text class="cls-53" transform="translate(12.56 191.26)">-MODE<tspan class="cls-54" x="40.1" y="0">L</tspan><tspan x="46.68" y="0">S-</tspan></text><path class="cls-40" d="M156.41,258l-.73,3.5,1.09,4.41h-1.9a25.77,25.77,0,0,1-.63-2.88q-.08.75-.21,1.59l-.2,1.29h-2l.75-4.41-.75-3.5h2c0,.22.11.58.21,1.09s.16.75.21,1.07l.44-2.16Z" transform="translate(-13 14.58)"/><path class="cls-40" d="M157.41,270v7.91h-1.8v-5.34l-.71,5.34h-1.28l-.75-5.21v5.21h-1.79V270h2.66c.08.48.16,1,.24,1.69l.29,2,.48-3.7Z" transform="translate(-13 14.58)"/><path class="cls-40" d="M154.81,282v6.33h1.25v1.58h-3.31V282Z" transform="translate(-13 14.58)"/><path class="cls-40" d="M183.18,257l-1.2,4v2.29h-1.52V261l-1.16-4h1.51a25.29,25.29,0,0,1,.4,2.5c.09-.68.25-1.51.46-2.5Z" transform="translate(-13 14.58)"/><path class="cls-40" d="M182.38,266.6l.94,6.33h-1.68l-.09-1.14H181l-.09,1.14h-1.7l.83-6.33Zm-.87,4.07c-.08-.72-.17-1.6-.25-2.66-.17,1.21-.27,2.1-.32,2.66Z" transform="translate(-13 14.58)"/><path class="cls-40" d="M183.78,276.2v6.33h-1.44v-4.27l-.58,4.27h-1l-.61-4.17v4.17H178.7V276.2h2.13c.06.38.13.83.2,1.35l.23,1.61.38-3Z" transform="translate(-13 14.58)"/><path class="cls-40" d="M181.69,285.8v5.06h1v1.27h-2.64V285.8Z" transform="translate(-13 14.58)"/><text class="cls-55" transform="translate(148.65 146.08)">ILI</text><text class="cls-53" transform="translate(147.65 146.08)">ILI</text><path class="cls-14" d="M462.3,80.66v8.7H460v-8.7Z" transform="translate(-13 14.58)"/><path class="cls-14" d="M463.69,93.86v8.7h-2l-1.18-4v4h-1.89v-8.7h1.89l1.27,3.92V93.86Z" transform="translate(-13 14.58)"/><path class="cls-14" d="M462.3,107.06v8.7H460v-8.7Z" transform="translate(-13 14.58)"/><path class="cls-6" d="M461.3,80.66v8.7H459v-8.7Z" transform="translate(-13 14.58)"/><path class="cls-6" d="M462.69,93.86v8.7h-2l-1.18-4v4h-1.89v-8.7h1.89l1.27,3.92V93.86Z" transform="translate(-13 14.58)"/><path class="cls-6" d="M461.3,107.06v8.7H459v-8.7Z" transform="translate(-13 14.58)"/><path class="cls-56" d="M300.77,333.54v4.12h-1.13v-2.78l-.46,2.78h-.8L297.9,335v2.71h-1.13v-4.12h1.68c.05.25.1.54.15.88l.19,1.05.29-1.93Z" transform="translate(-13 14.58)"/><path class="cls-56" d="M304.26,336a6,6,0,0,1,0,.88.82.82,0,0,1-.22.47,1.13,1.13,0,0,1-.5.33,2.09,2.09,0,0,1-.74.12,2.27,2.27,0,0,1-.72-.11,1.13,1.13,0,0,1-.51-.33.92.92,0,0,1-.24-.47,8.76,8.76,0,0,1,0-.89v-.7a8.8,8.8,0,0,1,0-.88,1,1,0,0,1,.22-.47,1.33,1.33,0,0,1,.51-.33,2.35,2.35,0,0,1,.74-.11,2,2,0,0,1,.72.11,1.2,1.2,0,0,1,.51.32.84.84,0,0,1,.23.47,6.15,6.15,0,0,1,0,.89ZM303,334.6a1,1,0,0,0,0-.37.16.16,0,0,0-.16-.08.2.2,0,0,0-.15.07.69.69,0,0,0-.06.38v1.92a1.74,1.74,0,0,0,0,.45s.08.08.17.08a.15.15,0,0,0,.16-.1,1.4,1.4,0,0,0,0-.46Z" transform="translate(-13 14.58)"/><path class="cls-56" d="M304.74,333.54h1a6.87,6.87,0,0,1,1.28.08.93.93,0,0,1,.5.23.69.69,0,0,1,.22.36,4.56,4.56,0,0,1,0,.79v1.44a2.94,2.94,0,0,1-.06.74.64.64,0,0,1-.22.29,1.13,1.13,0,0,1-.39.15,4.16,4.16,0,0,1-.7,0h-1.64Zm1.3.71V337a.45.45,0,0,0,.35-.1,1.2,1.2,0,0,0,.06-.5v-1.6a2.24,2.24,0,0,0,0-.36.16.16,0,0,0-.1-.11A.66.66,0,0,0,306,334.25Z" transform="translate(-13 14.58)"/><path class="cls-56" d="M308.23,333.54h2.17v.83h-.87v.78h.81v.78h-.81v.91h1v.82h-2.25Z" transform="translate(-13 14.58)"/><path class="cls-56" d="M312.16,333.54v3.3H313v.82h-2.09v-4.12Z" transform="translate(-13 14.58)"/><path class="cls-56" d="M296.77,339.79h1.29a4.24,4.24,0,0,1,.93.08.92.92,0,0,1,.51.32,1.22,1.22,0,0,1,.2.77.71.71,0,0,1-.14.5,1,1,0,0,1-.54.22,1.05,1.05,0,0,1,.61.28.92.92,0,0,1,.16.6v.38a1.26,1.26,0,0,1-.12.62.59.59,0,0,1-.37.27,4.48,4.48,0,0,1-1,.07h-1.5Zm1.3.7v.92h.13a.3.3,0,0,0,.24-.08,1.19,1.19,0,0,0,.05-.45.64.64,0,0,0,0-.27.19.19,0,0,0-.11-.09A1.25,1.25,0,0,0,298.07,340.49Zm0,1.56v1.15a.63.63,0,0,0,.35-.07c.05,0,.07-.15.07-.31v-.39c0-.17,0-.28-.07-.32A.71.71,0,0,0,298.07,342.05Z" transform="translate(-13 14.58)"/><path class="cls-56" d="M302.5,339.79l.74,4.11h-1.33l-.07-.73h-.46l-.08.73H300l.66-4.11Zm-.69,2.65c-.06-.47-.13-1.05-.2-1.73-.13.79-.21,1.36-.25,1.73Z" transform="translate(-13 14.58)"/><path class="cls-56" d="M306.55,339.79l-.74,1.86.82,2.25h-1.34l-.53-1.76v1.76h-1.3v-4.11h1.3v1.6l.58-1.6Z" transform="translate(-13 14.58)"/><path class="cls-56" d="M306.85,339.79H309v.82h-.86v.78H309v.79h-.81v.9h1v.82h-2.25Z" transform="translate(-13 14.58)"/><path class="cls-56" d="M309.47,339.79h.92a8.43,8.43,0,0,1,1.25.06.92.92,0,0,1,.53.3,1.19,1.19,0,0,1,.2.76,1.09,1.09,0,0,1-.14.65.84.84,0,0,1-.57.2,1,1,0,0,1,.51.21.63.63,0,0,1,.17.24,3.42,3.42,0,0,1,0,.61v1.08h-1.2v-1.36a.79.79,0,0,0-.07-.41c0-.05-.15-.08-.33-.08v1.85h-1.3Zm1.3.7v.92a.73.73,0,0,0,.31-.05c.06,0,.09-.14.09-.32v-.23a.31.31,0,0,0-.09-.26A.58.58,0,0,0,310.77,340.49Z" transform="translate(-13 14.58)"/><text class="cls-53" transform="translate(136.36 370.22)">TOPPINGS</text></g></svg>