<svg id="Ebene_1" data-name="Ebene 1" xmlns="http://www.w3.org/2000/svg" viewBox="0 0 25.21 22.39"><defs><style>.cls-1{fill:#c69c6c;}.cls-2{fill:#cd7e9b;}.cls-3{fill:#904762;}.cls-4{fill:#c05d82;}</style></defs><rect class="cls-1" x="1.77" y="8.67" width="21.86" height="5.81" rx="2.6"/><polygon class="cls-2" points="0 10.81 25.21 10.81 21.53 22.39 3.68 22.39 0 10.81"/><rect class="cls-2" x="2.21" y="4.82" width="18.53" height="4" rx="2"/><rect class="cls-2" x="4.68" y="2.82" width="13.59" height="3" rx="1.5"/><rect class="cls-2" x="8.21" y="1.82" width="7.59" height="2" rx="1"/><rect class="cls-3" x="6.21" y="4.82" width="16" height="4" rx="2"/><rect class="cls-3" x="8.21" y="2.82" width="12" height="3" rx="1.5"/><rect class="cls-3" x="9.62" y="1.82" width="6.59" height="2" rx="1"/><rect class="cls-4" x="5.21" y="4.82" width="14" height="4" rx="2"/><rect class="cls-4" x="7.21" y="2.82" width="10" height="3" rx="1.5"/><rect class="cls-4" x="9.21" y="1.82" width="6" height="2" rx="1"/><path class="cls-4" d="M68.73,61.66c0-.27.27-.49.57-.61s.62-.19.9-.32a1.37,1.37,0,0,0,.76-.88c.11,0,.16.1.21.18a2.38,2.38,0,0,0,1,.75c.39.21.78.5.78.88" transform="translate(-58.71 -59.85)"/><polygon class="cls-4" points="0 10.81 23.21 10.81 19.82 22.39 3.39 22.39 0 10.81"/><polygon class="cls-4" points="0 10.81 23.21 10.81 19.82 22.39 3.39 22.39 0 10.81"/><polygon class="cls-2" points="0 10.81 21.21 10.81 18.12 22.39 3.1 22.39 0 10.81"/><polygon class="cls-4" points="2.21 10.81 19.21 10.81 16.73 22.39 4.7 22.39 2.21 10.81"/><polygon class="cls-3" points="4.21 10.81 21.21 10.81 18.73 22.39 6.69 22.39 4.21 10.81"/></svg>