<?xml version="1.0" encoding="utf-8"?>
<!-- Generator: Adobe Illustrator 25.2.3, SVG Export Plug-In . SVG Version: 6.00 Build 0)  -->
<svg version="1.1" id="Ebene_1" xmlns="http://www.w3.org/2000/svg" xmlns:xlink="http://www.w3.org/1999/xlink" x="0px" y="0px"
	 viewBox="0 0 425.2 425.2" style="enable-background:new 0 0 425.2 425.2;" xml:space="preserve">
<style type="text/css">
	.st0{fill:#343434;}
	.st1{fill:#48AE4D;}
	.st2{fill:#C1292E;}
	.st3{fill:#4E4D4D;}
	.st4{fill:#808181;}
	.st5{fill:#B4B4B4;}
	.st6{fill:#CDCCCC;}
	.st7{fill:#B4B4B4;stroke:#676767;stroke-miterlimit:10;}
	.st8{fill:#E7E6E6;}
	.st9{fill:#9A9999;}
	.st10{fill:#C05D82;}
	.st11{fill:#F4AFCC;}
	.st12{fill:#8C633A;}
	.st13{fill:#754D24;}
	.st14{fill:#EE7AAA;}
	.st15{fill:#C69C6C;}
	.st16{fill:#A67D52;}
	.st17{fill:none;}
	.st18{fill:#686868;}
	.st19{font-family:'Impact';}
	.st20{font-size:26.9988px;}
	.st21{letter-spacing:6;}
	.st22{font-size:19.6355px;}
	.st23{font-size:24.5444px;}
	.st24{fill:#F2F2F2;}
</style>
<rect x="191.3" y="235.5" class="st0" width="8.3" height="124.6"/>
<path class="st1" d="M70.2,124.7h-7.1c-1.1,0-2-0.9-2-2v-18.2c0-1.1,0.9-2,2-2h7.1c1.1,0,2,0.9,2,2v18.2
	C72.2,123.8,71.3,124.7,70.2,124.7z"/>
<path class="st2" d="M70.2,155.2h-7.1c-1.1,0-2-0.9-2-2V135c0-1.1,0.9-2,2-2h7.1c1.1,0,2,0.9,2,2v18.2
	C72.2,154.3,71.3,155.2,70.2,155.2z"/>
<rect x="66.7" y="52.7" class="st3" width="240.9" height="307.4"/>
<path class="st4" d="M300.1,102.6H74.2c-4.1,0-7.5-3.4-7.5-7.5V35.3c0-4.1,3.4-7.5,7.5-7.5h225.9c4.1,0,7.5,3.4,7.5,7.5v59.8
	C307.6,99.2,304.3,102.6,300.1,102.6z"/>
<polygon class="st5" points="125.5,168.9 114,169 111.6,143.7 127.6,143.6 "/>
<polygon class="st5" points="193.1,168.9 181.6,169 179.1,143.7 195.2,143.6 "/>
<polygon class="st5" points="258.5,168.9 247,169 244.5,143.7 260.5,143.6 "/>
<path class="st6" d="M127.8,155.2h-17c-1.4,0-2.6-1.2-2.6-2.6V58.1c0-1.4,1.2-2.6,2.6-2.6h17c1.4,0,2.6,1.2,2.6,2.6v94.5
	C130.4,154,129.2,155.2,127.8,155.2z"/>
<path class="st6" d="M194.3,155.2h-17c-1.4,0-2.6-1.2-2.6-2.6V58.1c0-1.4,1.2-2.6,2.6-2.6h17c1.4,0,2.6,1.2,2.6,2.6v94.5
	C196.8,154,195.7,155.2,194.3,155.2z"/>
<path class="st6" d="M260.7,155.2h-17c-1.4,0-2.6-1.2-2.6-2.6V58.1c0-1.4,1.2-2.6,2.6-2.6h17c1.4,0,2.6,1.2,2.6,2.6v94.5
	C263.3,154,262.2,155.2,260.7,155.2z"/>
<path class="st7" d="M415.3,234.1H68.4c-1,0-1.7-0.8-1.7-1.7v-14.5c0-1,0.8-1.7,1.7-1.7h346.9c1,0,1.7,0.8,1.7,1.7v14.5
	C417,233.3,416.2,234.1,415.3,234.1z"/>
<path class="st8" d="M58.4,224.4c0-4.6,3.7-8.3,8.3-8.3s8.3,3.7,8.3,8.3"/>
<path class="st8" d="M66.7,232.7c-4.6,0-8.3-3.7-8.3-8.3"/>
<path class="st8" d="M75,224.4c0,4.6-3.7,8.3-8.3,8.3"/>
<path class="st9" d="M72.8,224.4c0,3.4-2.7,6.1-6.1,6.1s-6.1-2.7-6.1-6.1s2.7-6.1,6.1-6.1S72.8,221.1,72.8,224.4"/>
<path class="st8" d="M221.8,224.4c0-4.6,3.7-8.3,8.3-8.3s8.3,3.7,8.3,8.3"/>
<path class="st8" d="M230.1,232.7c-4.6,0-8.3-3.7-8.3-8.3"/>
<path class="st8" d="M238.4,224.4c0,4.6-3.7,8.3-8.3,8.3"/>
<path class="st9" d="M236.2,224.4c0,3.4-2.7,6.1-6.1,6.1c-3.4,0-6.1-2.7-6.1-6.1s2.7-6.1,6.1-6.1
	C233.4,218.3,236.2,221.1,236.2,224.4"/>
<path class="st10" d="M329.8,185.7c-21.2,0-42.5,0-63.7,0c1.1-2.3,2.2-4.5,3.2-6.8c0.2-0.9,1-3.1,4.1-4.5c3.1-1.4,7-1.2,9.3-1
	c3.7,0.2,3.9,0.9,7.3,1c3.7,0.1,3.8-0.8,7.3-0.8c4.9,0,5.8,1.7,9.7,1.3c3-0.3,3-1.3,6.1-1.5c3-0.2,5.4,0.7,6.9,1.3
	c3,1.1,4.8,2.6,5.7,3.5C327.1,180.6,328.4,183.1,329.8,185.7z"/>
<path class="st11" d="M152.5,185.7c-21.2,0-42.5,0-63.7,0c1.1-2.3,2.2-4.5,3.2-6.8c0.2-0.9,1-3.1,4.1-4.5c3.1-1.4,7-1.2,9.3-1
	c3.7,0.2,3.9,0.9,7.3,1c3.7,0.1,3.8-0.8,7.3-0.8c4.9,0,5.8,1.7,9.7,1.3c3-0.3,3-1.3,6.1-1.5c3-0.2,5.4,0.7,6.9,1.3
	c3,1.1,4.8,2.6,5.7,3.5C149.8,180.6,151.2,183.1,152.5,185.7z"/>
<path class="st12" d="M88.8,210.6v-10.3c0-5.3,3.2-9.6,7.2-9.6h49.3c4,0,7.2,4.3,7.2,9.6v10.3"/>
<polyline class="st13" points="88.8,216.1 88.8,205.1 152.5,205.1 152.5,216.1 "/>
<path class="st14" d="M88.8,202.1v-5.9c0-3,3.2-5.5,7.2-5.5h49.3c4,0,7.2,2.5,7.2,5.5v5.9"/>
<path class="st15" d="M149.9,197.1H91.4c-1.4,0-2.6-1.2-2.6-2.6v-11.7c0-1.4,1.2-2.6,2.6-2.6h58.5c1.4,0,2.6,1.2,2.6,2.6v11.7
	C152.5,195.9,151.4,197.1,149.9,197.1z"/>
<rect x="88.8" y="186" class="st16" width="63.7" height="11"/>
<path class="st12" d="M266.1,210.6v-10.3c0-5.3,3.2-9.6,7.2-9.6h49.3c4,0,7.2,4.3,7.2,9.6v10.3"/>
<polyline class="st13" points="266.1,216.1 266.1,205.1 329.8,205.1 329.8,216.1 "/>
<path class="st14" d="M266.1,202.1v-5.9c0-3,3.2-5.5,7.2-5.5h49.3c4,0,7.2,2.5,7.2,5.5v5.9"/>
<path class="st15" d="M327.2,197.1h-58.5c-1.4,0-2.6-1.2-2.6-2.6v-11.7c0-1.4,1.2-2.6,2.6-2.6h58.5c1.4,0,2.6,1.2,2.6,2.6v11.7
	C329.8,195.9,328.6,197.1,327.2,197.1z"/>
<rect x="266.1" y="186" class="st16" width="63.7" height="11"/>
<path class="st4" d="M284.6,316.3H85.8c-3.2,0-5.8-2.6-5.8-5.8V275c0-3.2,2.6-5.8,5.8-5.8h198.8c3.2,0,5.8,2.6,5.8,5.8v35.4
	C290.4,313.6,287.8,316.3,284.6,316.3z"/>
<rect x="73.7" y="283.5" class="st17" width="219.2" height="35"/>
<text transform="matrix(1 0 0 1 109.3975 304.8809)" class="st18 st19 st20 st21">TOPPINGS</text>
<path class="st5" d="M90.9,94.3H78.5c-1.9,0-3.5-1.6-3.5-3.5V42.4c0-1.9,1.6-3.5,3.5-3.5h12.4c1.9,0,3.5,1.6,3.5,3.5v48.4
	C94.4,92.7,92.8,94.3,90.9,94.3z"/>
<rect x="171.6" y="60.7" class="st17" width="28.3" height="115.4"/>
<text transform="matrix(1 0 0 1 181.0967 76.2241)"><tspan x="0" y="0" class="st4 st19 st22">Y </tspan><tspan x="-0.3" y="23.6" class="st4 st19 st22">A </tspan><tspan x="-2.4" y="47.1" class="st4 st19 st22">M </tspan><tspan x="0.9" y="70.7" class="st4 st19 st22">L</tspan></text>
<rect x="105.3" y="63.1" class="st17" width="28.3" height="95.7"/>
<text transform="matrix(1 0 0 1 113.1143 82.562)"><tspan x="0" y="0" class="st4 st19 st23">q </tspan><tspan x="-2.4" y="29.5" class="st4 st19 st23">M </tspan><tspan x="1.7" y="58.9" class="st4 st19 st23">L</tspan></text>
<rect x="103.1" y="63.1" class="st17" width="28.3" height="95.7"/>
<text transform="matrix(1 0 0 1 110.5427 82.562)"><tspan x="0" y="0" class="st24 st19 st23">Q</tspan><tspan x="-2.1" y="29.5" class="st24 st19 st23">M </tspan><tspan x="2" y="58.9" class="st24 st19 st23">L</tspan></text>
<rect x="169.2" y="60.7" class="st17" width="28.3" height="115.4"/>
<text transform="matrix(1 0 0 1 178.6426 76.2241)"><tspan x="0" y="0" class="st24 st19 st22">Y </tspan><tspan x="-0.3" y="23.6" class="st24 st19 st22">A </tspan><tspan x="-2.4" y="47.1" class="st24 st19 st22">M </tspan><tspan x="0.9" y="70.7" class="st24 st19 st22">L</tspan></text>
<rect x="75.6" y="283.7" class="st17" width="219.2" height="35"/>
<text transform="matrix(1 0 0 1 111.2886 305.0508)" class="st18 st19 st20 st21">TOPPINGS</text>
<rect x="71.7" y="283.5" class="st17" width="219.2" height="35"/>
<text transform="matrix(1 0 0 1 107.3677 304.832)" class="st24 st19 st20 st21">TOPPINGS</text>
</svg>
