<svg id="Ebene_1" data-name="Ebene 1" xmlns="http://www.w3.org/2000/svg" xmlns:xlink="http://www.w3.org/1999/xlink" viewBox="0 0 228.35 371.2"><defs><style>.cls-1{fill:#c69c6c;}.cls-2{fill:#a67d52;}.cls-3{fill:#cdcccc;}.cls-4{fill:#9a9999;}.cls-5{fill:#676767;}.cls-6{fill:#48ae4d;}.cls-7{fill:#c02a2f;}.cls-18,.cls-8{stroke:#fff;stroke-miterlimit:10;}.cls-8{fill:url(#Unbenannter_Verlauf_3);}.cls-9{fill:#989999;}.cls-10{fill:#b4b4b2;}.cls-11,.cls-22{fill:#4f4e4e;}.cls-11{opacity:0.13;}.cls-12,.cls-17{font-size:17.34px;font-family:Impact;letter-spacing:0.22em;}.cls-12{fill:#686868;}.cls-13{letter-spacing:0.17em;}.cls-14{letter-spacing:0.18em;}.cls-15{letter-spacing:0.21em;}.cls-16{letter-spacing:0.22em;}.cls-17,.cls-21{fill:#f1f1f1;}.cls-18{fill:url(#Unbenannter_Verlauf_2);}.cls-19{fill:#c59b6c;}.cls-20{fill:#a57d52;}.cls-21{opacity:0.73;}.cls-23{fill:#fff;opacity:0.56;}</style><linearGradient id="Unbenannter_Verlauf_3" x1="303.2" y1="50.53" x2="292.53" y2="56.69" gradientUnits="userSpaceOnUse"><stop offset="0" stop-color="#fff"/><stop offset="0.18" stop-color="#fbdddd"/><stop offset="0.58" stop-color="#f18885"/><stop offset="1" stop-color="#e52621"/></linearGradient><linearGradient id="Unbenannter_Verlauf_2" x1="310.51" y1="55.53" x2="292.79" y2="65.76" gradientUnits="userSpaceOnUse"><stop offset="0" stop-color="#fff"/><stop offset="0.19" stop-color="#dde2ef"/><stop offset="0.62" stop-color="#8698c5"/><stop offset="1" stop-color="#33519e"/></linearGradient></defs><rect class="cls-1" x="97.07" y="367.73" width="40.92" height="14.23" rx="2.6" transform="translate(-325.37 188.42) rotate(-48.11)"/><rect class="cls-2" x="98.93" y="371.88" width="40.92" height="9.26" transform="translate(-325.99 190.35) rotate(-48.11)"/><polygon class="cls-3" points="111 243.39 95.23 251.79 0 111.25 15.77 102.86 111 243.39"/><rect class="cls-3" x="153.83" y="264.98" width="17.59" height="89.86" rx="1.94" transform="translate(116.27 -61.52) rotate(34.09)"/><ellipse class="cls-4" cx="102.97" cy="249.48" rx="11.74" ry="10.47"/><ellipse class="cls-5" cx="102.97" cy="249.48" rx="9.79" ry="8.72"/><rect class="cls-5" x="118.8" y="353.24" width="11.93" height="1.75" rx="0.53" transform="translate(-329.68 261.49) rotate(-60)"/><rect class="cls-5" x="126.68" y="346.94" width="11.93" height="1.75" rx="0.51" transform="translate(-182.07 30.97) rotate(-17.15)"/><circle class="cls-4" cx="42.19" cy="326.17" r="1.58"/><path class="cls-5" d="M141.93,356.72l-6.81,7.7a.83.83,0,0,0,.08,1.17l.06.06a.84.84,0,0,0,1.18-.08l6.8-7.69" transform="translate(-85.39 -23.62)"/><path class="cls-5" d="M143,358.16l-.39-10.31a.81.81,0,0,0-.84-.78h-.13a.8.8,0,0,0-.78.83l.39,10.32" transform="translate(-85.39 -23.62)"/><circle class="cls-4" cx="56.38" cy="334.05" r="1.58"/><rect class="cls-6" x="11.36" y="23.25" width="8.77" height="5.24" rx="1.66"/><rect class="cls-7" x="11.36" y="29.8" width="8.77" height="5.24" rx="1.66"/><path class="cls-8" d="M303.87,57.22c0,.85-2.45,1.54-5.48,1.54s-5.48-.69-5.48-1.54c0-.5.86-.95,2.2-1.23V48c0-.52,1.46-.93,3.28-.93s3.29.41,3.29.93v8C303,56.27,303.87,56.72,303.87,57.22Z" transform="translate(-85.39 -23.62)"/><path class="cls-9" d="M313.74,29.09V118H101.14V29.09c0-3,8.7-5.47,19.42-5.47H294.32C305,23.62,313.74,26.07,313.74,29.09Z" transform="translate(-85.39 -23.62)"/><rect class="cls-10" x="20.13" y="5.43" width="8.77" height="81.38" rx="1.9"/><rect class="cls-11" x="39.32" y="21.62" width="162.06" height="1.31" rx="0.42"/><rect class="cls-11" x="39.32" y="38.65" width="162.06" height="1.31" rx="0.42"/><text class="cls-12" transform="translate(66.64 86.52)">C<tspan class="cls-13" x="13.49" y="0">A</tspan><tspan class="cls-14" x="25.22" y="0">T</tspan><tspan x="36.41" y="0">A</tspan><tspan class="cls-15" x="49.1" y="0">L</tspan><tspan class="cls-16" x="59.32" y="0">OGUE</tspan></text><text class="cls-17" transform="translate(65.54 86.52)">C<tspan class="cls-13" x="13.49" y="0">A</tspan><tspan class="cls-14" x="25.22" y="0">T</tspan><tspan x="36.41" y="0">A</tspan><tspan class="cls-15" x="49.1" y="0">L</tspan><tspan class="cls-16" x="59.32" y="0">OGUE</tspan></text><path class="cls-18" d="M306.42,72.77a4.45,4.45,0,1,1-7.11-3.56V46.09a2.67,2.67,0,1,1,5.34,0V69.21A4.44,4.44,0,0,1,306.42,72.77Z" transform="translate(-85.39 -23.62)"/><rect class="cls-19" x="88.73" y="34.06" width="21.73" height="3.87" rx="1.23"/><rect class="cls-20" x="88.73" y="35.42" width="21.73" height="2.52"/><rect class="cls-19" x="57.55" y="34.06" width="21.73" height="3.87" rx="1.23"/><rect class="cls-20" x="57.55" y="35.42" width="21.73" height="2.52"/><rect class="cls-19" x="57.55" y="16.98" width="21.73" height="3.87" rx="1.23"/><rect class="cls-20" x="57.55" y="18.34" width="21.73" height="2.52"/><rect class="cls-19" x="57.55" y="16.98" width="21.73" height="3.87" rx="1.23"/><rect class="cls-20" x="57.55" y="18.34" width="21.73" height="2.52"/><rect class="cls-19" x="88.73" y="16.98" width="21.73" height="3.87" rx="1.23"/><rect class="cls-20" x="88.73" y="18.34" width="21.73" height="2.52"/><rect class="cls-19" x="88.73" y="16.98" width="21.73" height="3.87" rx="1.23"/><rect class="cls-20" x="88.73" y="18.34" width="21.73" height="2.52"/><rect class="cls-19" x="151.26" y="34.06" width="21.73" height="3.87" rx="1.23"/><rect class="cls-20" x="151.26" y="35.42" width="21.73" height="2.52"/><rect class="cls-19" x="120.07" y="34.06" width="21.73" height="3.87" rx="1.23"/><rect class="cls-20" x="120.07" y="35.42" width="21.73" height="2.52"/><rect class="cls-19" x="120.07" y="16.98" width="21.73" height="3.87" rx="1.23"/><rect class="cls-20" x="120.07" y="18.34" width="21.73" height="2.52"/><rect class="cls-19" x="120.07" y="16.98" width="21.73" height="3.87" rx="1.23"/><rect class="cls-20" x="120.07" y="18.34" width="21.73" height="2.52"/><rect class="cls-19" x="151.26" y="16.98" width="21.73" height="3.87" rx="1.23"/><rect class="cls-20" x="151.26" y="18.34" width="21.73" height="2.52"/><rect class="cls-19" x="151.26" y="16.98" width="21.73" height="3.87" rx="1.23"/><rect class="cls-20" x="151.26" y="18.34" width="21.73" height="2.52"/><rect class="cls-21" x="41.72" y="7.89" width="164.38" height="53.38" rx="11.16"/><rect class="cls-22" x="119.75" y="55.21" width="32.67" height="4.38" rx="0.95" transform="translate(-6.71 169.87) rotate(-90)"/><path class="cls-23" d="M187.07,66.43h0a2.42,2.42,0,0,1-2.66-.15L157,42.87a1.14,1.14,0,0,1,.22-1.94h0a2.4,2.4,0,0,1,2.66.16L187.29,64.5A1.13,1.13,0,0,1,187.07,66.43Z" transform="translate(-85.39 -23.62)"/><path class="cls-23" d="M186.08,84.56h0a2.44,2.44,0,0,1-2.67-.15L156,61a1.14,1.14,0,0,1,.21-1.94h0a2.42,2.42,0,0,1,2.67.16l27.44,23.41A1.13,1.13,0,0,1,186.08,84.56Z" transform="translate(-85.39 -23.62)"/></svg>