<svg id="Ebene_1" data-name="Ebene 1" xmlns="http://www.w3.org/2000/svg" xmlns:xlink="http://www.w3.org/1999/xlink" viewBox="0 0 1162.2 595.28"><defs><style>.cls-1,.cls-41,.cls-7{fill:none;}.cls-2,.cls-28{fill:#b4b4b4;}.cls-21,.cls-3,.cls-38,.cls-39{fill:#fff;}.cls-4{fill:#9a9999;}.cls-5{fill:#b5aeac;}.cls-6{clip-path:url(#clip-path);}.cls-7{stroke:#b5aeac;stroke-linejoin:round;}.cls-8{fill:#808181;}.cls-9{fill:#c69c6c;}.cls-10{fill:#cfa98f;}.cls-11{fill:#fff0ae;}.cls-12{fill:#ffe881;}.cls-13{fill:#d6bf58;}.cls-14,.cls-42{fill:#676767;}.cls-15{fill:#48ae4d;}.cls-16{fill:#c1292e;}.cls-17{fill:#ebdcd1;}.cls-18{fill:#c7b4a0;}.cls-19{fill:#8d7c6b;}.cls-20{fill:#a79586;}.cls-21{font-size:4.14px;font-family:LakesightPersonalUseOnly;letter-spacing:-0.02em;}.cls-22{letter-spacing:0em;}.cls-23{fill:#a67d52;}.cls-24,.cls-48,.cls-55{fill:#4e4d4d;}.cls-25{fill:#cdcccc;}.cls-26{fill:#b89e8c;}.cls-27{fill:#b89a7d;}.cls-28{stroke:#676767;}.cls-28,.cls-30,.cls-34,.cls-40,.cls-41,.cls-54,.cls-56{stroke-miterlimit:10;}.cls-29{fill:#e7e6e6;}.cls-30,.cls-32{fill:#f4afcc;}.cls-30{stroke:#f194bb;}.cls-30,.cls-41{stroke-width:0.5px;}.cls-31{fill:#f8c9dd;}.cls-33{fill:#8c633a;}.cls-34,.cls-40,.cls-54,.cls-56{stroke:#fff;}.cls-34{fill:url(#Unbenannter_Verlauf_19);}.cls-35{fill:#010101;}.cls-36{fill:#754d24;}.cls-37,.cls-46,.cls-57{fill:#f2f2f2;}.cls-38{opacity:0.61;}.cls-39{opacity:0.56;}.cls-40{fill:url(#Unbenannter_Verlauf_19-2);}.cls-41{stroke:#010101;}.cls-42,.cls-46,.cls-48{font-size:11px;font-family:Impact;letter-spacing:0.22em;}.cls-43{letter-spacing:0.21em;}.cls-44{letter-spacing:0.18em;}.cls-45{letter-spacing:0.22em;}.cls-47{letter-spacing:0.22em;}.cls-49{fill:#343434;}.cls-50{fill:#c05d82;}.cls-51{fill:#ee7aaa;}.cls-52{fill:#cd7e9b;}.cls-53{fill:#904762;}.cls-54{fill:url(#Unbenannter_Verlauf_19-3);}.cls-55{opacity:0.13;}.cls-56{fill:url(#Unbenannter_Verlauf_19-4);}.cls-57{opacity:0.73;}.cls-58{fill:#fce4ed;}</style><clipPath id="clip-path"><rect class="cls-1" x="83.57" y="337.12" width="3.52" height="14.07"/></clipPath><linearGradient id="Unbenannter_Verlauf_19" x1="421.84" y1="278.76" x2="410.61" y2="285.25" gradientUnits="userSpaceOnUse"><stop offset="0" stop-color="#fff"/><stop offset="0.18" stop-color="#fbdddd"/><stop offset="0.58" stop-color="#f18785"/><stop offset="1" stop-color="#e52521"/></linearGradient><linearGradient id="Unbenannter_Verlauf_19-2" x1="422.97" y1="281.02" x2="411.73" y2="287.51" xlink:href="#Unbenannter_Verlauf_19"/><linearGradient id="Unbenannter_Verlauf_19-3" x1="953.31" y1="303.19" x2="944.26" y2="308.42" xlink:href="#Unbenannter_Verlauf_19"/><linearGradient id="Unbenannter_Verlauf_19-4" x1="955.32" y1="296.85" x2="945.85" y2="302.31" xlink:href="#Unbenannter_Verlauf_19"/></defs><rect class="cls-2" x="40.69" y="253.03" width="86.88" height="132.02" rx="12"/><rect class="cls-2" x="40.69" y="351.19" width="86.88" height="48.52"/><rect class="cls-3" x="50.8" y="375.18" width="66.57" height="49.65"/><rect class="cls-4" x="48.59" y="267.03" width="72.21" height="22.11"/><rect class="cls-4" x="48.59" y="262.05" width="72.21" height="18.26" rx="4.5"/><rect class="cls-5" x="84.13" y="337.69" width="2.39" height="12.94"/><g class="cls-6"><rect class="cls-7" x="84.13" y="337.69" width="2.39" height="12.94"/></g><rect class="cls-4" x="48.59" y="335.86" width="72.21" height="22.11"/><rect class="cls-4" x="48.59" y="330.88" width="72.21" height="18.26" rx="4.5"/><rect class="cls-4" x="48.59" y="300.88" width="72.21" height="22.11"/><rect class="cls-4" x="48.59" y="295.91" width="72.21" height="18.26" rx="4.5"/><rect class="cls-4" x="54.23" y="374.89" width="7.9" height="20.31"/><rect class="cls-4" x="106.13" y="374.89" width="7.9" height="20.31"/><rect class="cls-8" x="48.59" y="318.47" width="72.21" height="4.51"/><rect class="cls-8" x="48.59" y="284.62" width="72.21" height="4.51"/><rect class="cls-8" x="48.59" y="318.47" width="72.21" height="4.51"/><rect class="cls-8" x="48.59" y="353.45" width="72.21" height="4.51"/><ellipse class="cls-9" cx="51.41" cy="281.8" rx="2.82" ry="3.95"/><ellipse class="cls-9" cx="92.03" cy="282.93" rx="3.95" ry="2.82" transform="translate(-205.45 278.16) rotate(-71.06)"/><ellipse class="cls-9" cx="79.62" cy="282.93" rx="3.95" ry="2.82" transform="translate(-82.13 37.52) rotate(-17.67)"/><ellipse class="cls-9" cx="112.34" cy="282.93" rx="2.82" ry="3.95"/><ellipse class="cls-9" cx="58.18" cy="282.93" rx="2.82" ry="3.95" transform="translate(-219.47 203.27) rotate(-62.37)"/><ellipse class="cls-9" cx="98.8" cy="282.93" rx="2.82" ry="3.95" transform="translate(-163.69 138.34) rotate(-41.9)"/><ellipse class="cls-10" cx="66.08" cy="284.06" rx="2.82" ry="3.95" transform="translate(-205.69 178.24) rotate(-55.63)"/><ellipse class="cls-10" cx="54.79" cy="284.06" rx="2.82" ry="3.95"/><ellipse class="cls-10" cx="117.98" cy="284.06" rx="2.82" ry="3.95"/><ellipse class="cls-10" cx="87.52" cy="284.06" rx="2.82" ry="3.95" transform="translate(-66.32 29.73) rotate(-14.04)"/><rect class="cls-11" x="52.03" y="316.6" width="7.31" height="5.26"/><polygon class="cls-12" points="66.64 319.23 59.33 321.86 59.33 316.6 66.64 313.97 66.64 319.23"/><polygon class="cls-13" points="59.38 316.61 51.92 316.61 59.17 313.95 66.64 313.97 59.38 316.61"/><rect class="cls-11" x="62.18" y="316.6" width="7.31" height="5.26"/><polygon class="cls-12" points="76.8 319.23 69.49 321.86 69.49 316.6 76.8 313.97 76.8 319.23"/><polygon class="cls-13" points="69.53 316.61 62.08 316.61 69.32 313.95 76.8 313.97 69.53 316.61"/><rect class="cls-11" x="57.67" y="310.96" width="7.31" height="5.26"/><polygon class="cls-12" points="72.28 313.59 64.98 316.22 64.98 310.96 72.28 308.33 72.28 313.59"/><polygon class="cls-13" points="65.02 310.97 57.57 310.97 64.81 308.31 72.28 308.33 65.02 310.97"/><rect class="cls-11" x="81.36" y="316.6" width="7.31" height="5.26"/><polygon class="cls-12" points="95.98 319.23 88.67 321.86 88.67 316.6 95.98 313.97 95.98 319.23"/><polygon class="cls-13" points="88.72 316.61 81.26 316.61 88.5 313.95 95.98 313.97 88.72 316.61"/><rect class="cls-11" x="91.52" y="316.6" width="7.31" height="5.26"/><polygon class="cls-12" points="106.13 319.23 98.83 321.86 98.83 316.6 106.13 313.97 106.13 319.23"/><polygon class="cls-13" points="98.87 316.61 91.42 316.61 98.66 313.95 106.13 313.97 98.87 316.61"/><rect class="cls-11" x="85.88" y="310.96" width="7.31" height="5.26"/><polygon class="cls-12" points="100.49 313.59 93.19 316.22 93.19 310.96 100.49 308.33 100.49 313.59"/><polygon class="cls-13" points="93.23 310.97 85.78 310.97 93.02 308.31 100.49 308.33 93.23 310.97"/><rect class="cls-11" x="103.93" y="316.6" width="7.31" height="5.26"/><polygon class="cls-12" points="118.55 319.23 111.24 321.86 111.24 316.6 118.55 313.97 118.55 319.23"/><polygon class="cls-13" points="111.28 316.61 103.83 316.61 111.07 313.95 118.55 313.97 111.28 316.61"/><rect class="cls-11" x="98.29" y="310.96" width="7.31" height="5.26"/><polygon class="cls-12" points="112.9 313.59 105.6 316.22 105.6 310.96 112.9 308.33 112.9 313.59"/><polygon class="cls-13" points="105.64 310.97 98.19 310.97 105.43 308.31 112.9 308.33 105.64 310.97"/><rect class="cls-14" x="243.79" y="348.94" width="3.39" height="50.78"/><rect class="cls-14" x="302.47" y="348.94" width="3.39" height="50.78"/><rect class="cls-14" x="439" y="348.94" width="3.39" height="50.78"/><rect class="cls-14" x="501.06" y="348.94" width="3.39" height="50.78"/><rect class="cls-14" x="569.89" y="348.94" width="3.39" height="50.78"/><rect class="cls-15" x="312.62" y="262.05" width="4.51" height="9.03" rx="2"/><rect class="cls-16" x="312.62" y="273.34" width="4.51" height="9.03" rx="2"/><rect class="cls-17" x="51.97" y="341.33" width="10.61" height="13.99"/><polygon class="cls-18" points="63.16 355.12 62.57 355.31 62.58 341.32 63.26 341.32 63.16 355.12"/><polygon class="cls-19" points="63.26 341.32 61.91 341.32 61.91 339.7 63.26 341.32"/><polygon class="cls-20" points="62.58 341.31 51.97 341.32 52.78 339.77 61.91 339.7 62.58 341.31"/><text class="cls-21" transform="translate(52.76 345.88) scale(0.92 1)">F<tspan class="cls-22" x="1.94" y="0">lour</tspan></text><rect class="cls-17" x="64.38" y="341.33" width="10.61" height="13.99"/><polygon class="cls-18" points="75.57 355.12 74.99 355.31 74.99 341.32 75.67 341.32 75.57 355.12"/><polygon class="cls-19" points="75.67 341.32 74.32 341.32 74.32 339.7 75.67 341.32"/><polygon class="cls-20" points="74.99 341.31 64.38 341.32 65.2 339.77 74.32 339.7 74.99 341.31"/><text class="cls-21" transform="translate(65.17 345.88) scale(0.92 1)">F<tspan class="cls-22" x="1.94" y="0">lour</tspan></text><rect class="cls-17" x="76.8" y="341.33" width="10.61" height="13.99"/><polygon class="cls-18" points="87.98 355.12 87.4 355.31 87.4 341.32 88.08 341.32 87.98 355.12"/><polygon class="cls-19" points="88.08 341.32 86.73 341.32 86.73 339.7 88.08 341.32"/><polygon class="cls-20" points="87.4 341.31 76.8 341.32 77.61 339.77 86.73 339.7 87.4 341.31"/><text class="cls-21" transform="translate(77.59 345.88) scale(0.92 1)">F<tspan class="cls-22" x="1.94" y="0">lour</tspan></text><rect class="cls-17" x="89.21" y="341.33" width="10.61" height="13.99"/><polygon class="cls-18" points="100.39 355.12 99.81 355.31 99.81 341.32 100.49 341.32 100.39 355.12"/><polygon class="cls-19" points="100.49 341.32 99.15 341.32 99.15 339.7 100.49 341.32"/><polygon class="cls-20" points="99.81 341.31 89.21 341.32 90.02 339.77 99.15 339.7 99.81 341.31"/><text class="cls-21" transform="translate(90 345.88) scale(0.92 1)">F<tspan class="cls-22" x="1.94" y="0">lour</tspan></text><rect class="cls-17" x="101.62" y="341.33" width="10.61" height="13.99"/><polygon class="cls-18" points="112.8 355.12 112.22 355.31 112.23 341.32 112.9 341.32 112.8 355.12"/><polygon class="cls-19" points="112.9 341.32 111.56 341.32 111.56 339.7 112.9 341.32"/><polygon class="cls-20" points="112.23 341.31 101.62 341.32 102.43 339.77 111.56 339.7 112.23 341.31"/><text class="cls-21" transform="translate(102.41 345.88) scale(0.92 1)">F<tspan class="cls-22" x="1.94" y="0">lour</tspan></text><rect class="cls-8" x="165.94" y="316.22" width="63.19" height="11.28" rx="3.11"/><rect class="cls-4" x="170.45" y="327.5" width="55.29" height="72.21"/><ellipse class="cls-23" cx="198.09" cy="229.9" rx="45.7" ry="5.08"/><polygon class="cls-2" points="223.05 316.22 171.73 316.22 151.27 228.2 244.92 228.2 223.05 316.22"/><path class="cls-23" d="M173.55,227.48c1.3-.81,3.06.15,3.85,1.46s.95,2.9,1.51,4.32c.38.94,1.1,1.92,2.12,1.94a2.31,2.31,0,0,0,2-1.77,18.16,18.16,0,0,0,.36-2.87,3.06,3.06,0,0,1,1.39-2.41c.76-.37,1.75-.24,2.38-.81"/><path class="cls-23" d="M211.9,228.12a1,1,0,0,1,.78.54c.17.28.25.61.41.9a1.08,1.08,0,0,0,.73.61.37.37,0,0,0,.18,0,.39.39,0,0,0,.21-.27,3.57,3.57,0,0,0,.07-.74,1.42,1.42,0,0,1,1-1.18"/><circle class="cls-24" cx="178.09" cy="340.79" r="4.77"/><circle class="cls-2" cx="178.04" cy="340.9" r="3.51"/><circle class="cls-3" cx="178.18" cy="340.87" r="1.69"/><rect class="cls-8" x="228" y="319.6" width="18.05" height="3.39" rx="0.54"/><rect class="cls-25" x="165.94" y="233.85" width="6.77" height="81.24" rx="3" transform="translate(-58.01 45.73) rotate(-13.15)"/><rect class="cls-2" x="173.83" y="350.07" width="3.39" height="45.13" rx="1.5"/><path class="cls-26" d="M180.32,233.62c.26.47.34.9,0,.78a3,3,0,0,1-1.2-1.65c-.07-.36.16-.33.45-.08A4,4,0,0,1,180.32,233.62Z"/><path class="cls-27" d="M213.34,228.81c.16.24.23.45.14.44s-.27-.23-.41-.47-.17-.38-.1-.37S213.2,228.59,213.34,228.81Z"/><rect class="cls-25" x="41.82" y="265.44" width="3.39" height="133.15" rx="1.5"/><rect class="cls-24" x="229.12" y="319.6" width="4.51" height="3.39"/><rect class="cls-8" x="242.66" y="319.6" width="3.39" height="6.77" rx="1"/><rect class="cls-14" x="241.54" y="325.24" width="5.64" height="1.13"/><rect class="cls-28" x="225.74" y="342.17" width="373.49" height="6.77" rx="1.74"/><circle class="cls-29" cx="231.38" cy="345.55" r="3.39"/><circle class="cls-4" cx="231.38" cy="345.55" r="2.48"/><circle class="cls-29" cx="261.85" cy="345.55" r="3.39"/><circle class="cls-4" cx="261.85" cy="345.55" r="2.48"/><circle class="cls-29" cx="294.57" cy="345.55" r="3.39"/><circle class="cls-4" cx="294.57" cy="345.55" r="2.48"/><circle class="cls-29" cx="334.06" cy="345.55" r="3.39"/><circle class="cls-4" cx="334.06" cy="345.55" r="2.48"/><circle class="cls-29" cx="379.2" cy="345.55" r="3.39"/><circle class="cls-4" cx="379.2" cy="345.55" r="2.48"/><circle class="cls-29" cx="431.1" cy="345.55" r="3.39"/><circle class="cls-4" cx="431.1" cy="345.55" r="2.48"/><circle class="cls-29" cx="483" cy="345.55" r="3.39"/><circle class="cls-4" cx="483" cy="345.55" r="2.48"/><circle class="cls-29" cx="533.78" cy="345.55" r="3.39"/><circle class="cls-4" cx="533.78" cy="345.55" r="2.48"/><circle class="cls-29" cx="595.84" cy="345.55" r="3.39"/><circle class="cls-4" cx="595.84" cy="345.55" r="2.48"/><path class="cls-30" d="M477.93,333.71c.3-.5.52-1.24,1.1-1.31.42,0,.84-.07,1.26-.08a5.74,5.74,0,0,0,1.31-.08,3.38,3.38,0,0,0,1.36-.69,7.37,7.37,0,0,0,2.43-4,22.43,22.43,0,0,0,.54-4.7l.16-4a18.29,18.29,0,0,1,5.12.05c.46,3,1,5.86,1.71,8.78a7.46,7.46,0,0,0,.37,1.22,4.72,4.72,0,0,0,2.21,2.18,13.47,13.47,0,0,0,3,1,4.62,4.62,0,0,1,2,1.58"/><path class="cls-31" d="M485.88,329.33a1.54,1.54,0,0,0-.3.93c.3,0,.51-.27.65-.53a7.89,7.89,0,0,0,.93-3c0-.29,0-1-.5-.81s-.2.5-.13.75A3.91,3.91,0,0,1,485.88,329.33Z"/><path class="cls-31" d="M490.23,324.9a2.42,2.42,0,0,0,.71,1.11.52.52,0,0,0,.34.16,1.4,1.4,0,0,0-.26-.78,12.73,12.73,0,0,1-.56-1.18c-.12-.27-.22-.76-.46-.92A4.43,4.43,0,0,0,490.23,324.9Z"/><path class="cls-31" d="M483.73,331.76a.82.82,0,0,1,.25-.12.23.23,0,0,1,.25.1.28.28,0,0,1,0,.13.78.78,0,0,1-.46.61,2.31,2.31,0,0,1-.79.15c-.26,0-1.2.17-1.36-.06.35-.11.72-.13,1.07-.27A6,6,0,0,0,483.73,331.76Z"/><path class="cls-31" d="M495.47,331.74a.28.28,0,0,1-.12-.19,1,1,0,0,1,.48.17,4.08,4.08,0,0,0,1,.34c.12,0,.75.16.37.36-.2.11-.73-.09-.92-.16A2.65,2.65,0,0,1,495.47,331.74Z"/><path class="cls-31" d="M490.41,332.45a.26.26,0,0,0,.23-.05.18.18,0,0,0-.06-.23.7.7,0,0,0-.24-.09.82.82,0,0,1-.56-.35.24.24,0,0,0-.06-.08.11.11,0,0,0-.15,0,.32.32,0,0,0-.08.14c-.06.19-.14.44.06.54A3,3,0,0,0,490.41,332.45Z"/><path class="cls-31" d="M486.89,322.65c0,.08,0,.18.05.22a.13.13,0,0,0,.15-.05.31.31,0,0,0,.06-.16,2.47,2.47,0,0,0,.06-.71c0-.18-.25-.8-.27-.34A9.05,9.05,0,0,1,486.89,322.65Z"/><path class="cls-32" d="M547.1,334a1.13,1.13,0,0,1-.33-2,2.32,2.32,0,0,1,.72-.27c4.9-1.2,10-1.25,15.06-1.16a16,16,0,0,1,2.49.19c.61.12,1.21.31,1.83.45,1.37.29,2.89.33,4,1.22a1.66,1.66,0,0,1,.69,1.19.9.9,0,0,1-.84.95"/><path class="cls-31" d="M550.83,332.36c1.19-.07,2.32-.58,3.5-.75a1.28,1.28,0,0,1,.55,0,.53.53,0,0,1,.36.38c0,.26-.2.48-.44.6-1.17.57-2.59-.16-3.88.07-.69.13-1.17.36-1.66-.15A4.38,4.38,0,0,1,550.83,332.36Z"/><path class="cls-31" d="M564.7,332c.11.09.23.25.16.38s-2-.35-1.93-.77C563,331,564.47,331.77,564.7,332Z"/><rect class="cls-8" x="234.77" y="335.4" width="20.31" height="6.77"/><rect class="cls-4" x="234.77" y="338.78" width="9.03" height="1.13"/><rect class="cls-23" x="242.66" y="326.37" width="3.39" height="9.03"/><rect class="cls-9" x="243.79" y="326.37" width="0.34" height="7.9" rx="0.12"/><rect class="cls-33" x="244.92" y="327.5" width="0.34" height="7.9" rx="0.12"/><path class="cls-10" d="M320.52,336c0,.94-4.55,1.69-10.15,1.69s-10.16-.75-10.16-1.69,4.55-2.82,10.16-2.82S320.52,335,320.52,336Z"/><polyline class="cls-8" points="300.21 342.17 300.21 335.4 320.52 335.4 320.52 342.17"/><rect class="cls-4" x="300.21" y="338.78" width="9.03" height="1.13"/><path class="cls-34" d="M419.25,289.7a2.82,2.82,0,1,1-4.51-2.26V272.77a1.69,1.69,0,1,1,3.38,0v14.67A2.81,2.81,0,0,1,419.25,289.7Z"/><rect class="cls-9" x="436.74" y="333.14" width="25.95" height="9.03" rx="2.6"/><rect class="cls-33" x="475.11" y="333.14" width="28.21" height="9.03" rx="2.6"/><rect class="cls-33" x="545.06" y="333.14" width="28.21" height="9.03" rx="2.6"/><rect class="cls-35" x="326.16" y="374.89" width="84.63" height="19.18" rx="8.5"/><rect class="cls-23" x="436.74" y="336.3" width="25.95" height="5.87"/><rect class="cls-36" x="475.11" y="336.3" width="28.21" height="5.87"/><rect class="cls-36" x="545.06" y="336.3" width="28.21" height="5.87"/><rect class="cls-9" x="512.34" y="321.86" width="25.95" height="9.03" rx="2.6" transform="translate(-68.4 499.49) rotate(-48.11)"/><rect class="cls-23" x="513.52" y="324.49" width="25.95" height="5.87" transform="translate(-68.8 500.71) rotate(-48.11)"/><path class="cls-4" d="M424.33,238.2V400.84H314.88V238.2a10,10,0,0,1,10-10h89.45A10,10,0,0,1,424.33,238.2Z"/><rect class="cls-37" x="326.16" y="249.64" width="84.63" height="92.53" rx="11.16"/><rect class="cls-24" x="301.9" y="295.34" width="59.8" height="2.26" rx="1" transform="translate(35.34 628.27) rotate(-90)"/><rect class="cls-38" x="360.47" y="279.7" width="4.51" height="55.1" rx="2" transform="translate(-112.64 308.18) rotate(-40.38)"/><rect class="cls-39" x="362.72" y="256.01" width="4.51" height="55.1" rx="2" transform="translate(-96.76 304) rotate(-40.38)"/><path class="cls-40" d="M420.38,292a2.82,2.82,0,1,1-4.51-2.26V275a1.69,1.69,0,1,1,3.38,0V289.7A2.81,2.81,0,0,1,420.38,292Z"/><ellipse class="cls-2" cx="331.9" cy="357.4" rx="4.61" ry="3.95"/><circle class="cls-25" cx="331.24" cy="357.4" r="3.95"/><path class="cls-41" d="M331.39,361.2c0-.49.07-.83.05-.63"/><path class="cls-41" d="M327.56,357.33c.49,0,.84.05.64,0"/><path class="cls-41" d="M328.57,360.25l.43-.47"/><path class="cls-41" d="M328.5,355l.53.37"/><path class="cls-41" d="M331,353.93v.64"/><path class="cls-41" d="M333.89,354.94l-.5.39"/><path class="cls-41" d="M334.84,357.34h-.64"/><path class="cls-41" d="M333.84,360.25l-.41-.49"/><ellipse class="cls-2" cx="364.62" cy="357.4" rx="4.61" ry="3.95"/><circle class="cls-25" cx="363.96" cy="357.4" r="3.95"/><path class="cls-41" d="M364.12,361.2c0-.49.06-.83.05-.63"/><path class="cls-41" d="M360.29,357.33c.49,0,.83.05.63,0"/><path class="cls-41" d="M361.29,360.25l.43-.47"/><path class="cls-41" d="M361.23,355l.52.37"/><path class="cls-41" d="M363.7,353.93v.64"/><path class="cls-41" d="M366.61,354.94l-.5.39"/><path class="cls-41" d="M367.56,357.34h-.64"/><path class="cls-41" d="M366.56,360.25c-.31-.38-.53-.65-.41-.49"/><ellipse class="cls-2" cx="397.34" cy="357.4" rx="4.61" ry="3.95"/><circle class="cls-25" cx="396.69" cy="357.4" r="3.95"/><path class="cls-41" d="M396.84,361.2c0-.49.06-.83.05-.63"/><path class="cls-41" d="M393,357.33c.49,0,.83.05.64,0"/><path class="cls-41" d="M394,360.25l.43-.47"/><path class="cls-41" d="M394,355l.52.37"/><path class="cls-41" d="M396.43,353.93v.64"/><path class="cls-41" d="M399.33,354.94c-.38.3-.65.52-.5.39"/><path class="cls-41" d="M400.29,357.34h-.64"/><path class="cls-41" d="M399.28,360.25c-.31-.38-.53-.65-.41-.49"/><rect class="cls-8" x="326.16" y="371.51" width="85.76" height="19.18" rx="5.84"/><rect class="cls-2" x="317.14" y="241.74" width="4.51" height="148.94" rx="2"/><rect class="cls-2" x="484.13" y="271.08" width="9.03" height="45.13"/><rect class="cls-8" x="480.75" y="316.22" width="15.8" height="4.51" rx="1.56"/><rect class="cls-25" x="485.26" y="195.48" width="6.77" height="75.6"/><rect class="cls-4" x="481.88" y="317.34" width="5.64" height="2.26" rx="1"/><rect class="cls-25" x="485.26" y="272.21" width="2.26" height="41.75" rx="1"/><rect class="cls-25" x="533.92" y="175.26" width="6.67" height="94.2" transform="translate(-39.2 298.42) rotate(-30)"/><rect class="cls-25" x="547.62" y="260.07" width="3.88" height="51.9" rx="1.94" transform="translate(165.52 -200.13) rotate(24.2)"/><circle class="cls-4" cx="558.69" cy="262.48" r="6"/><circle class="cls-14" cx="558.69" cy="262.48" r="5"/><rect class="cls-14" x="526.12" y="312.67" width="7.57" height="1.11" rx="0.53" transform="translate(-6.31 615.53) rotate(-60)"/><rect class="cls-14" x="531.12" y="308.67" width="7.57" height="1.11" rx="0.51" transform="translate(-67.41 171.51) rotate(-17.15)"/><circle class="cls-4" cx="531.69" cy="310.48" r="1"/><path class="cls-14" d="M540.79,314.88l-4.31,4.88a.51.51,0,0,0,0,.74l0,0a.54.54,0,0,0,.75-.05l4.31-4.88"/><path class="cls-14" d="M541.49,315.79l-.25-6.54a.51.51,0,0,0-.53-.49h-.08a.51.51,0,0,0-.5.53l.25,6.54"/><circle class="cls-4" cx="540.69" cy="315.48" r="1"/><text class="cls-42" transform="translate(330.63 244.87)">M<tspan class="cls-43" x="10.35" y="0">E</tspan><tspan class="cls-44" x="17.24" y="0">T</tspan><tspan class="cls-45" x="24.33" y="0">ACONFIGS </tspan></text><text class="cls-46" transform="translate(329.63 244.87)">M<tspan class="cls-43" x="10.35" y="0">E</tspan><tspan class="cls-44" x="17.24" y="0">T</tspan><tspan class="cls-45" x="24.33" y="0">ACONFIGS </tspan></text><text class="cls-42" transform="translate(54.25 371.16)">-MODE<tspan class="cls-47" x="40.1" y="0">L</tspan><tspan x="46.68" y="0">S-</tspan></text><text class="cls-46" transform="translate(53.25 371.16)">-MODE<tspan class="cls-47" x="40.1" y="0">L</tspan><tspan x="46.68" y="0">S-</tspan></text><text class="cls-48" transform="translate(189.34 325.98)">ILI</text><text class="cls-46" transform="translate(188.34 325.98)">ILI</text><path class="cls-14" d="M490,275.15v8.69h-2.26v-8.69Z"/><path class="cls-14" d="M491.38,288.35V297h-2l-1.18-4v4h-1.89v-8.69h1.89l1.27,3.91v-3.91Z"/><path class="cls-14" d="M490,301.55v8.69h-2.26v-8.69Z"/><path class="cls-4" d="M489,275.15v8.69h-2.26v-8.69Z"/><path class="cls-4" d="M490.38,288.35V297h-2l-1.18-4v4h-1.89v-8.69h1.89l1.27,3.91v-3.91Z"/><path class="cls-4" d="M489,301.55v8.69h-2.26v-8.69Z"/><rect class="cls-8" x="949.9" y="381.79" width="22.4" height="1.68" rx="0.84" transform="matrix(-0.81, 0.59, -0.59, -0.81, 1963.07, 125.39)"/><rect class="cls-25" x="950.87" y="375.56" width="38.74" height="1.68"/><rect class="cls-3" x="598.72" y="202.32" width="66.57" height="49.65"/><rect class="cls-14" x="595.38" y="349.85" width="3.39" height="50.78"/><rect class="cls-14" x="687.9" y="349.85" width="3.39" height="50.78"/><rect class="cls-14" x="841.36" y="349.85" width="3.39" height="50.78"/><rect class="cls-49" x="760.12" y="349.85" width="3.39" height="50.78"/><rect class="cls-15" x="707.08" y="295.69" width="4.51" height="9.03" rx="2"/><rect class="cls-16" x="707.08" y="308.1" width="4.51" height="9.03" rx="2"/><rect class="cls-15" x="861.54" y="296.88" width="3.8" height="7.6" rx="1.9"/><rect class="cls-16" x="861.54" y="306.38" width="3.8" height="7.6" rx="1.9"/><rect class="cls-24" x="709.34" y="275.38" width="98.17" height="125.25"/><rect class="cls-8" x="709.34" y="265.22" width="98.17" height="30.47" rx="7.5"/><polygon class="cls-2" points="733.32 322.7 728.63 322.77 727.63 312.43 734.16 312.42 733.32 322.7"/><polygon class="cls-2" points="760.84 322.7 756.15 322.77 755.16 312.43 761.69 312.42 760.84 322.7"/><polygon class="cls-2" points="787.48 322.7 782.79 322.77 781.79 312.43 788.33 312.42 787.48 322.7"/><rect class="cls-25" x="726.27" y="276.51" width="9.03" height="40.62" rx="2.59"/><rect class="cls-25" x="753.35" y="276.51" width="9.03" height="40.62" rx="2.59"/><rect class="cls-25" x="780.43" y="276.51" width="9.03" height="40.62" rx="2.59"/><rect class="cls-28" x="592.56" y="342.52" width="259.52" height="6.77" rx="1.74"/><circle class="cls-29" cx="597.63" cy="345.34" r="3.39"/><circle class="cls-4" cx="597.63" cy="345.34" r="2.48"/><circle class="cls-29" cx="651.79" cy="345.34" r="3.39"/><circle class="cls-4" cx="651.79" cy="345.34" r="2.48"/><path class="cls-29" d="M648.41,345.34a3.39,3.39,0,1,1,6.77,0"/><path class="cls-29" d="M651.79,348.72a3.38,3.38,0,0,1-3.38-3.38"/><path class="cls-29" d="M655.18,345.34a3.38,3.38,0,0,1-3.39,3.38"/><path class="cls-4" d="M654.28,345.34a2.52,2.52,0,1,1-2.49-2.49,2.5,2.5,0,0,1,2.49,2.49"/><path class="cls-29" d="M706,345.34a3.39,3.39,0,1,1,6.77,0"/><path class="cls-29" d="M709.34,348.72a3.38,3.38,0,0,1-3.38-3.38"/><path class="cls-29" d="M712.73,345.34a3.38,3.38,0,0,1-3.39,3.38"/><path class="cls-4" d="M711.82,345.34a2.48,2.48,0,1,1-2.48-2.49,2.48,2.48,0,0,1,2.48,2.49"/><path class="cls-29" d="M772.53,345.34a3.39,3.39,0,1,1,6.77,0"/><path class="cls-29" d="M775.91,348.72a3.38,3.38,0,0,1-3.38-3.38"/><path class="cls-29" d="M779.3,345.34a3.38,3.38,0,0,1-3.39,3.38"/><path class="cls-4" d="M778.4,345.34a2.49,2.49,0,1,1-2.49-2.49,2.49,2.49,0,0,1,2.49,2.49"/><path class="cls-29" d="M844.74,345.34a3.39,3.39,0,1,1,6.77,0"/><path class="cls-29" d="M848.13,348.72a3.38,3.38,0,0,1-3.39-3.38"/><path class="cls-29" d="M851.51,345.34a3.38,3.38,0,0,1-3.38,3.38"/><path class="cls-4" d="M850.61,345.34a2.48,2.48,0,1,1-2.48-2.49,2.48,2.48,0,0,1,2.48,2.49"/><path class="cls-50" d="M816.53,329.54H790.58l1.32-2.77a2.74,2.74,0,0,1,1.66-1.84,8.2,8.2,0,0,1,3.8-.42c1.49.11,1.6.39,3,.42s1.57-.31,3-.31c2,0,2.38.68,4,.51,1.21-.13,1.24-.55,2.48-.62a7,7,0,0,1,2.81.52,6,6,0,0,1,2.31,1.43Z"/><path class="cls-32" d="M744.32,329.54h-26l1.32-2.77a2.75,2.75,0,0,1,1.65-1.84,8.21,8.21,0,0,1,3.8-.42c1.5.11,1.6.39,3,.42s1.56-.31,3-.31c2,0,2.37.68,4,.51,1.22-.13,1.24-.55,2.48-.62a6.9,6.9,0,0,1,2.81.52,6.08,6.08,0,0,1,2.32,1.43Z"/><path class="cls-33" d="M664.21,339.71V335.5c0-2.15,1.31-3.9,2.93-3.9h20.08c1.62,0,2.94,1.75,2.94,3.9v4.21"/><polyline class="cls-36" points="664.21 341.95 664.21 337.46 690.16 337.46 690.16 341.95"/><path class="cls-51" d="M664.21,336.26v-2.42c0-1.24,1.31-2.24,2.93-2.24h20.08c1.62,0,2.94,1,2.94,2.24v2.42"/><rect class="cls-9" x="664.21" y="327.28" width="25.95" height="6.9" rx="2.6"/><rect class="cls-23" x="664.21" y="329.7" width="25.95" height="4.49"/><path class="cls-33" d="M718.37,339.71V335.5c0-2.15,1.31-3.9,2.93-3.9h20.08c1.63,0,2.94,1.75,2.94,3.9v4.21"/><polyline class="cls-36" points="718.37 341.95 718.37 337.46 744.32 337.46 744.32 341.95"/><path class="cls-51" d="M718.37,336.26v-2.42c0-1.24,1.31-2.24,2.93-2.24h20.08c1.63,0,2.94,1,2.94,2.24v2.42"/><rect class="cls-9" x="718.37" y="327.28" width="25.95" height="6.9" rx="2.6"/><rect class="cls-23" x="718.37" y="329.7" width="25.95" height="4.49"/><path class="cls-33" d="M607.79,339.71V335.5c0-2.15,1.31-3.9,2.93-3.9H630.8c1.63,0,2.94,1.75,2.94,3.9v4.21"/><polyline class="cls-36" points="607.79 341.95 607.79 337.46 633.74 337.46 633.74 341.95"/><path class="cls-51" d="M607.79,336.26v-2.42c0-1.24,1.31-2.24,2.93-2.24H630.8c1.63,0,2.94,1,2.94,2.24v2.42"/><rect class="cls-9" x="607.79" y="327.28" width="25.95" height="6.9" rx="2.6"/><rect class="cls-23" x="607.79" y="329.7" width="25.95" height="4.49"/><path class="cls-33" d="M790.58,339.71V335.5c0-2.15,1.32-3.9,2.94-3.9H813.6c1.62,0,2.93,1.75,2.93,3.9v4.21"/><polyline class="cls-36" points="790.58 341.95 790.58 337.46 816.53 337.46 816.53 341.95"/><path class="cls-51" d="M790.58,336.26v-2.42c0-1.24,1.32-2.24,2.94-2.24H813.6c1.62,0,2.93,1,2.93,2.24v2.42"/><rect class="cls-9" x="790.58" y="327.28" width="25.95" height="6.9" rx="2.6"/><rect class="cls-23" x="790.58" y="329.7" width="25.95" height="4.49"/><rect class="cls-9" x="960.16" y="362.48" width="21.86" height="5.81" rx="2.6"/><polygon class="cls-52" points="958.39 364.63 983.61 364.63 979.93 376.2 962.07 376.2 958.39 364.63"/><rect class="cls-52" x="960.61" y="358.63" width="18.53" height="4" rx="2"/><rect class="cls-52" x="963.08" y="356.63" width="13.59" height="3" rx="1.5"/><rect class="cls-52" x="966.61" y="355.63" width="7.59" height="2" rx="1"/><rect class="cls-53" x="964.61" y="358.63" width="16" height="4" rx="2"/><rect class="cls-53" x="966.61" y="356.63" width="12" height="3" rx="1.5"/><rect class="cls-53" x="968.02" y="355.63" width="6.59" height="2" rx="1"/><rect class="cls-50" x="963.61" y="358.63" width="14" height="4" rx="2"/><rect class="cls-50" x="965.61" y="356.63" width="10" height="3" rx="1.5"/><rect class="cls-50" x="967.61" y="355.63" width="6" height="2" rx="1"/><path class="cls-50" d="M968.42,355.63c0-.27.27-.49.56-.62s.62-.18.91-.32a1.35,1.35,0,0,0,.75-.88c.11,0,.17.1.21.19a2.33,2.33,0,0,0,1,.74c.38.21.78.5.77.88"/><polygon class="cls-50" points="958.39 364.63 981.61 364.63 978.22 376.2 961.78 376.2 958.39 364.63"/><polygon class="cls-50" points="958.39 364.63 981.61 364.63 978.22 376.2 961.78 376.2 958.39 364.63"/><polygon class="cls-52" points="958.39 364.63 979.61 364.63 976.51 376.2 961.49 376.2 958.39 364.63"/><polygon class="cls-50" points="960.61 364.63 977.61 364.63 975.13 376.2 963.09 376.2 960.61 364.63"/><polygon class="cls-53" points="962.61 364.63 979.61 364.63 977.12 376.2 965.09 376.2 962.61 364.63"/><path class="cls-54" d="M951.34,311.89a2.38,2.38,0,0,1-4.75,0,2.18,2.18,0,0,1,.95-1.79V298.47a1.43,1.43,0,0,1,2.85,0V310.1A2.18,2.18,0,0,1,951.34,311.89Z"/><path class="cls-4" d="M955.62,271.07V400H863.44V271.07a8.19,8.19,0,0,1,8.42-7.93H947.2A8.19,8.19,0,0,1,955.62,271.07Z"/><rect class="cls-2" x="865.34" y="271.02" width="3.8" height="118.06" rx="1.9"/><rect class="cls-55" x="873.66" y="294.5" width="70.26" height="1.9" rx="0.95"/><rect class="cls-55" x="873.66" y="319.21" width="70.26" height="1.9" rx="0.95"/><rect class="cls-55" x="873.66" y="344.87" width="70.26" height="1.9" rx="0.95"/><path class="cls-56" d="M953.13,306.06a2.38,2.38,0,1,1-3.8-1.9V291.8a1.43,1.43,0,0,1,2.85,0v12.36A2.35,2.35,0,0,1,953.13,306.06Z"/><rect class="cls-8" x="714.75" y="363.57" width="85.76" height="19.18" rx="5.84"/><path class="cls-50" d="M941.36,309.71H919.51l1.11-2.34a2.29,2.29,0,0,1,1.39-1.55,6.89,6.89,0,0,1,3.2-.35c1.26.09,1.35.33,2.51.35s1.31-.26,2.51-.26c1.69,0,2,.57,3.34.43,1-.1,1-.46,2.09-.52a5.74,5.74,0,0,1,2.36.44,4.93,4.93,0,0,1,2,1.21Z"/><path class="cls-33" d="M919.51,318.27v-3.54c0-1.82,1.1-3.29,2.47-3.29h16.91c1.37,0,2.47,1.47,2.47,3.29v3.54"/><polyline class="cls-36" points="919.51 320.16 919.51 316.38 941.36 316.38 941.36 320.16"/><path class="cls-51" d="M919.51,315.36v-2a2.23,2.23,0,0,1,2.47-1.89h16.91a2.23,2.23,0,0,1,2.47,1.89v2"/><rect class="cls-9" x="919.51" y="307.81" width="21.86" height="5.81" rx="2.6"/><rect class="cls-23" x="919.51" y="309.84" width="21.86" height="3.78"/><path class="cls-50" d="M910,309.71H888.15l1.11-2.34a2.31,2.31,0,0,1,1.39-1.55,6.92,6.92,0,0,1,3.21-.35c1.25.09,1.34.33,2.5.35s1.32-.26,2.51-.26c1.69,0,2,.57,3.34.43,1-.1,1-.46,2.09-.52a5.74,5.74,0,0,1,2.36.44,4.93,4.93,0,0,1,2,1.21Z"/><path class="cls-33" d="M888.15,318.27v-3.54c0-1.82,1.1-3.29,2.47-3.29h16.91c1.37,0,2.47,1.47,2.47,3.29v3.54"/><polyline class="cls-36" points="888.15 320.16 888.15 316.38 910 316.38 910 320.16"/><path class="cls-51" d="M888.15,315.36v-2a2.23,2.23,0,0,1,2.47-1.89h16.91a2.23,2.23,0,0,1,2.47,1.89v2"/><rect class="cls-9" x="888.15" y="307.81" width="21.86" height="5.81" rx="2.6"/><rect class="cls-23" x="888.15" y="309.84" width="21.86" height="3.78"/><path class="cls-32" d="M910,334.41H888.15l1.11-2.33a2.29,2.29,0,0,1,1.39-1.55,6.92,6.92,0,0,1,3.21-.35c1.25.09,1.34.33,2.5.35s1.32-.26,2.51-.26c1.69,0,2,.57,3.34.43,1-.11,1-.46,2.09-.52a5.94,5.94,0,0,1,2.36.43,5.17,5.17,0,0,1,2,1.21Z"/><path class="cls-33" d="M888.15,343v-3.54c0-1.82,1.1-3.29,2.47-3.29h16.91c1.37,0,2.47,1.47,2.47,3.29V343"/><polyline class="cls-36" points="888.15 344.87 888.15 341.08 910 341.08 910 344.87"/><path class="cls-51" d="M888.15,340.07v-2a2.23,2.23,0,0,1,2.47-1.89h16.91A2.23,2.23,0,0,1,910,338v2"/><rect class="cls-9" x="888.15" y="332.51" width="21.86" height="5.81" rx="2.6"/><rect class="cls-23" x="888.15" y="334.54" width="21.86" height="3.78"/><path class="cls-32" d="M941.36,334.41H919.51l1.11-2.33a2.27,2.27,0,0,1,1.39-1.55,6.89,6.89,0,0,1,3.2-.35c1.26.09,1.35.33,2.51.35s1.31-.26,2.51-.26c1.69,0,2,.57,3.34.43,1-.11,1-.46,2.09-.52a5.94,5.94,0,0,1,2.36.43,5.17,5.17,0,0,1,2,1.21Z"/><path class="cls-33" d="M919.51,343v-3.54c0-1.82,1.1-3.29,2.47-3.29h16.91c1.37,0,2.47,1.47,2.47,3.29V343"/><polyline class="cls-36" points="919.51 344.87 919.51 341.08 941.36 341.08 941.36 344.87"/><path class="cls-51" d="M919.51,340.07v-2a2.23,2.23,0,0,1,2.47-1.89h16.91a2.23,2.23,0,0,1,2.47,1.89v2"/><rect class="cls-9" x="919.51" y="332.51" width="21.86" height="5.81" rx="2.6"/><rect class="cls-23" x="919.51" y="334.54" width="21.86" height="3.78"/><path class="cls-32" d="M910,284.05H888.15l1.11-2.33a2.32,2.32,0,0,1,1.39-1.56,6.77,6.77,0,0,1,3.21-.34c1.25.08,1.34.32,2.5.34s1.32-.26,2.51-.26c1.69,0,2,.58,3.34.44,1-.11,1-.47,2.09-.52a5.6,5.6,0,0,1,2.36.43,4.93,4.93,0,0,1,2,1.21Z"/><path class="cls-33" d="M888.15,292.61v-3.54c0-1.82,1.1-3.29,2.47-3.29h16.91c1.37,0,2.47,1.47,2.47,3.29v3.54"/><polyline class="cls-36" points="888.15 294.5 888.15 290.72 910 290.72 910 294.5"/><path class="cls-51" d="M888.15,289.7v-2a2.24,2.24,0,0,1,2.47-1.89h16.91a2.24,2.24,0,0,1,2.47,1.89v2"/><rect class="cls-9" x="888.15" y="282.15" width="21.86" height="5.81" rx="2.6"/><rect class="cls-23" x="888.15" y="284.18" width="21.86" height="3.78"/><path class="cls-51" d="M910,284.05H888.15l1.11-2.33a2.32,2.32,0,0,1,1.39-1.56,6.77,6.77,0,0,1,3.21-.34c1.25.08,1.34.32,2.5.34s1.32-.26,2.51-.26c1.69,0,2,.58,3.34.44,1-.11,1-.47,2.09-.52a5.6,5.6,0,0,1,2.36.43,4.93,4.93,0,0,1,2,1.21Z"/><path class="cls-33" d="M888.15,292.61v-3.54c0-1.82,1.1-3.29,2.47-3.29h16.91c1.37,0,2.47,1.47,2.47,3.29v3.54"/><polyline class="cls-36" points="888.15 294.5 888.15 290.72 910 290.72 910 294.5"/><path class="cls-51" d="M888.15,289.7v-2a2.24,2.24,0,0,1,2.47-1.89h16.91a2.24,2.24,0,0,1,2.47,1.89v2"/><rect class="cls-9" x="888.15" y="282.15" width="21.86" height="5.81" rx="2.6"/><rect class="cls-23" x="888.15" y="284.18" width="21.86" height="3.78"/><path class="cls-32" d="M941.36,284.05H919.51l1.11-2.33a2.29,2.29,0,0,1,1.39-1.56,6.74,6.74,0,0,1,3.2-.34c1.26.08,1.35.32,2.51.34s1.31-.26,2.51-.26c1.69,0,2,.58,3.34.44,1-.11,1-.47,2.09-.52a5.6,5.6,0,0,1,2.36.43,4.93,4.93,0,0,1,2,1.21Z"/><path class="cls-33" d="M919.51,292.61v-3.54c0-1.82,1.1-3.29,2.47-3.29h16.91c1.37,0,2.47,1.47,2.47,3.29v3.54"/><polyline class="cls-36" points="919.51 294.5 919.51 290.72 941.36 290.72 941.36 294.5"/><path class="cls-51" d="M919.51,289.7v-2a2.24,2.24,0,0,1,2.47-1.89h16.91a2.24,2.24,0,0,1,2.47,1.89v2"/><rect class="cls-9" x="919.51" y="282.15" width="21.86" height="5.81" rx="2.6"/><rect class="cls-23" x="919.51" y="284.18" width="21.86" height="3.78"/><path class="cls-51" d="M941.36,284.05H919.51l1.11-2.33a2.29,2.29,0,0,1,1.39-1.56,6.74,6.74,0,0,1,3.2-.34c1.26.08,1.35.32,2.51.34s1.31-.26,2.51-.26c1.69,0,2,.58,3.34.44,1-.11,1-.47,2.09-.52a5.6,5.6,0,0,1,2.36.43,4.93,4.93,0,0,1,2,1.21Z"/><path class="cls-33" d="M919.51,292.61v-3.54c0-1.82,1.1-3.29,2.47-3.29h16.91c1.37,0,2.47,1.47,2.47,3.29v3.54"/><polyline class="cls-36" points="919.51 294.5 919.51 290.72 941.36 290.72 941.36 294.5"/><path class="cls-51" d="M919.51,289.7v-2a2.24,2.24,0,0,1,2.47-1.89h16.91a2.24,2.24,0,0,1,2.47,1.89v2"/><rect class="cls-9" x="919.51" y="282.15" width="21.86" height="5.81" rx="2.6"/><rect class="cls-23" x="919.51" y="284.18" width="21.86" height="3.78"/><rect class="cls-57" x="873.89" y="270.69" width="71.27" height="80.93" rx="11.16"/><rect class="cls-24" x="854.89" y="311.2" width="47.4" height="1.9" rx="0.95" transform="translate(566.44 1190.75) rotate(-90)"/><path class="cls-39" d="M925.37,314h0a2,2,0,0,1-2.68-.2l-27.6-30.55a1.71,1.71,0,0,1,.21-2.52h0a2,2,0,0,1,2.68.21l27.6,30.54A1.71,1.71,0,0,1,925.37,314Z"/><path class="cls-39" d="M924.37,337.61h0a2,2,0,0,1-2.68-.2l-27.6-30.55a1.71,1.71,0,0,1,.21-2.52h0a2,2,0,0,1,2.68.2l27.6,30.55A1.71,1.71,0,0,1,924.37,337.61Z"/><rect class="cls-2" x="712.73" y="269.74" width="7.9" height="22.57" rx="3.5"/><rect class="cls-24" x="935.01" y="371.63" width="6.6" height="19" rx="1.9"/><path class="cls-25" d="M924.84,370.92l14.34,10a1.46,1.46,0,0,1,.3,2.19l-.17.2a1.86,1.86,0,0,1-2.43.27l-14.34-10a1.47,1.47,0,0,1-.31-2.2l.17-.19A1.87,1.87,0,0,1,924.84,370.92Z"/><rect class="cls-14" x="915.31" y="369.96" width="16.49" height="2.97" rx="0.95"/><rect class="cls-24" x="877.01" y="371.63" width="6.6" height="17" rx="1.9"/><rect class="cls-24" x="905.01" y="371.63" width="6.6" height="17" rx="1.9"/><path class="cls-25" d="M868.08,390.79l11.07-13.55a1.46,1.46,0,0,1,2.21-.14l.18.18a1.87,1.87,0,0,1,.1,2.45l-11.08,13.56a1.47,1.47,0,0,1-2.21.14l-.18-.19A1.87,1.87,0,0,1,868.08,390.79Z"/><rect class="cls-14" x="859.31" y="390.96" width="16.49" height="2.97" rx="0.95"/><path class="cls-25" d="M894.84,370.92l14.34,10a1.46,1.46,0,0,1,.3,2.19l-.17.2a1.86,1.86,0,0,1-2.43.27l-14.34-10a1.47,1.47,0,0,1-.31-2.2l.17-.19A1.87,1.87,0,0,1,894.84,370.92Z"/><rect class="cls-14" x="885.31" y="369.96" width="16.49" height="2.97" rx="0.95"/><rect class="cls-50" x="872.61" y="353.63" width="21" height="14" rx="2.46"/><rect class="cls-32" x="870.61" y="353.63" width="21" height="14" rx="2.46"/><path class="cls-50" d="M877.38,355.17v4.12h-1.14v-2.78l-.45,2.78H875l-.48-2.72v2.72h-1.14v-4.12h1.68c.05.25.1.54.16.88l.18,1,.3-1.92Z"/><path class="cls-50" d="M880.87,357.58a8,8,0,0,1,0,.88.89.89,0,0,1-.22.47,1.25,1.25,0,0,1-.51.33,2.31,2.31,0,0,1-.74.11,2.09,2.09,0,0,1-.72-.11,1.2,1.2,0,0,1-.51-.32.84.84,0,0,1-.23-.47,8.11,8.11,0,0,1,0-.89v-.7a6,6,0,0,1,0-.88.89.89,0,0,1,.22-.47,1.13,1.13,0,0,1,.5-.33,2.13,2.13,0,0,1,.74-.12,2.27,2.27,0,0,1,.72.11,1.11,1.11,0,0,1,.52.33.9.9,0,0,1,.23.47,8,8,0,0,1,0,.89Zm-1.3-1.35a1.23,1.23,0,0,0,0-.37.17.17,0,0,0-.16-.08.19.19,0,0,0-.16.07.86.86,0,0,0-.05.38v1.92a1.25,1.25,0,0,0,0,.44c0,.06.07.08.16.08s.15,0,.17-.09a1.49,1.49,0,0,0,0-.46Z"/><path class="cls-50" d="M881.35,355.17h1a7,7,0,0,1,1.27.07,1.1,1.1,0,0,1,.51.24.7.7,0,0,1,.21.36,4.42,4.42,0,0,1,0,.78v1.44a2.88,2.88,0,0,1-.06.74.52.52,0,0,1-.22.3,1,1,0,0,1-.39.14,3.74,3.74,0,0,1-.69.05h-1.64Zm1.3.71v2.7c.18,0,.3,0,.34-.09a1,1,0,0,0,.07-.51v-1.59a2.24,2.24,0,0,0,0-.36.2.2,0,0,0-.1-.12A1,1,0,0,0,882.65,355.88Z"/><path class="cls-50" d="M884.84,355.17H887V356h-.86v.78H887v.79h-.81v.9h1v.83h-2.25Z"/><path class="cls-50" d="M888.76,355.17v3.29h.79v.83h-2.09v-4.12Z"/><path class="cls-50" d="M873.37,361.42h1.3a3.7,3.7,0,0,1,.93.08.9.9,0,0,1,.51.31,1.24,1.24,0,0,1,.19.78.71.71,0,0,1-.13.5,1.15,1.15,0,0,1-.55.22,1,1,0,0,1,.61.28.9.9,0,0,1,.16.59v.38a1.25,1.25,0,0,1-.11.62.59.59,0,0,1-.37.28,4.54,4.54,0,0,1-1,.07h-1.51Zm1.3.7V363h.13c.13,0,.21,0,.24-.07a1,1,0,0,0,.06-.45.56.56,0,0,0-.05-.27.21.21,0,0,0-.11-.1Zm0,1.55v1.16a.61.61,0,0,0,.35-.08c.05,0,.08-.14.08-.31v-.38a.49.49,0,0,0-.07-.32A.75.75,0,0,0,874.67,363.67Z"/><path class="cls-50" d="M879.1,361.42l.75,4.11h-1.33l-.07-.74H878l-.08.74h-1.34l.66-4.11Zm-.68,2.64c-.07-.46-.13-1-.2-1.73-.13.79-.22,1.37-.25,1.73Z"/><path class="cls-50" d="M883.16,361.42l-.74,1.85.81,2.26h-1.34l-.53-1.76v1.76h-1.29v-4.11h1.29V363l.58-1.59Z"/><path class="cls-50" d="M883.45,361.42h2.17v.82h-.87V363h.81v.78h-.81v.91h1v.82h-2.26Z"/><path class="cls-50" d="M886.08,361.42H887a10.63,10.63,0,0,1,1.24.05.89.89,0,0,1,.53.3,1.16,1.16,0,0,1,.21.77,1,1,0,0,1-.15.64.84.84,0,0,1-.57.2,1.24,1.24,0,0,1,.52.21.55.55,0,0,1,.16.25,2.35,2.35,0,0,1,0,.61v1.08h-1.21v-1.37a.86.86,0,0,0-.06-.41.47.47,0,0,0-.33-.08v1.86h-1.3Zm1.3.7V363a.71.71,0,0,0,.3-.05q.09-.06.09-.33v-.22a.33.33,0,0,0-.08-.26A.58.58,0,0,0,887.38,362.12Z"/><rect class="cls-50" x="899.61" y="353.63" width="21" height="14" rx="2.46"/><rect class="cls-50" x="926.61" y="353.63" width="21" height="14" rx="2.46"/><rect class="cls-32" x="897.61" y="353.63" width="21" height="14" rx="2.46"/><rect class="cls-32" x="924.61" y="353.63" width="21" height="14" rx="2.46"/><path class="cls-8" d="M759.79,278.63l-1.2,4V285h-1.53v-2.28l-1.15-4h1.51c.23,1.23.37,2.07.4,2.49.09-.67.24-1.5.46-2.49Z"/><path class="cls-8" d="M759,288.23l.94,6.32h-1.68l-.09-1.13h-.59l-.1,1.13h-1.7l.84-6.32Zm-.87,4.07c-.09-.72-.17-1.61-.26-2.66-.16,1.21-.27,2.1-.31,2.66Z"/><path class="cls-8" d="M760.38,297.83v6.32h-1.44v-4.27l-.57,4.27h-1l-.6-4.17v4.17h-1.44v-6.32h2.13c.06.38.12.83.19,1.34l.23,1.61.38-2.95Z"/><path class="cls-8" d="M758.3,307.43v5.06h1v1.26h-2.65v-6.32Z"/><path class="cls-8" d="M733,279.63l-.72,3.5,1.09,4.41h-1.91a28.5,28.5,0,0,1-.62-2.88c-.05.5-.12,1-.22,1.59l-.19,1.29h-2l.74-4.41-.74-3.5h2c0,.22.11.58.22,1.09s.15.74.21,1.07l.44-2.16Z"/><path class="cls-8" d="M734,291.63v7.91h-1.8V294.2l-.72,5.34h-1.27l-.76-5.22v5.22h-1.8v-7.91h2.66c.08.48.16,1,.25,1.68l.29,2,.47-3.69Z"/><path class="cls-8" d="M731.41,303.63V310h1.25v1.59h-3.3v-7.91Z"/><path class="cls-37" d="M732,279.63l-.72,3.5,1.09,4.41h-1.91a28.5,28.5,0,0,1-.62-2.88c-.05.5-.12,1-.22,1.59l-.19,1.29h-2l.74-4.41-.74-3.5h2c0,.22.11.58.22,1.09s.15.74.21,1.07l.44-2.16Z"/><path class="cls-37" d="M733,291.63v7.91h-1.8V294.2l-.72,5.34h-1.27l-.76-5.22v5.22h-1.8v-7.91h2.66c.08.48.16,1,.25,1.68l.29,2,.47-3.69Z"/><path class="cls-37" d="M730.41,303.63V310h1.25v1.59h-3.3v-7.91Z"/><path class="cls-37" d="M758.79,278.63l-1.2,4V285h-1.53v-2.28l-1.15-4h1.51c.23,1.23.37,2.07.4,2.49.09-.67.24-1.5.46-2.49Z"/><path class="cls-37" d="M758,288.23l.94,6.32h-1.68l-.09-1.13h-.59l-.1,1.13h-1.7l.84-6.32Zm-.87,4.07c-.09-.72-.17-1.61-.26-2.66-.16,1.21-.27,2.1-.31,2.66Z"/><path class="cls-37" d="M759.38,297.83v6.32h-1.44v-4.27l-.57,4.27h-1l-.6-4.17v4.17h-1.44v-6.32h2.13c.06.38.12.83.19,1.34l.23,1.61.38-2.95Z"/><path class="cls-37" d="M757.3,307.43v5.06h1v1.26h-2.65v-6.32Z"/><path class="cls-58" d="M876.38,355.17v4.12h-1.14v-2.78l-.45,2.78H874l-.48-2.72v2.72h-1.14v-4.12h1.68c.05.25.1.54.16.88l.18,1,.3-1.92Z"/><path class="cls-58" d="M879.87,357.58a8,8,0,0,1,0,.88.89.89,0,0,1-.22.47,1.25,1.25,0,0,1-.51.33,2.31,2.31,0,0,1-.74.11,2.09,2.09,0,0,1-.72-.11,1.2,1.2,0,0,1-.51-.32.84.84,0,0,1-.23-.47,8.11,8.11,0,0,1,0-.89v-.7a6,6,0,0,1,0-.88.89.89,0,0,1,.22-.47,1.13,1.13,0,0,1,.5-.33,2.13,2.13,0,0,1,.74-.12,2.27,2.27,0,0,1,.72.11,1.11,1.11,0,0,1,.52.33.9.9,0,0,1,.23.47,8,8,0,0,1,0,.89Zm-1.3-1.35a1.23,1.23,0,0,0,0-.37.17.17,0,0,0-.16-.08.19.19,0,0,0-.16.07.86.86,0,0,0-.05.38v1.92a1.25,1.25,0,0,0,0,.44c0,.06.07.08.16.08s.15,0,.17-.09a1.49,1.49,0,0,0,0-.46Z"/><path class="cls-58" d="M880.35,355.17h1a7,7,0,0,1,1.27.07,1.1,1.1,0,0,1,.51.24.7.7,0,0,1,.21.36,4.42,4.42,0,0,1,0,.78v1.44a2.88,2.88,0,0,1-.06.74.52.52,0,0,1-.22.3,1,1,0,0,1-.39.14,3.74,3.74,0,0,1-.69.05h-1.64Zm1.3.71v2.7c.18,0,.3,0,.34-.09a1,1,0,0,0,.07-.51v-1.59a2.24,2.24,0,0,0,0-.36.2.2,0,0,0-.1-.12A1,1,0,0,0,881.65,355.88Z"/><path class="cls-58" d="M883.84,355.17H886V356h-.86v.78H886v.79h-.81v.9h1v.83h-2.25Z"/><path class="cls-58" d="M887.76,355.17v3.29h.79v.83h-2.09v-4.12Z"/><path class="cls-58" d="M872.37,361.42h1.3a3.7,3.7,0,0,1,.93.08.9.9,0,0,1,.51.31,1.24,1.24,0,0,1,.19.78.71.71,0,0,1-.13.5,1.15,1.15,0,0,1-.55.22,1,1,0,0,1,.61.28.9.9,0,0,1,.16.59v.38a1.25,1.25,0,0,1-.11.62.59.59,0,0,1-.37.28,4.54,4.54,0,0,1-1,.07h-1.51Zm1.3.7V363h.13c.13,0,.21,0,.24-.07a1,1,0,0,0,.06-.45.56.56,0,0,0-.05-.27.21.21,0,0,0-.11-.1Zm0,1.55v1.16a.61.61,0,0,0,.35-.08c.05,0,.08-.14.08-.31v-.38a.49.49,0,0,0-.07-.32A.75.75,0,0,0,873.67,363.67Z"/><path class="cls-58" d="M878.1,361.42l.75,4.11h-1.33l-.07-.74H877l-.08.74h-1.34l.66-4.11Zm-.68,2.64c-.07-.46-.13-1-.2-1.73-.13.79-.22,1.37-.25,1.73Z"/><path class="cls-58" d="M882.16,361.42l-.74,1.85.81,2.26h-1.34l-.53-1.76v1.76h-1.29v-4.11h1.29V363l.58-1.59Z"/><path class="cls-58" d="M882.45,361.42h2.17v.82h-.87V363h.81v.78h-.81v.91h1v.82h-2.26Z"/><path class="cls-58" d="M885.08,361.42H886a10.63,10.63,0,0,1,1.24.05.89.89,0,0,1,.53.3,1.16,1.16,0,0,1,.21.77,1,1,0,0,1-.15.64.84.84,0,0,1-.57.2,1.24,1.24,0,0,1,.52.21.55.55,0,0,1,.16.25,2.35,2.35,0,0,1,0,.61v1.08h-1.21v-1.37a.86.86,0,0,0-.06-.41.47.47,0,0,0-.33-.08v1.86h-1.3Zm1.3.7V363a.71.71,0,0,0,.3-.05q.09-.06.09-.33v-.22a.33.33,0,0,0-.08-.26A.58.58,0,0,0,886.38,362.12Z"/><text class="cls-46" transform="translate(724.96 377.27)">TOPPINGS</text></svg>