<?xml version="1.0" encoding="utf-8"?>
<!-- Generator: Adobe Illustrator 25.2.3, SVG Export Plug-In . SVG Version: 6.00 Build 0)  -->
<svg version="1.1" id="Ebene_1" xmlns="http://www.w3.org/2000/svg" xmlns:xlink="http://www.w3.org/1999/xlink" x="0px" y="0px"
	 viewBox="0 0 425.2 425.2" style="enable-background:new 0 0 425.2 425.2;" xml:space="preserve">
<style type="text/css">
	.st0{fill:#808181;}
	.st1{fill:#CDCCCC;}
	.st2{fill:#48AE4D;}
	.st3{fill:#C1292E;}
	.st4{fill:#F4AFCC;}
	.st5{fill:#C69C6C;}
	.st6{fill:#CD7E9B;}
	.st7{fill:#904762;}
	.st8{fill:#C05D82;}
	.st9{fill:url(#SVGID_1_);stroke:#FFFFFF;stroke-miterlimit:10;}
	.st10{fill:#9A9999;}
	.st11{fill:#B4B4B4;}
	.st12{opacity:0.13;fill:#4E4D4D;}
	.st13{fill:#754D24;}
	.st14{fill:url(#SVGID_2_);stroke:#FFFFFF;stroke-miterlimit:10;}
	.st15{fill:#8C633A;}
	.st16{fill:#EE7AAA;}
	.st17{fill:#A67D52;}
	.st18{opacity:0.73;fill:#F2F2F2;}
	.st19{fill:#4E4D4D;}
	.st20{opacity:0.56;fill:#FFFFFF;}
	.st21{fill:#676767;}
	.st22{font-family:'Impact';}
	.st23{font-size:13.5001px;}
	.st24{fill:#FCE4ED;}
</style>
<path class="st0" d="M277.9,353.1l45.6-33.2c0.4-0.3,0.9-0.2,1.2,0.2l1.6,2.2c0.3,0.4,0.2,0.9-0.2,1.2l-45.6,33.2
	c-0.4,0.3-0.9,0.2-1.2-0.2l-1.6-2.2C277.4,353.9,277.5,353.4,277.9,353.1z"/>
<rect x="275.4" y="319.9" class="st1" width="100.5" height="4.4"/>
<path class="st2" d="M51.7,135.5h-6.1c-1,0-1.9-0.9-1.9-1.9v-15.9c0-1,0.9-1.9,1.9-1.9h6.1c1,0,1.9,0.9,1.9,1.9v15.9
	C53.6,134.7,52.7,135.5,51.7,135.5z"/>
<path class="st3" d="M51.7,160.2h-6.1c-1,0-1.9-0.9-1.9-1.9v-15.9c0-1,0.9-1.9,1.9-1.9h6.1c1,0,1.9,0.9,1.9,1.9v15.9
	C53.6,159.3,52.7,160.2,51.7,160.2z"/>
<path class="st4" d="M95.5,235.3"/>
<path class="st5" d="M353.6,301h-51.5c-1.4,0-2.6-1.2-2.6-2.6v-9.9c0-1.4,1.2-2.6,2.6-2.6h51.5c1.4,0,2.6,1.2,2.6,2.6v9.9
	C356.2,299.9,355,301,353.6,301z"/>
<polygon class="st6" points="294.9,291.5 360.3,291.5 350.8,321.6 304.5,321.6 "/>
<path class="st6" d="M346.7,286.3h-44.1c-1.1,0-2-0.9-2-2V278c0-1.1,0.9-2,2-2h44.1c1.1,0,2,0.9,2,2v6.4
	C348.7,285.4,347.8,286.3,346.7,286.3z"/>
<path class="st6" d="M340.8,278.6h-32.2c-0.8,0-1.5-0.7-1.5-1.5v-4.8c0-0.8,0.7-1.5,1.5-1.5h32.2c0.8,0,1.5,0.7,1.5,1.5v4.8
	C342.3,277.9,341.6,278.6,340.8,278.6z"/>
<path class="st6" d="M334.9,273.4h-17.7c-0.5,0-1-0.5-1-1v-3.2c0-0.5,0.5-1,1-1h17.7c0.6,0,1,0.5,1,1v3.2
	C335.9,272.9,335.5,273.4,334.9,273.4z"/>
<path class="st7" d="M350.5,286.3H313c-1.1,0-2-0.9-2-2V278c0-1.1,0.9-2,2-2h37.5c1.1,0,2,0.9,2,2v6.4
	C352.5,285.4,351.6,286.3,350.5,286.3z"/>
<path class="st7" d="M345.8,278.6h-28.1c-0.8,0-1.5-0.7-1.5-1.5v-4.8c0-0.8,0.7-1.5,1.5-1.5h28.1c0.8,0,1.5,0.7,1.5,1.5v4.8
	C347.3,277.9,346.7,278.6,345.8,278.6z"/>
<path class="st7" d="M336,273.4h-15.1c-0.5,0-1-0.5-1-1v-3.2c0-0.6,0.4-1,1-1H336c0.5,0,1,0.4,1,1v3.2
	C337,272.9,336.5,273.4,336,273.4z"/>
<path class="st8" d="M342.8,286.3h-32.3c-1.1,0-2-0.9-2-2V278c0-1.1,0.9-2,2-2h32.3c1.1,0,2,0.9,2,2v6.4
	C344.8,285.4,343.9,286.3,342.8,286.3z"/>
<path class="st8" d="M338.1,278.6h-22.9c-0.8,0-1.5-0.7-1.5-1.5v-4.8c0-0.8,0.7-1.5,1.5-1.5h22.9c0.8,0,1.5,0.7,1.5,1.5v4.8
	C339.6,277.9,338.9,278.6,338.1,278.6z"/>
<path class="st8" d="M333.4,273.4h-13.6c-0.5,0-1-0.4-1-1v-3.2c0-0.5,0.5-1,1-1h13.6c0.6,0,1,0.5,1,1v3.2
	C334.4,272.9,333.9,273.4,333.4,273.4z"/>
<path class="st8" d="M320.9,268.2c0-0.7,0.7-1.3,1.5-1.6s1.6-0.5,2.4-0.8c1-0.5,1.7-1.3,2-2.3c0.3,0,0.4,0.3,0.5,0.5
	c0.5,0.9,1.6,1.4,2.6,1.9c1,0.5,2,1.3,2,2.3"/>
<polygon class="st8" points="294.9,291.5 355.1,291.5 346.3,321.6 303.7,321.6 "/>
<polygon class="st8" points="294.9,291.5 355.1,291.5 346.3,321.6 303.7,321.6 "/>
<polygon class="st6" points="294.9,291.5 349.9,291.5 341.9,321.6 302.9,321.6 "/>
<polygon class="st8" points="300.7,291.5 344.8,291.5 338.3,321.6 307.1,321.6 "/>
<polygon class="st7" points="305.8,291.5 349.9,291.5 343.5,321.6 312.3,321.6 "/>
<linearGradient id="SVGID_1_" gradientUnits="userSpaceOnUse" x1="281.7443" y1="132.176" x2="258.2578" y2="145.7359">
	<stop  offset="0" style="stop-color:#FFFFFF"/>
	<stop  offset="0.1657" style="stop-color:#FDE6DC"/>
	<stop  offset="0.5338" style="stop-color:#F49E83"/>
	<stop  offset="1" style="stop-color:#E52521"/>
</linearGradient>
<path class="st9" d="M276.6,154.7c0,3.2-2.8,5.8-6.2,5.8s-6.2-2.6-6.2-5.8c0-1.9,1-3.6,2.5-4.6v-30.2c0-1.9,1.7-3.5,3.7-3.5
	c2,0,3.7,1.6,3.7,3.5v30.2C275.7,151.2,276.6,152.8,276.6,154.7z"/>
<path class="st10" d="M287.7,48.8v334.4H48.6V48.8c0-11.3,9.8-20.6,21.8-20.6h195.4C277.9,28.3,287.7,37.5,287.7,48.8z"/>
<path class="st11" d="M61.5,355h-6.1c-1,0-1.9-0.9-1.9-1.9V50.6c0-1,0.9-1.9,1.9-1.9h6.1c1,0,1.9,0.9,1.9,1.9v302.4
	C63.4,354.1,62.6,355,61.5,355z"/>
<path class="st12" d="M256.4,114.6H76.1c-0.5,0-1-0.4-1-1v-3c0-0.5,0.4-1,1-1h180.4c0.5,0,1,0.4,1,1v3
	C257.4,114.1,257,114.6,256.4,114.6z"/>
<path class="st12" d="M256.4,178.7H76.1c-0.5,0-1-0.4-1-1v-3c0-0.5,0.4-1,1-1h180.4c0.5,0,1,0.4,1,1v3
	C257.4,178.2,257,178.7,256.4,178.7z"/>
<path class="st12" d="M256.4,245.2H76.1c-0.5,0-1-0.4-1-1v-3c0-0.5,0.4-1,1-1h180.4c0.5,0,1,0.4,1,1v3
	C257.4,244.8,257,245.2,256.4,245.2z"/>
<line class="st13" x1="248.3" y1="166.4" x2="248.3" y2="176.2"/>
<line class="st13" x1="191.6" y1="176.2" x2="191.6" y2="166.4"/>
<linearGradient id="SVGID_2_" gradientUnits="userSpaceOnUse" x1="286.9377" y1="115.7202" x2="262.3868" y2="129.8947">
	<stop  offset="0" style="stop-color:#FFFFFF"/>
	<stop  offset="0.1657" style="stop-color:#FDE6DC"/>
	<stop  offset="0.5338" style="stop-color:#F49E83"/>
	<stop  offset="1" style="stop-color:#E52521"/>
</linearGradient>
<path class="st14" d="M281.3,139.6c0,3.4-2.8,6.2-6.2,6.2s-6.2-2.8-6.2-6.2c0-2,1-3.8,2.5-4.9v-32c0-2,1.7-3.7,3.7-3.7
	c2,0,3.7,1.7,3.7,3.7v32C280.3,135.8,281.3,137.6,281.3,139.6z"/>
<path class="st8" d="M250.7,149.1c-18.9,0-37.8,0-56.7,0c1-2,1.9-4,2.9-6c0.2-0.8,0.9-2.8,3.6-4c2.8-1.3,6.2-1,8.3-0.9
	c3.3,0.2,3.5,0.8,6.5,0.9c3.3,0.1,3.4-0.7,6.5-0.7c4.4,0,5.2,1.5,8.7,1.1c2.7-0.3,2.7-1.2,5.4-1.3c2.7-0.1,4.8,0.6,6.1,1.1
	c2.7,1,4.2,2.3,5.1,3.1C248.3,144.6,249.5,146.8,250.7,149.1z"/>
<path class="st15" d="M194.1,171.3v-9.2c0-4.7,2.9-8.5,6.4-8.5h43.9c3.5,0,6.4,3.8,6.4,8.5v9.2"/>
<polyline class="st13" points="194.1,176.2 194.1,166.4 250.7,166.4 250.7,176.2 "/>
<path class="st16" d="M194.1,163.7v-5.3c0-2.7,2.9-4.9,6.4-4.9h43.9c3.5,0,6.4,2.2,6.4,4.9v5.3"/>
<path class="st5" d="M248.1,159.2h-51.5c-1.4,0-2.6-1.2-2.6-2.6v-9.9c0-1.4,1.2-2.6,2.6-2.6h51.5c1.4,0,2.6,1.2,2.6,2.6v9.9
	C250.7,158.1,249.6,159.2,248.1,159.2z"/>
<rect x="194.1" y="149.4" class="st17" width="56.7" height="9.8"/>
<path class="st8" d="M169.4,149.1c-18.9,0-37.8,0-56.7,0c1-2,1.9-4,2.9-6c0.2-0.8,0.9-2.8,3.6-4c2.8-1.3,6.2-1,8.3-0.9
	c3.3,0.2,3.5,0.8,6.5,0.9c3.3,0.1,3.4-0.7,6.5-0.7c4.4,0,5.2,1.5,8.7,1.1c2.7-0.3,2.7-1.2,5.4-1.3c2.7-0.1,4.8,0.6,6.1,1.1
	c2.7,1,4.2,2.3,5.1,3.1C167,144.6,168.2,146.8,169.4,149.1z"/>
<path class="st15" d="M112.7,171.3v-9.2c0-4.7,2.9-8.5,6.4-8.5H163c3.5,0,6.4,3.8,6.4,8.5v9.2"/>
<polyline class="st13" points="112.7,176.2 112.7,166.4 169.4,166.4 169.4,176.2 "/>
<path class="st16" d="M112.7,163.7v-5.3c0-2.7,2.9-4.9,6.4-4.9H163c3.5,0,6.4,2.2,6.4,4.9v5.3"/>
<path class="st5" d="M166.8,159.2h-51.5c-1.4,0-2.6-1.2-2.6-2.6v-9.9c0-1.4,1.2-2.6,2.6-2.6h51.5c1.4,0,2.6,1.2,2.6,2.6v9.9
	C169.4,158.1,168.2,159.2,166.8,159.2z"/>
<rect x="112.7" y="149.4" class="st17" width="56.7" height="9.8"/>
<path class="st4" d="M169.4,213.2c-18.9,0-37.8,0-56.7,0c1-2,1.9-4,2.9-6c0.2-0.8,0.9-2.8,3.6-4c2.8-1.3,6.2-1,8.3-0.9
	c3.3,0.2,3.5,0.8,6.5,0.9c3.3,0.1,3.4-0.7,6.5-0.7c4.4,0,5.2,1.5,8.7,1.1c2.7-0.3,2.7-1.2,5.4-1.3c2.7-0.1,4.8,0.6,6.1,1.1
	c2.7,1,4.2,2.3,5.1,3.1C167,208.7,168.2,210.9,169.4,213.2z"/>
<path class="st15" d="M112.7,235.4v-9.2c0-4.7,2.9-8.5,6.4-8.5H163c3.5,0,6.4,3.8,6.4,8.5v9.2"/>
<polyline class="st13" points="112.7,240.3 112.7,230.5 169.4,230.5 169.4,240.3 "/>
<path class="st16" d="M112.7,227.8v-5.3c0-2.7,2.9-4.9,6.4-4.9H163c3.5,0,6.4,2.2,6.4,4.9v5.3"/>
<path class="st5" d="M166.8,223.3h-51.5c-1.4,0-2.6-1.2-2.6-2.6v-9.9c0-1.4,1.2-2.6,2.6-2.6h51.5c1.4,0,2.6,1.2,2.6,2.6v9.9
	C169.4,222.1,168.2,223.3,166.8,223.3z"/>
<rect x="112.7" y="213.5" class="st17" width="56.7" height="9.8"/>
<path class="st4" d="M250.7,213.2c-18.9,0-37.8,0-56.7,0c1-2,1.9-4,2.9-6c0.2-0.8,0.9-2.8,3.6-4c2.8-1.3,6.2-1,8.3-0.9
	c3.3,0.2,3.5,0.8,6.5,0.9c3.3,0.1,3.4-0.7,6.5-0.7c4.4,0,5.2,1.5,8.7,1.1c2.7-0.3,2.7-1.2,5.4-1.3c2.7-0.1,4.8,0.6,6.1,1.1
	c2.7,1,4.2,2.3,5.1,3.1C248.3,208.7,249.5,210.9,250.7,213.2z"/>
<path class="st15" d="M194.1,235.4v-9.2c0-4.7,2.9-8.5,6.4-8.5h43.9c3.5,0,6.4,3.8,6.4,8.5v9.2"/>
<polyline class="st13" points="194.1,240.3 194.1,230.5 250.7,230.5 250.7,240.3 "/>
<path class="st16" d="M194.1,227.8v-5.3c0-2.7,2.9-4.9,6.4-4.9h43.9c3.5,0,6.4,2.2,6.4,4.9v5.3"/>
<path class="st5" d="M248.1,223.3h-51.5c-1.4,0-2.6-1.2-2.6-2.6v-9.9c0-1.4,1.2-2.6,2.6-2.6h51.5c1.4,0,2.6,1.2,2.6,2.6v9.9
	C250.7,222.1,249.6,223.3,248.1,223.3z"/>
<rect x="194.1" y="213.5" class="st17" width="56.7" height="9.8"/>
<path class="st4" d="M169.4,82.5c-18.9,0-37.8,0-56.7,0c1-2,1.9-4,2.9-6c0.2-0.8,0.9-2.8,3.6-4c2.8-1.3,6.2-1,8.3-0.9
	c3.3,0.2,3.5,0.8,6.5,0.9c3.3,0.1,3.4-0.7,6.5-0.7c4.4,0,5.2,1.5,8.7,1.1c2.7-0.3,2.7-1.2,5.4-1.3c2.7-0.1,4.8,0.6,6.1,1.1
	c2.7,1,4.2,2.3,5.1,3.1C167,78,168.2,80.3,169.4,82.5z"/>
<path class="st15" d="M112.7,104.7v-9.2c0-4.7,2.9-8.5,6.4-8.5H163c3.5,0,6.4,3.8,6.4,8.5v9.2"/>
<polyline class="st13" points="112.7,109.6 112.7,99.8 169.4,99.8 169.4,109.6 "/>
<path class="st16" d="M112.7,97.2v-5.3c0-2.7,2.9-4.9,6.4-4.9H163c3.5,0,6.4,2.2,6.4,4.9v5.3"/>
<path class="st5" d="M166.8,92.7h-51.5c-1.4,0-2.6-1.2-2.6-2.6v-9.9c0-1.4,1.2-2.6,2.6-2.6h51.5c1.4,0,2.6,1.2,2.6,2.6v9.9
	C169.4,91.5,168.2,92.7,166.8,92.7z"/>
<rect x="112.7" y="82.9" class="st17" width="56.7" height="9.8"/>
<path class="st16" d="M169.4,82.5c-18.9,0-37.8,0-56.7,0c1-2,1.9-4,2.9-6c0.2-0.8,0.9-2.8,3.6-4c2.8-1.3,6.2-1,8.3-0.9
	c3.3,0.2,3.5,0.8,6.5,0.9c3.3,0.1,3.4-0.7,6.5-0.7c4.4,0,5.2,1.5,8.7,1.1c2.7-0.3,2.7-1.2,5.4-1.3c2.7-0.1,4.8,0.6,6.1,1.1
	c2.7,1,4.2,2.3,5.1,3.1C167,78,168.2,80.3,169.4,82.5z"/>
<path class="st15" d="M112.7,104.7v-9.2c0-4.7,2.9-8.5,6.4-8.5H163c3.5,0,6.4,3.8,6.4,8.5v9.2"/>
<polyline class="st13" points="112.7,109.6 112.7,99.8 169.4,99.8 169.4,109.6 "/>
<path class="st16" d="M112.7,97.2v-5.3c0-2.7,2.9-4.9,6.4-4.9H163c3.5,0,6.4,2.2,6.4,4.9v5.3"/>
<path class="st5" d="M166.8,92.7h-51.5c-1.4,0-2.6-1.2-2.6-2.6v-9.9c0-1.4,1.2-2.6,2.6-2.6h51.5c1.4,0,2.6,1.2,2.6,2.6v9.9
	C169.4,91.5,168.2,92.7,166.8,92.7z"/>
<rect x="112.7" y="82.9" class="st17" width="56.7" height="9.8"/>
<path class="st4" d="M250.7,82.5c-18.9,0-37.8,0-56.7,0c1-2,1.9-4,2.9-6c0.2-0.8,0.9-2.8,3.6-4c2.8-1.3,6.2-1,8.3-0.9
	c3.3,0.2,3.5,0.8,6.5,0.9c3.3,0.1,3.4-0.7,6.5-0.7c4.4,0,5.2,1.5,8.7,1.1c2.7-0.3,2.7-1.2,5.4-1.3c2.7-0.1,4.8,0.6,6.1,1.1
	c2.7,1,4.2,2.3,5.1,3.1C248.3,78,249.5,80.3,250.7,82.5z"/>
<path class="st15" d="M194.1,104.7v-9.2c0-4.7,2.9-8.5,6.4-8.5h43.9c3.5,0,6.4,3.8,6.4,8.5v9.2"/>
<polyline class="st13" points="194.1,109.6 194.1,99.8 250.7,99.8 250.7,109.6 "/>
<path class="st16" d="M194.1,97.2v-5.3c0-2.7,2.9-4.9,6.4-4.9h43.9c3.5,0,6.4,2.2,6.4,4.9v5.3"/>
<path class="st5" d="M248.1,92.7h-51.5c-1.4,0-2.6-1.2-2.6-2.6v-9.9c0-1.4,1.2-2.6,2.6-2.6h51.5c1.4,0,2.6,1.2,2.6,2.6v9.9
	C250.7,91.5,249.6,92.7,248.1,92.7z"/>
<rect x="194.1" y="82.9" class="st17" width="56.7" height="9.8"/>
<path class="st16" d="M250.7,82.5c-18.9,0-37.8,0-56.7,0c1-2,1.9-4,2.9-6c0.2-0.8,0.9-2.8,3.6-4c2.8-1.3,6.2-1,8.3-0.9
	c3.3,0.2,3.5,0.8,6.5,0.9c3.3,0.1,3.4-0.7,6.5-0.7c4.4,0,5.2,1.5,8.7,1.1c2.7-0.3,2.7-1.2,5.4-1.3c2.7-0.1,4.8,0.6,6.1,1.1
	c2.7,1,4.2,2.3,5.1,3.1C248.3,78,249.5,80.3,250.7,82.5z"/>
<path class="st15" d="M194.1,104.7v-9.2c0-4.7,2.9-8.5,6.4-8.5h43.9c3.5,0,6.4,3.8,6.4,8.5v9.2"/>
<polyline class="st13" points="194.1,109.6 194.1,99.8 250.7,99.8 250.7,109.6 "/>
<path class="st16" d="M194.1,97.2v-5.3c0-2.7,2.9-4.9,6.4-4.9h43.9c3.5,0,6.4,2.2,6.4,4.9v5.3"/>
<path class="st5" d="M248.1,92.7h-51.5c-1.4,0-2.6-1.2-2.6-2.6v-9.9c0-1.4,1.2-2.6,2.6-2.6h51.5c1.4,0,2.6,1.2,2.6,2.6v9.9
	C250.7,91.5,249.6,92.7,248.1,92.7z"/>
<rect x="194.1" y="82.9" class="st17" width="56.7" height="9.8"/>
<path class="st18" d="M249.4,257.8H86.9c-6.1,0-11.2-5-11.2-11.2V59c0-6.1,5-11.2,11.2-11.2h162.5c6.1,0,11.2,5,11.2,11.2v187.6
	C260.6,252.8,255.6,257.8,249.4,257.8z"/>
<path class="st19" d="M90.4,94.9v121.1c0,0.5-0.4,1-1,1h-3c-0.5,0-1-0.4-1-1V94.9c0-0.5,0.4-1,1-1h3C90,93.9,90.4,94.4,90.4,94.9z"
	/>
<path class="st20" d="M209.3,160.1L209.3,160.1c-2.1,1.7-5.2,1.4-6.9-0.5l-71.6-79.2c-1.8-2-1.5-4.9,0.6-6.5v0
	c2.1-1.7,5.2-1.4,6.9,0.5l71.6,79.2C211.6,155.5,211.3,158.4,209.3,160.1z"/>
<path class="st20" d="M206.7,221.5L206.7,221.5c-2.1,1.7-5.2,1.4-6.9-0.5l-71.6-79.2c-1.8-2-1.5-4.9,0.6-6.5l0,0
	c2.1-1.7,5.2-1.4,6.9,0.5l71.6,79.2C209,216.9,208.7,219.8,206.7,221.5z"/>
<path class="st19" d="M249.5,359h-13.3c-1,0-1.9-0.9-1.9-1.9v-45.5c0-1,0.9-1.9,1.9-1.9h13.3c1,0,1.9,0.9,1.9,1.9v45.5
	C251.4,358.1,250.5,359,249.5,359z"/>
<path class="st1" d="M207.9,307.8l37.2,26c2,1.4,2.3,3.9,0.8,5.7l-0.4,0.5c-1.5,1.8-4.4,2.1-6.3,0.7l-37.2-26
	c-2-1.4-2.3-3.9-0.8-5.7l0.4-0.5C203.1,306.8,205.9,306.5,207.9,307.8z"/>
<path class="st21" d="M225,313.1h-40.9c-0.5,0-1-0.4-1-1v-5.8c0-0.5,0.4-1,1-1H225c0.5,0,1,0.4,1,1v5.8
	C225.9,312.6,225.5,313.1,225,313.1z"/>
<path class="st19" d="M99,353.8H85.7c-1,0-1.9-0.9-1.9-1.9v-40.3c0-1,0.9-1.9,1.9-1.9H99c1,0,1.9,0.9,1.9,1.9v40.3
	C100.9,352.9,100.1,353.8,99,353.8z"/>
<path class="st19" d="M171.7,353.8h-13.3c-1,0-1.9-0.9-1.9-1.9v-40.3c0-1,0.9-1.9,1.9-1.9h13.3c1,0,1.9,0.9,1.9,1.9v40.3
	C173.6,352.9,172.7,353.8,171.7,353.8z"/>
<path class="st1" d="M60.7,359.4l28.7-35.2c1.5-1.9,4.1-2,5.7-0.4l0.5,0.5c1.6,1.7,1.8,4.5,0.2,6.4l-28.7,35.2
	c-1.5,1.9-4.1,2-5.7,0.4l-0.5-0.5C59.2,364.1,59.1,361.3,60.7,359.4z"/>
<path class="st21" d="M79.7,367.5H38.9c-0.5,0-1-0.4-1-1v-5.8c0-0.5,0.4-1,1-1h40.9c0.5,0,1,0.4,1,1v5.8
	C80.7,367.1,80.3,367.5,79.7,367.5z"/>
<path class="st1" d="M130.1,307.8l37.2,26c2,1.4,2.3,3.9,0.8,5.7l-0.4,0.5c-1.5,1.8-4.4,2.1-6.3,0.7l-37.2-26
	c-2-1.4-2.3-3.9-0.8-5.7l0.4-0.5C125.3,306.8,128.1,306.5,130.1,307.8z"/>
<path class="st21" d="M147.2,313.1h-40.9c-0.5,0-1-0.4-1-1v-5.8c0-0.5,0.4-1,1-1h40.9c0.5,0,1,0.4,1,1v5.8
	C148.1,312.6,147.7,313.1,147.2,313.1z"/>
<path class="st8" d="M124.4,299.3H74.9c-1.4,0-2.5-1.1-2.5-2.5v-31.4c0-1.4,1.1-2.5,2.5-2.5h49.6c1.4,0,2.5,1.1,2.5,2.5v31.4
	C126.9,298.2,125.8,299.3,124.4,299.3z"/>
<path class="st4" d="M119.2,299.3H69.7c-1.4,0-2.5-1.1-2.5-2.5v-31.4c0-1.4,1.1-2.5,2.5-2.5h49.6c1.4,0,2.5,1.1,2.5,2.5v31.4
	C121.7,298.2,120.6,299.3,119.2,299.3z"/>
<text transform="matrix(1.2132 0 0 1 73.7153 277.6768)"><tspan x="0" y="0" class="st8 st22 st23">MODEL </tspan><tspan x="0" y="16.2" class="st8 st22 st23">BAKER</tspan></text>
<path class="st8" d="M194.4,299.3h-49.6c-1.4,0-2.5-1.1-2.5-2.5v-31.4c0-1.4,1.1-2.5,2.5-2.5h49.6c1.4,0,2.5,1.1,2.5,2.5v31.4
	C196.9,298.2,195.8,299.3,194.4,299.3z"/>
<path class="st8" d="M264.5,299.3h-49.6c-1.4,0-2.5-1.1-2.5-2.5v-31.4c0-1.4,1.1-2.5,2.5-2.5h49.6c1.4,0,2.5,1.1,2.5,2.5v31.4
	C266.9,298.2,265.8,299.3,264.5,299.3z"/>
<path class="st4" d="M189.3,299.3h-49.6c-1.4,0-2.5-1.1-2.5-2.5v-31.4c0-1.4,1.1-2.5,2.5-2.5h49.6c1.4,0,2.5,1.1,2.5,2.5v31.4
	C191.7,298.2,190.6,299.3,189.3,299.3z"/>
<path class="st4" d="M259.3,299.3h-49.6c-1.4,0-2.5-1.1-2.5-2.5v-31.4c0-1.4,1.1-2.5,2.5-2.5h49.6c1.4,0,2.5,1.1,2.5,2.5v31.4
	C261.7,298.2,260.6,299.3,259.3,299.3z"/>
<text transform="matrix(1.2132 0 0 1 71.1216 277.6768)"><tspan x="0" y="0" class="st24 st22 st23">MODEL </tspan><tspan x="0" y="16.2" class="st24 st22 st23">BAKER</tspan></text>
</svg>
