<?xml version="1.0" encoding="utf-8"?>
<!-- Generator: Adobe Illustrator 25.2.3, SVG Export Plug-In . SVG Version: 6.00 Build 0)  -->
<svg version="1.1" id="Ebene_1" xmlns="http://www.w3.org/2000/svg" xmlns:xlink="http://www.w3.org/1999/xlink" x="0px" y="0px"
	 viewBox="0 0 425.2 425.2" style="enable-background:new 0 0 425.2 425.2;" xml:space="preserve">
<style type="text/css">
	.st0{fill:#676767;}
	.st1{fill:#48AE4D;}
	.st2{fill:#C1292E;}
	.st3{fill:#B4B4B4;stroke:#676767;stroke-miterlimit:10;}
	.st4{fill:#E7E6E6;}
	.st5{fill:#9A9999;}
	.st6{fill:#F4AFCC;stroke:#F194BB;stroke-width:0.5;stroke-miterlimit:10;}
	.st7{fill:#F8C9DD;}
	.st8{fill:url(#SVGID_1_);stroke:#FFFFFF;stroke-miterlimit:10;}
	.st9{fill:#C69C6C;}
	.st10{fill:#8C633A;}
	.st11{fill:#020203;}
	.st12{fill:#A67D52;}
	.st13{fill:#754D24;}
	.st14{fill:#F2F2F2;}
	.st15{fill:#4E4D4D;}
	.st16{opacity:0.61;fill:#FFFFFF;}
	.st17{opacity:0.56;fill:#FFFFFF;}
	.st18{fill:#B4B4B4;}
	.st19{fill:#CDCCCC;}
	.st20{fill:none;stroke:#020203;stroke-width:0.5;stroke-miterlimit:10;}
	.st21{fill:#808181;}
	.st22{fill:none;}
	.st23{font-family:'Impact';}
	.st24{font-size:15.4539px;}
	.st25{letter-spacing:3;}
</style>
<rect x="191.1" y="273.6" class="st0" width="4.8" height="71.3"/>
<rect x="278.3" y="273.6" class="st0" width="4.8" height="71.3"/>
<path class="st1" d="M17.9,164.3h-2.3c-1.1,0-2-0.9-2-2v-8.7c0-1.1,0.9-2,2-2h2.3c1.1,0,2,0.9,2,2v8.7
	C19.9,163.4,19,164.3,17.9,164.3z"/>
<path class="st2" d="M17.9,180.1h-2.3c-1.1,0-2-0.9-2-2v-8.7c0-1.1,0.9-2,2-2h2.3c1.1,0,2,0.9,2,2v8.7
	C19.9,179.2,19,180.1,17.9,180.1z"/>
<path class="st3" d="M414.4,273.6h-396c-1,0-1.7-0.8-1.7-1.7v-6c0-1,0.8-1.7,1.7-1.7h396c1,0,1.7,0.8,1.7,1.7v6
	C416.2,272.9,415.4,273.6,414.4,273.6z"/>
<circle class="st4" cx="43.7" cy="268.9" r="4.8"/>
<circle class="st5" cx="43.7" cy="268.9" r="3.5"/>
<circle class="st4" cx="107.1" cy="268.9" r="4.8"/>
<circle class="st5" cx="107.1" cy="268.9" r="3.5"/>
<circle class="st4" cx="180" cy="268.9" r="4.8"/>
<circle class="st5" cx="180" cy="268.9" r="3.5"/>
<circle class="st4" cx="252.9" cy="268.9" r="4.8"/>
<circle class="st5" cx="252.9" cy="268.9" r="3.5"/>
<path class="st6" d="M245.8,252.2c0.4-0.7,0.7-1.7,1.5-1.8c0.6-0.1,1.2-0.1,1.8-0.1c0.6,0,1.2,0,1.8-0.1c0.7-0.2,1.3-0.5,1.9-1
	c1.8-1.4,2.8-3.4,3.4-5.6c0.6-2.1,0.7-4.4,0.8-6.6c0.1-1.9,0.2-3.7,0.2-5.6c2.4-0.3,4.8-0.3,7.2,0.1c0.6,4.2,1.4,8.2,2.4,12.3
	c0.1,0.6,0.3,1.2,0.5,1.7c0.6,1.4,1.8,2.4,3.1,3.1c1.3,0.7,2.8,1.1,4.2,1.4c1,0.3,2.2,1.4,2.8,2.2"/>
<path class="st7" d="M256.9,246.1c-0.2,0.4-0.5,0.9-0.4,1.3c0.4,0,0.7-0.4,0.9-0.7c0.7-1.3,1.2-2.7,1.3-4.1c0-0.4,0-1.4-0.7-1.1
	c-0.5,0.2-0.3,0.7-0.2,1C258.2,243.6,257.5,245.1,256.9,246.1z"/>
<path class="st7" d="M263.1,239.9c0.2,0.6,0.5,1.2,1,1.6c0.1,0.1,0.3,0.2,0.5,0.2c0-0.4-0.2-0.8-0.4-1.1c-0.3-0.5-0.5-1.1-0.8-1.7
	c-0.2-0.4-0.3-1.1-0.6-1.3C262.7,238.3,262.8,239.2,263.1,239.9z"/>
<path class="st7" d="M253.9,249.5c0.1-0.1,0.2-0.1,0.4-0.2s0.3,0,0.3,0.1c0,0.1,0,0.1,0,0.2c0,0.4-0.3,0.7-0.7,0.9
	c-0.3,0.2-0.7,0.2-1.1,0.2c-0.4,0-1.7,0.2-1.9-0.1c0.5-0.2,1-0.2,1.5-0.4C253,250.1,253.5,249.8,253.9,249.5z"/>
<path class="st7" d="M270.4,249.5c-0.1-0.1-0.2-0.2-0.2-0.3c0.2,0,0.5,0.1,0.7,0.2c0.4,0.2,0.9,0.4,1.4,0.5c0.2,0,1.1,0.2,0.5,0.5
	c-0.3,0.2-1-0.1-1.3-0.2C271.2,250,270.8,249.8,270.4,249.5z"/>
<path class="st7" d="M263.3,250.5c0.1,0,0.2,0,0.3-0.1c0.1-0.1,0-0.2-0.1-0.3c-0.1-0.1-0.2-0.1-0.3-0.1c-0.3-0.1-0.6-0.2-0.8-0.5
	c0,0,0-0.1-0.1-0.1c-0.1,0-0.2,0-0.2,0s-0.1,0.1-0.1,0.2c-0.1,0.3-0.2,0.6,0.1,0.8C262.4,250.5,263,250.4,263.3,250.5z"/>
<path class="st7" d="M258.4,236.7c0,0.1,0,0.3,0.1,0.3c0.1,0,0.2,0,0.2-0.1c0-0.1,0.1-0.1,0.1-0.2c0.1-0.3,0.1-0.7,0.1-1
	c0-0.3-0.3-1.1-0.4-0.5C258.4,235.7,258.5,236.2,258.4,236.7z"/>
<linearGradient id="SVGID_1_" gradientUnits="userSpaceOnUse" x1="166.9877" y1="175.0472" x2="151.1985" y2="184.1631">
	<stop  offset="0" style="stop-color:#FFFFFF"/>
	<stop  offset="0.1657" style="stop-color:#FDE6DC"/>
	<stop  offset="0.5338" style="stop-color:#F49E83"/>
	<stop  offset="1" style="stop-color:#E52521"/>
</linearGradient>
<path class="st8" d="M163.3,190.4c0,2.2-1.8,4-4,4c-2.2,0-4-1.8-4-4c0-1.3,0.6-2.4,1.6-3.2v-20.6c0-1.3,1.1-2.4,2.4-2.4
	c1.3,0,2.4,1.1,2.4,2.4v20.6C162.7,188,163.3,189.1,163.3,190.4z"/>
<path class="st9" d="M221.8,264.1h-31.3c-1.4,0-2.6-1.2-2.6-2.6V254c0-1.4,1.2-2.6,2.6-2.6h31.3c1.4,0,2.6,1.2,2.6,2.6v7.5
	C224.4,263,223.2,264.1,221.8,264.1z"/>
<path class="st10" d="M278.8,264.1h-34.4c-1.4,0-2.6-1.2-2.6-2.6V254c0-1.4,1.2-2.6,2.6-2.6h34.4c1.4,0,2.6,1.2,2.6,2.6v7.5
	C281.4,263,280.3,264.1,278.8,264.1z"/>
<path class="st11" d="M143,337H41.1c-4.7,0-8.5-3.8-8.5-8.5v-9.9c0-4.7,3.8-8.5,8.5-8.5H143c4.7,0,8.5,3.8,8.5,8.5v9.9
	C151.5,333.2,147.6,337,143,337z"/>
<rect x="187.9" y="255.9" class="st12" width="36.5" height="8.2"/>
<rect x="241.8" y="255.9" class="st13" width="39.6" height="8.2"/>
<path class="st5" d="M170.5,118.1v228.5H16.7V118.1c0-7.8,6.3-14,14-14h125.7C164.2,104,170.5,110.3,170.5,118.1z"/>
<path class="st14" d="M140.3,264.1H43.7c-6.1,0-11.2-5-11.2-11.2V145.3c0-6.1,5-11.2,11.2-11.2h96.6c6.1,0,11.2,5,11.2,11.2V253
	C151.5,259.1,146.4,264.1,140.3,264.1z"/>
<path class="st15" d="M42.1,158.9v82c0,0.6-0.4,1-1,1h-1.2c-0.6,0-1-0.4-1-1v-82c0-0.6,0.4-1,1-1h1.2
	C41.6,157.9,42.1,158.4,42.1,158.9z"/>
<path class="st16" d="M109.9,243.8l-1.8,1.5c-0.8,0.7-2.1,0.6-2.8-0.2l-47.6-55.9c-0.7-0.8-0.6-2.1,0.2-2.8l1.8-1.5
	c0.8-0.7,2.1-0.6,2.8,0.2l47.6,55.9C110.8,241.8,110.7,243.1,109.9,243.8z"/>
<path class="st17" d="M113.1,210.5l-1.8,1.5c-0.8,0.7-2.1,0.6-2.8-0.2l-47.6-55.9c-0.7-0.8-0.6-2.1,0.2-2.8l1.8-1.5
	c0.8-0.7,2.1-0.6,2.8,0.2l47.6,55.9C114,208.5,113.9,209.8,113.1,210.5z"/>
<ellipse class="st18" cx="40.6" cy="285.5" rx="6.5" ry="5.5"/>
<circle class="st19" cx="39.7" cy="285.5" r="5.5"/>
<path class="st20" d="M39.9,290.9c0.1-0.7,0.1-1.2,0.1-0.9"/>
<path class="st20" d="M34.5,285.4c0.7,0,1.2,0.1,0.9,0.1"/>
<path class="st20" d="M35.9,289.5c0.5-0.5,0.8-0.9,0.6-0.7"/>
<path class="st20" d="M35.9,282.1c0.6,0.4,1,0.7,0.7,0.5"/>
<path class="st20" d="M39.3,280.6c0,0.7,0,1.2,0,0.9"/>
<path class="st20" d="M43.4,282.1c-0.5,0.4-0.9,0.7-0.7,0.6"/>
<path class="st20" d="M44.8,285.4c-0.7,0-1.2,0-0.9,0"/>
<path class="st20" d="M43.3,289.5c-0.4-0.5-0.8-0.9-0.6-0.7"/>
<ellipse class="st18" cx="86.6" cy="285.5" rx="6.5" ry="5.5"/>
<circle class="st19" cx="85.7" cy="285.5" r="5.5"/>
<path class="st20" d="M85.9,290.9c0.1-0.7,0.1-1.2,0.1-0.9"/>
<path class="st20" d="M80.5,285.4c0.7,0,1.2,0.1,0.9,0.1"/>
<path class="st20" d="M81.9,289.5c0.5-0.5,0.8-0.9,0.6-0.7"/>
<path class="st20" d="M81.8,282.1c0.6,0.4,1,0.7,0.7,0.5"/>
<path class="st20" d="M85.3,280.6c0,0.7,0,1.2,0,0.9"/>
<path class="st20" d="M89.4,282.1c-0.5,0.4-0.9,0.7-0.7,0.6"/>
<path class="st20" d="M90.7,285.4c-0.7,0-1.2,0-0.9,0"/>
<path class="st20" d="M89.3,289.5c-0.4-0.5-0.8-0.9-0.6-0.7"/>
<ellipse class="st18" cx="132.6" cy="285.5" rx="6.5" ry="5.5"/>
<circle class="st19" cx="131.6" cy="285.5" r="5.5"/>
<path class="st20" d="M131.9,290.9c0.1-0.7,0.1-1.2,0.1-0.9"/>
<path class="st20" d="M126.5,285.4c0.7,0,1.2,0.1,0.9,0.1"/>
<path class="st20" d="M127.9,289.5c0.5-0.5,0.8-0.9,0.6-0.7"/>
<path class="st20" d="M127.8,282.1c0.6,0.4,1,0.7,0.7,0.5"/>
<path class="st20" d="M131.3,280.6c0,0.7,0,1.2,0,0.9"/>
<path class="st20" d="M135.4,282.1c-0.5,0.4-0.9,0.7-0.7,0.6"/>
<path class="st20" d="M136.7,285.4c-0.7,0-1.2,0-0.9,0"/>
<path class="st20" d="M135.3,289.5c-0.4-0.5-0.8-0.9-0.6-0.7"/>
<path class="st21" d="M147.2,332.3H38.4c-3.2,0-5.8-2.6-5.8-5.8v-15.3c0-3.2,2.6-5.8,5.8-5.8h108.8c3.2,0,5.8,2.6,5.8,5.8v15.3
	C153,329.7,150.4,332.3,147.2,332.3z"/>
<path class="st18" d="M24.2,332.3h-2.3c-1.1,0-2-0.9-2-2V125c0-1.1,0.9-2,2-2h2.3c1.1,0,2,0.9,2,2v205.3
	C26.2,331.4,25.3,332.3,24.2,332.3z"/>
<rect x="254.5" y="164.3" class="st18" width="12.7" height="63.4"/>
<path class="st21" d="M270.4,234h-19.1c-0.9,0-1.6-0.7-1.6-1.6v-3.2c0-0.9,0.7-1.6,1.6-1.6h19.1c0.9,0,1.6,0.7,1.6,1.6v3.2
	C271.9,233.3,271.2,234,270.4,234z"/>
<rect x="256.1" y="27.1" class="st19" width="9" height="137.1"/>
<path class="st5" d="M258.3,232.4h-5.9c-0.6,0-1-0.4-1-1v-1.2c0-0.6,0.4-1,1-1h5.9c0.6,0,1,0.4,1,1v1.2
	C259.3,232,258.8,232.4,258.3,232.4z"/>
<path class="st19" d="M258.3,224.5h-1.2c-0.6,0-1-0.4-1-1v-56.7c0-0.6,0.4-1,1-1h1.2c0.6,0,1,0.4,1,1v56.7
	C259.3,224,258.8,224.5,258.3,224.5z"/>
<rect x="35.5" y="115.2" class="st22" width="125.5" height="20"/>
<text transform="matrix(1 0 0 1 38.4253 127.4355)" class="st0 st23 st24 st25">METACONFIGS </text>
<rect x="34.1" y="115.2" class="st22" width="125.5" height="20"/>
<text transform="matrix(1 0 0 1 37.0205 127.4355)" class="st14 st23 st24 st25">METACONFIGS </text>
<text transform="matrix(1 0 0 1 258.9111 54.3379)"><tspan x="0" y="0" class="st0 st23 st24 st25">I</tspan><tspan x="-0.7" y="18.5" class="st0 st23 st24 st25">L</tspan><tspan x="0" y="37.1" class="st0 st23 st24 st25">I</tspan><tspan x="-1.7" y="55.6" class="st0 st23 st24 st25">2</tspan><tspan x="-2" y="74.2" class="st0 st23 st24 st25">D</tspan><tspan x="-2" y="92.7" class="st0 st23 st24 st25">B</tspan></text>
<text transform="matrix(1 0 0 1 257.5059 54.3379)"><tspan x="0" y="0" class="st5 st23 st24 st25">I </tspan><tspan x="-0.7" y="18.5" class="st5 st23 st24 st25">L</tspan><tspan x="0" y="37.1" class="st5 st23 st24 st25">I</tspan><tspan x="-1.7" y="55.6" class="st5 st23 st24 st25">2</tspan><tspan x="-2" y="74.2" class="st5 st23 st24 st25">D</tspan><tspan x="-2" y="92.7" class="st5 st23 st24 st25">B</tspan></text>
</svg>
