<svg xmlns="http://www.w3.org/2000/svg" viewBox="0 0 193.04 65.6"><defs><style>.cls-1{fill:#c69c6c;}.cls-2{fill:#cd7e9b;}.cls-3{fill:#904762;}.cls-4{fill:#c05d82;}.cls-5{font-size:24.87px;fill:#3c3c3b;font-family:BradleyHandITC, Bradley Hand ITC;}.cls-6{fill:#302f30;font-family:Windows-Command-Prompt, Windows Command Prompt;}.cls-7{letter-spacing:0.01em;}</style></defs><g id="Ebene_1" data-name="Ebene 1"><rect class="cls-1" x="157.12" y="13.28" width="33.49" height="8.91" rx="2.6"/><polygon class="cls-2" points="154.41 16.57 193.04 16.57 187.41 34.31 160.05 34.31 154.41 16.57"/><rect class="cls-2" x="157.8" y="7.38" width="28.39" height="6.13" rx="2"/><rect class="cls-2" x="161.59" y="4.31" width="20.82" height="4.6" rx="1.5"/><rect class="cls-2" x="167" y="2.78" width="11.63" height="3.06" rx="1"/><rect class="cls-3" x="163.93" y="7.38" width="24.52" height="6.13" rx="2"/><rect class="cls-3" x="167" y="4.31" width="18.39" height="4.6" rx="1.5"/><rect class="cls-3" x="169.16" y="2.78" width="10.09" height="3.06" rx="1"/><rect class="cls-4" x="162.4" y="7.38" width="21.45" height="6.13" rx="2"/><rect class="cls-4" x="165.46" y="4.31" width="15.32" height="4.6" rx="1.5"/><rect class="cls-4" x="168.53" y="2.78" width="9.19" height="3.06" rx="1"/><path class="cls-4" d="M168.94,6.17c0-.41.42-.75.86-.94s1-.28,1.39-.49a2.08,2.08,0,0,0,1.16-1.35c.17,0,.26.16.33.28a3.57,3.57,0,0,0,1.55,1.15c.59.31,1.19.77,1.19,1.34" transform="translate(0.83 -3.39)"/><polygon class="cls-4" points="154.41 16.57 189.98 16.57 184.79 34.31 159.6 34.31 154.41 16.57"/><polygon class="cls-4" points="154.41 16.57 189.98 16.57 184.79 34.31 159.6 34.31 154.41 16.57"/><polygon class="cls-2" points="154.41 16.57 186.91 16.57 182.17 34.31 159.16 34.31 154.41 16.57"/><polygon class="cls-4" points="157.8 16.57 183.85 16.57 180.05 34.31 161.6 34.31 157.8 16.57"/><polygon class="cls-3" points="160.87 16.57 186.91 16.57 183.11 34.31 164.67 34.31 160.87 16.57"/></g><g id="Ebene_2" data-name="Ebene 2"><text class="cls-5" transform="translate(0 34.31)">Usab<tspan class="cls-6" x="52.41" y="0">ili</tspan><tspan class="cls-7" x="85.05" y="0">tyHub</tspan></text></g></svg>