<?xml version="1.0" encoding="utf-8"?>
<!-- Generator: Adobe Illustrator 25.2.3, SVG Export Plug-In . SVG Version: 6.00 Build 0)  -->
<svg version="1.1" id="Ebene_1" xmlns="http://www.w3.org/2000/svg" xmlns:xlink="http://www.w3.org/1999/xlink" x="0px" y="0px"
	 viewBox="0 0 425.2 425.2" style="enable-background:new 0 0 425.2 425.2;" xml:space="preserve">
<style type="text/css">
	.st0{fill:#B4B4B4;}
	.st1{fill:#FFFFFF;}
	.st2{fill:#9A9999;}
	.st3{fill:#B5AEAC;}
	.st4{clip-path:url(#SVGID_2_);fill:none;stroke:#B5AEAC;stroke-linejoin:round;}
	.st5{fill:#808181;}
	.st6{fill:#C69C6C;}
	.st7{fill:#CFA98F;}
	.st8{fill:#FFF0AE;}
	.st9{fill:#FFE881;}
	.st10{fill:#D6BF58;}
	.st11{fill:#EBDCD1;}
	.st12{fill:#C7B4A0;}
	.st13{fill:#8D7C6B;}
	.st14{fill:#A79586;}
	.st15{font-family:'LakesightPersonalUseOnly';}
	.st16{font-size:7.1266px;}
	.st17{fill:#A67D52;}
	.st18{fill:#4E4D4D;}
	.st19{fill:#CDCCCC;}
	.st20{fill:#B89E8C;}
	.st21{fill:#B89A7D;}
	.st22{fill:#676767;}
	.st23{fill:#8C633A;}
	.st24{font-family:'Impact';}
	.st25{font-size:18.9582px;}
	.st26{letter-spacing:4;}
	.st27{fill:#F2F2F2;}
	.st28{fill:#B4B4B4;stroke:#676767;stroke-miterlimit:10;}
</style>
<g>
	<path class="st0" d="M166.4,327.6H40.7c-6.6,0-12-5.4-12-12V112.1c0-6.6,5.4-12,12-12h125.7c6.6,0,12,5.4,12,12v203.5
		C178.4,322.2,173,327.6,166.4,327.6z"/>
</g>
<rect x="28.7" y="269.2" class="st0" width="149.7" height="83.6"/>
<rect x="46.1" y="310.6" class="st1" width="114.7" height="44.2"/>
<rect x="42.3" y="124.2" class="st2" width="124.5" height="38.1"/>
<path class="st2" d="M162.3,147.1H46.8c-2.5,0-4.5-2-4.5-4.5v-22.5c0-2.5,2-4.5,4.5-4.5h115.5c2.5,0,4.5,2,4.5,4.5v22.5
	C166.8,145.1,164.7,147.1,162.3,147.1z"/>
<rect x="103.5" y="246" class="st3" width="4.1" height="22.3"/>
<g>
	<defs>
		<rect id="SVGID_1_" x="102.6" y="245" width="6.1" height="24.3"/>
	</defs>
	<clipPath id="SVGID_2_">
		<use xlink:href="#SVGID_1_"  style="overflow:visible;"/>
	</clipPath>
	<rect x="103.5" y="246" class="st4" width="4.1" height="22.3"/>
</g>
<rect x="42.3" y="242.8" class="st2" width="124.5" height="38.1"/>
<path class="st2" d="M162.3,265.7H46.8c-2.5,0-4.5-2-4.5-4.5v-22.5c0-2.5,2-4.5,4.5-4.5h115.5c2.5,0,4.5,2,4.5,4.5v22.5
	C166.8,263.7,164.7,265.7,162.3,265.7z"/>
<rect x="42.3" y="182.5" class="st2" width="124.5" height="38.1"/>
<path class="st2" d="M162.3,205.4H46.8c-2.5,0-4.5-2-4.5-4.5v-22.5c0-2.5,2-4.5,4.5-4.5h115.5c2.5,0,4.5,2,4.5,4.5v22.5
	C166.8,203.4,164.7,205.4,162.3,205.4z"/>
<rect x="52" y="310.1" class="st2" width="13.6" height="35"/>
<rect x="141.5" y="310.1" class="st2" width="13.6" height="35"/>
<rect x="42.3" y="212.9" class="st5" width="124.5" height="7.8"/>
<rect x="42.3" y="154.5" class="st5" width="124.5" height="7.8"/>
<rect x="42.3" y="212.9" class="st5" width="124.5" height="7.8"/>
<rect x="42.3" y="273.1" class="st5" width="124.5" height="7.8"/>
<ellipse class="st6" cx="47.2" cy="149.7" rx="4.9" ry="6.8"/>
<ellipse transform="matrix(0.3245 -0.9459 0.9459 0.3245 -64.2488 213.223)" class="st6" cx="117.2" cy="151.6" rx="6.8" ry="4.9"/>
<ellipse transform="matrix(0.9528 -0.3036 0.3036 0.9528 -41.5001 36.227)" class="st6" cx="95.8" cy="151.6" rx="6.8" ry="4.9"/>
<ellipse class="st6" cx="152.2" cy="151.6" rx="4.9" ry="6.8"/>
<ellipse transform="matrix(0.4637 -0.886 0.886 0.4637 -102.7653 133.4106)" class="st6" cx="58.8" cy="151.6" rx="4.9" ry="6.8"/>
<ellipse transform="matrix(0.7443 -0.6679 0.6679 0.7443 -68.3008 124.8074)" class="st6" cx="128.8" cy="151.6" rx="4.9" ry="6.8"/>
<ellipse transform="matrix(0.5645 -0.8254 0.8254 0.5645 -95.1911 126.6537)" class="st7" cx="72.4" cy="153.5" rx="4.9" ry="6.8"/>
<ellipse class="st7" cx="53" cy="153.5" rx="4.9" ry="6.8"/>
<ellipse class="st7" cx="161.9" cy="153.5" rx="4.9" ry="6.8"/>
<ellipse transform="matrix(0.9701 -0.2427 0.2427 0.9701 -33.9911 31.1351)" class="st7" cx="109.4" cy="153.5" rx="4.9" ry="6.8"/>
<rect x="48.2" y="209.6" class="st8" width="12.6" height="9.1"/>
<polygon class="st9" points="73.4,214.2 60.8,218.7 60.8,209.6 73.4,205.1 "/>
<polygon class="st10" points="60.9,209.6 48,209.6 60.5,205.1 73.4,205.1 "/>
<rect x="65.7" y="209.6" class="st8" width="12.6" height="9.1"/>
<polygon class="st9" points="90.9,214.2 78.3,218.7 78.3,209.6 90.9,205.1 "/>
<polygon class="st10" points="78.4,209.6 65.5,209.6 78,205.1 90.9,205.1 "/>
<rect x="57.9" y="199.9" class="st8" width="12.6" height="9.1"/>
<polygon class="st9" points="83.1,204.4 70.5,209 70.5,199.9 83.1,195.4 "/>
<polygon class="st10" points="70.6,199.9 57.8,199.9 70.3,195.3 83.1,195.4 "/>
<rect x="98.8" y="209.6" class="st8" width="12.6" height="9.1"/>
<polygon class="st9" points="124,214.2 111.4,218.7 111.4,209.6 124,205.1 "/>
<polygon class="st10" points="111.5,209.6 98.6,209.6 111.1,205.1 124,205.1 "/>
<rect x="116.3" y="209.6" class="st8" width="12.6" height="9.1"/>
<polygon class="st9" points="141.5,214.2 128.9,218.7 128.9,209.6 141.5,205.1 "/>
<polygon class="st10" points="129,209.6 116.1,209.6 128.6,205.1 141.5,205.1 "/>
<rect x="106.6" y="199.9" class="st8" width="12.6" height="9.1"/>
<polygon class="st9" points="131.7,204.4 119.2,209 119.2,199.9 131.7,195.4 "/>
<polygon class="st10" points="119.2,199.9 106.4,199.9 118.9,195.3 131.7,195.4 "/>
<rect x="137.7" y="209.6" class="st8" width="12.6" height="9.1"/>
<polygon class="st9" points="162.9,214.2 150.3,218.7 150.3,209.6 162.9,205.1 "/>
<polygon class="st10" points="150.3,209.6 137.5,209.6 150,205.1 162.9,205.1 "/>
<rect x="128" y="199.9" class="st8" width="12.6" height="9.1"/>
<polygon class="st9" points="153.1,204.4 140.5,209 140.5,199.9 153.1,195.4 "/>
<polygon class="st10" points="140.6,199.9 127.8,199.9 140.3,195.3 153.1,195.4 "/>
<rect x="48.1" y="252.2" class="st11" width="18.3" height="24.1"/>
<polygon class="st12" points="67.4,276 66.4,276.3 66.4,252.2 67.6,252.2 "/>
<polygon class="st13" points="67.6,252.2 65.3,252.2 65.3,249.4 "/>
<polygon class="st14" points="66.4,252.2 48.1,252.2 49.5,249.6 65.3,249.4 "/>
<text transform="matrix(0.919 0 0 1 49.4889 260.0896)" class="st1 st15 st16">Flour</text>
<rect x="69.5" y="252.2" class="st11" width="18.3" height="24.1"/>
<polygon class="st12" points="88.8,276 87.8,276.3 87.8,252.2 89,252.2 "/>
<polygon class="st13" points="89,252.2 86.6,252.2 86.6,249.4 "/>
<polygon class="st14" points="87.8,252.2 69.5,252.2 70.9,249.6 86.6,249.4 "/>
<text transform="matrix(0.919 0 0 1 70.8805 260.0896)" class="st1 st15 st16">Flour</text>
<rect x="90.9" y="252.2" class="st11" width="18.3" height="24.1"/>
<polygon class="st12" points="110.2,276 109.2,276.3 109.2,252.2 110.4,252.2 "/>
<polygon class="st13" points="110.4,252.2 108,252.2 108,249.4 "/>
<polygon class="st14" points="109.2,252.2 90.9,252.2 92.3,249.6 108,249.4 "/>
<text transform="matrix(0.919 0 0 1 92.2702 260.0896)" class="st1 st15 st16">Flour</text>
<rect x="112.3" y="252.2" class="st11" width="18.3" height="24.1"/>
<polygon class="st12" points="131.6,276 130.6,276.3 130.6,252.2 131.7,252.2 "/>
<polygon class="st13" points="131.7,252.2 129.4,252.2 129.4,249.4 "/>
<polygon class="st14" points="130.6,252.2 112.3,252.2 113.7,249.6 129.4,249.4 "/>
<text transform="matrix(0.919 0 0 1 113.6647 260.0896)" class="st1 st15 st16">Flour</text>
<rect x="133.7" y="252.2" class="st11" width="18.3" height="24.1"/>
<polygon class="st12" points="153,276 152,276.3 152,252.2 153.1,252.2 "/>
<polygon class="st13" points="153.1,252.2 150.8,252.2 150.8,249.4 "/>
<polygon class="st14" points="152,252.2 133.7,252.2 135.1,249.6 150.8,249.4 "/>
<text transform="matrix(0.919 0 0 1 135.0553 260.0896)" class="st1 st15 st16">Flour</text>
<path class="st5" d="M350.3,228.4H247.6c-1.7,0-3.1-1.4-3.1-3.1v-13.2c0-1.7,1.4-3.1,3.1-3.1h102.7c1.7,0,3.1,1.4,3.1,3.1v13.2
	C353.4,227,352.1,228.4,350.3,228.4z"/>
<rect x="252.3" y="228.4" class="st2" width="95.3" height="124.5"/>
<ellipse class="st17" cx="300" cy="60.2" rx="78.8" ry="8.8"/>
<g>
	<polygon class="st0" points="343,209 254.5,209 219.3,57.3 380.7,57.3 	"/>
</g>
<path class="st17" d="M257.7,56c2.2-1.4,5.3,0.2,6.6,2.5s1.6,5,2.6,7.4c0.6,1.6,1.9,3.3,3.6,3.3c1.7,0,3-1.5,3.5-3.1
	s0.4-3.3,0.6-4.9c0.2-1.6,0.9-3.4,2.4-4.1c1.3-0.7,3-0.4,4.1-1.4"/>
<path class="st17" d="M323.8,57.1c0.6,0,1.1,0.4,1.3,0.9c0.3,0.5,0.4,1.1,0.7,1.6c0.3,0.5,0.7,1,1.3,1c0.1,0,0.2,0,0.3,0
	c0.2-0.1,0.3-0.3,0.4-0.5c0.1-0.4,0.1-0.9,0.1-1.3c0.1-0.9,0.8-1.8,1.8-2"/>
<circle class="st18" cx="265.5" cy="251.3" r="8.2"/>
<circle class="st0" cx="265.4" cy="251.5" r="6"/>
<circle class="st1" cx="265.6" cy="251.5" r="2.9"/>
<path class="st5" d="M382.1,220.6h-30c-0.3,0-0.5-0.2-0.5-0.5v-4.8c0-0.3,0.2-0.5,0.5-0.5h30c0.3,0,0.5,0.2,0.5,0.5v4.8
	C382.6,220.4,382.4,220.6,382.1,220.6z"/>
<path class="st19" d="M269.1,204.5l-5.5,1.3c-1.6,0.4-3.2-0.6-3.6-2.2L229.4,73.1c-0.4-1.6,0.6-3.2,2.2-3.6l5.5-1.3
	c1.6-0.4,3.2,0.6,3.6,2.2l30.5,130.5C271.7,202.5,270.7,204.2,269.1,204.5z"/>
<path class="st0" d="M262.5,345.1h-2.8c-0.8,0-1.5-0.7-1.5-1.5v-74.8c0-0.8,0.7-1.5,1.5-1.5h2.8c0.8,0,1.5,0.7,1.5,1.5v74.8
	C264,344.4,263.3,345.1,262.5,345.1z"/>
<path class="st20" d="M269.3,66.6c0.4,0.8,0.6,1.5,0,1.3c-0.8-0.3-1.9-1.9-2.1-2.8c-0.1-0.6,0.3-0.6,0.8-0.1
	C268.5,65.3,269,66,269.3,66.6z"/>
<path class="st21" d="M326.2,58.3c0.3,0.4,0.4,0.8,0.2,0.8c-0.1,0-0.5-0.4-0.7-0.8c-0.2-0.4-0.3-0.6-0.2-0.6
	C325.7,57.6,326,57.9,326.2,58.3z"/>
<path class="st19" d="M35,350.9h-2.8c-0.8,0-1.5-0.7-1.5-1.5V123c0-0.8,0.7-1.5,1.5-1.5H35c0.8,0,1.5,0.7,1.5,1.5v226.5
	C36.5,350.3,35.8,350.9,35,350.9z"/>
<rect x="353.4" y="214.8" class="st18" width="7.8" height="5.8"/>
<path class="st5" d="M381.6,226.5h-3.8c-0.6,0-1-0.4-1-1v-9.7c0-0.6,0.4-1,1-1h3.8c0.6,0,1,0.4,1,1v9.7
	C382.6,226,382.2,226.5,381.6,226.5z"/>
<rect x="374.8" y="224.5" class="st22" width="9.7" height="1.9"/>
<rect x="363.2" y="242" class="st5" width="35" height="11.7"/>
<rect x="363.2" y="247.9" class="st2" width="15.6" height="1.9"/>
<rect x="376.8" y="226.5" class="st17" width="5.8" height="15.6"/>
<path class="st6" d="M379.2,240.1h-0.3c-0.1,0-0.1-0.1-0.1-0.1v-13.4c0-0.1,0.1-0.1,0.1-0.1h0.3c0.1,0,0.1,0.1,0.1,0.1V240
	C379.3,240,379.3,240.1,379.2,240.1z"/>
<path class="st23" d="M381.1,242h-0.3c-0.1,0-0.1-0.1-0.1-0.1v-13.4c0-0.1,0.1-0.1,0.1-0.1h0.3c0.1,0,0.1,0.1,0.1,0.1v13.4
	C381.3,242,381.2,242,381.1,242z"/>
<text transform="matrix(1 0 0 1 51.9791 303.6638)" class="st22 st24 st25 st26">-MODELS-</text>
<text transform="matrix(1 0 0 1 50.2565 303.6638)" class="st27 st24 st25 st26">-MODELS-</text>
<rect x="387.9" y="265.7" class="st22" width="5.7" height="85.9"/>
<path class="st28" d="M987.6,265.7H359.1c-1,0-1.7-0.8-1.7-1.7v-8c0-1,0.8-1.7,1.7-1.7h628.5c1,0,1.7,0.8,1.7,1.7v8
	C989.3,265,988.5,265.7,987.6,265.7z"/>
</svg>
