<svg id="Ebene_1" data-name="Ebene 1" xmlns="http://www.w3.org/2000/svg" viewBox="0 0 410.9 257.54"><defs><style>.cls-1{fill:#ce7f9b;}.cls-1,.cls-4{opacity:0.72;}.cls-12,.cls-16,.cls-2{fill:#b3b3b3;}.cls-3{fill:#b2b2b2;}.cls-4{fill:#706f6f;}.cls-5{fill:#575756;}.cls-6{fill:#4e4d4d;stroke:#fff;}.cls-11,.cls-12,.cls-13,.cls-14,.cls-16,.cls-6,.cls-9{stroke-miterlimit:10;}.cls-7{fill:#924863;}.cls-8{fill:#fff;}.cls-11,.cls-9{fill:none;}.cls-9{stroke:#3c3c3b;}.cls-10,.cls-13{fill:#f5b1d0;}.cls-11{stroke:#5d5d5c;}.cls-12{stroke:#333;}.cls-13{stroke:#4e3740;}.cls-14{fill:#924964;stroke:#924964;stroke-width:0.5px;}.cls-15{fill:#362e32;}.cls-16{stroke:#b3b3b3;stroke-width:0.25px;}.cls-17{fill:#3c3c3b;}.cls-18{fill:#2d2d27;}</style></defs><path class="cls-1" d="M381.18,220.24l7.24,1.21.71,8.18,3.43,1.39,6.29-4.59,5.71,4.8-3.49,7.21,2.18,3.05,7.89-1.09,2.58,7.32-6.53,4.39.07,3.3s7.4,3.11,7.44,3.55-.67,7.56-1.34,7.4-7.58.8-8,.69-1.57,3.16-1.57,3.16l4.82,6.34-5,5.95-7.39-3.77L393.3,281s1.39,8.34,1.22,8.06-7.06,2.6-7.06,2.6-4.43-7-4.95-7a23.63,23.63,0,0,0-2.82.47l-3.81,7.76s-7.46-1.12-7.47-1.67-.59-8.07-.76-8.35a16.28,16.28,0,0,0-2.76-1.23l-6.53,5.2-5.95-5c-.16-.14,4-7.63,4-7.63l-2.17-2.9-8.45.88-2.44-6.92,6.93-4.87-.33-3-7.67-3.6,1.13-7.31,8.55-.67,1-2.81c-2.9-5.41-4.64-6.88-4.64-6.88l4.93-5.87,7.43,3.4,2.71-1.78-1.08-8.22s7.32-2.91,7.56-2.71,4.43,7,4.43,7l3.57-.39Z" transform="translate(-7.12 -54.03)"/><path class="cls-2" d="M31.42,56.39l5.1-1.82,3.4,5,2.72-.34L45.05,54l5.41,1L50.8,61l2.5,1.18L58,58.63l4.3,3.79L59.66,67.6l1.23,2.11s5.9-.66,6.08-.39,2.29,5.12,1.79,5.25-4.6,3.25-4.93,3.34.13,2.6.13,2.6l5.39,2.36-1.09,5.64-6.12.22-1,2.53S65,96.14,64.79,96s-3.62,4.21-3.62,4.21-5.37-2.9-5.71-2.73a25.4,25.4,0,0,0-2.19,1.92l1.37,5.3s-5.72,2.43-5.92,2.08-3.29-5-3.5-5.12a11.94,11.94,0,0,0-2.22.2l-2.35,5.7L35,106.49c-.15,0-.18-6.34-.18-6.34l-2.44-1.1-5.14,3.61-4.06-3.59,2.72-5.63-1.29-1.81-6.24.44L16.48,87l5.28-3.51-.61-2.83a27.21,27.21,0,0,0-5.22-2.11L17,72.94l6-.48,1.11-2.12-3.65-4.92A58.79,58.79,0,0,1,24.38,61c.22,0,5.36,2.91,5.36,2.91l2.17-1.53Z" transform="translate(-7.12 -54.03)"/><path class="cls-3" d="M46.47,224l8.6-.9,3.37,9.06,4.34.51,5.7-7.2,8,3.66-1.7,9.29,3.43,2.78,8.61-3.71L92.06,245l-6,7,1.11,3.73s9.39,1.21,9.57,1.69,1.61,8.8.79,8.82-8.35,3.3-8.9,3.32-.78,4.07-.78,4.07l7.46,5.7-3.81,8.32-9.57-2-2.56,3.53s4.2,9,3.91,8.77-7.19,5.17-7.19,5.17-7.22-6.52-7.82-6.39a43.76,43.76,0,0,0-4.12,2.16l.12,8.72s-9.77,1.62-10,1-3.21-9-3.49-9.25a19.46,19.46,0,0,0-3.51-.53l-5.79,8L33.15,303c-.22-.1,2.11-9.91,2.11-9.91L31.9,290.5l-9.33,3.66-4.95-7.1L24,279.35l-1.32-3.28-9.84-1.68-1-8.66,9.5-3.44.13-4.62a44.15,44.15,0,0,0-7.3-5.24l3.75-8.22,9.51,1.53,2.52-2.87-3.81-9s7.4-5.61,7.74-5.45,7.22,6.52,7.22,6.52L45,233.38Z" transform="translate(-7.12 -54.03)"/><path class="cls-1" d="M365.15,128.45l8.87-.92,3.48,9.34,4.47.52,5.88-7.42,8.25,3.78-1.76,9.58,3.54,2.86,8.88-3.83,5.4,7.73-6.23,7.26,1.15,3.85s9.68,1.24,9.86,1.74,1.67,9.07.83,9.1-8.62,3.4-9.18,3.42-.81,4.2-.81,4.2l7.69,5.87-3.92,8.59-9.88-2L399,195.74s4.32,9.32,4,9-7.42,5.33-7.42,5.33-7.45-6.72-8.06-6.59a44,44,0,0,0-4.25,2.23l.12,9s-10.08,1.67-10.27,1-3.31-9.27-3.6-9.54a20,20,0,0,0-3.62-.55l-6,8.21L351.41,210c-.23-.1,2.18-10.22,2.18-10.22l-3.47-2.7-9.62,3.78-5.1-7.32,6.54-7.95-1.36-3.39-10.14-1.73-1.05-8.92,9.8-3.56.13-4.77c-5.13-4.23-7.53-5.39-7.53-5.39l3.88-8.48,9.8,1.58,2.6-3-3.93-9.27s7.63-5.79,8-5.63,7.44,6.73,7.44,6.73l4.06-1.61Z" transform="translate(-7.12 -54.03)"/><path class="cls-4" d="M209.59,136.29l10.4-6.13,9.55,9.54,5.79-1.87,3.07-12.45h12.27l3.24,12.79,6,1.53,8.78-9.71,11,6.47-3.58,12.45,3.58,4.09s12.62-3.92,13.13-3.41,7.16,10.23,6.13,10.74-8.69,9-9.37,9.37,1.36,5.63,1.36,5.63l12.79,2.9V191l-13.3,3.07-1.19,6s10.57,9,10.06,8.86-6.14,10.74-6.14,10.74-13-4.09-13.64-3.58a39.58,39.58,0,0,0-3.07,3.58l3.41,13.81s-10.57,6.47-11.16,5.79-9.29-9.54-9.8-9.71-4.78,1.36-4.78,1.36l-2.72,13.47H238.57c-.34,0-3.07-13.81-3.07-13.81l-5.79-1.36L220,239.25l-10.4-6.13,3.58-13.47-3.58-3.41-13.46,3.58-6.31-10.4,10.06-9.88-1.71-4.61c-9.37-3.75-13.12-3.75-13.12-3.75V178.57L198,175l1.53-5.12-10.05-9.2s6.13-11.42,6.65-11.42,13,4.09,13,4.09l4.09-4.26Z" transform="translate(-7.12 -54.03)"/><path class="cls-4" d="M66.69,122.35,75.78,117l8.35,8.35,5.07-1.64,2.68-10.88h10.73L105.45,124l5.21,1.34,7.68-8.5L128,122.5l-3.13,10.88L128,137s11-3.43,11.48-3,6.26,8.94,5.37,9.39-7.6,7.9-8.2,8.19,1.19,4.92,1.19,4.92L149,159V170.2l-11.62,2.68-1,5.22s9.24,7.9,8.8,7.75-5.37,9.39-5.37,9.39-11.33-3.58-11.92-3.13a53.72,53.72,0,0,0-3.48,4.49l4.56,9.62s-10,6.76-10.55,6.16-8.12-8.34-8.57-8.49-4.18,1.19-4.18,1.19l-2.38,11.78H92c-.3,0-2.68-12.08-2.68-12.08l-5.07-1.19-8.5,8.79L66.69,207l3.13-11.78-3.13-3-11.78,3.13L49.4,186.3l8.79-8.65-2.2-5.2c-7.61-2-10.77-2.1-10.77-2.1v-11l11.33-3.13,1.34-4.48-8.79-8.05s5.36-10,5.81-10,11.33,3.57,11.33,3.57l3.58-3.72Z" transform="translate(-7.12 -54.03)"/><path class="cls-5" d="M378,221.81l7.24,1.21.71,8.17,3.43,1.4,6.29-4.6,5.72,4.8-3.5,7.22,2.18,3.05L408,242l2.58,7.31L404,253.67l.07,3.31s7.4,3.1,7.44,3.54-.67,7.56-1.34,7.4-7.58.81-8,.7-1.57,3.15-1.57,3.15l4.82,6.35-5,5.95L393,280.3l-2.89,2.31s1.39,8.34,1.22,8.06-7.06,2.6-7.06,2.6-4.43-7-4.94-7a23.83,23.83,0,0,0-2.83.46l-3.81,7.76s-7.46-1.11-7.47-1.66-.59-8.08-.76-8.36a16.28,16.28,0,0,0-2.76-1.23l-6.53,5.2-5.95-5c-.16-.13,4-7.62,4-7.62l-2.17-2.91-8.45.89-2.44-6.93,6.93-4.86-.33-3-7.67-3.6,1.13-7.31,8.55-.67,1-2.8c-2.89-5.42-4.64-6.88-4.64-6.88l4.93-5.87,7.43,3.4,2.72-1.78-1.09-8.22s7.33-2.92,7.56-2.72,4.43,7,4.43,7l3.57-.38Z" transform="translate(-7.12 -54.03)"/><path class="cls-6" d="M205.3,141.52l10.4-6.14,9.55,9.55,5.79-1.88,3.07-12.44h12.27l3.24,12.78,6,1.54,8.78-9.72,11,6.48-3.58,12.44,3.58,4.09s12.62-3.92,13.13-3.41,7.16,10.23,6.13,10.74-8.69,9-9.37,9.38,1.36,5.62,1.36,5.62l12.79,2.9v12.79l-13.3,3.07-1.19,6s10.57,9,10,8.87-6.13,10.74-6.13,10.74-13-4.1-13.64-3.58a39.58,39.58,0,0,0-3.07,3.58l3.41,13.8s-10.57,6.48-11.16,5.8-9.29-9.55-9.8-9.72-4.78,1.37-4.78,1.37l-2.73,13.46H234.28c-.34,0-3.07-13.81-3.07-13.81l-5.79-1.36-9.72,10.06-10.4-6.14,3.58-13.46-3.58-3.41-13.47,3.58-6.3-10.4,10.06-9.89-1.71-4.6c-9.37-3.75-13.13-3.75-13.13-3.75V183.79l13-3.58,1.53-5.11-10.05-9.2s6.13-11.43,6.64-11.43,13,4.1,13,4.1l4.09-4.27Z" transform="translate(-7.12 -54.03)"/><path class="cls-7" d="M41.79,226.76l8.6-.9,3.37,9.06,4.34.51,5.7-7.19,8,3.65-1.7,9.3L73.53,244l8.61-3.71,5.23,7.49-6,7,1.11,3.73s9.38,1.21,9.56,1.69,1.62,8.8.8,8.83-8.35,3.29-8.9,3.31-.78,4.07-.78,4.07l7.46,5.7-3.81,8.33-9.57-2L74.65,292s4.19,9,3.91,8.77-7.19,5.16-7.19,5.16-7.22-6.52-7.82-6.39a43.76,43.76,0,0,0-4.12,2.16l.12,8.72s-9.77,1.62-10,1-3.21-9-3.49-9.25a18.7,18.7,0,0,0-3.51-.54l-5.79,8-8.33-3.81c-.22-.1,2.11-9.9,2.11-9.9l-3.37-2.62-9.32,3.66-5-7.1,6.35-7.7L18,278.84l-9.84-1.68-1-8.65,9.5-3.45.13-4.62a44.15,44.15,0,0,0-7.3-5.24L13.2,247l9.51,1.52,2.52-2.87-3.81-9s7.4-5.61,7.74-5.46,7.22,6.52,7.22,6.52l3.93-1.55Z" transform="translate(-7.12 -54.03)"/><ellipse class="cls-8" cx="42.97" cy="214.69" rx="23.99" ry="24.84"/><circle class="cls-8" cx="232.66" cy="133.88" r="31.27"/><circle class="cls-8" cx="368.11" cy="203.05" r="13.87"/><path class="cls-9" d="M81.2,109.11" transform="translate(-7.12 -54.03)"/><path class="cls-10" d="M51.36,87.59" transform="translate(-7.12 -54.03)"/><path class="cls-11" d="M61.14,126.77l9.1-5.37,8.34,8.35,5.07-1.64,2.69-10.88H97.07l2.83,11.18,5.22,1.34,7.67-8.5,9.62,5.67-3.13,10.88,3.13,3.58s11-3.43,11.48-3,6.26,8.94,5.36,9.39-7.6,7.9-8.19,8.2,1.19,4.92,1.19,4.92l11.18,2.53v11.18L131.8,177.3l-1,5.22s9.24,7.9,8.79,7.75-5.36,9.39-5.36,9.39-11.33-3.57-11.93-3.13a53.66,53.66,0,0,0-3.48,4.5l4.57,9.62s-10,6.75-10.56,6.16-8.12-8.35-8.57-8.5-4.17,1.19-4.17,1.19l-2.39,11.78H86.48c-.29,0-2.68-12.08-2.68-12.08L78.73,208l-8.49,8.8-9.1-5.37,3.13-11.78-3.13-3-11.77,3.13-5.52-9.09,8.8-8.65-2.21-5.2c-7.61-2-10.76-2.1-10.76-2.1v-11L51,160.61l1.34-4.47-8.8-8s5.37-10,5.82-10,11.33,3.58,11.33,3.58L64.27,138Z" transform="translate(-7.12 -54.03)"/><path class="cls-12" d="M29.41,61l5.11-1.82,3.4,5,2.71-.34L43,58.6l5.42,1,.34,5.91,2.5,1.19L56,63.2,60.29,67l-2.63,5.18,1.23,2.11s5.9-.66,6.08-.39,2.29,5.12,1.79,5.26-4.6,3.24-4.93,3.33.12,2.6.12,2.6l5.4,2.36-1.09,5.64-6.12.22-1,2.53s3.9,4.88,3.68,4.76-3.61,4.22-3.61,4.22-5.37-2.91-5.71-2.74A27.11,27.11,0,0,0,51.27,104l1.36,5.29s-5.71,2.43-5.92,2.08-3.28-5-3.49-5.12a11.94,11.94,0,0,0-2.22.2l-2.35,5.7L33,111.07c-.15,0-.18-6.35-.18-6.35l-2.44-1.1-5.14,3.61-4.06-3.59L23.91,98,22.62,96.2l-6.24.44-1.9-5.12L19.76,88l-.61-2.83a27.21,27.21,0,0,0-5.22-2.11L15,77.51,21,77l1.11-2.12L18.47,70a59.08,59.08,0,0,1,3.9-4.47c.23,0,5.37,2.9,5.37,2.9l2.17-1.53Z" transform="translate(-7.12 -54.03)"/><circle class="cls-8" cx="32.85" cy="30.43" r="14.83"/><path class="cls-13" d="M97.1,164.83C78.19,138.21,60,111.12,41.12,84.5" transform="translate(-7.12 -54.03)"/><path class="cls-13" d="M86.7,171.72C70.86,142.42,54.33,113.8,38.49,84.5" transform="translate(-7.12 -54.03)"/><path class="cls-14" d="M236.18,188.93,39,83.28" transform="translate(-7.12 -54.03)"/><path class="cls-14" d="M240.26,184,41.12,83.28" transform="translate(-7.12 -54.03)"/><path class="cls-7" d="M360.43,131.75l8.87-.93,3.48,9.35,4.47.52,5.89-7.42,8.24,3.77-1.75,9.59,3.54,2.86,8.88-3.83,5.4,7.73-6.23,7.26,1.15,3.85s9.68,1.24,9.86,1.74,1.67,9.07.82,9.1-8.61,3.4-9.17,3.42-.82,4.19-.82,4.19l7.7,5.88-3.93,8.59-9.87-2L394.32,199s4.33,9.31,4,9-7.42,5.33-7.42,5.33-7.45-6.73-8.07-6.59a45.25,45.25,0,0,0-4.25,2.23l.13,9s-10.08,1.67-10.27,1-3.31-9.26-3.6-9.53a19.2,19.2,0,0,0-3.62-.56l-6,8.21-8.59-3.92c-.23-.11,2.18-10.22,2.18-10.22l-3.48-2.7-9.61,3.77-5.1-7.32,6.54-7.94-1.36-3.39-10.15-1.73-1-8.93,9.8-3.55.13-4.77c-5.13-4.23-7.53-5.4-7.53-5.4l3.87-8.47,9.81,1.57,2.6-3L339.43,142s7.63-5.79,8-5.63,7.44,6.72,7.44,6.72l4.06-1.6Z" transform="translate(-7.12 -54.03)"/><ellipse class="cls-8" cx="361.88" cy="120.99" rx="29.52" ry="30.56"/><circle class="cls-7" cx="361.88" cy="121.62" r="4.83"/><circle class="cls-15" cx="32.43" cy="29.4" r="2.63"/><circle class="cls-7" cx="42.97" cy="215.3" r="4.68"/><path class="cls-16" d="M97.1,164.83" transform="translate(-7.12 -54.03)"/><line class="cls-16" x1="42.97" y1="210.61" x2="84.43" y2="113.82"/><line class="cls-16" x1="44.24" y1="216.92" x2="91.61" y2="113.82"/><line class="cls-17" x1="364.68" y1="116.79" x2="232.78" y2="130.85"/><line class="cls-17" x1="361.88" y1="125.36" x2="232.62" y2="136.34"/><circle class="cls-18" cx="232.78" cy="133.7" r="3.91"/><circle class="cls-18" cx="84.43" cy="113.82" r="7.18"/></svg>