<?xml version="1.0" encoding="utf-8"?>
<!-- Generator: Adobe Illustrator 25.2.3, SVG Export Plug-In . SVG Version: 6.00 Build 0)  -->
<svg version="1.1" id="Ebene_1" xmlns="http://www.w3.org/2000/svg" xmlns:xlink="http://www.w3.org/1999/xlink" x="0px" y="0px"
	 viewBox="0 0 425.2 425.2" style="enable-background:new 0 0 425.2 425.2;" xml:space="preserve">
<style type="text/css">
	.st0{clip-path:url(#XMLID_3_);fill:#FFFFFF;stroke:#5C5C5B;stroke-miterlimit:10;}
	.st1{fill:#914863;}
	.st2{fill:#FFFFFF;}
	.st3{fill:#B3B3B3;stroke:#3D3C3D;stroke-miterlimit:10;}
	.st4{fill:#2D2D27;}
	.st5{fill:none;stroke:#3C3C3B;stroke-miterlimit:10;}
	.st6{fill:#F5B1D0;}
	.st7{fill:#EE7AAA;}
	.st8{fill:#F5B1D0;stroke:#4E3740;stroke-miterlimit:10;}
	.st9{fill:#B3B3B3;}
</style>
<g>
	<defs>
		<polygon id="XMLID_1_" points="89.3,163.6 95.2,157.6 102,163.6 111.6,160.6 110.4,148.4 118.7,146.9 121.9,155.2 131.7,155.2 
			135.1,148.4 142.7,148.9 142.7,161.3 148.8,163.6 158.3,158.1 163.5,163.6 158.1,171.6 161.7,180.3 174,180.3 174,187.3 
			165.7,190.5 164.9,199.5 174,203.8 172.8,213.3 162,213.3 158.1,219.2 163.7,227.7 158.1,233.7 149.3,227.7 142.4,232 
			142.9,243.2 134.8,243.2 131.7,234.5 121.1,234.7 118.2,243.2 111.3,243.2 110.9,229.5 107.4,228.2 104.2,227 94.5,233.5 
			89.3,227.5 96.7,218.5 91.5,212 80,211.5 78.8,204.3 89.1,200 87.9,192 78.8,187.8 80.5,179.6 89.3,180.6 93.7,171.3 		"/>
	</defs>
	<use xlink:href="#XMLID_1_"  style="overflow:visible;fill:#FFFFFF;"/>
	<clipPath id="XMLID_3_">
		<use xlink:href="#XMLID_1_"  style="overflow:visible;"/>
	</clipPath>
	<ellipse class="st0" cx="-18.5" cy="193.1" rx="31.8" ry="33.2"/>
	<use xlink:href="#XMLID_1_"  style="overflow:visible;fill:none;stroke:#5C5C5B;stroke-miterlimit:10;"/>
</g>
<path class="st1" d="M59.2,262l5.5-3.5l5.5,3.5l6.3-1.7v-10H82l4.6,5.9h7.6l4.6-8.1l5.1,1.7V262h5.9l6.2-4.5l6,4.5l-5.1,8.3l2.9,6.5
	l8.2-1.5l1.9,7.6l-5.9,3.9v7.8l5.9,3.5l-1.3,8.1l-8-2l-2.9,6.5l4.2,7.8l-3.4,4.4l-8.8-4.4l-6.3,4.4l1.3,9.6c0,0-6.7,0.9-7.6,0
	c-0.8-0.9-2.5-6.1-2.5-6.1l-7.6-1.3l-2.5,8.7l-8.2-3.3l0.6-8.5l-6.1-3.5L63,323l-3.8-4.4l5-6.6l-4.6-7.1l-7.6,1.7l-1.7-7.2l8-5.2
	l-0.8-7.8l-8.8-3.1L50,275l8.4,0.4l3.4-7.8L59.2,262z"/>
<ellipse class="st2" cx="89.3" cy="290.5" rx="28.4" ry="29.4"/>
<path class="st3" d="M60.6,99.3l3.3-2.1l3.3,2.1l3.8-1v-6h3.3l2.8,3.5h4.6l2.8-4.8l3.1,1v7.3h3.6l3.8-2.7l3.6,2.7l-3.1,4.9l1.8,3.9
	l5-0.9l1.1,4.5l-3.6,2.3v4.7l3.6,2.1l-0.8,4.8l-4.8-1.2l-1.8,3.9l2.5,4.7l-2,2.6l-5.3-2.6l-3.8,2.6l0.8,5.7c0,0-4.1,0.5-4.6,0
	s-1.5-3.6-1.5-3.6l-4.6-0.8l-1.5,5.2l-5-1.9l0.4-5.1l-3.7-2.1l-4.7,2.6l-2.3-2.6l3-3.9l-2.8-4.2l-4.6,1l-1-4.3l4.8-3.1l-0.5-4.7
	l-5.3-1.8l0.8-4.9l5.1,0.3l2-4.7L60.6,99.3z"/>
<circle class="st2" cx="78.3" cy="116.1" r="13.9"/>
<path class="st4" d="M214.4,176.1l5.5-3.5l5.5,3.5l6.3-1.7v-10h5.5l4.6,5.9h7.6l4.6-8.1l5.1,1.7v12.2h5.9l6.2-4.5l6,4.5l-5.1,8.3
	l2.9,6.5l8.2-1.5l1.9,7.6l-5.9,3.9v7.8l5.9,3.5l-1.3,8.1l-8-2l-2.9,6.5l4.2,7.8l-3.4,4.4l-8.8-4.4l-6.3,4.4l1.3,9.6
	c0,0-6.7,0.9-7.6,0c-0.8-0.9-2.5-6.1-2.5-6.1l-7.6-1.3l-2.5,8.7l-8.2-3.3l0.6-8.5l-6.1-3.5l-7.8,4.4l-3.8-4.4l5-6.6l-4.6-7.1
	l-7.6,1.7l-1.7-7.2l8-5.2l-0.8-7.8l-8.8-3.1l1.3-8.3l8.4,0.4l3.4-7.8L214.4,176.1z"/>
<circle class="st2" cx="244.4" cy="205" r="22.6"/>
<path class="st4" d="M324,236.1l3.3-2.1l3.3,2.1l3.8-1.1v-6.1h3.3l2.8,3.6h4.6l2.8-4.9l3.1,1.1v7.4h3.6l3.8-2.7l3.6,2.7l-3.1,5
	l1.8,4l5-0.9l1.2,4.6l-3.6,2.4v4.8l3.6,2.1l-0.8,4.9l-4.9-1.2l-1.8,4l2.6,4.8l-2.1,2.7l-5.4-2.7l-3.8,2.7l0.8,5.8c0,0-4.1,0.5-4.6,0
	s-1.5-3.7-1.5-3.7l-4.6-0.8l-1.5,5.3l-5-2l0.4-5.2l-3.7-2.1l-4.7,2.7l-2.3-2.7l3-4l-2.8-4.3l-4.6,1.1l-1-4.4l4.9-3.2l-0.5-4.8
	l-5.4-1.9l0.8-5l5.1,0.3l2.1-4.8L324,236.1z"/>
<circle class="st2" cx="342.3" cy="253.7" r="13.7"/>
<path class="st1" d="M325.9,140.7l5.5-3.5l5.5,3.5l6.3-1.7v-10h5.5l4.6,5.9h7.6l4.6-8.1l5.1,1.7v12.2h5.9l6.2-4.5l6,4.5l-5.1,8.3
	l2.9,6.5l8.2-1.5l1.9,7.6l-5.9,3.9v7.8l5.9,3.5l-1.3,8.1l-8-2l-2.9,6.5l4.2,7.8l-3.4,4.4l-8.8-4.4l-6.3,4.4l1.3,9.6
	c0,0-6.7,0.9-7.6,0c-0.8-0.9-2.5-6.1-2.5-6.1l-7.6-1.3l-2.5,8.7l-8.2-3.3l0.6-8.5l-6.1-3.5l-7.8,4.4l-3.8-4.4l5-6.6l-4.6-7.1
	l-7.6,1.7l-1.7-7.2l8-5.2l-0.8-7.8l-8.8-3.1l1.3-8.3l8.4,0.4l3.4-7.8L325.9,140.7z"/>
<ellipse class="st2" cx="356" cy="169.2" rx="28.4" ry="29.4"/>
<path class="st5" d="M117,139.2"/>
<path class="st6" d="M89,119.1"/>
<path class="st6" d="M244.4,210.8c-55.8-30.7-111.7-61.5-167.5-92.2"/>
<path class="st6" d="M245.2,207.6C189.1,176.3,133,145,76.9,113.7"/>
<circle class="st7" cx="90.1" cy="291.2" r="4.4"/>
<path class="st8" d="M121.5,198.6c-14.8-27.5-29.7-54.9-44.5-82.4"/>
<path class="st8" d="M130,191c-16.9-25-33.7-49.9-50.6-74.9"/>
<circle class="st4" cx="126.7" cy="194.3" r="6.7"/>
<circle class="st6" cx="77.9" cy="115.2" r="2.5"/>
<circle class="st4" cx="243.7" cy="206.6" r="4.2"/>
<path class="st9" d="M247.8,206.6C194.9,235.8,141.9,265,89,294.2"/>
<path class="st9" d="M244.5,204.2c-51.5,27.5-103,55.1-154.4,82.6"/>
</svg>
