<?xml version="1.0" encoding="UTF-8"?>


<svg xmlns="http://www.w3.org/2000/svg" viewBox="0 0 138.24 46.98"><defs><style>.cls-1{fill:#c69c6c;}.cls-2{fill:#cd7e9b;}.cls-3{fill:#904762;}.cls-4{fill:#c05d82;}.cls-5{font-size:17.81px;fill:#3c3c3b;font-family:BradleyHandITC, Bradley Hand ITC;}.cls-6{fill:#302f30;font-family:Windows-Command-Prompt, Windows Command Prompt;}.cls-7{letter-spacing:0em;}</style></defs><g id="Ebene_1" data-name="Ebene 1"><rect class="cls-1" x="112.52" y="9.51" width="23.98" height="6.38" rx="2.6"/><polygon class="cls-2" points="110.58 11.87 138.24 11.87 134.2 24.57 114.61 24.57 110.58 11.87"/><rect class="cls-2" x="113" y="5.28" width="20.33" height="4.39" rx="2"/><rect class="cls-2" x="115.71" y="3.09" width="14.91" height="3.29" rx="1.5"/><rect class="cls-2" x="119.59" y="1.99" width="8.33" height="2.19" rx="1"/><rect class="cls-3" x="117.39" y="5.28" width="17.56" height="4.39" rx="2"/><rect class="cls-3" x="119.59" y="3.09" width="13.17" height="3.29" rx="1.5"/><rect class="cls-3" x="121.14" y="1.99" width="7.23" height="2.19" rx="1"/><rect class="cls-4" x="116.3" y="5.28" width="15.36" height="4.39" rx="2"/><rect class="cls-4" x="118.49" y="3.09" width="10.97" height="3.29" rx="1.5"/><rect class="cls-4" x="120.68" y="1.99" width="6.58" height="2.19" rx="1"/><path class="cls-4" d="M123.06,6.26c0-.3.3-.54.62-.67s.69-.21,1-.36a1.45,1.45,0,0,0,.83-1c.12,0,.18.11.23.2a2.63,2.63,0,0,0,1.11.82c.43.23.86.55.85,1" transform="translate(-1.49 -4.27)"/><polygon class="cls-4" points="110.58 11.87 136.05 11.87 132.33 24.57 114.29 24.57 110.58 11.87"/><polygon class="cls-4" points="110.58 11.87 136.05 11.87 132.33 24.57 114.29 24.57 110.58 11.87"/><polygon class="cls-2" points="110.58 11.87 133.85 11.87 130.45 24.57 113.97 24.57 110.58 11.87"/><polygon class="cls-4" points="113 11.87 131.66 11.87 128.93 24.57 115.73 24.57 113 11.87"/><polygon class="cls-3" points="115.2 11.87 133.85 11.87 131.13 24.57 117.92 24.57 115.2 11.87"/></g><g id="Ebene_2" data-name="Ebene 2"><text class="cls-5" transform="translate(0 24.57)">Usab<tspan class="cls-6" x="37.53" y="0">ili</tspan><tspan class="cls-7" x="60.9" y="0">tyHub</tspan></text></g></svg>