<?xml version="1.0" encoding="utf-8"?>
<!-- Generator: Adobe Illustrator 25.2.3, SVG Export Plug-In . SVG Version: 6.00 Build 0)  -->
<svg version="1.1" id="Ebene_1" xmlns="http://www.w3.org/2000/svg" xmlns:xlink="http://www.w3.org/1999/xlink" x="0px" y="0px"
	 viewBox="0 0 425.2 425.2" style="enable-background:new 0 0 425.2 425.2;" xml:space="preserve">
<style type="text/css">
	.st0{fill:#B3B3B3;}
	.st1{opacity:0.72;fill:#706F6F;}
	.st2{fill:none;stroke:#3C3C3B;stroke-miterlimit:10;}
	.st3{fill:#F5B1D0;}
	.st4{fill:none;stroke:#5D5D5C;stroke-miterlimit:10;}
	.st5{fill:#B3B3B3;stroke:#333333;stroke-miterlimit:10;}
	.st6{fill:#FFFFFF;}
	.st7{fill:#F5B1D0;stroke:#4E3740;stroke-miterlimit:10;}
	.st8{fill:#362E32;}
	.st9{fill:#B3B3B3;stroke:#B3B3B3;stroke-width:0.25;stroke-miterlimit:10;}
	.st10{fill:#2D2D27;}
</style>
<path class="st0" d="M127.8,106l5.1-1.8l3.4,5l2.7-0.3l2.4-5.2l5.4,1l0.3,5.9l2.5,1.2l4.7-3.5l4.3,3.8l-2.6,5.2l1.2,2.1
	c0,0,5.9-0.7,6.1-0.4c0.2,0.3,2.3,5.1,1.8,5.3c-0.5,0.1-4.6,3.2-4.9,3.3c-0.3,0.1,0.1,2.6,0.1,2.6l5.4,2.4l-1.1,5.6l-6.1,0.2l-1,2.5
	c0,0,3.9,4.9,3.7,4.8c-0.2-0.1-3.6,4.2-3.6,4.2s-5.4-2.9-5.7-2.7c-0.3,0.2-2.2,1.9-2.2,1.9l1.4,5.3c0,0-5.7,2.4-5.9,2.1
	c-0.2-0.4-3.3-5-3.5-5.1c-0.2-0.1-2.2,0.2-2.2,0.2l-2.3,5.7c0,0-5.5-1.1-5.6-1.1s-0.2-6.3-0.2-6.3l-2.4-1.1l-5.1,3.6l-4.1-3.6
	l2.7-5.6l-1.3-1.8l-6.2,0.4l-1.9-5.1l5.3-3.5l-0.6-2.8c-3.6-1.8-5.2-2.1-5.2-2.1l1.1-5.6l6-0.5l1.1-2.1l-3.7-4.9
	c0,0,3.7-4.5,3.9-4.5c0.2,0,5.4,2.9,5.4,2.9l2.2-1.5L127.8,106z"/>
<path class="st1" d="M163.1,172l9.1-5.4l8.3,8.3l5.1-1.6l2.7-10.9H199l2.8,11.2l5.2,1.3l7.7-8.5l9.6,5.7l-3.1,10.9l3.1,3.6
	c0,0,11-3.4,11.5-3c0.4,0.4,6.3,8.9,5.4,9.4c-0.9,0.4-7.6,7.9-8.2,8.2c-0.6,0.3,1.2,4.9,1.2,4.9l11.2,2.5v11.2l-11.6,2.7l-1,5.2
	c0,0,9.2,7.9,8.8,7.8s-5.4,9.4-5.4,9.4s-11.3-3.6-11.9-3.1c-0.6,0.4-3.5,4.5-3.5,4.5l4.6,9.6c0,0-10,6.8-10.6,6.2
	c-0.5-0.6-8.1-8.3-8.6-8.5c-0.4-0.1-4.2,1.2-4.2,1.2l-2.4,11.8c0,0-10.9,0-11.2,0c-0.3,0-2.7-12.1-2.7-12.1l-5.1-1.2l-8.5,8.8
	l-9.1-5.4l3.1-11.8l-3.1-3l-11.8,3.1l-5.5-9.1l8.8-8.6l-2.2-5.2c-7.6-2-10.8-2.1-10.8-2.1v-11l11.3-3.1l1.3-4.5l-8.8-8
	c0,0,5.4-10,5.8-10c0.4,0,11.3,3.6,11.3,3.6l3.6-3.7L163.1,172z"/>
<path class="st2" d="M177.6,158.7"/>
<path class="st3" d="M147.8,137.2"/>
<path class="st4" d="M157.5,176.4l9.1-5.4l8.3,8.3l5.1-1.6l2.7-10.9h10.7l2.8,11.2l5.2,1.3l7.7-8.5l9.6,5.7l-3.1,10.9l3.1,3.6
	c0,0,11-3.4,11.5-3c0.4,0.4,6.3,8.9,5.4,9.4c-0.9,0.4-7.6,7.9-8.2,8.2c-0.6,0.3,1.2,4.9,1.2,4.9l11.2,2.5v11.2l-11.6,2.7l-1,5.2
	c0,0,9.2,7.9,8.8,7.8s-5.4,9.4-5.4,9.4s-11.3-3.6-11.9-3.1c-0.6,0.4-3.5,4.5-3.5,4.5l4.6,9.6c0,0-10,6.8-10.6,6.2
	c-0.5-0.6-8.1-8.3-8.6-8.5c-0.4-0.1-4.2,1.2-4.2,1.2l-2.4,11.8c0,0-10.9,0-11.2,0c-0.3,0-2.7-12.1-2.7-12.1l-5.1-1.2l-8.5,8.8
	l-9.1-5.4l3.1-11.8l-3.1-3l-11.8,3.1l-5.5-9.1l8.8-8.6l-2.2-5.2c-7.6-2-10.8-2.1-10.8-2.1v-11l11.3-3.1l1.3-4.5l-8.8-8
	c0,0,5.4-10,5.8-10c0.4,0,11.3,3.6,11.3,3.6l3.6-3.7L157.5,176.4z"/>
<path class="st5" d="M125.8,110.6l5.1-1.8l3.4,5l2.7-0.3l2.4-5.2l5.4,1l0.3,5.9l2.5,1.2l4.7-3.5l4.3,3.8l-2.6,5.2l1.2,2.1
	c0,0,5.9-0.7,6.1-0.4c0.2,0.3,2.3,5.1,1.8,5.3c-0.5,0.1-4.6,3.2-4.9,3.3c-0.3,0.1,0.1,2.6,0.1,2.6l5.4,2.4l-1.1,5.6l-6.1,0.2l-1,2.5
	c0,0,3.9,4.9,3.7,4.8s-3.6,4.2-3.6,4.2s-5.4-2.9-5.7-2.7c-0.3,0.2-2.2,1.9-2.2,1.9l1.4,5.3c0,0-5.7,2.4-5.9,2.1
	c-0.2-0.4-3.3-5-3.5-5.1s-2.2,0.2-2.2,0.2l-2.3,5.7c0,0-5.5-1.1-5.6-1.1c-0.2,0-0.2-6.3-0.2-6.3l-2.4-1.1l-5.1,3.6l-4.1-3.6l2.7-5.6
	l-1.3-1.8l-6.2,0.4l-1.9-5.1l5.3-3.5l-0.6-2.8c-3.6-1.8-5.2-2.1-5.2-2.1l1.1-5.6l6-0.5l1.1-2.1l-3.7-4.9c0,0,3.7-4.5,3.9-4.5
	s5.4,2.9,5.4,2.9l2.2-1.5L125.8,110.6z"/>
<circle class="st6" cx="136.4" cy="134.1" r="14.8"/>
<path class="st7" d="M193.5,214.4c-18.9-26.6-37.1-53.7-56-80.3"/>
<path class="st7" d="M183.1,221.3c-15.8-29.3-32.4-57.9-48.2-87.2"/>
<circle class="st8" cx="136" cy="133" r="2.6"/>
<path class="st9" d="M193.5,214.4"/>
<circle class="st10" cx="188" cy="217.5" r="7.2"/>
</svg>
